<svg width="89" height="89" viewBox="0 0 89 89" fill="none" xmlns="http://www.w3.org/2000/svg">
<g clip-path="url(#clip0_1157_61410)">
<path d="M15.1119 59.4165L14.4935 61.1064C12.3094 67.1106 10.8632 73.3932 10.195 79.7752L10.1152 80.5804L9.30737 80.6699C6.46495 80.9681 3.58264 81.1172 0.75019 81.1172L0.75019 79.1191C3.25351 79.1191 5.78676 78.9998 8.30006 78.7612C8.9583 73.085 10.205 67.4784 12.0401 62.0905C8.32998 62.7566 4.54009 63.1045 0.760167 63.1045L0.760167 61.1064C4.99886 61.1064 9.23756 60.669 13.3665 59.8042L15.1318 59.4363L15.1119 59.4165Z" fill="#182941"/>
<path d="M61.8365 0.00275627L63.8411 0.00275645C63.8411 3.79019 63.502 7.57763 62.8338 11.2855C68.2294 9.45644 73.8245 8.2039 79.5094 7.54781C79.7487 5.0328 79.8684 2.49789 79.8684 0.00275785L81.873 0.00275803C81.873 2.83588 81.7234 5.71871 81.4242 8.56177L81.3445 9.36697L80.5366 9.45644C74.1536 10.1225 67.8704 11.5738 61.8664 13.7509L60.1709 14.3672L60.5399 12.6077C61.4076 8.48224 61.8465 4.23753 61.8465 0.00275628L61.8365 0.00275627Z" fill="#182941"/>
<path d="M43.815 -0.000367963L45.8197 -0.000367787C45.8197 8.98609 43.1767 17.3761 38.6189 24.4142C45.1913 19.235 52.6016 15.05 60.6501 12.0578C61.438 8.10137 61.8469 4.04553 61.8469 -0.000366386L63.8516 -0.000366211C63.8516 4.37358 63.4028 8.74752 62.5052 13.0121L62.3955 13.5589L61.8669 13.7477C39.7957 21.7699 22.5318 39.0271 14.5131 61.1056L14.3236 61.6325L13.7751 61.7418C9.51646 62.6365 5.13814 63.0937 0.759815 63.0937L0.759815 61.0956C4.80902 61.0956 8.86819 60.698 12.8177 59.9028C15.7997 51.8607 19.9885 44.4448 25.1647 37.874C18.1235 42.4269 9.74585 45.0711 0.749841 45.0711L0.749842 43.073C24.4965 43.073 43.815 23.7581 43.815 0.00957695L43.815 -0.000367963Z" fill="#182941"/>
<path d="M25.783 0.000948109L27.7876 0.000948284C27.7876 14.9121 15.66 27.0399 0.749735 27.0399L0.749735 25.0418C14.5529 25.0418 25.783 13.8087 25.783 0.000948109ZM43.8049 0.000949684L45.8096 0.00094986C45.8096 24.8529 25.5935 45.0625 0.749733 45.0625L0.749733 43.0644C24.4964 43.0644 43.8149 23.7495 43.8149 0.000949685L43.8049 0.000949684Z" fill="#182941"/>
<path d="M7.76149 0.000143208L9.76615 0.000143383C9.76615 4.97053 5.72692 9.01643 0.750188 9.01643L0.750189 7.01834C4.61987 7.01834 7.76149 3.87705 7.76149 0.0100862L7.76149 0.000143208ZM25.7834 0.000144783L27.7881 0.000144958C27.7881 14.9113 15.6604 27.0391 0.750187 27.0391L0.750187 25.041C14.5534 25.041 25.7834 13.8079 25.7834 0.000144783Z" fill="#182941"/>
<path d="M7.76097 -0.000660118L9.76563 -0.000659943C9.76563 4.96973 5.72639 9.01562 0.749666 9.01562L0.749666 7.01753C4.61935 7.01753 7.76097 3.87625 7.76097 0.00928289L7.76097 -0.000660118Z" fill="#182941"/>
<path d="M88.875 7.00648L88.875 9.00458C86.1024 9.00458 83.2999 9.15368 80.5273 9.44196C74.1443 10.108 67.861 11.5593 61.8571 13.7364C39.7859 21.7586 22.5219 39.0158 14.5033 61.0942C12.3191 67.0985 10.873 73.381 10.2048 79.763C9.91556 82.5365 9.76595 85.3497 9.76595 88.1133L7.7613 88.1133C7.7613 85.2802 7.9109 82.3973 8.21011 79.5543C8.89827 73.0132 10.3843 66.5716 12.6183 60.4083C20.8464 37.7732 38.5392 20.0786 61.1689 11.8576C67.3325 9.62089 73.7653 8.13972 80.3178 7.45381C83.1602 7.15559 86.0426 7.00648 88.875 7.00648ZM88.875 25.0291L88.875 27.0272C55.1948 27.0272 27.7879 54.4339 27.7879 88.1133L25.7832 88.1133C25.7832 53.3206 54.0878 25.0192 88.875 25.0192L88.875 25.0291Z" fill="#182941"/>
<path d="M88.875 25.0309L88.875 27.029C55.1948 27.029 27.7879 54.4357 27.7879 88.1151L25.7832 88.1151C25.7833 53.3323 54.0878 25.0209 88.875 25.0209L88.875 25.0309ZM88.875 43.0535L88.875 45.0516C65.1283 45.0615 45.8098 64.3765 45.8098 88.125L43.8052 88.125C43.8152 63.2731 64.0313 43.0634 88.875 43.0634L88.875 43.0535Z" fill="#182941"/>
<path d="M88.875 43.0634L88.875 45.0615C65.1283 45.0615 45.8098 64.3765 45.8098 88.125L43.8052 88.125C43.8152 63.2731 64.0313 43.0634 88.875 43.0634ZM88.875 61.0861L88.875 63.0842C75.0718 63.0941 63.8418 74.3173 63.8418 88.125L61.8371 88.125C61.8371 73.2138 73.9648 61.0861 88.875 61.0861Z" fill="#182941"/>
<path d="M88.875 61.0861L88.875 63.0842C75.0718 63.0941 63.8418 74.3173 63.8418 88.125L61.8371 88.125C61.8371 73.2138 73.9648 61.0861 88.875 61.0861ZM88.875 79.1087L88.875 81.1068C85.0053 81.1168 81.8637 84.258 81.8637 88.125L79.859 88.125C79.859 83.1546 83.9082 79.1087 88.875 79.1087Z" fill="#182941"/>
<path d="M88.875 79.1087L88.875 81.1068C85.0053 81.1168 81.8637 84.258 81.8637 88.125L79.859 88.125C79.859 83.1546 83.9082 79.1087 88.875 79.1087Z" fill="#182941"/>
</g>
<defs>
<clipPath id="clip0_1157_61410">
<rect width="88.125" height="88.125" fill="white" transform="translate(88.875 88.125) rotate(-180)"/>
</clipPath>
</defs>
</svg>
