<svg width="245" height="432" viewBox="0 0 245 432" fill="none" xmlns="http://www.w3.org/2000/svg">
<g clip-path="url(#clip0_1049_59093)">
<path d="M188.182 288.003H184.906C184.906 281.815 185.46 275.626 186.552 269.567C177.736 272.556 168.593 274.602 159.304 275.674C158.913 279.784 158.717 283.926 158.717 288.003H155.441C155.441 283.374 155.686 278.663 156.175 274.018L156.305 272.702L157.625 272.556C168.055 271.467 178.322 269.096 188.133 265.538L190.904 264.531L190.301 267.406C188.883 274.148 188.166 281.084 188.166 288.003H188.182Z" fill="#314D71"/>
<path d="M217.629 288.001H214.354C214.354 273.317 218.672 259.607 226.12 248.106C215.38 256.569 203.272 263.408 190.12 268.297C188.833 274.762 188.164 281.39 188.164 288.001H184.889C184.889 280.854 185.622 273.706 187.089 266.738L187.268 265.844L188.132 265.536C224.197 252.427 252.407 224.228 265.51 188.151L265.819 187.29L266.716 187.111C273.675 185.65 280.829 184.902 287.983 184.902V188.167C281.367 188.167 274.734 188.817 268.28 190.117C263.407 203.258 256.563 215.375 248.105 226.112C259.61 218.673 273.3 214.352 288 214.352V217.617C249.197 217.617 217.629 249.178 217.629 287.985V288.001Z" fill="#314D71"/>
<path d="M247.095 288.004H243.82C243.82 263.638 263.637 243.821 288.001 243.821V247.086C265.446 247.086 247.095 265.441 247.095 288.004ZM217.647 288.004H214.371C214.371 247.394 247.405 214.371 288.001 214.371V217.636C249.198 217.636 217.63 249.197 217.63 288.004H217.647Z" fill="#314D71"/>
<path d="M276.545 288.003H273.269C273.269 279.881 279.869 273.27 288.001 273.27V276.535C281.678 276.535 276.545 281.668 276.545 287.987V288.003ZM247.096 288.003H243.82C243.82 263.638 263.637 243.82 288.001 243.82V247.085C265.446 247.085 247.096 265.441 247.096 288.003Z" fill="#314D71"/>
<path d="M144 276.555V273.29C148.531 273.29 153.11 273.047 157.641 272.576C168.071 271.487 178.338 269.116 188.148 265.558C224.214 252.45 252.424 224.251 265.526 188.174C269.096 178.363 271.459 168.097 272.55 157.668C273.023 153.136 273.268 148.539 273.268 144.023H276.543C276.543 148.653 276.299 153.364 275.81 158.009C274.685 168.698 272.257 179.223 268.607 189.295C255.162 226.281 226.251 255.195 189.273 268.629C179.201 272.283 168.69 274.704 157.983 275.824C153.338 276.312 148.628 276.555 144 276.555ZM144 247.106V243.841C199.035 243.841 243.819 199.057 243.819 144.023H247.095C247.095 200.876 200.844 247.122 144 247.122V247.106Z" fill="#314D71"/>
<path d="M144 247.098V243.834C199.035 243.834 243.819 199.05 243.819 144.016H247.095C247.095 200.853 200.844 247.115 144 247.115V247.098ZM144 217.649V214.384C182.803 214.368 214.37 182.806 214.37 144H217.646C217.63 184.609 184.596 217.632 144 217.632V217.649Z" fill="#314D71"/>
<path d="M144 217.632V214.368C182.803 214.368 214.37 182.806 214.37 144H217.646C217.63 184.609 184.596 217.632 144 217.632ZM144 188.183V184.918C166.555 184.902 184.905 166.562 184.905 144H188.181C188.181 168.365 168.364 188.183 144 188.183Z" fill="#314D71"/>
<path d="M144 188.183V184.918C166.555 184.902 184.905 166.562 184.905 144H188.181C188.181 168.365 168.364 188.183 144 188.183ZM144 158.733V155.468C150.323 155.452 155.457 150.319 155.457 144H158.732C158.732 152.122 152.116 158.733 144 158.733Z" fill="#314D71"/>
<path d="M144 158.733V155.468C150.323 155.452 155.457 150.319 155.457 144H158.732C158.732 152.122 152.116 158.733 144 158.733Z" fill="#314D71"/>
</g>
<g clip-path="url(#clip1_1049_59093)">
<path d="M188.182 144.003H184.906C184.906 137.815 185.46 131.626 186.552 125.567C177.736 128.556 168.593 130.602 159.304 131.674C158.913 135.784 158.717 139.926 158.717 144.003H155.441C155.441 139.374 155.686 134.663 156.175 130.018L156.305 128.702L157.625 128.556C168.055 127.467 178.322 125.096 188.133 121.538L190.904 120.531L190.301 123.406C188.883 130.148 188.166 137.084 188.166 144.003H188.182Z" fill="#314D71"/>
<path d="M217.629 144.001H214.354C214.354 129.317 218.672 115.607 226.12 104.106C215.38 112.569 203.272 119.408 190.12 124.297C188.833 130.762 188.164 137.39 188.164 144.001H184.889C184.889 136.854 185.622 129.706 187.089 122.738L187.268 121.844L188.132 121.536C224.197 108.427 252.407 80.2282 265.51 44.1511L265.819 43.2902L266.716 43.1115C273.675 41.6496 280.829 40.9023 287.983 40.9023V44.1673C281.367 44.1673 274.734 44.8171 268.28 46.1166C263.407 59.2577 256.563 71.3754 248.105 82.1125C259.61 74.6729 273.3 70.3521 288 70.3521V73.6171C249.197 73.6171 217.629 105.178 217.629 143.985V144.001Z" fill="#314D71"/>
<path d="M247.095 144.004H243.82C243.82 119.638 263.637 99.8208 288.001 99.8208V103.086C265.446 103.086 247.095 121.441 247.095 144.004ZM217.647 144.004H214.371C214.371 103.394 247.405 70.3711 288.001 70.3711V73.6361C249.198 73.6361 217.63 105.197 217.63 144.004H217.647Z" fill="#314D71"/>
<path d="M276.545 144.003H273.269C273.269 135.881 279.869 129.27 288.001 129.27V132.535C281.678 132.535 276.545 137.668 276.545 143.987V144.003ZM247.096 144.003H243.82C243.82 119.638 263.637 99.8203 288.001 99.8203V103.085C265.446 103.085 247.096 121.441 247.096 144.003Z" fill="#314D71"/>
</g>
<g clip-path="url(#clip2_1049_59093)">
<path d="M120.533 190.913L121.543 188.152C125.112 178.34 127.475 168.074 128.567 157.646L128.697 156.33L130.017 156.184C134.662 155.697 139.372 155.453 144 155.453V158.718C139.91 158.718 135.77 158.913 131.663 159.303C130.588 168.578 128.551 177.739 125.552 186.543C131.615 185.455 137.807 184.887 143.984 184.887V188.152C137.058 188.152 130.132 188.866 123.385 190.28L120.5 190.881L120.533 190.913Z" fill="#2A96C5"/>
<path d="M44.1801 287.996H40.9044C40.9044 281.807 41.4585 275.618 42.5504 269.559C33.7337 272.548 24.5911 274.595 15.3018 275.667C14.9107 279.776 14.7151 283.918 14.7151 287.996H11.4395C11.4395 283.366 11.6839 278.655 12.1728 274.01L12.3032 272.694L13.6232 272.548C24.0533 271.459 34.3204 269.088 44.1312 265.531L46.9017 264.523L46.2987 267.399C44.8808 274.14 44.1638 281.076 44.1638 287.996H44.1801Z" fill="#2A96C5"/>
<path d="M73.6293 288.005H70.3536C70.3536 273.32 74.6723 259.611 82.12 248.11C71.3803 256.573 59.2716 263.412 46.12 268.301C44.8325 274.766 44.1644 281.394 44.1644 288.005H40.8887C40.8887 280.858 41.622 273.71 43.0888 266.742L43.268 265.848L44.1318 265.54C80.197 252.431 108.407 224.232 121.51 188.155L121.819 187.294L122.716 187.115C129.675 185.653 136.829 184.906 143.983 184.906V188.171C137.367 188.171 130.734 188.821 124.28 190.12C119.407 203.262 112.563 215.379 104.105 226.116C115.61 218.677 129.3 214.356 144 214.356V217.621C105.197 217.621 73.6293 249.182 73.6293 287.988V288.005Z" fill="#2A96C5"/>
<path d="M103.095 288.004H99.8197C99.8197 263.638 119.637 243.821 144.001 243.821V247.086C121.446 247.086 103.095 265.441 103.095 288.004ZM73.6468 288.004H70.3711C70.3711 247.394 103.405 214.371 144.001 214.371V217.636C105.198 217.636 73.6305 249.197 73.6305 288.004H73.6468Z" fill="#2A96C5"/>
<path d="M132.545 287.999H129.269C129.269 279.877 135.869 273.266 144.001 273.266V276.531C137.678 276.531 132.545 281.664 132.545 287.983V287.999ZM103.096 287.999H99.8203C99.8203 263.634 119.637 243.816 144.001 243.816V247.081C121.446 247.081 103.096 265.437 103.096 287.999Z" fill="#2A96C5"/>
<path d="M132.543 287.995H129.268C129.268 279.873 135.868 273.262 144 273.262V276.527C137.677 276.527 132.543 281.66 132.543 287.978V287.995Z" fill="#2A96C5"/>
<path d="M0 276.555V273.29C4.53056 273.29 9.11 273.047 13.6406 272.576C24.0706 271.487 34.3377 269.116 44.1485 265.558C80.2137 252.45 108.424 224.251 121.526 188.174C125.096 178.363 127.459 168.097 128.55 157.668C129.023 153.136 129.268 148.539 129.268 144.023H132.543C132.543 148.653 132.299 153.364 131.81 158.009C130.685 168.698 128.257 179.223 124.607 189.295C111.162 226.281 82.2508 255.195 45.273 268.629C35.2014 272.283 24.6899 274.704 13.9828 275.824C9.33816 276.312 4.62834 276.555 0 276.555ZM0 247.106V243.841C55.0349 243.841 99.8189 199.057 99.8189 144.023H103.095C103.095 200.876 56.8438 247.122 0 247.122V247.106Z" fill="#2A96C5"/>
<path d="M0 247.098V243.834C55.0349 243.834 99.8189 199.05 99.8189 144.016H103.095C103.095 200.853 56.8438 247.115 0 247.115V247.098ZM0 217.649V214.384C38.8031 214.368 70.3703 182.806 70.3703 144H73.646C73.6297 184.609 40.5957 217.632 0 217.632V217.649Z" fill="#2A96C5"/>
<path d="M0 217.632V214.368C38.8031 214.368 70.3703 182.806 70.3703 144H73.646C73.6297 184.609 40.5957 217.632 0 217.632ZM0 188.183V184.918C22.555 184.902 40.9054 166.562 40.9054 144H44.1811C44.1811 168.365 24.364 188.183 0 188.183Z" fill="#2A96C5"/>
<path d="M0 188.183V184.918C22.555 184.902 40.9054 166.562 40.9054 144H44.1811C44.1811 168.365 24.364 188.183 0 188.183ZM0 158.733V155.468C6.32322 155.452 11.4568 150.319 11.4568 144H14.7325C14.7325 152.122 8.11589 158.733 0 158.733Z" fill="#2A96C5"/>
<path d="M0 158.733V155.468C6.32322 155.452 11.4568 150.319 11.4568 144H14.7325C14.7325 152.122 8.11589 158.733 0 158.733Z" fill="#2A96C5"/>
</g>
<g clip-path="url(#clip3_1049_59093)">
<path d="M188.182 432.003H184.906C184.906 425.815 185.46 419.626 186.552 413.567C177.736 416.556 168.593 418.602 159.304 419.674C158.913 423.784 158.717 427.926 158.717 432.003H155.441C155.441 427.374 155.686 422.663 156.175 418.018L156.305 416.702L157.625 416.556C168.055 415.467 178.322 413.096 188.133 409.538L190.904 408.531L190.301 411.406C188.883 418.148 188.166 425.084 188.166 432.003H188.182Z" fill="#2A96C5"/>
<path d="M217.629 432.005H214.354C214.354 417.32 218.672 403.611 226.12 392.11C215.38 400.573 203.272 407.412 190.12 412.301C188.833 418.766 188.164 425.394 188.164 432.005H184.889C184.889 424.858 185.622 417.71 187.089 410.742L187.268 409.848L188.132 409.54C224.197 396.431 252.407 368.232 265.51 332.155L265.819 331.294L266.716 331.115C273.675 329.653 280.829 328.906 287.983 328.906V332.171C281.367 332.171 274.734 332.821 268.28 334.12C263.407 347.262 256.563 359.379 248.105 370.116C259.61 362.677 273.3 358.356 288 358.356V361.621C249.197 361.621 217.629 393.182 217.629 431.988V432.005Z" fill="#2A96C5"/>
<path d="M247.095 432.004H243.82C243.82 407.638 263.637 387.821 288.001 387.821V391.086C265.446 391.086 247.095 409.441 247.095 432.004ZM217.647 432.004H214.371C214.371 391.394 247.405 358.371 288.001 358.371V361.636C249.198 361.636 217.63 393.197 217.63 432.004H217.647Z" fill="#2A96C5"/>
<path d="M276.545 431.999H273.269C273.269 423.877 279.869 417.266 288.001 417.266V420.531C281.678 420.531 276.545 425.664 276.545 431.983V431.999ZM247.096 431.999H243.82C243.82 407.634 263.637 387.816 288.001 387.816V391.081C265.446 391.081 247.096 409.437 247.096 431.999Z" fill="#2A96C5"/>
<path d="M144 420.555V417.29C148.531 417.29 153.11 417.047 157.641 416.576C168.071 415.487 178.338 413.116 188.148 409.558C224.214 396.45 252.424 368.251 265.526 332.174C269.096 322.363 271.459 312.097 272.55 301.668C273.023 297.136 273.268 292.539 273.268 288.023H276.543C276.543 292.653 276.299 297.364 275.81 302.009C274.685 312.698 272.257 323.223 268.607 333.295C255.162 370.281 226.251 399.195 189.273 412.629C179.201 416.283 168.69 418.704 157.983 419.824C153.338 420.312 148.628 420.555 144 420.555ZM144 391.106V387.841C199.035 387.841 243.819 343.057 243.819 288.023H247.095C247.095 344.876 200.844 391.122 144 391.122V391.106Z" fill="#2A96C5"/>
<path d="M144 391.098V387.834C199.035 387.834 243.819 343.05 243.819 288.016H247.095C247.095 344.853 200.844 391.115 144 391.115V391.098ZM144 361.649V358.384C182.803 358.368 214.37 326.806 214.37 288H217.646C217.63 328.609 184.596 361.632 144 361.632V361.649Z" fill="#2A96C5"/>
<path d="M144 361.632V358.368C182.803 358.368 214.37 326.806 214.37 288H217.646C217.63 328.609 184.596 361.632 144 361.632ZM144 332.183V328.918C166.555 328.902 184.905 310.562 184.905 288H188.181C188.181 312.365 168.364 332.183 144 332.183Z" fill="#2A96C5"/>
<path d="M144 332.183V328.918C166.555 328.902 184.905 310.562 184.905 288H188.181C188.181 312.365 168.364 332.183 144 332.183ZM144 302.733V299.468C150.323 299.452 155.457 294.319 155.457 288H158.732C158.732 296.122 152.116 302.733 144 302.733Z" fill="#2A96C5"/>
<path d="M144 302.733V299.468C150.323 299.452 155.457 294.319 155.457 288H158.732C158.732 296.122 152.116 302.733 144 302.733Z" fill="#2A96C5"/>
</g>
<defs>
<clipPath id="clip0_1049_59093">
<rect width="144" height="144" fill="white" transform="translate(144 144)"/>
</clipPath>
<clipPath id="clip1_1049_59093">
<rect width="144" height="144" fill="white" transform="translate(144)"/>
</clipPath>
<clipPath id="clip2_1049_59093">
<rect width="144" height="144" fill="white" transform="translate(0 144)"/>
</clipPath>
<clipPath id="clip3_1049_59093">
<rect width="144" height="144" fill="white" transform="translate(144 288)"/>
</clipPath>
</defs>
</svg>
