<svg width="106" height="198" viewBox="0 0 106 198" fill="none" xmlns="http://www.w3.org/2000/svg">
<g opacity="0.3">
<g clip-path="url(#clip0_1550_76951)">
<path d="M66.6249 152.252L66.6249 150.751C69.4668 150.751 72.3087 151.005 75.091 151.505C73.7185 147.464 72.7787 143.274 72.2864 139.016C70.3992 138.837 68.4971 138.747 66.6249 138.747L66.6249 137.246C68.7508 137.246 70.9139 137.358 73.0472 137.582L73.6514 137.642L73.7185 138.247C74.2183 143.027 75.3073 147.733 76.9409 152.23L77.4033 153.5L76.0831 153.223C72.9875 152.573 69.8025 152.245 66.6249 152.245L66.6249 152.252Z" fill="#BFBFBF"/>
<path d="M66.6258 165.748L66.6258 164.247C73.3688 164.247 79.6643 166.226 84.9454 169.64C81.0592 164.718 77.9189 159.168 75.6737 153.14C72.705 152.55 69.6616 152.244 66.6258 152.244L66.6258 150.742C69.9078 150.742 73.1898 151.078 76.3898 151.751L76.8 151.833L76.9417 152.229C82.9612 168.758 95.9102 181.688 112.477 187.694L112.872 187.835L112.954 188.246C113.626 191.436 113.969 194.715 113.969 197.994L112.469 197.994C112.469 194.961 112.171 191.921 111.574 188.963C105.54 186.73 99.9755 183.593 95.045 179.716C98.4613 184.99 100.445 191.264 100.445 198.001L98.9461 198.001C98.9461 180.217 84.4531 165.748 66.6333 165.748L66.6258 165.748Z" fill="#BFBFBF"/>
<path d="M66.6254 179.249L66.6254 177.747C77.814 177.747 86.9141 186.83 86.9141 197.997L85.4149 197.997C85.4149 187.659 76.9861 179.249 66.6254 179.249ZM66.6254 165.751L66.6254 164.25C85.2731 164.25 100.437 179.391 100.437 197.997L98.9382 197.997C98.9382 180.212 84.4452 165.744 66.6254 165.744L66.6254 165.751Z" fill="#BFBFBF"/>
<path d="M66.6253 192.749L66.6253 191.247C70.3548 191.247 73.3907 194.272 73.3907 198L71.8914 198C71.8914 195.102 69.5343 192.749 66.6327 192.749L66.6253 192.749ZM66.6253 179.251L66.6253 177.75C77.8139 177.75 86.9141 186.833 86.9141 198L85.4148 198C85.4148 187.662 76.986 179.251 66.6253 179.251Z" fill="#BFBFBF"/>
<path d="M66.6242 192.747L66.6242 191.246C70.3538 191.246 73.3896 194.271 73.3896 197.998L71.8904 197.998C71.8904 195.1 69.5333 192.747 66.6317 192.747L66.6242 192.747Z" fill="#BFBFBF"/>
<path d="M71.8843 132L73.3836 132C73.3836 134.077 73.4955 136.175 73.7118 138.252C74.2115 143.032 75.3006 147.738 76.9341 152.235C82.9536 168.765 95.9026 181.694 112.469 187.7C116.975 189.335 121.689 190.419 126.478 190.919C128.559 191.136 130.67 191.248 132.743 191.248L132.743 192.749C130.617 192.749 128.454 192.637 126.321 192.413C121.413 191.897 116.579 190.785 111.955 189.111C94.9702 182.949 81.693 169.698 75.5243 152.75C73.846 148.134 72.7346 143.316 72.22 138.409C71.9962 136.28 71.8843 134.121 71.8843 132ZM85.4077 132L86.9069 132C86.9069 157.224 107.472 177.75 132.743 177.75L132.743 179.252C106.636 179.252 85.4002 158.053 85.4002 132L85.4077 132Z" fill="#BFBFBF"/>
<path d="M85.407 132L86.9063 132C86.9063 157.224 107.471 177.75 132.743 177.75L132.743 179.252C106.643 179.252 85.3996 158.053 85.3996 132L85.407 132ZM98.9304 132L100.43 132C100.437 149.785 114.93 164.253 132.75 164.253L132.75 165.754C114.102 165.747 98.9379 150.606 98.9379 132L98.9304 132Z" fill="#BFBFBF"/>
<path d="M98.9379 132L100.437 132C100.437 149.785 114.93 164.253 132.75 164.253L132.75 165.754C114.102 165.747 98.9379 150.606 98.9379 132ZM112.461 132L113.961 132C113.968 142.338 122.389 150.748 132.75 150.748L132.75 152.25C121.561 152.25 112.461 143.167 112.461 132Z" fill="#BFBFBF"/>
</g>
<g clip-path="url(#clip1_1550_76951)">
<path d="M77.4011 44.4975L76.9371 45.7632C75.2982 50.26 74.213 54.9652 73.7116 59.7449L73.6518 60.348L73.0456 60.415C70.9128 60.6383 68.75 60.75 66.6247 60.75L66.6247 59.2536C68.5031 59.2536 70.4039 59.1642 72.2898 58.9855C72.7837 54.7344 73.7191 50.5354 75.0961 46.5003C72.3122 46.9991 69.4684 47.2596 66.6322 47.2596L66.6322 45.7632C69.8127 45.7632 72.9932 45.4356 76.0914 44.7879L77.416 44.5124L77.4011 44.4975Z" fill="#BFBFBF"/>
<path d="M98.9391 0.000441192L100.443 0.000441323C100.443 6.73073 98.4602 13.0143 95.0402 18.2854C99.9718 14.4065 105.532 11.2722 111.571 9.03124C112.163 6.06813 112.469 3.03056 112.469 0.000442374L113.974 0.000442505C113.974 3.27625 113.637 6.55205 112.963 9.74596L112.881 10.1554L112.484 10.2969C95.9232 16.305 82.9691 29.2295 76.9523 45.7649L76.8101 46.1595L76.3985 46.2414C73.203 46.9114 69.9177 47.2539 66.6324 47.2539L66.6324 45.7575C69.6708 45.7575 72.7166 45.4597 75.6801 44.8641C77.9177 38.841 81.0608 33.2871 84.9448 28.3659C79.6614 31.7757 73.3752 33.7561 66.625 33.7561L66.625 32.2597C84.4434 32.2597 98.9391 17.794 98.9391 0.00788748L98.9391 0.000441192Z" fill="#BFBFBF"/>
<path d="M85.4085 0.00177252L86.9127 0.00177265C86.9127 11.1693 77.8127 20.2522 66.6247 20.2522L66.6247 18.7557C76.982 18.7558 85.4085 10.3429 85.4085 0.00177252ZM98.9313 0.0017737L100.436 0.00177383C100.436 18.6143 85.2663 33.75 66.6247 33.75L66.6247 32.2535C84.4431 32.2536 98.9388 17.7879 98.9388 0.0017737L98.9313 0.0017737Z" fill="#BFBFBF"/>
<path d="M71.886 -0.000424744L73.3902 -0.000424612C73.3902 3.72208 70.3594 6.7522 66.6251 6.7522L66.6251 5.25576C69.5287 5.25576 71.886 2.90313 71.886 0.00702345L71.886 -0.000424744ZM85.4089 -0.000423563L86.9131 -0.000423431C86.9131 11.1671 77.813 20.25 66.6251 20.25L66.6251 18.7536C76.9824 18.7536 85.4089 10.3407 85.4089 -0.000423563Z" fill="#BFBFBF"/>
<path d="M71.8854 0.00128447L73.3896 0.0012846C73.3896 3.72379 70.3588 6.75391 66.6245 6.75391L66.6245 5.25746C69.5281 5.25746 71.8854 2.90484 71.8854 0.00873123L71.8854 0.00128447Z" fill="#BFBFBF"/>
<path d="M132.75 5.24837L132.75 6.74482C130.67 6.74482 128.567 6.85649 126.486 7.07239C121.697 7.57121 116.982 8.65818 112.477 10.2886C95.9158 16.2968 82.9617 29.2213 76.9449 45.7566C75.306 50.2534 74.2208 54.9587 73.7194 59.7384C73.5024 61.8155 73.3902 63.9225 73.3902 65.9922L71.886 65.9922C71.886 63.8704 71.9982 61.7113 72.2227 59.582C72.7391 54.6832 73.8541 49.8589 75.5305 45.2429C81.7044 28.2907 94.9803 15.0385 111.961 8.88153C116.585 7.2064 121.412 6.09709 126.329 5.58339C128.462 5.36004 130.625 5.24837 132.75 5.24837ZM132.75 18.7462L132.75 20.2426C107.478 20.2426 86.913 40.7685 86.913 65.9922L85.4088 65.9922C85.4088 39.9347 106.647 18.7387 132.75 18.7387L132.75 18.7462Z" fill="#BFBFBF"/>
<path d="M132.75 18.7465L132.75 20.243C107.478 20.243 86.913 40.7689 86.913 65.9926L85.4088 65.9926C85.4088 39.9425 106.647 18.7391 132.75 18.7391L132.75 18.7465ZM132.75 32.2443L132.75 33.7408C114.932 33.7482 100.436 48.2139 100.436 66L98.9317 66C98.9391 47.3875 114.108 32.2518 132.75 32.2518L132.75 32.2443Z" fill="#BFBFBF"/>
<path d="M132.75 32.2518L132.75 33.7482C114.932 33.7482 100.436 48.2139 100.436 66L98.9317 66C98.9391 47.3875 114.108 32.2518 132.75 32.2518ZM132.75 45.7496L132.75 47.246C122.393 47.2535 113.966 55.6589 113.966 66L112.462 66C112.462 54.8325 121.562 45.7496 132.75 45.7496Z" fill="#BFBFBF"/>
</g>
<g clip-path="url(#clip2_1550_76951)">
<path d="M45.083 121.98L46.351 122.443C50.8563 124.079 55.5705 125.162 60.3592 125.662L60.9634 125.722L61.0306 126.327C61.2543 128.456 61.3662 130.614 61.3662 132.736L59.8669 132.736C59.8669 130.861 59.7774 128.964 59.5984 127.081C55.3393 126.588 51.1323 125.655 47.0895 124.28C47.5892 127.059 47.8503 129.897 47.8503 132.728L46.351 132.728C46.351 129.554 46.0228 126.379 45.3739 123.287L45.0979 121.965L45.083 121.98Z" fill="#314D71"/>
<path d="M0.499904 86.9866L0.499904 85.4852C3.34182 85.4852 6.18374 85.7392 8.96599 86.2396C7.59352 82.1987 6.65367 78.0083 6.16137 73.7507C4.27422 73.5715 2.37214 73.4818 0.499905 73.4818L0.499905 71.9805C2.62575 71.9805 4.78889 72.0925 6.9222 72.3166L7.52638 72.3763L7.59352 72.9814C8.09328 77.7618 9.18231 82.4676 10.8159 86.9642L11.2783 88.234L9.95805 87.9576C6.86252 87.3078 3.67748 86.9791 0.499904 86.9791L0.499904 86.9866Z" fill="#314D71"/>
<path d="M0.500789 100.479L0.500789 98.9774C7.24382 98.9774 13.5393 100.957 18.8204 104.37C14.9342 99.448 11.7939 93.8982 9.54869 87.8703C6.57997 87.2803 3.53665 86.974 0.50079 86.974L0.50079 85.4727C3.78279 85.4727 7.06481 85.8088 10.2648 86.481L10.675 86.5632L10.8167 86.9591C16.8362 103.489 29.7852 116.419 46.3519 122.424L46.7473 122.566L46.8293 122.977C47.5006 126.166 47.8437 129.445 47.8437 132.724L46.3445 132.724C46.3445 129.692 46.0461 126.652 45.4494 123.694C39.415 121.46 33.8505 118.323 28.92 114.447C32.3363 119.72 34.3204 125.994 34.3204 132.732L32.8211 132.732C32.8211 114.947 18.3281 100.479 0.508251 100.479L0.500789 100.479Z" fill="#314D71"/>
<path d="M0.500358 113.983L0.500358 112.482C11.689 112.482 20.7891 121.565 20.7891 132.731L19.2899 132.731C19.2899 122.394 10.8611 113.983 0.500358 113.983ZM0.500359 100.486L0.500359 98.9844C19.1481 98.9844 34.3125 114.125 34.3125 132.731L32.8132 132.731C32.8132 114.947 18.3202 100.478 0.500359 100.478L0.500359 100.486Z" fill="#314D71"/>
<path d="M0.500285 127.483L0.500286 125.982C4.22984 125.982 7.2657 129.007 7.2657 132.734L5.76642 132.734C5.76642 129.836 3.40934 127.483 0.507745 127.483L0.500285 127.483ZM0.500286 113.986L0.500286 112.484C11.6889 112.484 20.7891 121.567 20.7891 132.734L19.2898 132.734C19.2898 122.396 10.861 113.986 0.500286 113.986Z" fill="#314D71"/>
<path d="M0.499237 127.482L0.499238 125.98C4.22879 125.98 7.26465 129.006 7.26465 132.733L5.76537 132.733C5.76537 129.835 3.40829 127.482 0.506698 127.482L0.499237 127.482Z" fill="#314D71"/>
<path d="M5.7593 66.7344L7.25858 66.7344C7.25858 68.8109 7.37046 70.9098 7.58678 72.9863C8.08654 77.7667 9.17557 82.4725 10.8091 86.9691C16.8286 103.499 29.7776 116.429 46.3443 122.434C50.8496 124.07 55.5638 125.153 60.3525 125.653C62.4336 125.87 64.5445 125.982 66.6182 125.982L66.6182 127.483C64.4923 127.483 62.3292 127.371 60.1959 127.147C55.2878 126.632 50.4543 125.519 45.8296 123.846C28.8452 117.683 15.568 104.433 9.39934 87.4845C7.72104 82.8684 6.60963 78.0506 6.09496 73.1432C5.87118 71.0144 5.7593 68.8557 5.7593 66.7344ZM19.2827 66.7344L20.7819 66.7344C20.7819 91.9587 41.3467 112.485 66.6182 112.485L66.6182 113.986C40.5113 113.986 19.2752 92.7878 19.2752 66.7344L19.2827 66.7344Z" fill="#314D71"/>
<path d="M19.282 66.7344L20.7813 66.7344C20.7813 91.9587 41.3461 112.485 66.6175 112.485L66.6175 113.986C40.5181 113.986 19.2746 92.7878 19.2746 66.7344L19.282 66.7344ZM32.8054 66.7344L34.3047 66.7344C34.3121 84.5191 48.8052 98.9874 66.625 98.9874L66.625 100.489C47.9772 100.481 32.8129 85.3408 32.8129 66.7344L32.8054 66.7344Z" fill="#314D71"/>
<path d="M32.8129 66.7344L34.3121 66.7344C34.3121 84.5191 48.8052 98.9874 66.625 98.9874L66.625 100.489C47.9772 100.481 32.8129 85.3408 32.8129 66.7344ZM46.3362 66.7344L47.8355 66.7344C47.843 77.0721 56.2643 85.4827 66.625 85.4827L66.625 86.984C55.4363 86.984 46.3362 77.9012 46.3362 66.7344Z" fill="#314D71"/>
<path d="M46.3362 66.7344L47.8355 66.7344C47.843 77.0721 56.2643 85.4827 66.625 85.4827L66.625 86.984C55.4363 86.984 46.3362 77.9012 46.3362 66.7344ZM59.8596 66.7344L61.3589 66.7344C61.3663 69.6325 63.7234 71.9854 66.625 71.9854L66.625 73.4868C62.8954 73.4868 59.8596 70.4542 59.8596 66.7344Z" fill="#314D71"/>
<path d="M59.8596 66.7344L61.3589 66.7344C61.3663 69.6325 63.7234 71.9854 66.625 71.9854L66.625 73.4868C62.8954 73.4868 59.8596 70.4542 59.8596 66.7344Z" fill="#314D71"/>
</g>
</g>
<defs>
<clipPath id="clip0_1550_76951">
<rect width="66" height="66.125" fill="white" transform="translate(132.75 132) rotate(90)"/>
</clipPath>
<clipPath id="clip1_1550_76951">
<rect width="66.125" height="66" fill="white" transform="translate(132.75 66) rotate(-180)"/>
</clipPath>
<clipPath id="clip2_1550_76951">
<rect width="66" height="66.125" fill="white" transform="translate(66.625 66.7344) rotate(90)"/>
</clipPath>
</defs>
</svg>
