<svg width="141" height="141" viewBox="0 0 141 141" fill="none" xmlns="http://www.w3.org/2000/svg">
<path d="M105.3 51.7725C109.05 46.3655 107.706 38.9426 102.299 35.193C96.8924 31.4435 89.4695 32.7871 85.7199 38.1941C81.9703 43.6011 83.3139 51.024 88.7209 54.7736C94.128 58.5232 101.551 57.1796 105.3 51.7725Z" fill="#314D71"/>
<path d="M81.9455 21.8433L78.1992 21.9336L78.2895 25.6799L82.0357 25.5896L81.9455 21.8433Z" fill="#314D71"/>
<path d="M78.2658 25.691L74.5195 25.7812L74.6098 29.5275L78.356 29.4373L78.2658 25.691Z" fill="#314D71"/>
<path d="M74.5998 29.6278L70.8535 29.7188L70.9444 33.465L74.6907 33.3741L74.5998 29.6278Z" fill="#314D71"/>
<path d="M38.2633 3.8125H38.2375C38.1599 4.04509 38.1083 4.27769 38.0049 4.48444L38.2633 3.8125Z" fill="#314D71"/>
<path d="M26.2168 3.40625L26.3719 3.87144C26.3202 3.71637 26.2943 3.56131 26.2426 3.40625H26.2168Z" fill="#314D71"/>
<path d="M40.7166 8.9205C40.82 8.71375 40.8716 8.48116 40.9492 8.24856C41.1301 7.70584 41.2593 7.11144 41.2851 6.51703C41.4144 3.05396 38.6749 0.133609 35.2119 0.00439033C31.7488 -0.124829 28.8284 2.61461 28.6992 6.07768C28.6992 6.69793 28.7768 7.2665 28.9318 7.83506C28.9835 7.99012 29.0093 8.14519 29.061 8.30025L29.1386 8.58453L34.359 24.8661L40.6907 8.9205H40.7166ZM38.7783 8.14519C38.0547 9.5666 36.5557 10.5487 34.8759 10.4711C33.1702 10.4194 31.7488 9.35985 31.1285 7.88675C30.8959 7.34403 30.7667 6.74962 30.7926 6.12937C30.8701 3.80343 32.8342 1.96852 35.1602 2.04605C37.4861 2.12358 39.321 4.08771 39.2435 6.41365C39.2435 7.0339 39.0626 7.62831 38.7783 8.14519Z" fill="#314D71"/>
<path d="M9.98872 27.4048C9.83366 27.3531 9.6786 27.3273 9.52354 27.2756C8.95497 27.1205 8.38641 27.043 7.76616 27.043C4.30309 27.1722 1.56365 30.0667 1.69287 33.5556C1.82209 37.0187 4.71659 39.7581 8.2055 39.6289C8.82575 39.6289 9.39432 39.4738 9.93704 39.2929C10.1696 39.2154 10.4022 39.1637 10.609 39.0603L26.5546 32.7028L10.273 27.4823L9.98872 27.4048ZM12.1854 33.1938C12.2371 34.8995 11.2809 36.3984 9.85951 37.0962C9.34263 37.3546 8.74822 37.5355 8.12797 37.5614C5.80203 37.6389 3.8379 35.804 3.76037 33.4781C3.68284 31.1521 5.51775 29.188 7.84369 29.1105C8.46394 29.1105 9.05835 29.2138 9.60107 29.4464C11.0742 30.0667 12.1338 31.4881 12.1854 33.1938Z" fill="#314D71"/>
<path d="M13.5067 100.331C13.3517 100.331 13.1708 100.357 12.9899 100.383C10.6122 100.796 9.00992 103.071 9.42342 105.448C9.83692 107.826 12.1112 109.428 14.4888 109.015C14.6697 108.989 14.8248 108.937 14.9798 108.885L40.436 100.047L13.4809 100.305L13.5067 100.331Z" fill="#314D71"/>
<path d="M23.636 92.4983C23.636 92.4983 23.4293 92.4207 23.3001 92.3949C21.6978 91.9814 20.0696 92.9118 19.6302 94.5141C19.2167 96.1164 20.1471 97.7446 21.7494 98.1839C21.8528 98.2097 21.982 98.2356 22.0854 98.2614L40.4345 100.07L23.6102 92.4983H23.636Z" fill="#314D71"/>
<path d="M2.85574 127.086C2.62315 127.267 2.4164 127.448 2.20964 127.654C-0.736548 130.601 -0.736548 135.356 2.20964 138.276C5.15584 141.222 9.9111 141.222 12.8314 138.276C13.0382 138.069 13.2191 137.837 13.4 137.63H13.4259L40.4326 100.027L2.80405 127.034H2.8299L2.85574 127.086Z" fill="#314D71"/>
<path d="M132.206 111.424C132.362 111.476 132.517 111.501 132.672 111.553C133.24 111.708 133.809 111.786 134.429 111.786C137.892 111.656 140.632 108.762 140.502 105.273C140.373 101.81 137.479 99.0705 133.99 99.1997C133.369 99.1997 132.801 99.3548 132.258 99.5357C132.026 99.6132 131.793 99.6649 131.586 99.7683L115.641 106.126L131.922 111.346L132.206 111.424ZM130.01 105.635C129.958 103.929 130.914 102.43 132.336 101.732C132.853 101.474 133.447 101.293 134.067 101.267C136.393 101.19 138.357 103.025 138.435 105.351C138.512 107.676 136.677 109.641 134.352 109.718C133.731 109.718 133.137 109.615 132.594 109.382C131.121 108.762 130.061 107.34 130.01 105.635Z" fill="#314D71"/>
<path d="M101.452 129.895C101.348 130.102 101.297 130.334 101.219 130.567C101.038 131.109 100.909 131.704 100.883 132.298C100.754 135.761 103.494 138.682 106.957 138.811C110.42 138.94 113.34 136.201 113.469 132.738C113.469 132.117 113.392 131.549 113.237 130.98C113.185 130.825 113.159 130.67 113.107 130.515L113.03 130.231L107.809 113.949L101.478 129.895H101.452ZM103.39 130.67C104.114 129.249 105.613 128.267 107.293 128.344C108.998 128.396 110.42 129.455 111.04 130.929C111.273 131.471 111.402 132.066 111.376 132.686C111.298 135.012 109.334 136.847 107.008 136.769C104.682 136.692 102.847 134.728 102.925 132.402C102.925 131.781 103.106 131.187 103.39 130.67Z" fill="#314D71"/>
<path d="M31.62 125.509C31.5683 125.664 31.5425 125.845 31.4908 126C31.0773 128.378 32.6796 130.652 35.0572 131.066C37.4349 131.479 39.7091 129.877 40.1226 127.499C40.1485 127.318 40.1743 127.163 40.1743 126.982H40.2002L40.4586 100.027L31.5942 125.483H31.62V125.509Z" fill="#314D71"/>
<path d="M42.27 118.402C42.27 118.402 42.2959 118.635 42.3475 118.738C42.761 120.341 44.415 121.297 46.0174 120.857C47.6197 120.444 48.5759 118.79 48.1365 117.188C48.1107 117.084 48.059 116.955 48.0332 116.852L40.4609 100.027L42.2442 118.376L42.27 118.402Z" fill="#314D71"/>
<path d="M81.9649 63.616C85.5572 66.252 89.9506 67.8543 94.7317 68.0094C107.421 68.4488 118.095 58.4731 118.534 45.7837C118.586 44.0005 118.43 42.2431 118.095 40.5633L125.589 14.9263L99.9522 22.4468C98.7634 22.2142 97.5487 22.0333 96.3082 22.0075C83.6189 21.5681 72.9454 31.5438 72.5061 44.2331C72.3252 49.5828 74.005 54.5448 76.9254 58.5506L69.4307 59.9461L34.3865 24.902L16.2183 6.73378C14.0733 4.58874 10.5585 4.58874 8.41346 6.73378C6.26843 8.87881 6.26843 12.3936 8.41346 14.5386L26.5817 32.7068L16.4509 42.8376C14.3059 44.9826 14.3059 48.4974 16.4509 50.6424C18.5959 52.7874 22.1107 52.7874 24.2557 50.6424L34.3865 40.5116L37.9271 44.0522L27.7963 54.183C25.6513 56.328 25.6513 59.8428 27.7963 61.9878C29.9413 64.1328 33.4561 64.1328 35.6011 61.9878L45.7319 51.857L49.2725 55.3976L39.1417 65.5284C36.9967 67.6734 36.9967 71.1882 39.1417 73.3332C41.2868 75.4783 44.8015 75.4783 46.9466 73.3332L57.0773 63.2025L40.4339 100.03L77.2613 83.3865L67.1306 93.5431C64.9855 95.6881 64.9855 99.2029 67.1306 101.348C69.2756 103.493 72.7904 103.493 74.9354 101.348L85.0662 91.2171L88.6068 94.7577L78.476 104.888C76.331 107.034 76.331 110.548 78.476 112.693C80.621 114.838 84.1358 114.838 86.2808 112.693L96.4116 102.563L99.9522 106.103L89.8214 116.234C87.6764 118.379 87.6764 121.894 89.8214 124.039C91.9665 126.184 95.4812 126.184 97.6262 124.039L107.757 113.908L125.925 132.076C128.07 134.221 131.585 134.221 133.73 132.076C135.875 129.931 135.875 126.416 133.73 124.271L115.562 106.103L80.5177 71.059L81.9132 63.5901L81.9649 63.616ZM15.5722 13.8925C13.8923 15.5724 11.2046 15.5724 9.52475 13.8925C7.8449 12.2127 7.8449 9.5249 9.52475 7.84506C11.2046 6.16521 13.8923 6.16521 15.5722 7.84506C17.252 9.5249 17.252 12.2127 15.5722 13.8925ZM23.6096 49.5311C21.9298 51.2109 19.242 51.2109 17.5622 49.5311C15.8823 47.8513 15.8823 45.1635 17.5622 43.4837C19.242 41.8038 21.9298 41.8038 23.6096 43.4837C25.2895 45.1635 25.2895 47.8513 23.6096 49.5311ZM34.955 60.8765C33.2752 62.5564 30.5874 62.5564 28.9076 60.8765C27.2277 59.1967 27.2277 56.5089 28.9076 54.8291C30.5874 53.1492 33.2752 53.1492 34.955 54.8291C36.6349 56.5089 36.6349 59.1967 34.955 60.8765ZM46.3005 72.222C44.6206 73.9018 41.9329 73.9018 40.253 72.222C38.5732 70.5421 38.5732 67.8543 40.253 66.1745C41.9329 64.4947 44.6206 64.4947 46.3005 66.1745C47.9803 67.8543 47.9803 70.5421 46.3005 72.222ZM74.3151 100.237C72.6353 101.916 69.9475 101.916 68.2677 100.237C66.5878 98.5568 66.5878 95.869 68.2677 94.1892C69.9475 92.5093 72.6353 92.5093 74.3151 94.1892C75.995 95.869 75.995 98.5568 74.3151 100.237ZM85.6606 111.582C83.9807 113.262 81.293 113.262 79.6131 111.582C77.9333 109.902 77.9333 107.214 79.6131 105.535C81.293 103.855 83.9807 103.855 85.6606 105.535C87.3404 107.214 87.3404 109.902 85.6606 111.582ZM97.006 122.927C95.3261 124.607 92.6384 124.607 90.9585 122.927C89.2787 121.248 89.2787 118.56 90.9585 116.88C92.6384 115.2 95.3261 115.2 97.006 116.88C98.6858 118.56 98.6858 121.248 97.006 122.927ZM126.597 124.917C128.277 123.238 130.965 123.238 132.645 124.917C134.324 126.597 134.324 129.285 132.645 130.965C130.965 132.645 128.277 132.645 126.597 130.965C124.917 129.285 124.917 126.597 126.597 124.917ZM96.0756 27.4605C105.715 27.7965 113.313 35.9114 112.977 45.5512C112.641 55.1909 104.527 62.789 94.8868 62.453C85.2471 62.117 77.649 54.0021 77.985 44.3623C78.3209 34.7226 86.4359 27.1245 96.0756 27.4605Z" fill="#314D71"/>
</svg>
