<svg width="586" height="551" viewBox="0 0 586 551" fill="none" xmlns="http://www.w3.org/2000/svg">
<g clip-path="url(#clip0_982_38515)">
<path d="M112.849 466.34C113.239 466.49 113.574 466.754 113.81 467.099C114.047 467.443 114.173 467.851 114.173 468.269C114.173 468.687 114.047 469.094 113.81 469.439C113.574 469.783 113.239 470.048 112.849 470.198C111.801 470.802 110.613 471.121 109.404 471.121C108.195 471.121 107.007 470.802 105.96 470.198C104.099 469.164 104.099 467.442 105.96 466.34C107.026 465.796 108.207 465.512 109.404 465.512C110.602 465.512 111.782 465.796 112.849 466.34Z" fill="#313030"/>
<path d="M126.903 460.984C129.491 460.984 131.588 459.75 131.588 458.228C131.588 456.706 129.491 455.473 126.903 455.473C124.316 455.473 122.219 456.706 122.219 458.228C122.219 459.75 124.316 460.984 126.903 460.984Z" fill="#313030"/>
<path d="M144.396 450.922C146.983 450.922 149.08 449.688 149.08 448.166C149.08 446.644 146.983 445.41 144.396 445.41C141.808 445.41 139.711 446.644 139.711 448.166C139.711 449.688 141.808 450.922 144.396 450.922Z" fill="#313030"/>
<path d="M165.138 436.172C166.998 437.205 166.998 438.928 165.138 440.03C164.071 440.574 162.891 440.858 161.693 440.858C160.496 440.858 159.315 440.574 158.249 440.03C156.388 438.928 156.388 437.205 158.249 436.172C159.315 435.628 160.496 435.344 161.693 435.344C162.891 435.344 164.071 435.628 165.138 436.172Z" fill="#313030"/>
<path d="M182.56 426.122C184.42 427.156 184.42 428.878 182.56 429.98C181.493 430.524 180.313 430.808 179.115 430.808C177.918 430.808 176.737 430.524 175.671 429.98C175.281 429.83 174.946 429.566 174.709 429.221C174.473 428.877 174.346 428.469 174.346 428.051C174.346 427.633 174.473 427.226 174.709 426.881C174.946 426.537 175.281 426.272 175.671 426.122C176.718 425.518 177.906 425.199 179.115 425.199C180.325 425.199 181.513 425.518 182.56 426.122Z" fill="#313030"/>
<path d="M95.4113 456.219C95.8012 456.369 96.1364 456.633 96.3729 456.978C96.6094 457.322 96.7362 457.73 96.7362 458.148C96.7362 458.566 96.6094 458.973 96.3729 459.318C96.1364 459.662 95.8012 459.927 95.4113 460.077C94.364 460.681 93.176 461 91.9667 461C90.7573 461 89.5693 460.681 88.522 460.077C86.6619 459.043 86.6619 457.321 88.522 456.219C89.5887 455.674 90.7691 455.391 91.9667 455.391C93.1642 455.391 94.3446 455.674 95.4113 456.219Z" fill="#313030"/>
<path d="M112.849 446.238C113.239 446.388 113.574 446.653 113.81 446.997C114.047 447.341 114.173 447.749 114.173 448.167C114.173 448.585 114.047 448.993 113.81 449.337C113.574 449.682 113.239 449.946 112.849 450.096C111.782 450.64 110.602 450.924 109.404 450.924C108.207 450.924 107.026 450.64 105.96 450.096C104.099 449.063 104.099 447.34 105.96 446.238C107.026 445.694 108.207 445.41 109.404 445.41C110.602 445.41 111.782 445.694 112.849 446.238Z" fill="#313030"/>
<path d="M126.903 440.855C129.491 440.855 131.588 439.621 131.588 438.099C131.588 436.578 129.491 435.344 126.903 435.344C124.316 435.344 122.219 436.578 122.219 438.099C122.219 439.621 124.316 440.855 126.903 440.855Z" fill="#313030"/>
<path d="M144.396 430.789C146.983 430.789 149.08 429.555 149.08 428.033C149.08 426.511 146.983 425.277 144.396 425.277C141.808 425.277 139.711 426.511 139.711 428.033C139.711 429.555 141.808 430.789 144.396 430.789Z" fill="#313030"/>
<path d="M77.9191 446.224C79.7792 447.327 79.7792 449.049 77.9191 450.082C76.8558 450.638 75.674 450.928 74.4745 450.928C73.2749 450.928 72.0931 450.638 71.0298 450.082C69.1697 449.049 69.1697 447.327 71.0298 446.224C72.0931 445.669 73.2749 445.379 74.4745 445.379C75.674 445.379 76.8558 445.669 77.9191 446.224Z" fill="#313030"/>
<path d="M92.0402 440.855C94.6274 440.855 96.7249 439.621 96.7249 438.099C96.7249 436.578 94.6274 435.344 92.0402 435.344C89.4529 435.344 87.3555 436.578 87.3555 438.099C87.3555 439.621 89.4529 440.855 92.0402 440.855Z" fill="#313030"/>
<path d="M112.849 426.122C113.239 426.272 113.574 426.537 113.81 426.881C114.047 427.226 114.173 427.633 114.173 428.051C114.173 428.469 114.047 428.877 113.81 429.221C113.574 429.566 113.239 429.83 112.849 429.98C111.782 430.524 110.602 430.808 109.404 430.808C108.207 430.808 107.026 430.524 105.96 429.98C104.099 428.878 104.099 427.156 105.96 426.122C107.007 425.518 108.195 425.199 109.404 425.199C110.613 425.199 111.801 425.518 112.849 426.122Z" fill="#313030"/>
<path d="M130.275 416.056C132.135 417.089 132.135 418.812 130.275 419.914C129.208 420.458 128.027 420.742 126.83 420.742C125.632 420.742 124.452 420.458 123.385 419.914C121.525 418.812 121.525 417.089 123.385 416.056C124.433 415.451 125.621 415.133 126.83 415.133C128.039 415.133 129.227 415.451 130.275 416.056Z" fill="#313030"/>
<path d="M57.1769 440.855C59.7642 440.855 61.8616 439.621 61.8616 438.099C61.8616 436.578 59.7642 435.344 57.1769 435.344C54.5896 435.344 52.4922 436.578 52.4922 438.099C52.4922 439.621 54.5896 440.855 57.1769 440.855Z" fill="#313030"/>
<path d="M77.9191 426.122C79.7792 427.156 79.7792 428.878 77.9191 429.98C76.8558 430.536 75.674 430.826 74.4745 430.826C73.2749 430.826 72.0931 430.536 71.0298 429.98C69.1697 428.878 69.1697 427.156 71.0298 426.122C72.0771 425.518 73.2652 425.199 74.4745 425.199C75.6838 425.199 76.8718 425.518 77.9191 426.122Z" fill="#313030"/>
<path d="M95.4113 416.056C95.8012 416.206 96.1364 416.47 96.3729 416.815C96.6094 417.159 96.7362 417.567 96.7362 417.985C96.7362 418.403 96.6094 418.811 96.3729 419.155C96.1364 419.499 95.8012 419.764 95.4113 419.914C94.3446 420.458 93.1642 420.742 91.9667 420.742C90.7691 420.742 89.5887 420.458 88.522 419.914C86.6619 418.812 86.6619 417.089 88.522 416.056C89.5693 415.451 90.7573 415.133 91.9667 415.133C93.176 415.133 94.364 415.451 95.4113 416.056Z" fill="#313030"/>
<path d="M112.849 409.786C111.801 410.391 110.613 410.709 109.404 410.709C108.195 410.709 107.007 410.391 105.96 409.786C104.099 408.753 104.099 407.031 105.96 405.997C107.82 404.964 114.64 408.753 112.849 409.786Z" fill="#313030"/>
<path d="M39.7511 430.789C42.3384 430.789 44.4358 429.555 44.4358 428.033C44.4358 426.511 42.3384 425.277 39.7511 425.277C37.1638 425.277 35.0664 426.511 35.0664 428.033C35.0664 429.555 37.1638 430.789 39.7511 430.789Z" fill="#313030"/>
<path d="M57.1769 420.75C59.7642 420.75 61.8616 419.516 61.8616 417.994C61.8616 416.472 59.7642 415.238 57.1769 415.238C54.5896 415.238 52.4922 416.472 52.4922 417.994C52.4922 419.516 54.5896 420.75 57.1769 420.75Z" fill="#313030"/>
<path d="M77.9191 405.989C79.7792 407.023 79.7792 408.745 77.9191 409.779C76.8718 410.383 75.6838 410.702 74.4745 410.702C73.2652 410.702 72.0771 410.383 71.0298 409.779C69.1697 408.745 69.1697 407.023 71.0298 405.989C72.0771 405.385 73.2652 405.066 74.4745 405.066C75.6838 405.066 76.8718 405.385 77.9191 405.989Z" fill="#313030"/>
<path d="M22.1788 420.59C24.7661 420.59 26.8635 419.356 26.8635 417.834C26.8635 416.312 24.7661 415.078 22.1788 415.078C19.5915 415.078 17.4941 416.312 17.4941 417.834C17.4941 419.356 19.5915 420.59 22.1788 420.59Z" fill="#313030"/>
<path d="M39.6027 410.55C42.1899 410.55 44.2874 409.317 44.2874 407.795C44.2874 406.273 42.1899 405.039 39.6027 405.039C37.0154 405.039 34.918 406.273 34.918 407.795C34.918 409.317 37.0154 410.55 39.6027 410.55Z" fill="#313030"/>
<path d="M60.3431 395.805C62.2032 396.838 62.2032 398.56 60.3431 399.663C59.2765 400.207 58.096 400.491 56.8985 400.491C55.701 400.491 54.5205 400.207 53.4539 399.663C53.064 399.513 52.7287 399.248 52.4922 398.904C52.2557 398.559 52.1289 398.151 52.1289 397.734C52.1289 397.316 52.2557 396.908 52.4922 396.563C52.7287 396.219 53.064 395.955 53.4539 395.805C54.5205 395.26 55.701 394.977 56.8985 394.977C58.096 394.977 59.2765 395.26 60.3431 395.805Z" fill="#313030"/>
<path d="M4.68665 410.55C7.27393 410.55 9.37134 409.317 9.37134 407.795C9.37134 406.273 7.27393 405.039 4.68665 405.039C2.09936 405.039 0.00195312 406.273 0.00195312 407.795C0.00195312 409.317 2.09936 410.55 4.68665 410.55Z" fill="#313030"/>
<path d="M22.1788 400.488C24.7661 400.488 26.8635 399.254 26.8635 397.732C26.8635 396.21 24.7661 394.977 22.1788 394.977C19.5915 394.977 17.4941 396.21 17.4941 397.732C17.4941 399.254 19.5915 400.488 22.1788 400.488Z" fill="#313030"/>
<path d="M42.921 385.751C44.7811 386.784 44.7811 388.507 42.921 389.609C41.8544 390.153 40.6739 390.437 39.4764 390.437C38.2789 390.437 37.0984 390.153 36.0318 389.609C34.1717 388.507 34.1717 386.784 36.0318 385.751C37.0791 385.146 38.2671 384.828 39.4764 384.828C40.6857 384.828 41.8737 385.146 42.921 385.751Z" fill="#313030"/>
<path d="M8.05777 385.751C9.91786 386.784 9.91786 388.507 8.05777 389.609C6.99111 390.153 5.81065 390.437 4.61314 390.437C3.41563 390.437 2.23516 390.153 1.16851 389.609C-0.691587 388.507 -0.691587 386.784 1.16851 385.751C2.21581 385.146 3.40382 384.828 4.61314 384.828C5.82246 384.828 7.01047 385.146 8.05777 385.751Z" fill="#313030"/>
<path d="M25.4835 375.689C27.3436 376.722 27.3436 378.444 25.4835 379.547C24.4169 380.091 23.2364 380.375 22.0389 380.375C20.8414 380.375 19.6609 380.091 18.5943 379.547C16.7342 378.444 16.7342 376.722 18.5943 375.689C19.6416 375.084 20.8296 374.766 22.0389 374.766C23.2482 374.766 24.4362 375.084 25.4835 375.689Z" fill="#313030"/>
<path d="M284.724 550.113C287.311 550.113 289.408 548.879 289.408 547.357C289.408 545.835 287.311 544.602 284.724 544.602C282.136 544.602 280.039 545.835 280.039 547.357C280.039 548.879 282.136 550.113 284.724 550.113Z" fill="#313030"/>
<path d="M305.462 535.38C307.322 536.413 307.322 538.136 305.462 539.169C304.415 539.774 303.227 540.092 302.018 540.092C300.808 540.092 299.62 539.774 298.573 539.169C298.176 539.036 297.83 538.782 297.586 538.442C297.341 538.102 297.209 537.694 297.209 537.275C297.209 536.856 297.341 536.447 297.586 536.107C297.83 535.767 298.176 535.513 298.573 535.38C299.62 534.775 300.808 534.457 302.018 534.457C303.227 534.457 304.415 534.775 305.462 535.38Z" fill="#313030"/>
<path d="M319.587 530.011C322.174 530.011 324.272 528.778 324.272 527.256C324.272 525.734 322.174 524.5 319.587 524.5C317 524.5 314.902 525.734 314.902 527.256C314.902 528.778 317 530.011 319.587 530.011Z" fill="#313030"/>
<path d="M340.326 515.184C342.186 516.286 342.186 518.008 340.326 519.042C339.278 519.646 338.09 519.965 336.881 519.965C335.672 519.965 334.484 519.646 333.436 519.042C333.046 518.892 332.711 518.627 332.474 518.283C332.238 517.938 332.111 517.53 332.111 517.113C332.111 516.695 332.238 516.287 332.474 515.943C332.711 515.598 333.046 515.334 333.436 515.184C334.503 514.639 335.683 514.355 336.881 514.355C338.078 514.355 339.259 514.639 340.326 515.184Z" fill="#313030"/>
<path d="M357.755 505.134C359.615 506.237 359.615 507.959 357.755 508.992C356.692 509.548 355.51 509.838 354.31 509.838C353.111 509.838 351.929 509.548 350.866 508.992C349.006 507.959 349.006 506.237 350.866 505.134C351.929 504.579 353.111 504.289 354.31 504.289C355.51 504.289 356.692 504.579 357.755 505.134Z" fill="#313030"/>
<path d="M375.259 495.082C375.649 495.232 375.985 495.496 376.221 495.841C376.458 496.185 376.584 496.593 376.584 497.011C376.584 497.429 376.458 497.837 376.221 498.181C375.985 498.525 375.649 498.79 375.259 498.94C374.192 499.484 373.012 499.768 371.814 499.768C370.617 499.768 369.436 499.484 368.37 498.94C366.51 497.838 366.51 496.115 368.37 495.082C369.436 494.538 370.617 494.254 371.814 494.254C373.012 494.254 374.192 494.538 375.259 495.082Z" fill="#313030"/>
<path d="M392.685 485.028C393.075 485.178 393.41 485.443 393.646 485.787C393.883 486.132 394.01 486.54 394.01 486.957C394.01 487.375 393.883 487.783 393.646 488.127C393.41 488.472 393.075 488.736 392.685 488.886C391.618 489.431 390.438 489.715 389.24 489.715C388.043 489.715 386.862 489.431 385.795 488.886C383.935 487.784 383.935 486.062 385.795 485.028C386.843 484.424 388.031 484.105 389.24 484.105C390.449 484.105 391.637 484.424 392.685 485.028Z" fill="#313030"/>
<path d="M410.111 474.966C410.5 475.116 410.836 475.381 411.073 475.725C411.309 476.069 411.435 476.477 411.435 476.895C411.435 477.313 411.309 477.721 411.073 478.065C410.836 478.409 410.5 478.674 410.111 478.824C409.044 479.368 407.863 479.652 406.666 479.652C405.468 479.652 404.288 479.368 403.221 478.824C401.361 477.722 401.361 475.999 403.221 474.966C404.269 474.361 405.457 474.043 406.666 474.043C407.875 474.043 409.063 474.361 410.111 474.966Z" fill="#313030"/>
<path d="M427.548 464.9C429.408 465.933 429.408 467.655 427.548 468.689C426.501 469.293 425.313 469.612 424.103 469.612C422.894 469.612 421.706 469.293 420.659 468.689C418.799 467.655 418.799 465.933 420.659 464.9C421.706 464.295 422.894 463.977 424.103 463.977C425.313 463.977 426.501 464.295 427.548 464.9Z" fill="#313030"/>
<path d="M444.974 454.766C446.834 455.868 446.834 457.59 444.974 458.624C443.926 459.228 442.738 459.547 441.529 459.547C440.32 459.547 439.132 459.228 438.085 458.624C436.224 457.59 436.224 455.868 438.085 454.766C439.151 454.221 440.332 453.937 441.529 453.938C442.727 453.937 443.907 454.221 444.974 454.766Z" fill="#313030"/>
<path d="M459.095 449.414C461.682 449.414 463.78 448.18 463.78 446.658C463.78 445.136 461.682 443.902 459.095 443.902C456.508 443.902 454.41 445.136 454.41 446.658C454.41 448.18 456.508 449.414 459.095 449.414Z" fill="#313030"/>
<path d="M476.534 439.347C479.122 439.347 481.219 438.114 481.219 436.592C481.219 435.07 479.122 433.836 476.534 433.836C473.947 433.836 471.85 435.07 471.85 436.592C471.85 438.114 473.947 439.347 476.534 439.347Z" fill="#313030"/>
<path d="M497.261 424.588C499.121 425.621 499.121 427.343 497.261 428.446C496.198 429.001 495.016 429.291 493.816 429.291C492.617 429.291 491.435 429.001 490.372 428.446C488.512 427.343 488.512 425.621 490.372 424.588C491.435 424.032 492.617 423.742 493.816 423.742C495.016 423.742 496.198 424.032 497.261 424.588Z" fill="#313030"/>
<path d="M253.179 545.767C253.569 545.917 253.904 546.181 254.141 546.526C254.377 546.87 254.504 547.278 254.504 547.696C254.504 548.113 254.377 548.521 254.141 548.866C253.904 549.21 253.569 549.475 253.179 549.625C252.112 550.169 250.932 550.453 249.734 550.453C248.537 550.453 247.356 550.169 246.29 549.625C244.43 548.522 244.43 546.8 246.29 545.767C247.337 545.162 248.525 544.844 249.734 544.844C250.944 544.844 252.132 545.162 253.179 545.767Z" fill="#313030"/>
<path d="M270.603 535.38C272.463 536.413 272.463 538.136 270.603 539.169C269.555 539.774 268.367 540.092 267.158 540.092C265.949 540.092 264.761 539.774 263.713 539.169C261.853 538.136 261.853 536.413 263.713 535.38C264.761 534.775 265.949 534.457 267.158 534.457C268.367 534.457 269.555 534.775 270.603 535.38Z" fill="#313030"/>
<path d="M288.042 525.109C289.902 526.212 289.902 527.934 288.042 528.967C286.995 529.572 285.807 529.89 284.598 529.89C283.388 529.89 282.2 529.572 281.153 528.967C279.293 527.934 279.293 526.212 281.153 525.109C282.22 524.565 283.4 524.281 284.598 524.281C285.795 524.281 286.975 524.565 288.042 525.109Z" fill="#313030"/>
<path d="M305.462 515.184C307.322 516.286 307.322 518.008 305.462 519.042C304.415 519.646 303.227 519.965 302.018 519.965C300.808 519.965 299.62 519.646 298.573 519.042C298.183 518.892 297.847 518.627 297.611 518.283C297.374 517.938 297.248 517.53 297.248 517.113C297.248 516.695 297.374 516.287 297.611 515.943C297.847 515.598 298.183 515.334 298.573 515.184C299.64 514.639 300.82 514.355 302.018 514.355C303.215 514.355 304.396 514.639 305.462 515.184Z" fill="#313030"/>
<path d="M322.902 505.145C324.762 506.247 324.762 507.969 322.902 509.003C321.835 509.547 320.655 509.831 319.457 509.831C318.26 509.831 317.079 509.547 316.012 509.003C315.623 508.853 315.287 508.588 315.051 508.244C314.814 507.899 314.687 507.491 314.688 507.074C314.687 506.656 314.814 506.248 315.051 505.904C315.287 505.559 315.623 505.295 316.012 505.145C317.079 504.6 318.26 504.316 319.457 504.316C320.655 504.316 321.835 504.6 322.902 505.145Z" fill="#313030"/>
<path d="M340.326 495.082C342.186 496.115 342.186 497.838 340.326 498.94C339.259 499.484 338.078 499.768 336.881 499.768C335.683 499.768 334.503 499.484 333.436 498.94C333.046 498.79 332.711 498.525 332.474 498.181C332.238 497.837 332.111 497.429 332.111 497.011C332.111 496.593 332.238 496.185 332.474 495.841C332.711 495.496 333.046 495.232 333.436 495.082C334.503 494.538 335.683 494.254 336.881 494.254C338.078 494.254 339.259 494.538 340.326 495.082Z" fill="#313030"/>
<path d="M354.45 489.699C357.038 489.699 359.135 488.465 359.135 486.943C359.135 485.421 357.038 484.188 354.45 484.188C351.863 484.188 349.766 485.421 349.766 486.943C349.766 488.465 351.863 489.699 354.45 489.699Z" fill="#313030"/>
<path d="M371.876 479.633C374.463 479.633 376.561 478.399 376.561 476.877C376.561 475.355 374.463 474.121 371.876 474.121C369.289 474.121 367.191 475.355 367.191 476.877C367.191 478.399 369.289 479.633 371.876 479.633Z" fill="#313030"/>
<path d="M392.685 464.9C393.082 465.033 393.427 465.287 393.672 465.627C393.917 465.967 394.048 466.375 394.048 466.794C394.048 467.213 393.917 467.621 393.672 467.961C393.427 468.301 393.082 468.556 392.685 468.689C391.637 469.293 390.449 469.612 389.24 469.612C388.031 469.612 386.843 469.293 385.795 468.689C383.935 467.655 383.935 465.933 385.795 464.9C386.843 464.295 388.031 463.977 389.24 463.977C390.449 463.977 391.637 464.295 392.685 464.9Z" fill="#313030"/>
<path d="M410.111 454.766C410.5 454.916 410.836 455.18 411.073 455.525C411.309 455.869 411.435 456.277 411.435 456.695C411.435 457.112 411.309 457.52 411.073 457.865C410.836 458.209 410.5 458.474 410.111 458.624C409.063 459.228 407.875 459.547 406.666 459.547C405.457 459.547 404.269 459.228 403.221 458.624C401.361 457.59 401.361 455.868 403.221 454.766C404.288 454.221 405.468 453.937 406.666 453.938C407.863 453.937 409.044 454.221 410.111 454.766Z" fill="#313030"/>
<path d="M427.548 444.703C429.408 445.805 429.408 447.528 427.548 448.561C426.501 449.166 425.313 449.484 424.103 449.484C422.894 449.484 421.706 449.166 420.659 448.561C418.799 447.528 418.799 445.805 420.659 444.703C421.725 444.159 422.906 443.875 424.103 443.875C425.301 443.875 426.481 444.159 427.548 444.703Z" fill="#313030"/>
<path d="M441.671 439.347C444.258 439.347 446.356 438.114 446.356 436.592C446.356 435.07 444.258 433.836 441.671 433.836C439.084 433.836 436.986 435.07 436.986 436.592C436.986 438.114 439.084 439.347 441.671 439.347Z" fill="#313030"/>
<path d="M459.095 429.281C461.682 429.281 463.78 428.047 463.78 426.525C463.78 425.003 461.682 423.77 459.095 423.77C456.508 423.77 454.41 425.003 454.41 426.525C454.41 428.047 456.508 429.281 459.095 429.281Z" fill="#313030"/>
<path d="M476.534 419.218C479.122 419.218 481.219 417.985 481.219 416.463C481.219 414.941 479.122 413.707 476.534 413.707C473.947 413.707 471.85 414.941 471.85 416.463C471.85 417.985 473.947 419.218 476.534 419.218Z" fill="#313030"/>
<path d="M235.753 535.38C236.15 535.513 236.496 535.767 236.74 536.107C236.985 536.447 237.117 536.856 237.117 537.275C237.117 537.694 236.985 538.102 236.74 538.442C236.496 538.782 236.15 539.036 235.753 539.169C234.706 539.774 233.518 540.092 232.308 540.092C231.099 540.092 229.911 539.774 228.864 539.169C227.004 538.136 227.004 536.413 228.864 535.38C229.911 534.775 231.099 534.457 232.308 534.457C233.518 534.457 234.706 534.775 235.753 535.38Z" fill="#313030"/>
<path d="M249.806 530.011C252.393 530.011 254.49 528.778 254.49 527.256C254.49 525.734 252.393 524.5 249.806 524.5C247.218 524.5 245.121 525.734 245.121 527.256C245.121 528.778 247.218 530.011 249.806 530.011Z" fill="#313030"/>
<path d="M267.232 519.867C269.819 519.867 271.916 518.633 271.916 517.111C271.916 515.589 269.819 514.355 267.232 514.355C264.644 514.355 262.547 515.589 262.547 517.111C262.547 518.633 264.644 519.867 267.232 519.867Z" fill="#313030"/>
<path d="M288.042 505.145C289.902 506.247 289.902 507.969 288.042 509.003C286.975 509.547 285.795 509.831 284.598 509.831C283.4 509.831 282.22 509.547 281.153 509.003C279.293 507.969 279.293 506.247 281.153 505.145C282.22 504.6 283.4 504.316 284.598 504.316C285.795 504.316 286.975 504.6 288.042 505.145Z" fill="#313030"/>
<path d="M305.462 495.082C307.322 496.115 307.322 497.838 305.462 498.94C304.396 499.484 303.215 499.768 302.018 499.768C300.82 499.768 299.64 499.484 298.573 498.94C298.183 498.79 297.847 498.525 297.611 498.181C297.374 497.837 297.248 497.429 297.248 497.011C297.248 496.593 297.374 496.185 297.611 495.841C297.847 495.496 298.183 495.232 298.573 495.082C299.64 494.538 300.82 494.254 302.018 494.254C303.215 494.254 304.396 494.538 305.462 495.082Z" fill="#313030"/>
<path d="M322.902 485.028C324.762 486.062 324.762 487.784 322.902 488.886C321.835 489.431 320.655 489.715 319.457 489.715C318.26 489.715 317.079 489.431 316.012 488.886C315.623 488.736 315.287 488.472 315.051 488.127C314.814 487.783 314.687 487.375 314.688 486.957C314.687 486.54 314.814 486.132 315.051 485.787C315.287 485.443 315.623 485.178 316.012 485.028C317.06 484.424 318.248 484.105 319.457 484.105C320.666 484.105 321.854 484.424 322.902 485.028Z" fill="#313030"/>
<path d="M340.326 474.966C342.186 475.999 342.186 477.722 340.326 478.824C339.259 479.368 338.078 479.652 336.881 479.652C335.683 479.652 334.503 479.368 333.436 478.824C333.046 478.674 332.711 478.409 332.474 478.065C332.238 477.721 332.111 477.313 332.111 476.895C332.111 476.477 332.238 476.069 332.474 475.725C332.711 475.381 333.046 475.116 333.436 474.966C334.484 474.361 335.672 474.043 336.881 474.043C338.09 474.043 339.278 474.361 340.326 474.966Z" fill="#313030"/>
<path d="M354.45 469.593C357.038 469.593 359.135 468.36 359.135 466.838C359.135 465.316 357.038 464.082 354.45 464.082C351.863 464.082 349.766 465.316 349.766 466.838C349.766 468.36 351.863 469.593 354.45 469.593Z" fill="#313030"/>
<path d="M375.259 454.766C375.649 454.916 375.985 455.18 376.221 455.525C376.458 455.869 376.584 456.277 376.584 456.695C376.584 457.112 376.458 457.52 376.221 457.865C375.985 458.209 375.649 458.474 375.259 458.624C374.212 459.228 373.024 459.547 371.814 459.547C370.605 459.547 369.417 459.228 368.37 458.624C366.51 457.59 366.51 455.868 368.37 454.766C369.436 454.221 370.617 453.938 371.814 453.938C373.012 453.938 374.192 454.221 375.259 454.766Z" fill="#313030"/>
<path d="M392.685 444.703C393.075 444.853 393.41 445.118 393.646 445.462C393.883 445.806 394.01 446.214 394.01 446.632C394.01 447.05 393.883 447.458 393.646 447.802C393.41 448.146 393.075 448.411 392.685 448.561C391.637 449.166 390.449 449.484 389.24 449.484C388.031 449.484 386.843 449.166 385.795 448.561C383.935 447.528 383.935 445.805 385.795 444.703C386.862 444.159 388.043 443.875 389.24 443.875C390.438 443.875 391.618 444.159 392.685 444.703Z" fill="#313030"/>
<path d="M406.739 439.347C409.327 439.347 411.424 438.114 411.424 436.592C411.424 435.07 409.327 433.836 406.739 433.836C404.152 433.836 402.055 435.07 402.055 436.592C402.055 438.114 404.152 439.347 406.739 439.347Z" fill="#313030"/>
<path d="M427.548 424.598C429.408 425.631 429.408 427.353 427.548 428.456C426.481 429 425.301 429.284 424.103 429.284C422.906 429.284 421.725 429 420.659 428.456C418.799 427.353 418.799 425.631 420.659 424.598C421.725 424.053 422.906 423.77 424.103 423.77C425.301 423.77 426.481 424.053 427.548 424.598Z" fill="#313030"/>
<path d="M441.671 419.218C444.258 419.218 446.356 417.985 446.356 416.463C446.356 414.941 444.258 413.707 441.671 413.707C439.084 413.707 436.986 414.941 436.986 416.463C436.986 417.985 439.084 419.218 441.671 419.218Z" fill="#313030"/>
<path d="M462.41 404.485C464.27 405.519 464.27 407.241 462.41 408.343C461.343 408.888 460.162 409.172 458.965 409.172C457.767 409.172 456.587 408.888 455.52 408.343C455.13 408.193 454.795 407.929 454.559 407.585C454.322 407.24 454.195 406.832 454.195 406.414C454.195 405.997 454.322 405.589 454.559 405.244C454.795 404.9 455.13 404.635 455.52 404.485C456.568 403.881 457.756 403.562 458.965 403.562C460.174 403.562 461.362 403.881 462.41 404.485Z" fill="#313030"/>
<path d="M218.247 525.103C220.107 526.205 220.107 527.928 218.247 528.961C217.2 529.566 216.012 529.884 214.803 529.884C213.593 529.884 212.405 529.566 211.358 528.961C209.498 527.928 209.498 526.205 211.358 525.103C212.421 524.548 213.603 524.258 214.803 524.258C216.002 524.258 217.184 524.548 218.247 525.103Z" fill="#313030"/>
<path d="M232.368 519.867C234.956 519.867 237.053 518.633 237.053 517.111C237.053 515.589 234.956 514.355 232.368 514.355C229.781 514.355 227.684 515.589 227.684 517.111C227.684 518.633 229.781 519.867 232.368 519.867Z" fill="#313030"/>
<path d="M253.179 505.145C253.569 505.295 253.904 505.559 254.141 505.904C254.377 506.248 254.504 506.656 254.504 507.074C254.504 507.491 254.377 507.899 254.141 508.244C253.904 508.588 253.569 508.853 253.179 509.003C252.112 509.547 250.932 509.831 249.734 509.831C248.537 509.831 247.356 509.547 246.29 509.003C244.43 507.969 244.43 506.247 246.29 505.145C247.356 504.6 248.537 504.316 249.734 504.316C250.932 504.316 252.112 504.6 253.179 505.145Z" fill="#313030"/>
<path d="M270.603 495.082C272.463 496.115 272.463 497.838 270.603 498.94C269.536 499.484 268.356 499.768 267.158 499.768C265.961 499.768 264.78 499.484 263.713 498.94C261.853 497.838 261.853 496.115 263.713 495.082C264.78 494.538 265.961 494.254 267.158 494.254C268.356 494.254 269.536 494.538 270.603 495.082Z" fill="#313030"/>
<path d="M288.042 485.028C289.902 486.062 289.902 487.784 288.042 488.886C286.975 489.431 285.795 489.715 284.598 489.715C283.4 489.715 282.22 489.431 281.153 488.886C279.293 487.784 279.293 486.062 281.153 485.028C282.2 484.424 283.388 484.105 284.598 484.105C285.807 484.105 286.995 484.424 288.042 485.028Z" fill="#313030"/>
<path d="M302.163 479.633C304.75 479.633 306.848 478.399 306.848 476.877C306.848 475.355 304.75 474.121 302.163 474.121C299.576 474.121 297.479 475.355 297.479 476.877C297.479 478.399 299.576 479.633 302.163 479.633Z" fill="#313030"/>
<path d="M322.899 464.9C324.759 465.933 324.759 467.655 322.899 468.689C321.852 469.293 320.664 469.612 319.455 469.612C318.245 469.612 317.057 469.293 316.01 468.689C315.613 468.556 315.268 468.301 315.023 467.961C314.778 467.621 314.646 467.213 314.646 466.794C314.646 466.375 314.778 465.967 315.023 465.627C315.268 465.287 315.613 465.033 316.01 464.9C317.057 464.295 318.245 463.977 319.455 463.977C320.664 463.977 321.852 464.295 322.899 464.9Z" fill="#313030"/>
<path d="M337.026 459.531C339.614 459.531 341.711 458.297 341.711 456.775C341.711 455.253 339.614 454.02 337.026 454.02C334.439 454.02 332.342 455.253 332.342 456.775C332.342 458.297 334.439 459.531 337.026 459.531Z" fill="#313030"/>
<path d="M357.755 444.72C359.615 445.823 359.615 447.545 357.755 448.579C356.708 449.183 355.52 449.502 354.31 449.502C353.101 449.502 351.913 449.183 350.866 448.579C349.006 447.545 349.006 445.823 350.866 444.72C351.929 444.165 353.111 443.875 354.31 443.875C355.51 443.875 356.692 444.165 357.755 444.72Z" fill="#313030"/>
<path d="M375.259 434.664C375.649 434.814 375.985 435.079 376.221 435.423C376.458 435.767 376.584 436.175 376.584 436.593C376.584 437.011 376.458 437.419 376.221 437.763C375.985 438.107 375.649 438.372 375.259 438.522C374.192 439.066 373.012 439.35 371.814 439.35C370.617 439.35 369.436 439.066 368.37 438.522C366.51 437.489 366.51 435.766 368.37 434.664C369.436 434.12 370.617 433.836 371.814 433.836C373.012 433.836 374.192 434.12 375.259 434.664Z" fill="#313030"/>
<path d="M392.685 424.598C393.075 424.748 393.41 425.012 393.646 425.357C393.883 425.701 394.01 426.109 394.01 426.527C394.01 426.944 393.883 427.352 393.646 427.697C393.41 428.041 393.075 428.306 392.685 428.456C391.618 429 390.438 429.284 389.24 429.284C388.043 429.284 386.862 429 385.795 428.456C383.935 427.353 383.935 425.631 385.795 424.598C386.862 424.053 388.043 423.77 389.24 423.77C390.438 423.77 391.618 424.053 392.685 424.598Z" fill="#313030"/>
<path d="M406.739 419.218C409.327 419.218 411.424 417.985 411.424 416.463C411.424 414.941 409.327 413.707 406.739 413.707C404.152 413.707 402.055 414.941 402.055 416.463C402.055 417.985 404.152 419.218 406.739 419.218Z" fill="#313030"/>
<path d="M427.548 404.485C429.408 405.519 429.408 407.241 427.548 408.343C426.481 408.888 425.301 409.172 424.103 409.172C422.906 409.172 421.725 408.888 420.659 408.343C418.799 407.241 418.799 405.519 420.659 404.485C421.706 403.881 422.894 403.562 424.103 403.562C425.313 403.562 426.501 403.881 427.548 404.485Z" fill="#313030"/>
<path d="M441.671 399.117C444.258 399.117 446.356 397.883 446.356 396.361C446.356 394.839 444.258 393.605 441.671 393.605C439.084 393.605 436.986 394.839 436.986 396.361C436.986 397.883 439.084 399.117 441.671 399.117Z" fill="#313030"/>
<path d="M197.519 519.867C200.106 519.867 202.203 518.633 202.203 517.111C202.203 515.589 200.106 514.355 197.519 514.355C194.931 514.355 192.834 515.589 192.834 517.111C192.834 518.633 194.931 519.867 197.519 519.867Z" fill="#313030"/>
<path d="M218.247 505.134C220.107 506.237 220.107 507.959 218.247 508.992C217.184 509.548 216.002 509.838 214.803 509.838C213.603 509.838 212.421 509.548 211.358 508.992C209.498 507.959 209.498 506.237 211.358 505.134C212.421 504.579 213.603 504.289 214.803 504.289C216.002 504.289 217.184 504.579 218.247 505.134Z" fill="#313030"/>
<path d="M232.368 499.765C234.956 499.765 237.053 498.532 237.053 497.01C237.053 495.488 234.956 494.254 232.368 494.254C229.781 494.254 227.684 495.488 227.684 497.01C227.684 498.532 229.781 499.765 232.368 499.765Z" fill="#313030"/>
<path d="M253.179 485.028C253.569 485.178 253.904 485.443 254.141 485.787C254.377 486.132 254.504 486.54 254.504 486.957C254.504 487.375 254.377 487.783 254.141 488.127C253.904 488.472 253.569 488.736 253.179 488.886C252.112 489.431 250.932 489.715 249.734 489.715C248.537 489.715 247.356 489.431 246.29 488.886C244.43 487.784 244.43 486.062 246.29 485.028C247.337 484.424 248.525 484.105 249.734 484.105C250.944 484.105 252.132 484.424 253.179 485.028Z" fill="#313030"/>
<path d="M270.603 474.966C272.463 475.999 272.463 477.722 270.603 478.824C269.536 479.368 268.356 479.652 267.158 479.652C265.961 479.652 264.78 479.368 263.713 478.824C261.853 477.722 261.853 475.999 263.713 474.966C264.761 474.361 265.949 474.043 267.158 474.043C268.367 474.043 269.555 474.361 270.603 474.966Z" fill="#313030"/>
<path d="M288.042 464.9C289.902 465.933 289.902 467.655 288.042 468.689C286.995 469.293 285.807 469.612 284.598 469.612C283.388 469.612 282.2 469.293 281.153 468.689C279.293 467.655 279.293 465.933 281.153 464.9C282.2 464.295 283.388 463.977 284.598 463.977C285.807 463.977 286.995 464.295 288.042 464.9Z" fill="#313030"/>
<path d="M302.163 459.531C304.75 459.531 306.848 458.297 306.848 456.775C306.848 455.253 304.75 454.02 302.163 454.02C299.576 454.02 297.479 455.253 297.479 456.775C297.479 458.297 299.576 459.531 302.163 459.531Z" fill="#313030"/>
<path d="M322.902 444.703C324.762 445.805 324.762 447.528 322.902 448.561C321.854 449.166 320.666 449.484 319.457 449.484C318.248 449.484 317.06 449.166 316.012 448.561C315.623 448.411 315.287 448.146 315.051 447.802C314.814 447.458 314.687 447.05 314.688 446.632C314.687 446.214 314.814 445.806 315.051 445.462C315.287 445.118 315.623 444.853 316.012 444.703C317.079 444.159 318.26 443.875 319.457 443.875C320.655 443.875 321.835 444.159 322.902 444.703Z" fill="#313030"/>
<path d="M337.026 439.347C339.614 439.347 341.711 438.114 341.711 436.592C341.711 435.07 339.614 433.836 337.026 433.836C334.439 433.836 332.342 435.07 332.342 436.592C332.342 438.114 334.439 439.347 337.026 439.347Z" fill="#313030"/>
<path d="M354.45 429.281C357.038 429.281 359.135 428.047 359.135 426.525C359.135 425.003 357.038 423.77 354.45 423.77C351.863 423.77 349.766 425.003 349.766 426.525C349.766 428.047 351.863 429.281 354.45 429.281Z" fill="#313030"/>
<path d="M371.876 419.218C374.463 419.218 376.561 417.985 376.561 416.463C376.561 414.941 374.463 413.707 371.876 413.707C369.289 413.707 367.191 414.941 367.191 416.463C367.191 417.985 369.289 419.218 371.876 419.218Z" fill="#313030"/>
<path d="M392.685 404.485C393.075 404.635 393.41 404.9 393.646 405.244C393.883 405.589 394.01 405.997 394.01 406.414C394.01 406.832 393.883 407.24 393.646 407.585C393.41 407.929 393.075 408.193 392.685 408.343C391.618 408.888 390.438 409.172 389.24 409.172C388.043 409.172 386.862 408.888 385.795 408.343C383.935 407.241 383.935 405.519 385.795 404.485C386.843 403.881 388.031 403.562 389.24 403.562C390.449 403.562 391.637 403.881 392.685 404.485Z" fill="#313030"/>
<path d="M410.111 394.204C410.5 394.354 410.836 394.619 411.073 394.963C411.309 395.308 411.435 395.715 411.435 396.133C411.435 396.551 411.309 396.959 411.073 397.303C410.836 397.648 410.5 397.912 410.111 398.062C409.044 398.607 407.863 398.89 406.666 398.89C405.468 398.89 404.288 398.607 403.221 398.062C401.361 396.96 401.361 395.238 403.221 394.204C404.269 393.6 405.457 393.281 406.666 393.281C407.875 393.281 409.063 393.6 410.111 394.204Z" fill="#313030"/>
<path d="M427.548 384.285C429.408 385.387 429.408 387.11 427.548 388.143C426.501 388.748 425.313 389.066 424.103 389.066C422.894 389.066 421.706 388.748 420.659 388.143C418.799 387.11 418.799 385.387 420.659 384.285C421.725 383.741 422.906 383.457 424.103 383.457C425.301 383.457 426.481 383.741 427.548 384.285Z" fill="#313030"/>
<path d="M183.259 505.052C185.119 506.085 185.119 507.808 183.259 508.841C182.211 509.446 181.023 509.764 179.814 509.764C178.605 509.764 177.417 509.446 176.369 508.841C175.972 508.708 175.627 508.454 175.382 508.114C175.137 507.774 175.006 507.365 175.006 506.946C175.006 506.527 175.137 506.119 175.382 505.779C175.627 505.439 175.972 505.185 176.369 505.052C177.417 504.447 178.605 504.129 179.814 504.129C181.023 504.129 182.211 504.447 183.259 505.052Z" fill="#313030"/>
<path d="M197.37 499.679C199.958 499.679 202.055 498.446 202.055 496.924C202.055 495.402 199.958 494.168 197.37 494.168C194.783 494.168 192.686 495.402 192.686 496.924C192.686 498.446 194.783 499.679 197.37 499.679Z" fill="#313030"/>
<path d="M218.11 484.883C219.97 485.985 219.97 487.707 218.11 488.741C217.063 489.345 215.875 489.664 214.666 489.664C213.456 489.664 212.268 489.345 211.221 488.741C210.831 488.591 210.496 488.326 210.259 487.982C210.023 487.637 209.896 487.23 209.896 486.812C209.896 486.394 210.023 485.986 210.259 485.642C210.496 485.297 210.831 485.033 211.221 484.883C212.288 484.339 213.468 484.055 214.666 484.055C215.863 484.055 217.044 484.339 218.11 484.883Z" fill="#313030"/>
<path d="M235.538 474.834C237.398 475.936 237.398 477.658 235.538 478.692C234.491 479.296 233.303 479.615 232.094 479.615C230.884 479.615 229.696 479.296 228.649 478.692C226.789 477.658 226.789 475.936 228.649 474.834C229.712 474.278 230.894 473.988 232.094 473.988C233.293 473.988 234.475 474.278 235.538 474.834Z" fill="#313030"/>
<path d="M253.044 464.75C253.434 464.9 253.769 465.165 254.006 465.509C254.242 465.853 254.369 466.261 254.369 466.679C254.369 467.097 254.242 467.505 254.006 467.849C253.769 468.194 253.434 468.458 253.044 468.608C251.977 469.152 250.797 469.436 249.599 469.436C248.402 469.436 247.221 469.152 246.155 468.608C244.295 467.506 244.295 465.783 246.155 464.75C247.221 464.206 248.402 463.922 249.599 463.922C250.797 463.922 251.977 464.206 253.044 464.75Z" fill="#313030"/>
<path d="M270.468 454.7C270.858 454.85 271.193 455.115 271.43 455.459C271.666 455.804 271.792 456.212 271.792 456.629C271.792 457.047 271.666 457.455 271.43 457.799C271.193 458.144 270.858 458.408 270.468 458.558C269.401 459.103 268.221 459.386 267.023 459.386C265.826 459.386 264.645 459.103 263.579 458.558C261.719 457.456 261.719 455.734 263.579 454.7C264.626 454.096 265.814 453.777 267.023 453.777C268.233 453.777 269.421 454.096 270.468 454.7Z" fill="#313030"/>
<path d="M287.894 444.638C288.284 444.788 288.619 445.052 288.855 445.397C289.092 445.741 289.219 446.149 289.219 446.567C289.219 446.985 289.092 447.392 288.855 447.737C288.619 448.081 288.284 448.346 287.894 448.496C286.827 449.04 285.647 449.324 284.449 449.324C283.252 449.324 282.071 449.04 281.004 448.496C279.144 447.393 279.144 445.671 281.004 444.638C282.052 444.033 283.24 443.715 284.449 443.715C285.658 443.715 286.846 444.033 287.894 444.638Z" fill="#313030"/>
<path d="M302.028 439.265C304.616 439.265 306.713 438.032 306.713 436.51C306.713 434.988 304.616 433.754 302.028 433.754C299.441 433.754 297.344 434.988 297.344 436.51C297.344 438.032 299.441 439.265 302.028 439.265Z" fill="#313030"/>
<path d="M322.757 424.465C324.617 425.567 324.617 427.289 322.757 428.323C321.71 428.927 320.522 429.246 319.312 429.246C318.103 429.246 316.915 428.927 315.868 428.323C314.008 427.289 314.008 425.567 315.868 424.465C316.934 423.921 318.115 423.637 319.312 423.637C320.51 423.637 321.69 423.921 322.757 424.465Z" fill="#313030"/>
<path d="M336.878 419.164C339.465 419.164 341.563 417.93 341.563 416.408C341.563 414.886 339.465 413.652 336.878 413.652C334.291 413.652 332.193 414.886 332.193 416.408C332.193 417.93 334.291 419.164 336.878 419.164Z" fill="#313030"/>
<path d="M350.93 404.336C351.997 403.792 353.178 403.508 354.375 403.508C355.573 403.508 356.753 403.792 357.82 404.336C359.68 405.438 359.68 407.161 357.82 408.194C356.772 408.799 355.584 409.117 354.375 409.117C353.166 409.117 351.978 408.799 350.93 408.194C350.541 408.044 350.205 407.779 349.969 407.435C349.732 407.091 349.605 406.683 349.605 406.265C349.605 405.847 349.732 405.439 349.969 405.095C350.205 404.751 350.541 404.486 350.93 404.336C352.791 403.303 349.139 405.438 350.93 404.336Z" fill="#313030"/>
<path d="M375.048 394.216C376.908 395.318 376.908 397.041 375.048 398.074C373.985 398.629 372.803 398.919 371.604 398.919C370.404 398.919 369.222 398.629 368.159 398.074C366.574 397.109 373.257 393.252 375.048 394.216Z" fill="#313030"/>
<path d="M165.757 494.945C167.617 496.048 167.617 497.77 165.757 498.803C164.71 499.408 163.522 499.726 162.312 499.726C161.103 499.726 159.915 499.408 158.868 498.803C157.008 497.77 157.008 496.048 158.868 494.945C159.934 494.401 161.115 494.117 162.312 494.117C163.51 494.117 164.69 494.401 165.757 494.945Z" fill="#313030"/>
<path d="M183.245 484.883C185.105 485.985 185.105 487.707 183.245 488.741C182.198 489.345 181.01 489.664 179.8 489.664C178.591 489.664 177.403 489.345 176.356 488.741C175.966 488.591 175.631 488.326 175.394 487.982C175.158 487.637 175.031 487.23 175.031 486.812C175.031 486.394 175.158 485.986 175.394 485.642C175.631 485.297 175.966 485.033 176.356 484.883C177.422 484.339 178.603 484.055 179.8 484.055C180.998 484.055 182.178 484.339 183.245 484.883Z" fill="#313030"/>
<path d="M197.37 479.5C199.958 479.5 202.055 478.266 202.055 476.744C202.055 475.222 199.958 473.988 197.37 473.988C194.783 473.988 192.686 475.222 192.686 476.744C192.686 478.266 194.783 479.5 197.37 479.5Z" fill="#313030"/>
<path d="M218.11 464.75C219.97 465.783 219.97 467.506 218.11 468.608C217.044 469.152 215.863 469.436 214.666 469.436C213.468 469.436 212.288 469.152 211.221 468.608C210.831 468.458 210.496 468.194 210.259 467.849C210.023 467.505 209.896 467.097 209.896 466.679C209.896 466.261 210.023 465.853 210.259 465.509C210.496 465.165 210.831 464.9 211.221 464.75C212.288 464.206 213.468 463.922 214.666 463.922C215.863 463.922 217.044 464.206 218.11 464.75Z" fill="#313030"/>
<path d="M232.235 459.394C234.823 459.394 236.92 458.16 236.92 456.639C236.92 455.117 234.823 453.883 232.235 453.883C229.648 453.883 227.551 455.117 227.551 456.639C227.551 458.16 229.648 459.394 232.235 459.394Z" fill="#313030"/>
<path d="M249.659 449.332C252.247 449.332 254.344 448.098 254.344 446.576C254.344 445.054 252.247 443.82 249.659 443.82C247.072 443.82 244.975 445.054 244.975 446.576C244.975 448.098 247.072 449.332 249.659 449.332Z" fill="#313030"/>
<path d="M267.099 439.265C269.686 439.265 271.783 438.032 271.783 436.51C271.783 434.988 269.686 433.754 267.099 433.754C264.511 433.754 262.414 434.988 262.414 436.51C262.414 438.032 264.511 439.265 267.099 439.265Z" fill="#313030"/>
<path d="M287.894 424.465C288.284 424.615 288.619 424.879 288.855 425.224C289.092 425.568 289.219 425.976 289.219 426.394C289.219 426.812 289.092 427.219 288.855 427.564C288.619 427.908 288.284 428.173 287.894 428.323C286.846 428.927 285.658 429.246 284.449 429.246C283.24 429.246 282.052 428.927 281.004 428.323C279.144 427.289 279.144 425.567 281.004 424.465C282.071 423.921 283.252 423.637 284.449 423.637C285.647 423.637 286.827 423.921 287.894 424.465Z" fill="#313030"/>
<path d="M298.643 414.398C299.71 413.854 300.89 413.57 302.088 413.57C303.285 413.57 304.466 413.854 305.532 414.398C307.392 415.501 307.392 417.223 305.532 418.256C304.485 418.861 303.297 419.179 302.088 419.179C300.878 419.179 299.69 418.861 298.643 418.256C296.783 417.223 296.783 415.501 298.643 414.398Z" fill="#313030"/>
<path d="M148.386 484.883C150.246 485.985 150.246 487.707 148.386 488.741C147.339 489.345 146.151 489.664 144.941 489.664C143.732 489.664 142.544 489.345 141.497 488.741C139.637 487.707 139.637 485.985 141.497 484.883C142.563 484.339 143.744 484.055 144.941 484.055C146.139 484.055 147.319 484.339 148.386 484.883Z" fill="#313030"/>
<path d="M162.521 479.5C165.108 479.5 167.205 478.266 167.205 476.744C167.205 475.222 165.108 473.988 162.521 473.988C159.933 473.988 157.836 475.222 157.836 476.744C157.836 478.266 159.933 479.5 162.521 479.5Z" fill="#313030"/>
<path d="M183.245 464.75C185.105 465.783 185.105 467.506 183.245 468.608C182.178 469.152 180.998 469.436 179.8 469.436C178.603 469.436 177.422 469.152 176.356 468.608C175.966 468.458 175.631 468.194 175.394 467.849C175.158 467.505 175.031 467.097 175.031 466.679C175.031 466.261 175.158 465.853 175.394 465.509C175.631 465.165 175.966 464.9 176.356 464.75C177.422 464.206 178.603 463.922 179.8 463.922C180.998 463.922 182.178 464.206 183.245 464.75Z" fill="#313030"/>
<path d="M200.685 454.7C202.545 455.734 202.545 457.456 200.685 458.558C199.618 459.103 198.438 459.386 197.24 459.386C196.043 459.386 194.862 459.103 193.796 458.558C193.406 458.408 193.071 458.144 192.834 457.799C192.598 457.455 192.471 457.047 192.471 456.629C192.471 456.212 192.598 455.804 192.834 455.459C193.071 455.115 193.406 454.85 193.796 454.7C194.843 454.096 196.031 453.777 197.24 453.777C198.45 453.777 199.638 454.096 200.685 454.7Z" fill="#313030"/>
<path d="M218.11 444.638C219.97 445.671 219.97 447.393 218.11 448.496C217.044 449.04 215.863 449.324 214.666 449.324C213.468 449.324 212.288 449.04 211.221 448.496C210.831 448.346 210.496 448.081 210.259 447.737C210.023 447.392 209.896 446.985 209.896 446.567C209.896 446.149 210.023 445.741 210.259 445.397C210.496 445.052 210.831 444.788 211.221 444.638C212.268 444.033 213.456 443.715 214.666 443.715C215.875 443.715 217.063 444.033 218.11 444.638Z" fill="#313030"/>
<path d="M232.235 439.265C234.823 439.265 236.92 438.032 236.92 436.51C236.92 434.988 234.823 433.754 232.235 433.754C229.648 433.754 227.551 434.988 227.551 436.51C227.551 438.032 229.648 439.265 232.235 439.265Z" fill="#313030"/>
<path d="M253.044 424.465C253.434 424.615 253.769 424.879 254.006 425.224C254.242 425.568 254.369 425.976 254.369 426.394C254.369 426.812 254.242 427.219 254.006 427.564C253.769 427.908 253.434 428.173 253.044 428.323C251.997 428.927 250.809 429.246 249.599 429.246C248.39 429.246 247.202 428.927 246.155 428.323C244.295 427.289 244.295 425.567 246.155 424.465C247.221 423.921 248.402 423.637 249.599 423.637C250.797 423.637 251.977 423.921 253.044 424.465Z" fill="#313030"/>
<path d="M127.591 479.5C130.178 479.5 132.276 478.266 132.276 476.744C132.276 475.222 130.178 473.988 127.591 473.988C125.004 473.988 122.906 475.222 122.906 476.744C122.906 478.266 125.004 479.5 127.591 479.5Z" fill="#313030"/>
<path d="M148.386 464.75C148.81 464.864 149.185 465.115 149.452 465.464C149.719 465.813 149.864 466.24 149.864 466.679C149.864 467.118 149.719 467.545 149.452 467.894C149.185 468.243 148.81 468.494 148.386 468.608C147.32 469.152 146.139 469.436 144.942 469.436C143.744 469.436 142.564 469.152 141.497 468.608C141.073 468.494 140.699 468.243 140.432 467.894C140.164 467.545 140.02 467.118 140.02 466.679C140.02 466.24 140.164 465.813 140.432 465.464C140.699 465.115 141.073 464.864 141.497 464.75C142.564 464.206 143.744 463.922 144.942 463.922C146.139 463.922 147.32 464.206 148.386 464.75Z" fill="#313030"/>
<path d="M165.757 454.7C167.617 455.734 167.617 457.456 165.757 458.558C164.69 459.103 163.51 459.386 162.312 459.386C161.115 459.386 159.934 459.103 158.868 458.558C157.008 457.456 157.008 455.734 158.868 454.7C159.915 454.096 161.103 453.777 162.312 453.777C163.522 453.777 164.71 454.096 165.757 454.7Z" fill="#313030"/>
<path d="M183.245 444.638C185.105 445.671 185.105 447.393 183.245 448.496C182.178 449.04 180.998 449.324 179.8 449.324C178.603 449.324 177.422 449.04 176.356 448.496C175.966 448.346 175.631 448.081 175.394 447.737C175.158 447.392 175.031 446.985 175.031 446.567C175.031 446.149 175.158 445.741 175.394 445.397C175.631 445.052 175.966 444.788 176.356 444.638C177.403 444.033 178.591 443.715 179.8 443.715C181.01 443.715 182.198 444.033 183.245 444.638Z" fill="#313030"/>
<path d="M200.685 434.599C202.545 435.632 202.545 437.355 200.685 438.457C199.618 439.001 198.438 439.285 197.24 439.285C196.043 439.285 194.862 439.001 193.796 438.457C193.406 438.307 193.071 438.042 192.834 437.698C192.598 437.354 192.471 436.946 192.471 436.528C192.471 436.11 192.598 435.702 192.834 435.358C193.071 435.013 193.406 434.749 193.796 434.599C194.843 433.994 196.031 433.676 197.24 433.676C198.45 433.676 199.638 433.994 200.685 434.599Z" fill="#313030"/>
<path d="M218.11 424.465C219.97 425.567 219.97 427.289 218.11 428.323C217.063 428.927 215.875 429.246 214.666 429.246C213.456 429.246 212.268 428.927 211.221 428.323C210.831 428.173 210.496 427.908 210.259 427.564C210.023 427.219 209.896 426.812 209.896 426.394C209.896 425.976 210.023 425.568 210.259 425.224C210.496 424.879 210.831 424.615 211.221 424.465C212.288 423.921 213.468 423.637 214.666 423.637C215.863 423.637 217.044 423.921 218.11 424.465Z" fill="#313030"/>
<path d="M508.145 414.883C509.212 414.339 510.392 414.055 511.59 414.055C512.787 414.055 513.968 414.339 515.035 414.883C516.895 415.985 516.895 417.707 515.035 418.741C513.987 419.345 512.799 419.664 511.59 419.664C510.381 419.664 509.193 419.345 508.145 418.741C507.755 418.591 507.42 418.326 507.184 417.982C506.947 417.637 506.82 417.23 506.82 416.812C506.82 416.394 506.947 415.986 507.184 415.642C507.42 415.297 507.755 415.033 508.145 414.883Z" fill="#313030"/>
<path d="M532.327 404.551C532.717 404.701 533.052 404.965 533.289 405.31C533.525 405.654 533.652 406.062 533.652 406.48C533.652 406.898 533.525 407.305 533.289 407.65C533.052 407.994 532.717 408.259 532.327 408.409C531.261 408.953 530.08 409.237 528.883 409.237C527.685 409.237 526.505 408.953 525.438 408.409C523.578 407.306 523.578 405.584 525.438 404.551C526.505 404.006 527.685 403.723 528.883 403.723C530.08 403.723 531.261 404.006 532.327 404.551Z" fill="#313030"/>
<path d="M546.382 399.168C548.969 399.168 551.067 397.934 551.067 396.412C551.067 394.89 548.969 393.656 546.382 393.656C543.795 393.656 541.697 394.89 541.697 396.412C541.697 397.934 543.795 399.168 546.382 399.168Z" fill="#313030"/>
<path d="M567.191 384.435C569.051 385.468 569.051 387.191 567.191 388.293C566.124 388.837 564.943 389.121 563.746 389.121C562.548 389.121 561.368 388.837 560.301 388.293C558.441 387.191 558.441 385.468 560.301 384.435C561.349 383.83 562.537 383.512 563.746 383.512C564.955 383.512 566.143 383.83 567.191 384.435Z" fill="#313030"/>
<path d="M581.312 379.066C583.899 379.066 585.996 377.832 585.996 376.31C585.996 374.788 583.899 373.555 581.312 373.555C578.724 373.555 576.627 374.788 576.627 376.31C576.627 377.832 578.724 379.066 581.312 379.066Z" fill="#313030"/>
<path d="M490.719 404.551C491.786 404.006 492.966 403.723 494.164 403.723C495.361 403.723 496.542 404.006 497.608 404.551C499.468 405.584 499.468 407.306 497.608 408.409C496.542 408.953 495.361 409.237 494.164 409.237C492.966 409.237 491.786 408.953 490.719 408.409C490.329 408.259 489.994 407.994 489.757 407.65C489.521 407.305 489.395 406.898 489.395 406.48C489.395 406.062 489.521 405.654 489.757 405.31C489.994 404.965 490.329 404.701 490.719 404.551Z" fill="#313030"/>
<path d="M514.835 394.204C516.695 395.238 516.695 396.96 514.835 398.062C513.772 398.618 512.59 398.908 511.39 398.908C510.191 398.908 509.009 398.618 507.946 398.062C506.086 396.96 506.086 395.238 507.946 394.204C508.993 393.6 510.181 393.281 511.39 393.281C512.6 393.281 513.788 393.6 514.835 394.204Z" fill="#313030"/>
<path d="M532.327 384.435C532.717 384.585 533.052 384.849 533.289 385.194C533.525 385.538 533.652 385.946 533.652 386.364C533.652 386.781 533.525 387.19 533.289 387.534C533.052 387.878 532.717 388.143 532.327 388.293C531.261 388.837 530.08 389.121 528.883 389.121C527.685 389.121 526.505 388.837 525.438 388.293C523.578 387.191 523.578 385.468 525.438 384.435C526.485 383.83 527.673 383.512 528.883 383.512C530.092 383.512 531.28 383.83 532.327 384.435Z" fill="#313030"/>
<path d="M549.767 374.368C550.164 374.501 550.509 374.756 550.754 375.096C550.999 375.436 551.13 375.844 551.13 376.263C551.13 376.682 550.999 377.09 550.754 377.43C550.509 377.77 550.164 378.025 549.767 378.157C548.719 378.762 547.531 379.08 546.322 379.08C545.113 379.08 543.925 378.762 542.877 378.157C541.017 377.124 541.017 375.402 542.877 374.368C543.925 373.764 545.113 373.445 546.322 373.445C547.531 373.445 548.719 373.764 549.767 374.368Z" fill="#313030"/>
<path d="M567.191 364.238C569.051 365.341 569.051 367.063 567.191 368.096C566.143 368.701 564.955 369.019 563.746 369.019C562.537 369.019 561.349 368.701 560.301 368.096C558.441 367.063 558.441 365.341 560.301 364.238C561.368 363.694 562.548 363.41 563.746 363.41C564.943 363.41 566.124 363.694 567.191 364.238Z" fill="#313030"/>
<path d="M584.614 354.199C586.475 355.302 586.475 357.024 584.614 358.057C583.567 358.662 582.379 358.98 581.17 358.98C579.96 358.98 578.772 358.662 577.725 358.057C575.865 357.024 575.865 355.302 577.725 354.199C578.792 353.655 579.972 353.371 581.17 353.371C582.367 353.371 583.548 353.655 584.614 354.199Z" fill="#313030"/>
<path d="M473.294 394.219C474.36 393.674 475.541 393.391 476.738 393.391C477.936 393.391 479.116 393.674 480.183 394.219C482.043 395.252 482.043 396.974 480.183 398.077C479.116 398.621 477.936 398.905 476.738 398.905C475.541 398.905 474.36 398.621 473.294 398.077C472.904 397.927 472.569 397.662 472.332 397.318C472.096 396.973 471.969 396.566 471.969 396.148C471.969 395.73 472.096 395.322 472.332 394.978C472.569 394.633 472.904 394.369 473.294 394.219Z" fill="#313030"/>
<path d="M497.398 384.435C499.258 385.468 499.258 387.191 497.398 388.293C496.334 388.848 495.153 389.138 493.953 389.138C492.753 389.138 491.572 388.848 490.508 388.293C488.648 387.191 488.648 385.468 490.508 384.435C491.556 383.83 492.744 383.512 493.953 383.512C495.162 383.512 496.35 383.83 497.398 384.435Z" fill="#313030"/>
<path d="M511.519 379.066C514.106 379.066 516.203 377.832 516.203 376.31C516.203 374.788 514.106 373.555 511.519 373.555C508.931 373.555 506.834 374.788 506.834 376.31C506.834 377.832 508.931 379.066 511.519 379.066Z" fill="#313030"/>
<path d="M528.956 369.004C531.543 369.004 533.641 367.77 533.641 366.248C533.641 364.726 531.543 363.492 528.956 363.492C526.369 363.492 524.271 364.726 524.271 366.248C524.271 367.77 526.369 369.004 528.956 369.004Z" fill="#313030"/>
<path d="M549.767 354.199C550.157 354.349 550.492 354.614 550.728 354.958C550.965 355.303 551.092 355.71 551.092 356.128C551.092 356.546 550.965 356.954 550.728 357.298C550.492 357.643 550.157 357.907 549.767 358.057C548.719 358.662 547.531 358.98 546.322 358.98C545.113 358.98 543.925 358.662 542.877 358.057C541.017 357.024 541.017 355.302 542.877 354.199C543.944 353.655 545.125 353.371 546.322 353.371C547.52 353.371 548.7 353.655 549.767 354.199Z" fill="#313030"/>
<path d="M567.191 344.133C569.051 345.235 569.051 346.957 567.191 347.991C566.124 348.535 564.943 348.819 563.746 348.819C562.548 348.819 561.368 348.535 560.301 347.991C558.441 346.957 558.441 345.235 560.301 344.133C561.368 343.589 562.548 343.305 563.746 343.305C564.943 343.305 566.124 343.589 567.191 344.133Z" fill="#313030"/>
<path d="M455.858 384.435C456.905 383.83 458.093 383.512 459.303 383.512C460.512 383.512 461.7 383.83 462.747 384.435C464.607 385.468 464.607 387.191 462.747 388.293C461.681 388.837 460.5 389.121 459.303 389.121C458.105 389.121 456.925 388.837 455.858 388.293C453.998 387.328 453.998 385.468 455.858 384.435Z" fill="#313030"/>
<path d="M479.968 374.368C481.828 375.402 481.828 377.124 479.968 378.157C478.92 378.762 477.732 379.08 476.523 379.08C475.314 379.08 474.126 378.762 473.078 378.157C472.681 378.025 472.336 377.77 472.091 377.43C471.846 377.09 471.715 376.682 471.715 376.263C471.715 375.844 471.846 375.436 472.091 375.096C472.336 374.756 472.681 374.501 473.078 374.368C474.126 373.764 475.314 373.445 476.523 373.445C477.732 373.445 478.92 373.764 479.968 374.368Z" fill="#313030"/>
<path d="M497.398 364.256C499.258 365.358 499.258 367.08 497.398 368.114C496.35 368.718 495.162 369.036 493.953 369.036C492.744 369.036 491.556 368.718 490.508 368.114C488.648 367.08 488.648 365.358 490.508 364.256C491.572 363.7 492.753 363.41 493.953 363.41C495.153 363.41 496.334 363.7 497.398 364.256Z" fill="#313030"/>
<path d="M514.835 354.189C516.695 355.291 516.695 357.014 514.835 358.047C513.788 358.652 512.6 358.97 511.39 358.97C510.181 358.97 508.993 358.652 507.946 358.047C506.086 357.014 506.086 355.291 507.946 354.189C509.009 353.634 510.191 353.344 511.39 353.344C512.59 353.344 513.772 353.634 514.835 354.189Z" fill="#313030"/>
<path d="M532.327 344.133C532.717 344.283 533.052 344.547 533.289 344.892C533.525 345.236 533.652 345.644 533.652 346.062C533.652 346.48 533.525 346.887 533.289 347.232C533.052 347.576 532.717 347.841 532.327 347.991C531.261 348.535 530.08 348.819 528.883 348.819C527.685 348.819 526.505 348.535 525.438 347.991C523.578 346.957 523.578 345.235 525.438 344.133C526.505 343.589 527.685 343.305 528.883 343.305C530.08 343.305 531.261 343.589 532.327 344.133Z" fill="#313030"/>
<path d="M549.767 334.07C550.157 334.22 550.492 334.485 550.728 334.829C550.965 335.173 551.092 335.581 551.092 335.999C551.092 336.417 550.965 336.825 550.728 337.169C550.492 337.514 550.157 337.778 549.767 337.928C548.7 338.472 547.52 338.756 546.322 338.756C545.125 338.756 543.944 338.472 542.877 337.928C541.017 336.826 541.017 335.104 542.877 334.07C543.944 333.526 545.125 333.242 546.322 333.242C547.52 333.242 548.7 333.526 549.767 334.07Z" fill="#313030"/>
<path d="M438.434 374.368C439.481 373.764 440.669 373.445 441.879 373.445C443.088 373.445 444.276 373.764 445.323 374.368C445.713 374.518 446.049 374.783 446.285 375.127C446.522 375.472 446.648 375.88 446.648 376.297C446.648 376.715 446.522 377.123 446.285 377.467C446.049 377.812 445.713 378.076 445.323 378.226C444.257 378.771 443.076 379.054 441.879 379.054C440.681 379.054 439.501 378.771 438.434 378.226C436.574 377.124 436.574 375.402 438.434 374.368Z" fill="#313030"/>
<path d="M459.23 369.004C461.817 369.004 463.914 367.77 463.914 366.248C463.914 364.726 461.817 363.492 459.23 363.492C456.642 363.492 454.545 364.726 454.545 366.248C454.545 367.77 456.642 369.004 459.23 369.004Z" fill="#313030"/>
<path d="M473.294 354.199C474.36 353.655 475.541 353.371 476.738 353.371C477.936 353.371 479.116 353.655 480.183 354.199C482.043 355.302 482.043 357.024 480.183 358.057C479.136 358.662 477.948 358.98 476.738 358.98C475.529 358.98 474.341 358.662 473.294 358.057C472.904 357.907 472.569 357.643 472.332 357.298C472.096 356.954 471.969 356.546 471.969 356.128C471.969 355.71 472.096 355.303 472.332 354.958C472.569 354.614 472.904 354.349 473.294 354.199C475.154 352.89 471.502 355.302 473.294 354.199Z" fill="#313030"/>
<path d="M490.79 344.127C491.853 343.571 493.035 343.281 494.234 343.281C495.434 343.281 496.616 343.571 497.679 344.127C499.539 345.229 499.539 346.951 497.679 347.985C496.616 348.54 495.434 348.83 494.234 348.83C493.035 348.83 491.853 348.54 490.79 347.985C488.93 346.951 488.93 345.229 490.79 344.127Z" fill="#313030"/>
<path d="M560.159 317.389C560.159 317.389 560.159 317.389 560.159 316.975V308.777H554.854L553.752 308.088L334.743 181.601C328.805 178.924 322.323 177.672 315.816 177.947C309.308 178.223 302.956 180.017 297.265 183.186L17.5613 345.979C15.7491 347.024 14.062 348.272 12.5322 349.699H8.39844V368.713C8.56578 370.679 9.25409 372.564 10.3924 374.174C11.5307 375.785 13.0778 377.063 14.8744 377.876L233.884 504.432C239.804 507.13 246.277 508.393 252.778 508.118C259.278 507.843 265.622 506.037 271.293 502.847L551.065 340.261C553.437 339.202 555.509 337.572 557.096 335.516C558.683 333.46 559.735 331.043 560.159 328.48V317.664V317.389Z" fill="#2A96C5"/>
<path d="M560.16 328.139V317.323C560.16 317.323 560.16 317.323 560.16 316.909V308.711H554.855L553.753 308.022L472.46 261.106C468.253 261.019 464.049 261.388 459.921 262.209C448.347 266.067 262.2 374.297 258.411 390.693C254.622 407.09 247.732 489.416 247.732 489.416V507.742C255.921 508.229 264.082 506.416 271.294 502.506L551.066 339.92C553.438 338.861 555.51 337.23 557.097 335.175C558.684 333.119 559.736 330.701 560.16 328.139Z" fill="#313030"/>
<path d="M250.142 509.805C244.151 509.994 238.214 508.617 232.918 505.809L14.1847 379.391C12.1061 378.397 10.3251 376.875 9.01939 374.977C7.71368 373.079 6.92892 370.871 6.74414 368.575V347.907H12.049C13.5334 346.596 15.1496 345.441 16.8716 344.462L296.575 181.876C302.559 178.54 309.244 176.658 316.09 176.383C322.935 176.108 329.749 177.447 335.982 180.292L554.991 306.778L555.749 307.192H562.638V328.548C562.246 331.459 561.116 334.222 559.356 336.573C557.595 338.925 555.263 340.787 552.58 341.982L272.256 504.431C265.464 508.079 257.851 509.929 250.142 509.805ZM10.3267 351.352V368.437C10.504 370.063 11.107 371.613 12.0747 372.931C13.0423 374.25 14.3402 375.29 15.838 375.946L234.641 502.502C240.269 505.022 246.408 506.192 252.569 505.917C258.729 505.642 264.74 503.93 270.121 500.917L549.893 338.331C552.07 337.485 553.997 336.098 555.491 334.303C556.985 332.507 557.999 330.361 558.436 328.066V310.705H554.509H554.027L552.993 310.016L333.984 183.598C328.351 181.061 322.202 179.877 316.03 180.14C309.857 180.404 303.832 182.107 298.435 185.114L18.7314 347.769C17.0536 348.691 15.5022 349.825 14.1157 351.145L13.5644 351.696L10.3267 351.352Z" fill="#313030"/>
<path d="M233.883 485.778L14.8735 359.36C5.22854 353.78 6.46871 344.134 17.5604 337.727L297.264 175.072C302.949 171.882 309.308 170.082 315.821 169.819C322.335 169.556 328.818 170.836 334.742 173.557L553.751 299.975C563.327 305.555 562.087 315.2 551.064 321.607L271.292 484.262C265.603 487.404 259.26 489.177 252.766 489.44C246.273 489.703 239.808 488.449 233.883 485.778Z" fill="#2A96C5"/>
<path d="M250.142 491.434C244.151 491.623 238.214 490.246 232.918 487.438L14.1847 361.021C12.0539 360.022 10.2352 358.462 8.92436 356.508C7.61348 354.554 6.85974 352.279 6.74414 349.929C7.07968 346.947 8.19138 344.106 9.96843 341.688C11.7455 339.27 14.1259 337.361 16.8716 336.15L296.644 173.771C302.639 170.461 309.325 168.6 316.168 168.337C323.01 168.074 329.819 169.416 336.05 172.255L555.06 298.673C557.172 299.678 558.976 301.23 560.284 303.169C561.593 305.107 562.358 307.361 562.501 309.696C562.152 312.673 561.034 315.509 559.259 317.924C557.484 320.34 555.111 322.252 552.373 323.474L272.601 486.129C265.7 489.811 257.961 491.639 250.142 491.434ZM318.483 171.704C311.406 171.641 304.432 173.397 298.228 176.802L18.5249 339.113C16.377 340.031 14.4977 341.48 13.0636 343.324C11.6295 345.167 10.6877 347.346 10.3267 349.653C10.4543 351.32 11.0351 352.92 12.0065 354.28C12.978 355.64 14.303 356.708 15.838 357.369L234.641 484.132C240.269 486.652 246.408 487.822 252.569 487.546C258.729 487.271 264.74 485.559 270.121 482.547L549.893 319.961C552.041 319.043 553.92 317.594 555.354 315.75C556.789 313.906 557.73 311.728 558.091 309.42C557.949 307.758 557.362 306.164 556.393 304.807C555.423 303.449 554.106 302.378 552.58 301.704L333.57 175.217C328.914 172.802 323.727 171.594 318.483 171.704Z" fill="#313030"/>
<path d="M254.763 473.517L253.798 472.965L42.6426 351.026L308.775 196.293L309.67 196.775L520.895 318.44L254.763 473.517Z" fill="#313030"/>
<path d="M255.933 461.175L40.9883 337.1L312.356 179.336L527.301 303.411L255.933 461.175Z" fill="#E5DDC9"/>
<path d="M255.933 463.11H255.313L37.4746 337.381L312.7 177.344L313.665 177.895L530.883 303.417L255.933 463.11ZM44.8462 336.83L255.933 458.701L523.442 303.142L312.356 181.271L44.8462 336.83Z" fill="#313030"/>
<path d="M493.056 231.154V231.981L471.217 219.373L470.046 220.2C463.845 223.782 460.263 229.432 454.063 225.918C447.862 222.404 441.524 221.164 447.656 217.582L449.103 216.893L451.1 200.428L442.627 197.465L441.249 212.346L417.067 188.096C412.865 185.685 405.562 186.856 404.184 190.232L401.084 197.741H398.26V215.86C398.349 216.49 398.598 217.088 398.984 217.594C399.37 218.101 399.88 218.5 400.464 218.753L466.945 257.195C469.075 258.261 471.473 258.669 473.835 258.366L498.223 255.266C502.15 254.784 504.354 252.717 504.217 250.719V233.014L493.056 231.154Z" fill="#313030"/>
<path d="M472.327 260.218C470.09 260.248 467.884 259.703 465.92 258.633L399.438 220.26C398.574 219.782 397.822 219.125 397.234 218.331L396.27 218.813V195.321L399.714 195.665L402.263 189.465C402.743 188.539 403.405 187.719 404.21 187.056C405.015 186.393 405.947 185.9 406.948 185.607C408.738 185.014 410.627 184.781 412.507 184.923C414.388 185.065 416.221 185.579 417.901 186.434L418.315 186.778L439.603 208.066L440.774 194.976L453.174 199.385V220.053L449.799 218.882L448.49 219.502L447.181 220.398C448.3 221.13 449.475 221.775 450.694 222.327C452.003 222.947 453.45 223.636 454.897 224.462C458.204 226.391 460.271 225.013 464.266 221.982C465.745 220.808 467.311 219.748 468.951 218.813L469.64 218.331L470.604 217.504L472.051 217.987L491.617 228.871L505.395 230.8C505.724 230.85 506.023 231.017 506.239 231.27C506.454 231.524 506.57 231.846 506.566 232.178V250.366C506.566 253.466 503.673 256.222 498.919 256.842L474.531 259.942L472.327 260.218ZM399.99 215.437C399.99 215.851 400.472 216.402 401.23 216.815L467.78 255.257C469.597 256.141 471.638 256.453 473.636 256.153L497.955 253.053C500.917 253.053 502.364 251.399 502.295 250.573V234.383L494.579 233.281V235.072L471.225 221.293C469.715 222.185 468.265 223.174 466.884 224.256C463.026 227.218 458.962 230.249 453.106 227.011C451.833 226.256 450.522 225.566 449.179 224.945C445.872 223.36 443.323 222.12 443.254 219.709C443.185 217.298 445.046 216.264 446.699 215.369C446.699 215.369 449.317 216.815 449.454 216.746V201.797L444.287 199.385L442.841 216.126L415.904 189.121C413.517 188.047 410.815 187.899 408.326 188.707C407.841 188.826 407.385 189.039 406.983 189.335C406.581 189.63 406.241 190.002 405.983 190.43L402.332 199.248H400.265L399.99 215.437Z" fill="#313030"/>
<path d="M502.148 229.9L471.078 211.919C470.704 212.218 470.313 212.494 469.907 212.746C466.439 214.512 462.603 215.433 458.711 215.433C454.82 215.433 450.984 214.512 447.516 212.746C446.209 212.25 445.084 211.369 444.29 210.218C443.495 209.067 443.07 207.703 443.07 206.305C443.07 204.907 443.495 203.542 444.29 202.391C445.084 201.241 446.209 200.359 447.516 199.863L448.963 199.174L416.928 180.642C412.726 178.162 405.423 179.402 404.045 182.778L398.327 196.556C397.707 198.072 398.327 199.656 400.394 200.759L466.875 239.132C468.993 240.231 471.402 240.641 473.764 240.303L498.152 237.203C504.284 236.583 506.42 232.38 502.148 229.9Z" fill="#E5DDC9"/>
<path d="M472.331 242.654C470.094 242.684 467.888 242.139 465.924 241.069L399.442 202.696C398.219 202.176 397.24 201.21 396.703 199.995C396.166 198.78 396.111 197.406 396.549 196.151L402.267 182.373C402.726 181.431 403.381 180.6 404.189 179.934C404.998 179.268 405.94 178.784 406.952 178.515C408.737 177.894 410.63 177.647 412.515 177.789C414.399 177.931 416.234 178.46 417.905 179.341L453.178 200.009L449.803 201.594L448.218 201.318C447.245 201.738 446.397 202.402 445.757 203.248C445.117 204.093 444.706 205.09 444.567 206.141C444.567 207.863 445.876 209.516 448.218 210.894C451.418 212.527 454.959 213.378 458.552 213.378C462.145 213.378 465.686 212.527 468.886 210.894L469.575 210.412L470.539 209.654L471.986 210.067L503.057 228.048C504.108 228.537 504.975 229.349 505.533 230.365C506.09 231.381 506.309 232.549 506.157 233.698C505.605 236.453 502.712 238.52 498.579 239.071L474.191 242.171L472.331 242.654ZM411.567 181.477C410.42 181.48 409.28 181.667 408.192 182.028C407.236 182.277 406.403 182.864 405.849 183.682L400.131 197.46C400.131 198.218 400.958 198.976 401.371 199.182L467.921 237.624C469.73 238.532 471.773 238.868 473.777 238.589L498.096 235.42C500.99 235.075 502.299 233.835 502.437 233.146C502.574 232.457 501.472 231.769 501.197 231.562L471.159 214.27C467.398 216.204 463.229 217.213 459 217.213C454.77 217.213 450.602 216.204 446.84 214.27C445.274 213.53 443.932 212.388 442.951 210.96C441.971 209.531 441.387 207.868 441.26 206.141C441.37 204.751 441.801 203.406 442.518 202.211C443.235 201.015 444.22 200.002 445.394 199.251L416.252 182.442C414.821 181.65 413.2 181.269 411.567 181.339V181.477Z" fill="#313030"/>
<path d="M505.807 291.627L333.575 192.215C329.442 189.873 329.924 185.67 334.678 182.915L345.356 176.783C347.8 175.41 350.533 174.632 353.334 174.512C356.135 174.393 358.925 174.935 361.477 176.094L533.708 275.506C537.842 277.917 537.36 282.395 532.537 284.807L521.928 291.007C519.475 292.359 516.74 293.119 513.941 293.226C511.142 293.334 508.357 292.786 505.807 291.627Z" fill="#E5DDC9"/>
<path d="M512.829 295.215C510.05 295.279 507.301 294.639 504.837 293.355L332.605 193.874C331.502 193.371 330.561 192.569 329.892 191.558C329.222 190.547 328.849 189.368 328.816 188.156C328.958 186.68 329.484 185.267 330.342 184.058C331.201 182.849 332.361 181.887 333.708 181.267L344.386 175.066C347.127 173.531 350.196 172.674 353.336 172.566C356.476 172.458 359.596 173.103 362.436 174.446L534.667 273.858C535.743 274.397 536.66 275.209 537.324 276.212C537.989 277.215 538.379 278.375 538.456 279.576C538.309 281.059 537.772 282.477 536.901 283.687C536.031 284.896 534.856 285.855 533.496 286.465L522.887 292.597C519.803 294.29 516.346 295.19 512.829 295.215ZM506.766 289.979C509.036 290.967 511.504 291.419 513.977 291.299C516.45 291.18 518.862 290.492 521.027 289.29L531.636 283.159C533.496 282.125 534.667 280.747 534.667 279.576C534.667 278.405 533.634 277.647 532.808 277.165L360.576 177.753C358.318 176.766 355.861 176.314 353.399 176.434C350.937 176.553 348.536 177.241 346.384 178.442L335.706 184.574C333.846 185.676 332.743 186.985 332.743 188.156C332.813 188.686 333.022 189.189 333.349 189.612C333.676 190.035 334.108 190.365 334.604 190.567L506.766 289.979Z" fill="#313030"/>
<path d="M451.859 268.763L365.536 219.023C363.47 217.852 363.745 215.785 366.157 214.338L371.461 211.307C372.686 210.628 374.052 210.244 375.451 210.184C376.85 210.124 378.244 210.391 379.522 210.963L465.637 260.703C467.704 261.874 467.428 263.941 465.086 265.319L459.712 268.419C458.514 269.065 457.185 269.432 455.825 269.491C454.465 269.551 453.109 269.302 451.859 268.763Z" fill="#2A96C5"/>
<path d="M455.108 271.526C453.547 271.538 452.007 271.159 450.63 270.424L364.514 220.684C363.838 220.334 363.265 219.813 362.854 219.172C362.443 218.531 362.208 217.793 362.172 217.032C362.246 216.114 362.559 215.231 363.078 214.47C363.597 213.709 364.306 213.096 365.134 212.692L370.439 209.661C371.974 208.835 373.69 208.402 375.434 208.402C377.177 208.402 378.893 208.835 380.428 209.661L466.544 259.333C467.235 259.682 467.818 260.213 468.23 260.868C468.643 261.523 468.87 262.278 468.886 263.053C468.825 263.966 468.526 264.847 468.018 265.609C467.511 266.37 466.813 266.985 465.993 267.393L460.619 270.424C458.911 271.271 457.01 271.651 455.108 271.526ZM376.019 212.072C374.749 212.084 373.499 212.39 372.368 212.968L367.063 216.068C366.236 216.481 366.03 216.964 366.03 217.032L366.443 217.377L452.559 267.048C453.511 267.522 454.561 267.768 455.625 267.768C456.688 267.768 457.738 267.522 458.69 267.048L464.064 263.948C464.822 263.466 465.028 263.053 465.028 262.984C464.986 262.902 464.928 262.829 464.857 262.77C464.786 262.71 464.704 262.666 464.615 262.639L378.499 212.899C377.836 212.462 377.082 212.179 376.295 212.072H376.019Z" fill="#313030"/>
<path d="M297.337 311.533C293.299 309.493 288.84 308.43 284.316 308.43C279.793 308.43 275.332 309.493 271.295 311.533C269.723 312.062 268.356 313.071 267.387 314.419C266.419 315.766 265.898 317.383 265.898 319.042C265.898 320.702 266.419 322.319 267.387 323.666C268.356 325.014 269.723 326.023 271.295 326.552C275.323 328.624 279.787 329.706 284.316 329.706C288.846 329.706 293.309 328.624 297.337 326.552C298.909 326.023 300.276 325.014 301.245 323.666C302.213 322.319 302.734 320.702 302.734 319.042C302.734 317.383 302.213 315.766 301.245 314.419C300.276 313.071 298.909 312.062 297.337 311.533Z" fill="#313030"/>
<path d="M325.727 291.972C312.944 285.386 298.772 281.949 284.391 281.949C270.011 281.949 255.839 285.386 243.056 291.972C231.068 298.861 224.455 308.368 224.455 318.702C224.455 329.036 231.344 338.543 243.056 345.501C255.842 352.077 270.013 355.507 284.391 355.507C298.769 355.507 312.94 352.077 325.727 345.501C337.783 338.612 344.397 329.036 344.328 318.702C344.259 308.368 337.99 298.861 325.727 291.972ZM320.836 336.959C309.521 342.702 297.011 345.695 284.323 345.695C271.634 345.695 259.124 342.702 247.809 336.959C243.858 335.808 240.386 333.407 237.916 330.115C235.445 326.823 234.11 322.818 234.11 318.702C234.11 314.586 235.445 310.582 237.916 307.29C240.386 303.998 243.858 301.596 247.809 300.446C259.135 294.74 271.641 291.768 284.323 291.768C297.005 291.768 309.51 294.74 320.836 300.446C324.787 301.596 328.259 303.998 330.73 307.29C333.2 310.582 334.536 314.586 334.536 318.702C334.536 322.818 333.2 326.823 330.73 330.115C328.259 333.407 324.787 335.808 320.836 336.959Z" fill="#313030"/>
<path d="M297.335 301.272C293.284 299.236 288.814 298.176 284.28 298.176C279.747 298.176 275.276 299.236 271.225 301.272C269.661 301.819 268.305 302.839 267.346 304.19C266.387 305.542 265.871 307.158 265.871 308.816C265.871 310.473 266.387 312.089 267.346 313.441C268.305 314.792 269.661 315.812 271.225 316.359C275.276 318.395 279.747 319.455 284.28 319.455C288.814 319.455 293.284 318.395 297.335 316.359C298.9 315.812 300.255 314.792 301.215 313.441C302.174 312.089 302.689 310.473 302.689 308.816C302.689 307.158 302.174 305.542 301.215 304.19C300.255 302.839 298.9 301.819 297.335 301.272Z" fill="#2A96C5"/>
<path d="M325.727 282.07C312.944 275.483 298.772 272.047 284.391 272.047C270.011 272.047 255.839 275.483 243.056 282.07C231.068 288.959 224.455 298.535 224.455 308.869C224.455 319.203 231.344 328.71 243.056 335.599C255.842 342.174 270.013 345.605 284.391 345.605C298.769 345.605 312.94 342.174 325.727 335.599C337.783 328.71 344.397 319.203 344.328 308.869C344.259 298.535 337.99 289.028 325.727 282.07ZM320.836 327.056C309.521 332.799 297.011 335.792 284.323 335.792C271.634 335.792 259.124 332.799 247.809 327.056C243.846 325.929 240.359 323.54 237.876 320.251C235.393 316.963 234.049 312.955 234.049 308.834C234.049 304.714 235.393 300.706 237.876 297.417C240.359 294.129 243.846 291.74 247.809 290.612C259.121 284.859 271.632 281.86 284.323 281.86C297.013 281.86 309.524 284.859 320.836 290.612C324.76 291.782 328.202 294.187 330.649 297.471C333.096 300.754 334.419 304.739 334.419 308.834C334.419 312.929 333.096 316.915 330.649 320.198C328.202 323.481 324.76 325.887 320.836 327.056Z" fill="#2A96C5"/>
<path d="M276.534 8.4093C237.61 26.3902 202.75 80.6775 199.444 130.831C197.45 147.361 201.143 164.078 209.915 178.229L265.994 283.979L292.862 297.138C295.273 291.627 334.197 104.928 336.333 99.3474C340.536 86.189 369.195 77.9219 369.401 64.9012C370.228 18.6743 314.494 -9.36498 276.534 8.4093ZM271.643 128.214C256.28 135.861 244.568 126.491 245.533 107.546C246.497 88.6002 259.311 67.7946 274.399 60.6987C289.486 53.6028 300.647 62.6278 300.096 80.8843C299.475 90.4344 296.566 99.6949 291.613 107.884C286.661 116.074 279.812 122.952 271.643 127.938V128.214Z" fill="#2A96C5"/>
<path d="M281.423 17.7154C242.499 35.6964 207.57 89.9836 204.264 140.137C203.616 148.784 204.172 157.479 205.917 165.972C250.284 192.634 283.559 191.118 318.281 214.748C329.028 164.594 340.258 112.098 341.153 109.136C345.356 96.0462 366.85 86.1946 367.125 73.4495C367.234 63.2544 364.767 53.1969 359.953 44.2094C355.139 35.2218 348.134 27.5953 339.586 22.0369C331.039 16.4784 321.227 13.168 311.059 12.4126C300.892 11.6571 290.698 13.4812 281.423 17.7154ZM276.463 137.519C261.169 145.167 249.388 135.797 250.353 116.852C251.024 107.275 254.008 98.0044 259.047 89.8334C264.087 81.6624 271.031 74.8349 279.287 69.9359C294.03 63.0466 305.467 71.8649 304.916 90.1903C304.338 99.7882 301.449 109.104 296.495 117.345C291.541 125.586 284.668 132.507 276.463 137.519Z" fill="#E5DDC9"/>
<path d="M294.373 301.418L263.853 286.537L263.371 285.641L207.086 179.34C198.016 164.741 194.178 147.493 196.201 130.426C199.508 79.9969 234.85 23.9873 275.014 5.45524C285.944 0.970394 297.813 -0.74739 309.566 0.454386C321.32 1.65616 332.595 5.74034 342.391 12.3445C351.489 17.8991 359.001 25.7052 364.202 35.0094C369.403 44.3135 372.118 54.8014 372.084 65.4606C372.084 73.6588 363.128 79.7213 354.516 85.5772C347.627 90.3308 340.738 95.1533 338.878 100.458C338.189 102.663 330.817 136.764 323.101 172.795C307.738 244.374 296.784 295.286 295.544 298.524L294.373 301.418ZM268.194 282.059L290.997 293.219C294.648 278.683 307.738 217.438 317.59 171.624C326.959 127.946 332.746 101.009 333.504 98.7357C335.777 91.502 343.769 86.0595 351.485 80.7547C359.201 75.45 366.366 70.6276 366.503 65.3917C366.536 55.7003 364.06 46.1653 359.315 37.7146C354.571 29.2638 347.72 22.1851 339.429 17.1669C330.479 10.9606 320.123 7.08091 309.298 5.87814C298.473 4.67537 287.52 6.18742 277.425 10.2777C239.052 27.9831 205.226 81.7881 202.057 130.22C200.101 146.072 203.626 162.116 212.046 175.689L268.194 282.059ZM261.304 133.595C257.936 133.615 254.633 132.658 251.797 130.84C248.287 128.033 245.575 124.354 243.931 120.172C242.287 115.989 241.769 111.448 242.428 107.003C243.104 96.8972 246.246 87.1112 251.578 78.5003C256.91 69.8894 264.271 62.7158 273.016 57.6068C276.158 55.7929 279.722 54.8379 283.35 54.8379C286.978 54.8379 290.542 55.7929 293.684 57.6068C297.073 60.3138 299.713 63.843 301.353 67.8585C302.993 71.8741 303.578 76.2424 303.053 80.5481C302.464 90.6925 299.424 100.543 294.192 109.254C288.96 117.965 281.694 125.278 273.016 130.564C269.438 132.438 265.48 133.475 261.442 133.595H261.304ZM283.901 60.8448C281.004 60.9055 278.156 61.6116 275.565 62.9116C267.725 67.5253 261.121 73.9727 256.322 81.7004C251.522 89.4281 248.669 98.2054 248.008 107.278C247.458 110.71 247.803 114.225 249.01 117.483C250.217 120.742 252.245 123.634 254.897 125.879C257.25 127.127 259.889 127.733 262.549 127.636C265.21 127.539 267.799 126.743 270.054 125.328C277.803 120.547 284.285 113.968 288.95 106.149C293.615 98.3293 296.326 89.5003 296.853 80.4103C297.289 77.1074 296.887 73.748 295.683 70.6416C294.479 67.5353 292.512 64.782 289.964 62.636C288.197 61.4922 286.143 60.8713 284.039 60.8448H283.901Z" fill="#313030"/>
<path d="M370.023 73.4572C370.85 26.748 341.364 3.80675 303.404 21.3055C265.444 38.8042 229.62 93.505 226.313 143.728C224.317 160.267 228.037 176.991 236.854 191.126L292.864 297.771L356.865 129.742C359.281 124.305 361.397 118.74 363.203 113.07C367.414 100.274 369.712 86.9253 370.023 73.4572Z" fill="#313030"/>
<path d="M294.375 301.426L290.724 299.704L234.232 192.507C225.146 177.89 221.307 160.615 223.346 143.525C226.653 93.1642 262.064 37.0857 302.16 18.6225C320.14 10.3554 337.226 10.4932 350.384 18.967C365.472 28.8186 373.532 48.1774 373.05 73.5299C372.726 87.16 370.405 100.669 366.161 113.625C364.309 119.387 362.147 125.044 359.685 130.573L294.375 301.426ZM327.719 18.4158C319.712 18.577 311.836 20.4813 304.64 23.9961C266.266 41.6326 232.44 95.4378 229.271 143.938C227.332 159.79 230.856 175.828 239.261 189.407L292.446 290.266L354.449 128.368C356.839 122.975 358.931 117.456 360.718 111.834C364.889 99.4514 367.21 86.5212 367.607 73.461C367.607 50.5198 360.718 32.4699 347.56 23.9273C341.645 20.1498 334.735 18.2302 327.719 18.4158Z" fill="#313030"/>
<path d="M295.132 177.625L266.61 158.197C262.614 155.51 262.89 147.518 267.23 140.354C271.57 133.464 278.391 129.675 282.387 132.362L296.785 142.145L323.309 88.2021C327.029 80.7617 333.78 76.0769 338.396 77.7304C342.943 79.4527 343.632 86.8242 339.912 94.2646L300.092 174.524C298.852 177.073 296.648 178.52 295.132 177.625Z" fill="#2A96C5"/>
</g>
<defs>
<clipPath id="clip0_982_38515">
<rect width="586" height="550.038" fill="white"/>
</clipPath>
</defs>
</svg>
