<svg width="34" height="34" viewBox="0 0 34 34" fill="none" xmlns="http://www.w3.org/2000/svg">
<g clip-path="url(#clip0_1143_53453)">
<path d="M-16.1426 1H50.0619V34.1022H-16.1426V1Z" fill="#314D71"/>
<path d="M-16.1426 1V4.70091L42.6602 34.1024H50.0619V30.4016L-8.74095 1H-16.1426ZM50.0619 1V4.70085L-8.74095 34.1022H-16.1426V30.4014L42.6602 1H50.0619Z" fill="white"/>
<path d="M11.4426 1V34.1022H22.4767V1H11.4426ZM-16.1426 12.0341V23.0682H50.0619V12.0341H-16.1426Z" fill="white"/>
<path d="M-16.1426 14.2409V20.8613H50.0619V14.2409H-16.1426ZM13.6495 1V34.1022H20.2698V1H13.6495ZM-16.1426 34.1022L5.92557 23.0682H10.86L-11.2081 34.1022H-16.1426ZM-16.1426 1L5.92557 12.0341H0.99111L-16.1426 3.46736V1ZM23.0593 12.0341L45.1274 1H50.0619L27.9937 12.0341H23.0593ZM50.0619 34.1022L27.9937 23.0682H32.9282L50.0619 31.635V34.1022Z" fill="#CC0000"/>
</g>
<rect x="0.5" y="0.5" width="33" height="33" rx="8.5" stroke="white"/>
<defs>
<clipPath id="clip0_1143_53453">
<rect x="1" y="1" width="32" height="32" rx="8" fill="white"/>
</clipPath>
</defs>
</svg>
