<svg width="20" height="20" viewBox="0 0 20 20" fill="none" xmlns="http://www.w3.org/2000/svg">
<path fill-rule="evenodd" clip-rule="evenodd" d="M0.292886 18.2929C-0.0976387 18.6834 -0.0976387 19.3166 0.292886 19.7071C0.68341 20.0976 1.31657 20.0976 1.7071 19.7071L9.99999 11.4142L18.2929 19.7071C18.6834 20.0976 19.3166 20.0976 19.7071 19.7071C20.0976 19.3166 20.0976 18.6834 19.7071 18.2929L11.4142 10L19.7071 1.70711C20.0976 1.31658 20.0976 0.683417 19.7071 0.292892C19.3166 -0.0976323 18.6834 -0.0976322 18.2929 0.292892L9.99999 8.58579L1.7071 0.292894C1.31657 -0.0976306 0.68341 -0.0976306 0.292886 0.292894C-0.0976387 0.683418 -0.0976387 1.31658 0.292886 1.70711L8.58578 10L0.292886 18.2929Z" fill="#E5DDC9"/>
</svg>
