<svg width="270" height="630" viewBox="0 0 270 630" fill="none" xmlns="http://www.w3.org/2000/svg">
<g clip-path="url(#clip0_936_33405)">
<path d="M255.333 29.3187L255.964 27.5928C258.195 21.4608 259.672 15.0446 260.354 8.52681L260.436 7.70447L261.261 7.6131C264.164 7.30853 267.107 7.15625 270 7.15625V9.19686C267.444 9.19686 264.856 9.31869 262.29 9.56234C261.617 15.3593 260.344 21.0852 258.47 26.5877C262.259 25.9075 266.13 25.5522 269.99 25.5522V27.5928C265.661 27.5928 261.332 28.0395 257.115 28.9227L255.312 29.2984L255.333 29.3187Z" fill="#E5DDC9"/>
<path d="M207.613 89.9982H205.566C205.566 86.1302 205.912 82.2621 206.595 78.4753C201.084 80.3434 195.37 81.6225 189.564 82.2926C189.32 84.8611 189.198 87.45 189.198 89.9982H187.15C187.15 87.1048 187.303 84.1606 187.609 81.2571L187.69 80.4347L188.515 80.3434C195.034 79.6632 201.451 78.1809 207.583 75.9576L209.314 75.3281L208.937 77.1251C208.051 81.3383 207.603 85.6733 207.603 89.9982H207.613Z" fill="#E5DDC9"/>
<path d="M226.019 89.999H223.971C223.971 80.8214 226.67 72.2528 231.325 65.065C224.613 70.3544 217.045 74.6285 208.825 77.6843C208.021 81.7249 207.603 85.8671 207.603 89.999H205.556C205.556 85.532 206.014 81.065 206.931 76.7097L207.043 76.1513L207.583 75.9584C230.123 67.7655 247.755 50.1412 255.944 27.593L256.137 27.0549L256.698 26.9432C261.047 26.0295 265.518 25.5625 269.99 25.5625V27.6031C265.854 27.6031 261.709 28.0092 257.675 28.8214C254.63 37.0346 250.352 44.6082 245.066 51.3188C252.257 46.6691 260.813 43.9686 270 43.9686V46.0092C245.748 46.0092 226.019 65.7351 226.019 89.9889V89.999Z" fill="#E5DDC9"/>
<path d="M244.434 90.0008H242.387C242.387 74.7723 254.773 62.3866 270 62.3866V64.4272C255.903 64.4272 244.434 75.8993 244.434 90.0008ZM226.029 90.0008H223.981C223.981 64.6201 244.628 43.9805 270 43.9805V46.0211C245.748 46.0211 226.019 65.747 226.019 90.0008H226.029Z" fill="#E5DDC9"/>
<path d="M262.839 90.0009H260.792C260.792 84.9248 264.917 80.7928 270 80.7928V82.8334C266.048 82.8334 262.839 86.0415 262.839 89.9908V90.0009ZM244.434 90.0009H242.387C242.387 74.7725 254.772 62.3867 270 62.3867V64.4273C255.903 64.4273 244.434 75.8994 244.434 90.0009Z" fill="#E5DDC9"/>
<path d="M262.839 90.0011H260.792C260.792 84.9249 264.917 80.793 270 80.793V82.8336C266.048 82.8336 262.839 86.0417 262.839 89.9909V90.0011Z" fill="#E5DDC9"/>
<path d="M180 82.8442V80.8036C182.832 80.8036 185.694 80.6513 188.525 80.3569C195.044 79.6767 201.461 78.1945 207.593 75.9711C230.134 67.7782 247.765 50.1538 255.954 27.6056C258.185 21.4736 259.662 15.0574 260.344 8.53964C260.639 5.70715 260.792 2.83405 260.792 0.0117188H262.84C262.84 2.90512 262.687 5.84928 262.381 8.75284C261.678 15.433 260.161 22.0117 257.879 28.3061C249.476 51.4229 231.407 69.4939 208.296 77.8899C202.001 80.1741 195.431 81.6868 188.739 82.3874C185.836 82.6919 182.893 82.8442 180 82.8442ZM180 64.4381V62.3975C214.397 62.3975 242.387 34.4077 242.387 0.0117188H244.434C244.434 35.5447 215.527 64.4483 180 64.4483V64.4381Z" fill="#E5DDC9"/>
<path d="M180 64.4365V62.3959C214.397 62.3959 242.387 34.4061 242.387 0.0101523H244.434C244.434 35.533 215.527 64.4467 180 64.4467V64.4365ZM180 46.0305V43.9898C204.252 43.9797 223.981 24.2538 223.981 0H226.029C226.019 25.3807 205.372 46.0203 180 46.0203V46.0305Z" fill="#E5DDC9"/>
<path d="M180 46.0203V43.9797C204.252 43.9797 223.981 24.2538 223.981 0H226.029C226.019 25.3807 205.372 46.0203 180 46.0203ZM180 27.6142V25.5736C194.097 25.5635 205.566 14.1015 205.566 0H207.613C207.613 15.2284 195.227 27.6142 180 27.6142Z" fill="#E5DDC9"/>
<path d="M180 27.6142V25.5736C194.097 25.5635 205.566 14.1015 205.566 0H207.613C207.613 15.2284 195.227 27.6142 180 27.6142ZM180 9.20812V7.16751C183.952 7.15736 187.16 3.94924 187.16 0H189.208C189.208 5.07614 185.072 9.20812 180 9.20812Z" fill="#E5DDC9"/>
<path d="M180 9.20812V7.16751C183.952 7.15736 187.16 3.94924 187.16 0H189.208C189.208 5.07614 185.072 9.20812 180 9.20812Z" fill="#E5DDC9"/>
</g>
<g clip-path="url(#clip1_936_33405)">
<path d="M165.333 29.3187L165.964 27.5928C168.195 21.4608 169.672 15.0446 170.354 8.52681L170.436 7.70447L171.261 7.6131C174.164 7.30853 177.107 7.15625 180 7.15625V9.19686C177.444 9.19686 174.856 9.31869 172.29 9.56234C171.617 15.3593 170.344 21.0852 168.47 26.5877C172.259 25.9075 176.13 25.5522 179.99 25.5522V27.5928C175.661 27.5928 171.332 28.0395 167.115 28.9227L165.312 29.2984L165.333 29.3187Z" fill="#E5DDC9"/>
<path d="M117.613 89.9982H115.566C115.566 86.1302 115.912 82.2621 116.595 78.4753C111.084 80.3434 105.37 81.6225 99.5644 82.2926C99.3199 84.8611 99.1977 87.45 99.1977 89.9982H97.1504C97.1504 87.1048 97.3032 84.1606 97.6087 81.2571L97.6902 80.4347L98.5153 80.3434C105.034 79.6632 111.451 78.1809 117.583 75.9576L119.314 75.3281L118.937 77.1251C118.051 81.3383 117.603 85.6733 117.603 89.9982H117.613Z" fill="#E5DDC9"/>
<path d="M136.019 89.999H133.971C133.971 80.8214 136.67 72.2528 141.325 65.065C134.613 70.3544 127.045 74.6285 118.825 77.6843C118.021 81.7249 117.603 85.8671 117.603 89.999H115.556C115.556 85.532 116.014 81.065 116.931 76.7097L117.043 76.1513L117.583 75.9584C140.123 67.7655 157.755 50.1412 165.944 27.593L166.137 27.0549L166.698 26.9432C171.047 26.0295 175.518 25.5625 179.99 25.5625V27.6031C175.854 27.6031 171.709 28.0092 167.675 28.8214C164.63 37.0346 160.352 44.6082 155.066 51.3188C162.257 46.6691 170.813 43.9686 180 43.9686V46.0092C155.748 46.0092 136.019 65.7351 136.019 89.9889V89.999Z" fill="#E5DDC9"/>
<path d="M154.434 90.0008H152.387C152.387 74.7723 164.773 62.3866 180 62.3866V64.4272C165.903 64.4272 154.434 75.8993 154.434 90.0008ZM136.029 90.0008H133.981C133.981 64.6201 154.628 43.9805 180 43.9805V46.0211C155.748 46.0211 136.019 65.747 136.019 90.0008H136.029Z" fill="#E5DDC9"/>
<path d="M172.839 90.0009H170.792C170.792 84.9248 174.917 80.7928 180 80.7928V82.8334C176.048 82.8334 172.839 86.0415 172.839 89.9908V90.0009ZM154.434 90.0009H152.387C152.387 74.7725 164.772 62.3867 180 62.3867V64.4273C165.903 64.4273 154.434 75.8994 154.434 90.0009Z" fill="#E5DDC9"/>
<path d="M172.839 90.0011H170.792C170.792 84.9249 174.917 80.793 180 80.793V82.8336C176.048 82.8336 172.839 86.0417 172.839 89.9909V90.0011Z" fill="#E5DDC9"/>
<path d="M90 82.8442V80.8036C92.8316 80.8036 95.6938 80.6513 98.5254 80.3569C105.044 79.6767 111.461 78.1945 117.593 75.9711C140.134 67.7782 157.765 50.1538 165.954 27.6056C168.185 21.4736 169.662 15.0574 170.344 8.53964C170.639 5.70715 170.792 2.83405 170.792 0.0117188H172.84C172.84 2.90512 172.687 5.84928 172.381 8.75284C171.678 15.433 170.161 22.0117 167.879 28.3061C159.476 51.4229 141.407 69.4939 118.296 77.8899C112.001 80.1741 105.431 81.6868 98.7392 82.3874C95.8364 82.6919 92.8927 82.8442 90 82.8442ZM90 64.4381V62.3975C124.397 62.3975 152.387 34.4077 152.387 0.0117188H154.434C154.434 35.5447 125.527 64.4483 90 64.4483V64.4381Z" fill="#E5DDC9"/>
<path d="M90 64.4365V62.3959C124.397 62.3959 152.387 34.4061 152.387 0.0101523H154.434C154.434 35.533 125.527 64.4467 90 64.4467V64.4365ZM90 46.0305V43.9898C114.252 43.9797 133.981 24.2538 133.981 0H136.029C136.019 25.3807 115.372 46.0203 90 46.0203V46.0305Z" fill="#E5DDC9"/>
<path d="M90 46.0203V43.9797C114.252 43.9797 133.981 24.2538 133.981 0H136.029C136.019 25.3807 115.372 46.0203 90 46.0203ZM90 27.6142V25.5736C104.097 25.5635 115.566 14.1015 115.566 0H117.613C117.613 15.2284 105.227 27.6142 90 27.6142Z" fill="#E5DDC9"/>
<path d="M90 27.6142V25.5736C104.097 25.5635 115.566 14.1015 115.566 0H117.613C117.613 15.2284 105.227 27.6142 90 27.6142ZM90 9.20812V7.16751C93.952 7.15736 97.1605 3.94924 97.1605 0H99.2078C99.2078 5.07614 95.0724 9.20812 90 9.20812Z" fill="#E5DDC9"/>
<path d="M90 9.20812V7.16751C93.952 7.15736 97.1605 3.94924 97.1605 0H99.2078C99.2078 5.07614 95.0724 9.20812 90 9.20812Z" fill="#E5DDC9"/>
</g>
<g clip-path="url(#clip2_936_33405)">
<path d="M165.333 119.319L165.964 117.593C168.195 111.461 169.672 105.045 170.354 98.5268L170.436 97.7045L171.261 97.6131C174.164 97.3085 177.107 97.1562 180 97.1562V99.1969C177.444 99.1969 174.856 99.3187 172.29 99.5623C171.617 105.359 170.344 111.085 168.47 116.588C172.259 115.908 176.13 115.552 179.99 115.552V117.593C175.661 117.593 171.332 118.039 167.115 118.923L165.312 119.298L165.333 119.319Z" fill="#314D71"/>
<path d="M117.613 179.998H115.566C115.566 176.13 115.912 172.262 116.595 168.475C111.084 170.343 105.37 171.623 99.5644 172.293C99.3199 174.861 99.1977 177.45 99.1977 179.998H97.1504C97.1504 177.105 97.3032 174.161 97.6087 171.257L97.6902 170.435L98.5153 170.343C105.034 169.663 111.451 168.181 117.583 165.958L119.314 165.328L118.937 167.125C118.051 171.338 117.603 175.673 117.603 179.998H117.613Z" fill="#314D71"/>
<path d="M136.019 179.999H133.971C133.971 170.821 136.67 162.253 141.325 155.065C134.613 160.354 127.045 164.628 118.825 167.684C118.021 171.725 117.603 175.867 117.603 179.999H115.556C115.556 175.532 116.014 171.065 116.931 166.71L117.043 166.151L117.583 165.958C140.123 157.766 157.755 140.141 165.944 117.593L166.137 117.055L166.698 116.943C171.047 116.03 175.518 115.562 179.99 115.562V117.603C175.854 117.603 171.709 118.009 167.675 118.821C164.63 127.035 160.352 134.608 155.066 141.319C162.257 136.669 170.813 133.969 180 133.969V136.009C155.748 136.009 136.019 155.735 136.019 179.989V179.999Z" fill="#314D71"/>
<path d="M154.434 180.001H152.387C152.387 164.772 164.773 152.387 180 152.387V154.427C165.903 154.427 154.434 165.899 154.434 180.001ZM136.029 180.001H133.981C133.981 154.62 154.628 133.98 180 133.98V136.021C155.748 136.021 136.019 155.747 136.019 180.001H136.029Z" fill="#314D71"/>
<path d="M172.839 180.001H170.792C170.792 174.925 174.917 170.793 180 170.793V172.833C176.048 172.833 172.839 176.042 172.839 179.991V180.001ZM154.434 180.001H152.387C152.387 164.773 164.772 152.387 180 152.387V154.427C165.903 154.427 154.434 165.899 154.434 180.001Z" fill="#314D71"/>
<path d="M172.839 180.001H170.792C170.792 174.925 174.917 170.793 180 170.793V172.834C176.048 172.834 172.839 176.042 172.839 179.991V180.001Z" fill="#314D71"/>
<path d="M90 172.844V170.804C92.8316 170.804 95.6938 170.651 98.5254 170.357C105.044 169.677 111.461 168.194 117.593 165.971C140.134 157.778 157.765 140.154 165.954 117.606C168.185 111.474 169.662 105.057 170.344 98.5396C170.639 95.7071 170.792 92.8341 170.792 90.0117H172.84C172.84 92.9051 172.687 95.8493 172.381 98.7528C171.678 105.433 170.161 112.012 167.879 118.306C159.476 141.423 141.407 159.494 118.296 167.89C112.001 170.174 105.431 171.687 98.7392 172.387C95.8364 172.692 92.8927 172.844 90 172.844ZM90 154.438V152.398C124.397 152.398 152.387 124.408 152.387 90.0117H154.434C154.434 125.545 125.527 154.448 90 154.448V154.438Z" fill="#314D71"/>
<path d="M90 154.437V152.396C124.397 152.396 152.387 124.406 152.387 90.0102H154.434C154.434 125.533 125.527 154.447 90 154.447V154.437ZM90 136.03V133.99C114.252 133.98 133.981 114.254 133.981 90H136.029C136.019 115.381 115.372 136.02 90 136.02V136.03Z" fill="#314D71"/>
<path d="M90 136.02V133.98C114.252 133.98 133.981 114.254 133.981 90H136.029C136.019 115.381 115.372 136.02 90 136.02ZM90 117.614V115.574C104.097 115.563 115.566 104.102 115.566 90H117.613C117.613 105.228 105.227 117.614 90 117.614Z" fill="#314D71"/>
<path d="M90 117.614V115.574C104.097 115.563 115.566 104.102 115.566 90H117.613C117.613 105.228 105.227 117.614 90 117.614ZM90 99.2081V97.1675C93.952 97.1574 97.1605 93.9492 97.1605 90H99.2078C99.2078 95.0761 95.0724 99.2081 90 99.2081Z" fill="#314D71"/>
<path d="M90 99.2081V97.1675C93.952 97.1574 97.1605 93.9492 97.1605 90H99.2078C99.2078 95.0761 95.0724 99.2081 90 99.2081Z" fill="#314D71"/>
</g>
<g clip-path="url(#clip3_936_33405)">
<rect width="90" height="90" transform="translate(90 180)" fill="#314D71"/>
<path d="M165.333 209.319L165.964 207.593C168.195 201.461 169.672 195.045 170.354 188.527L170.436 187.704L171.261 187.613C174.164 187.309 177.107 187.156 180 187.156V189.197C177.444 189.197 174.856 189.319 172.29 189.562C171.617 195.359 170.344 201.085 168.47 206.588C172.259 205.908 176.13 205.552 179.99 205.552V207.593C175.661 207.593 171.332 208.039 167.115 208.923L165.312 209.298L165.333 209.319Z" fill="#314D71"/>
<path d="M117.613 269.998H115.566C115.566 266.13 115.912 262.262 116.595 258.475C111.084 260.343 105.37 261.623 99.5644 262.293C99.3199 264.861 99.1977 267.45 99.1977 269.998H97.1504C97.1504 267.105 97.3032 264.161 97.6087 261.257L97.6902 260.435L98.5153 260.343C105.034 259.663 111.451 258.181 117.583 255.958L119.314 255.328L118.937 257.125C118.051 261.338 117.603 265.673 117.603 269.998H117.613Z" fill="#314D71"/>
<path d="M136.019 269.999H133.971C133.971 260.821 136.67 252.253 141.325 245.065C134.613 250.354 127.045 254.628 118.825 257.684C118.021 261.725 117.603 265.867 117.603 269.999H115.556C115.556 265.532 116.014 261.065 116.931 256.71L117.043 256.151L117.583 255.958C140.123 247.766 157.755 230.141 165.944 207.593L166.137 207.055L166.698 206.943C171.047 206.03 175.518 205.562 179.99 205.562V207.603C175.854 207.603 171.709 208.009 167.675 208.821C164.63 217.035 160.352 224.608 155.066 231.319C162.257 226.669 170.813 223.969 180 223.969V226.009C155.748 226.009 136.019 245.735 136.019 269.989V269.999Z" fill="#314D71"/>
<path d="M154.434 270.001H152.387C152.387 254.772 164.773 242.387 180 242.387V244.427C165.903 244.427 154.434 255.899 154.434 270.001ZM136.029 270.001H133.981C133.981 244.62 154.628 223.98 180 223.98V226.021C155.748 226.021 136.019 245.747 136.019 270.001H136.029Z" fill="#314D71"/>
<path d="M172.839 270.001H170.792C170.792 264.925 174.917 260.793 180 260.793V262.833C176.048 262.833 172.839 266.042 172.839 269.991V270.001ZM154.434 270.001H152.387C152.387 254.773 164.772 242.387 180 242.387V244.427C165.903 244.427 154.434 255.899 154.434 270.001Z" fill="#314D71"/>
<path d="M172.839 270.001H170.792C170.792 264.925 174.917 260.793 180 260.793V262.834C176.048 262.834 172.839 266.042 172.839 269.991V270.001Z" fill="#314D71"/>
<path d="M90 262.844V260.804C92.8316 260.804 95.6938 260.651 98.5254 260.357C105.044 259.677 111.461 258.194 117.593 255.971C140.134 247.778 157.765 230.154 165.954 207.606C168.185 201.474 169.662 195.057 170.344 188.54C170.639 185.707 170.792 182.834 170.792 180.012H172.84C172.84 182.905 172.687 185.849 172.381 188.753C171.678 195.433 170.161 202.012 167.879 208.306C159.476 231.423 141.407 249.494 118.296 257.89C112.001 260.174 105.431 261.687 98.7392 262.387C95.8364 262.692 92.8927 262.844 90 262.844ZM90 244.438V242.398C124.397 242.398 152.387 214.408 152.387 180.012H154.434C154.434 215.545 125.527 244.448 90 244.448V244.438Z" fill="#314D71"/>
<path d="M90 244.437V242.396C124.397 242.396 152.387 214.406 152.387 180.01H154.434C154.434 215.533 125.527 244.447 90 244.447V244.437ZM90 226.03V223.99C114.252 223.98 133.981 204.254 133.981 180H136.029C136.019 205.381 115.372 226.02 90 226.02V226.03Z" fill="#314D71"/>
<path d="M90 226.02V223.98C114.252 223.98 133.981 204.254 133.981 180H136.029C136.019 205.381 115.372 226.02 90 226.02ZM90 207.614V205.574C104.097 205.563 115.566 194.102 115.566 180H117.613C117.613 195.228 105.227 207.614 90 207.614Z" fill="#314D71"/>
<path d="M90 207.614V205.574C104.097 205.563 115.566 194.102 115.566 180H117.613C117.613 195.228 105.227 207.614 90 207.614ZM90 189.208V187.168C93.952 187.157 97.1605 183.949 97.1605 180H99.2078C99.2078 185.076 95.0724 189.208 90 189.208Z" fill="#314D71"/>
<path d="M90 189.208V187.168C93.952 187.157 97.1605 183.949 97.1605 180H99.2078C99.2078 185.076 95.0724 189.208 90 189.208Z" fill="#314D71"/>
</g>
<g clip-path="url(#clip4_936_33405)">
<rect width="90" height="90" transform="translate(180 180)" fill="#314D71"/>
<path d="M255.333 209.319L255.964 207.593C258.195 201.461 259.672 195.045 260.354 188.527L260.436 187.704L261.261 187.613C264.164 187.309 267.107 187.156 270 187.156V189.197C267.444 189.197 264.856 189.319 262.29 189.562C261.617 195.359 260.344 201.085 258.47 206.588C262.259 205.908 266.13 205.552 269.99 205.552V207.593C265.661 207.593 261.332 208.039 257.115 208.923L255.312 209.298L255.333 209.319Z" fill="#314D71"/>
<path d="M207.613 269.998H205.566C205.566 266.13 205.912 262.262 206.595 258.475C201.084 260.343 195.37 261.623 189.564 262.293C189.32 264.861 189.198 267.45 189.198 269.998H187.15C187.15 267.105 187.303 264.161 187.609 261.257L187.69 260.435L188.515 260.343C195.034 259.663 201.451 258.181 207.583 255.958L209.314 255.328L208.937 257.125C208.051 261.338 207.603 265.673 207.603 269.998H207.613Z" fill="#314D71"/>
<path d="M226.019 269.999H223.971C223.971 260.821 226.67 252.253 231.325 245.065C224.613 250.354 217.045 254.628 208.825 257.684C208.021 261.725 207.603 265.867 207.603 269.999H205.556C205.556 265.532 206.014 261.065 206.931 256.71L207.043 256.151L207.583 255.958C230.123 247.766 247.755 230.141 255.944 207.593L256.137 207.055L256.698 206.943C261.047 206.03 265.518 205.562 269.99 205.562V207.603C265.854 207.603 261.709 208.009 257.675 208.821C254.63 217.035 250.352 224.608 245.066 231.319C252.257 226.669 260.813 223.969 270 223.969V226.009C245.748 226.009 226.019 245.735 226.019 269.989V269.999Z" fill="#314D71"/>
<path d="M244.434 270.001H242.387C242.387 254.772 254.773 242.387 270 242.387V244.427C255.903 244.427 244.434 255.899 244.434 270.001ZM226.029 270.001H223.981C223.981 244.62 244.628 223.98 270 223.98V226.021C245.748 226.021 226.019 245.747 226.019 270.001H226.029Z" fill="#314D71"/>
<path d="M262.839 270.001H260.792C260.792 264.925 264.917 260.793 270 260.793V262.833C266.048 262.833 262.839 266.042 262.839 269.991V270.001ZM244.434 270.001H242.387C242.387 254.773 254.772 242.387 270 242.387V244.427C255.903 244.427 244.434 255.899 244.434 270.001Z" fill="#314D71"/>
<path d="M262.839 270.001H260.792C260.792 264.925 264.917 260.793 270 260.793V262.834C266.048 262.834 262.839 266.042 262.839 269.991V270.001Z" fill="#314D71"/>
<path d="M180 262.844V260.804C182.832 260.804 185.694 260.651 188.525 260.357C195.044 259.677 201.461 258.194 207.593 255.971C230.134 247.778 247.765 230.154 255.954 207.606C258.185 201.474 259.662 195.057 260.344 188.54C260.639 185.707 260.792 182.834 260.792 180.012H262.84C262.84 182.905 262.687 185.849 262.381 188.753C261.678 195.433 260.161 202.012 257.879 208.306C249.476 231.423 231.407 249.494 208.296 257.89C202.001 260.174 195.431 261.687 188.739 262.387C185.836 262.692 182.893 262.844 180 262.844ZM180 244.438V242.398C214.397 242.398 242.387 214.408 242.387 180.012H244.434C244.434 215.545 215.527 244.448 180 244.448V244.438Z" fill="#314D71"/>
<path d="M180 244.437V242.396C214.397 242.396 242.387 214.406 242.387 180.01H244.434C244.434 215.533 215.527 244.447 180 244.447V244.437ZM180 226.03V223.99C204.252 223.98 223.981 204.254 223.981 180H226.029C226.019 205.381 205.372 226.02 180 226.02V226.03Z" fill="#314D71"/>
<path d="M180 226.02V223.98C204.252 223.98 223.981 204.254 223.981 180H226.029C226.019 205.381 205.372 226.02 180 226.02ZM180 207.614V205.574C194.097 205.563 205.566 194.102 205.566 180H207.613C207.613 195.228 195.227 207.614 180 207.614Z" fill="#314D71"/>
<path d="M180 207.614V205.574C194.097 205.563 205.566 194.102 205.566 180H207.613C207.613 195.228 195.227 207.614 180 207.614ZM180 189.208V187.168C183.952 187.157 187.16 183.949 187.16 180H189.208C189.208 185.076 185.072 189.208 180 189.208Z" fill="#314D71"/>
<path d="M180 189.208V187.168C183.952 187.157 187.16 183.949 187.16 180H189.208C189.208 185.076 185.072 189.208 180 189.208Z" fill="#314D71"/>
</g>
<g clip-path="url(#clip5_936_33405)">
<rect width="90" height="90" transform="translate(180 450)" fill="#314D71"/>
<path d="M255.333 479.319L255.964 477.593C258.195 471.461 259.672 465.045 260.354 458.527L260.436 457.704L261.261 457.613C264.164 457.309 267.107 457.156 270 457.156V459.197C267.444 459.197 264.856 459.319 262.29 459.562C261.617 465.359 260.344 471.085 258.47 476.588C262.259 475.908 266.13 475.552 269.99 475.552V477.593C265.661 477.593 261.332 478.039 257.115 478.923L255.312 479.298L255.333 479.319Z" fill="#E5DDC9"/>
<path d="M207.613 539.998H205.566C205.566 536.13 205.912 532.262 206.595 528.475C201.084 530.343 195.37 531.623 189.564 532.293C189.32 534.861 189.198 537.45 189.198 539.998H187.15C187.15 537.105 187.303 534.161 187.609 531.257L187.69 530.435L188.515 530.343C195.034 529.663 201.451 528.181 207.583 525.958L209.314 525.328L208.937 527.125C208.051 531.338 207.603 535.673 207.603 539.998H207.613Z" fill="#E5DDC9"/>
<path d="M226.019 539.999H223.971C223.971 530.821 226.67 522.253 231.325 515.065C224.613 520.354 217.045 524.628 208.825 527.684C208.021 531.725 207.603 535.867 207.603 539.999H205.556C205.556 535.532 206.014 531.065 206.931 526.71L207.043 526.151L207.583 525.958C230.123 517.766 247.755 500.141 255.944 477.593L256.137 477.055L256.698 476.943C261.047 476.03 265.518 475.562 269.99 475.562V477.603C265.854 477.603 261.709 478.009 257.675 478.821C254.63 487.035 250.352 494.608 245.066 501.319C252.257 496.669 260.813 493.969 270 493.969V496.009C245.748 496.009 226.019 515.735 226.019 539.989V539.999Z" fill="#E5DDC9"/>
<path d="M244.434 540.001H242.387C242.387 524.772 254.773 512.387 270 512.387V514.427C255.903 514.427 244.434 525.899 244.434 540.001ZM226.029 540.001H223.981C223.981 514.62 244.628 493.98 270 493.98V496.021C245.748 496.021 226.019 515.747 226.019 540.001H226.029Z" fill="#E5DDC9"/>
<path d="M262.839 540.001H260.792C260.792 534.925 264.917 530.793 270 530.793V532.833C266.048 532.833 262.839 536.042 262.839 539.991V540.001ZM244.434 540.001H242.387C242.387 524.773 254.772 512.387 270 512.387V514.427C255.903 514.427 244.434 525.899 244.434 540.001Z" fill="#E5DDC9"/>
<path d="M262.839 540.001H260.792C260.792 534.925 264.917 530.793 270 530.793V532.834C266.048 532.834 262.839 536.042 262.839 539.991V540.001Z" fill="#E5DDC9"/>
<path d="M180 532.844V530.804C182.832 530.804 185.694 530.651 188.525 530.357C195.044 529.677 201.461 528.194 207.593 525.971C230.134 517.778 247.765 500.154 255.954 477.606C258.185 471.474 259.662 465.057 260.344 458.54C260.639 455.707 260.792 452.834 260.792 450.012H262.84C262.84 452.905 262.687 455.849 262.381 458.753C261.678 465.433 260.161 472.012 257.879 478.306C249.476 501.423 231.407 519.494 208.296 527.89C202.001 530.174 195.431 531.687 188.739 532.387C185.836 532.692 182.893 532.844 180 532.844ZM180 514.438V512.398C214.397 512.398 242.387 484.408 242.387 450.012H244.434C244.434 485.545 215.527 514.448 180 514.448V514.438Z" fill="#E5DDC9"/>
<path d="M180 514.437V512.396C214.397 512.396 242.387 484.406 242.387 450.01H244.434C244.434 485.533 215.527 514.447 180 514.447V514.437ZM180 496.03V493.99C204.252 493.98 223.981 474.254 223.981 450H226.029C226.019 475.381 205.372 496.02 180 496.02V496.03Z" fill="#E5DDC9"/>
<path d="M180 496.02V493.98C204.252 493.98 223.981 474.254 223.981 450H226.029C226.019 475.381 205.372 496.02 180 496.02ZM180 477.614V475.574C194.097 475.563 205.566 464.102 205.566 450H207.613C207.613 465.228 195.227 477.614 180 477.614Z" fill="#E5DDC9"/>
<path d="M180 477.614V475.574C194.097 475.563 205.566 464.102 205.566 450H207.613C207.613 465.228 195.227 477.614 180 477.614ZM180 459.208V457.168C183.952 457.157 187.16 453.949 187.16 450H189.208C189.208 455.076 185.072 459.208 180 459.208Z" fill="#E5DDC9"/>
<path d="M180 459.208V457.168C183.952 457.157 187.16 453.949 187.16 450H189.208C189.208 455.076 185.072 459.208 180 459.208Z" fill="#E5DDC9"/>
</g>
<g clip-path="url(#clip6_936_33405)">
<path d="M60.6803 255.333L62.4062 255.964C68.5382 258.195 74.9544 259.672 81.4722 260.354L82.2945 260.436L82.3859 261.261C82.6905 264.164 82.8428 267.107 82.8428 270L80.8022 270C80.8022 267.444 80.6803 264.856 80.4367 262.29C74.6397 261.617 68.9138 260.344 63.4113 258.47C64.0915 262.259 64.4468 266.13 64.4468 269.99L62.4062 269.99C62.4062 265.661 61.9595 261.332 61.0763 257.115L60.7006 255.312L60.6803 255.333Z" fill="#314D71"/>
<path d="M-0.000133455 207.611L-0.000133366 205.564C3.86789 205.564 7.7359 205.91 11.5227 206.593C9.65469 201.082 8.37551 195.368 7.70545 189.562C5.13693 189.318 2.54809 189.196 -0.00013265 189.196L-0.000132561 187.148C2.89327 187.148 5.83743 187.301 8.74098 187.607L9.56332 187.688L9.65469 188.513C10.3349 195.032 11.8171 201.449 14.0405 207.581L14.6699 209.312L12.873 208.935C8.65976 208.049 4.32474 207.601 -0.000133455 207.601L-0.000133455 207.611Z" fill="#314D71"/>
<path d="M-2.37826e-05 226.018L-2.36932e-05 223.97C9.17764 223.97 17.7462 226.669 24.934 231.324C19.6446 224.612 15.3705 217.044 12.3147 208.824C8.27409 208.02 4.13195 207.602 -2.29777e-05 207.602L-2.28882e-05 205.555C4.46698 205.555 8.93399 206.013 13.2893 206.93L13.8477 207.042L14.0406 207.582C22.2335 230.122 39.8578 247.754 62.4061 255.943L62.9441 256.136L63.0558 256.697C63.9695 261.046 64.4365 265.517 64.4365 269.989L62.3959 269.989C62.3959 265.853 61.9898 261.708 61.1776 257.674C52.9644 254.629 45.3908 250.351 38.6802 245.065C43.3299 252.256 46.0304 260.812 46.0304 269.999L43.9898 269.999C43.9898 245.747 24.2639 226.018 0.0101309 226.018L-2.37826e-05 226.018Z" fill="#314D71"/>
<path d="M0.000201285 244.433L0.000201374 242.386C15.2286 242.386 27.6144 254.772 27.6144 269.999L25.5738 269.999C25.5738 255.902 14.1017 244.433 0.000201285 244.433ZM0.000202089 226.028L0.000202179 223.98C25.3809 223.98 46.0205 244.627 46.0205 269.999L43.9799 269.999C43.9799 245.747 24.254 226.018 0.00020209 226.018L0.000202089 226.028Z" fill="#314D71"/>
<path d="M4.2975e-05 262.839L4.30645e-05 260.792C5.07619 260.792 9.20817 264.917 9.20816 270L7.16756 270C7.16756 266.048 3.95944 262.839 0.0101977 262.839L4.2975e-05 262.839ZM4.37795e-05 244.434L4.3869e-05 242.387C15.2285 242.387 27.6143 254.772 27.6143 270L25.5736 270C25.5736 255.903 14.1016 244.434 4.37795e-05 244.434Z" fill="#314D71"/>
<path d="M-0.000113577 262.84L-0.000113487 260.793C5.07603 260.793 9.20801 264.918 9.20801 270.001L7.1674 270.001C7.1674 266.049 3.95928 262.84 0.0100411 262.84L-0.000113577 262.84Z" fill="#314D71"/>
<path d="M7.15775 180L9.19836 180C9.19836 182.832 9.35065 185.694 9.64506 188.525C10.3253 195.044 11.8075 201.461 14.0308 207.593C22.2237 230.134 39.8481 247.765 62.3963 255.954C68.5283 258.185 74.9445 259.662 81.4623 260.344C84.2948 260.639 87.1679 260.792 89.9902 260.792L89.9902 262.84C87.0968 262.84 84.1527 262.687 81.2491 262.381C74.5689 261.678 67.9902 260.161 61.6958 257.879C38.5791 249.476 20.508 231.407 12.1121 208.296C9.8278 202.001 8.31511 195.431 7.6146 188.739C7.31004 185.836 7.15775 182.893 7.15775 180ZM25.5638 180L27.6045 180C27.6044 214.397 55.5943 242.387 89.9902 242.387L89.9902 244.434C54.4572 244.434 25.5537 215.527 25.5537 180L25.5638 180Z" fill="#314D71"/>
<path d="M25.5635 180L27.6041 180C27.6041 214.397 55.5939 242.387 89.9898 242.387L89.9898 244.434C54.467 244.434 25.5533 215.527 25.5533 180L25.5635 180ZM43.9695 180L46.0102 180C46.0203 204.252 65.7462 223.981 90 223.981L90 226.029C64.6193 226.019 43.9797 205.372 43.9797 180L43.9695 180Z" fill="#314D71"/>
<path d="M43.9797 180L46.0203 180C46.0203 204.252 65.7462 223.981 90 223.981L90 226.029C64.6193 226.019 43.9797 205.372 43.9797 180ZM62.3858 180L64.4264 180C64.4365 194.097 75.8985 205.566 90 205.566L90 207.613C74.7716 207.613 62.3858 195.227 62.3858 180Z" fill="#314D71"/>
<path d="M62.3858 180L64.4264 180C64.4365 194.097 75.8985 205.566 90 205.566L90 207.613C74.7716 207.613 62.3858 195.227 62.3858 180ZM80.7919 180L82.8325 180C82.8426 183.952 86.0508 187.16 90 187.16L90 189.208C84.9239 189.208 80.7919 185.072 80.7919 180Z" fill="#314D71"/>
<path d="M80.7919 180L82.8325 180C82.8426 183.952 86.0508 187.16 90 187.16L90 189.208C84.9239 189.208 80.7919 185.072 80.7919 180Z" fill="#314D71"/>
</g>
<g clip-path="url(#clip7_936_33405)">
<path d="M240.68 345.333L242.406 345.964C248.538 348.195 254.954 349.672 261.472 350.354L262.295 350.436L262.386 351.261C262.69 354.164 262.843 357.107 262.843 360L260.802 360C260.802 357.444 260.68 354.856 260.437 352.29C254.64 351.617 248.914 350.344 243.411 348.47C244.092 352.259 244.447 356.13 244.447 359.99L242.406 359.99C242.406 355.661 241.96 351.332 241.076 347.115L240.701 345.312L240.68 345.333Z" fill="#E5DDC9"/>
<path d="M180 297.611L180 295.564C183.868 295.564 187.736 295.91 191.523 296.593C189.655 291.082 188.376 285.368 187.705 279.562C185.137 279.318 182.548 279.196 180 279.196L180 277.148C182.893 277.148 185.837 277.301 188.741 277.607L189.563 277.688L189.655 278.513C190.335 285.032 191.817 291.449 194.04 297.581L194.67 299.312L192.873 298.935C188.66 298.049 184.325 297.601 180 297.601L180 297.611Z" fill="#E5DDC9"/>
<path d="M180 316.018L180 313.97C189.178 313.97 197.746 316.669 204.934 321.324C199.645 314.612 195.371 307.044 192.315 298.824C188.274 298.02 184.132 297.602 180 297.602L180 295.555C184.467 295.555 188.934 296.013 193.289 296.93L193.848 297.042L194.041 297.582C202.233 320.122 219.858 337.754 242.406 345.943L242.944 346.136L243.056 346.697C243.97 351.046 244.437 355.517 244.437 359.989L242.396 359.989C242.396 355.853 241.99 351.708 241.178 347.674C232.964 344.629 225.391 340.351 218.68 335.065C223.33 342.256 226.03 350.812 226.03 359.999L223.99 359.999C223.99 335.747 204.264 316.018 180.01 316.018L180 316.018Z" fill="#E5DDC9"/>
<path d="M180 334.433L180 332.386C195.229 332.386 207.614 344.772 207.614 359.999L205.574 359.999C205.574 345.902 194.102 334.433 180 334.433ZM180 316.028L180 313.98C205.381 313.98 226.021 334.627 226.021 359.999L223.98 359.999C223.98 335.747 204.254 316.018 180 316.018L180 316.028Z" fill="#E5DDC9"/>
<path d="M180 352.839L180 350.792C185.076 350.792 189.208 354.917 189.208 360L187.168 360C187.168 356.048 183.959 352.839 180.01 352.839L180 352.839ZM180 334.434L180 332.387C195.228 332.387 207.614 344.772 207.614 360L205.574 360C205.574 345.903 194.102 334.434 180 334.434Z" fill="#E5DDC9"/>
<path d="M180 352.84L180 350.793C185.076 350.793 189.208 354.918 189.208 360.001L187.167 360.001C187.167 356.049 183.959 352.84 180.01 352.84L180 352.84Z" fill="#E5DDC9"/>
<path d="M187.158 270L189.198 270C189.198 272.832 189.351 275.694 189.645 278.525C190.325 285.044 191.807 291.461 194.031 297.593C202.224 320.134 219.848 337.765 242.396 345.954C248.528 348.185 254.945 349.662 261.462 350.344C264.295 350.639 267.168 350.792 269.99 350.792L269.99 352.84C267.097 352.84 264.153 352.687 261.249 352.381C254.569 351.678 247.99 350.161 241.696 347.879C218.579 339.476 200.508 321.407 192.112 298.296C189.828 292.001 188.315 285.431 187.615 278.739C187.31 275.836 187.158 272.893 187.158 270ZM205.564 270L207.604 270C207.604 304.397 235.594 332.387 269.99 332.387L269.99 334.434C234.457 334.434 205.554 305.527 205.554 270L205.564 270Z" fill="#E5DDC9"/>
<path d="M205.563 270L207.604 270C207.604 304.397 235.594 332.387 269.99 332.387L269.99 334.434C234.467 334.434 205.553 305.527 205.553 270L205.563 270ZM223.97 270L226.01 270C226.02 294.252 245.746 313.981 270 313.981L270 316.029C244.619 316.019 223.98 295.372 223.98 270L223.97 270Z" fill="#E5DDC9"/>
<path d="M223.98 270L226.02 270C226.02 294.252 245.746 313.981 270 313.981L270 316.029C244.619 316.019 223.98 295.372 223.98 270ZM242.386 270L244.426 270C244.437 284.097 255.898 295.566 270 295.566L270 297.613C254.772 297.613 242.386 285.227 242.386 270Z" fill="#E5DDC9"/>
<path d="M242.386 270L244.426 270C244.437 284.097 255.898 295.566 270 295.566L270 297.613C254.772 297.613 242.386 285.227 242.386 270ZM260.792 270L262.832 270C262.843 273.952 266.051 277.16 270 277.16L270 279.208C264.924 279.208 260.792 275.072 260.792 270Z" fill="#E5DDC9"/>
<path d="M260.792 270L262.832 270C262.843 273.952 266.051 277.16 270 277.16L270 279.208C264.924 279.208 260.792 275.072 260.792 270Z" fill="#E5DDC9"/>
</g>
<g clip-path="url(#clip8_936_33405)">
<path d="M240.68 435.333L242.406 435.964C248.538 438.195 254.954 439.672 261.472 440.354L262.295 440.436L262.386 441.261C262.69 444.164 262.843 447.107 262.843 450L260.802 450C260.802 447.444 260.68 444.856 260.437 442.29C254.64 441.617 248.914 440.344 243.411 438.47C244.092 442.259 244.447 446.13 244.447 449.99L242.406 449.99C242.406 445.661 241.96 441.332 241.076 437.115L240.701 435.312L240.68 435.333Z" fill="#E5DDC9"/>
<path d="M180 387.611L180 385.564C183.868 385.564 187.736 385.91 191.523 386.593C189.655 381.082 188.376 375.368 187.705 369.562C185.137 369.318 182.548 369.196 180 369.196L180 367.148C182.893 367.148 185.837 367.301 188.741 367.607L189.563 367.688L189.655 368.513C190.335 375.032 191.817 381.449 194.04 387.581L194.67 389.312L192.873 388.935C188.66 388.049 184.325 387.601 180 387.601L180 387.611Z" fill="#E5DDC9"/>
<path d="M180 406.018L180 403.97C189.178 403.97 197.746 406.669 204.934 411.324C199.645 404.612 195.371 397.044 192.315 388.824C188.274 388.02 184.132 387.602 180 387.602L180 385.555C184.467 385.555 188.934 386.013 193.289 386.93L193.848 387.042L194.041 387.582C202.233 410.122 219.858 427.754 242.406 435.943L242.944 436.136L243.056 436.697C243.97 441.046 244.437 445.517 244.437 449.989L242.396 449.989C242.396 445.853 241.99 441.708 241.178 437.674C232.964 434.629 225.391 430.351 218.68 425.065C223.33 432.256 226.03 440.812 226.03 449.999L223.99 449.999C223.99 425.747 204.264 406.018 180.01 406.018L180 406.018Z" fill="#E5DDC9"/>
<path d="M180 424.433L180 422.386C195.229 422.386 207.614 434.772 207.614 449.999L205.574 449.999C205.574 435.902 194.102 424.433 180 424.433ZM180 406.028L180 403.98C205.381 403.98 226.021 424.627 226.021 449.999L223.98 449.999C223.98 425.747 204.254 406.018 180 406.018L180 406.028Z" fill="#E5DDC9"/>
<path d="M180 442.839L180 440.792C185.076 440.792 189.208 444.917 189.208 450L187.168 450C187.168 446.048 183.959 442.839 180.01 442.839L180 442.839ZM180 424.434L180 422.387C195.228 422.387 207.614 434.772 207.614 450L205.574 450C205.574 435.903 194.102 424.434 180 424.434Z" fill="#E5DDC9"/>
<path d="M180 442.84L180 440.793C185.076 440.793 189.208 444.918 189.208 450.001L187.167 450.001C187.167 446.049 183.959 442.84 180.01 442.84L180 442.84Z" fill="#E5DDC9"/>
<path d="M187.158 360L189.198 360C189.198 362.832 189.351 365.694 189.645 368.525C190.325 375.044 191.807 381.461 194.031 387.593C202.224 410.134 219.848 427.765 242.396 435.954C248.528 438.185 254.945 439.662 261.462 440.344C264.295 440.639 267.168 440.792 269.99 440.792L269.99 442.84C267.097 442.84 264.153 442.687 261.249 442.381C254.569 441.678 247.99 440.161 241.696 437.879C218.579 429.476 200.508 411.407 192.112 388.296C189.828 382.001 188.315 375.431 187.615 368.739C187.31 365.836 187.158 362.893 187.158 360ZM205.564 360L207.604 360C207.604 394.397 235.594 422.387 269.99 422.387L269.99 424.434C234.457 424.434 205.554 395.527 205.554 360L205.564 360Z" fill="#E5DDC9"/>
<path d="M205.563 360L207.604 360C207.604 394.397 235.594 422.387 269.99 422.387L269.99 424.434C234.467 424.434 205.553 395.527 205.553 360L205.563 360ZM223.97 360L226.01 360C226.02 384.252 245.746 403.981 270 403.981L270 406.029C244.619 406.019 223.98 385.372 223.98 360L223.97 360Z" fill="#E5DDC9"/>
<path d="M223.98 360L226.02 360C226.02 384.252 245.746 403.981 270 403.981L270 406.029C244.619 406.019 223.98 385.372 223.98 360ZM242.386 360L244.426 360C244.437 374.097 255.898 385.566 270 385.566L270 387.613C254.772 387.613 242.386 375.227 242.386 360Z" fill="#E5DDC9"/>
<path d="M242.386 360L244.426 360C244.437 374.097 255.898 385.566 270 385.566L270 387.613C254.772 387.613 242.386 375.227 242.386 360ZM260.792 360L262.832 360C262.843 363.952 266.051 367.16 270 367.16L270 369.208C264.924 369.208 260.792 365.072 260.792 360Z" fill="#E5DDC9"/>
<path d="M260.792 360L262.832 360C262.843 363.952 266.051 367.16 270 367.16L270 369.208C264.924 369.208 260.792 365.072 260.792 360Z" fill="#E5DDC9"/>
</g>
<g clip-path="url(#clip9_936_33405)">
<path d="M60.6803 165.333L62.4062 165.964C68.5382 168.195 74.9544 169.672 81.4722 170.354L82.2945 170.436L82.3859 171.261C82.6905 174.164 82.8428 177.107 82.8428 180L80.8022 180C80.8022 177.444 80.6803 174.856 80.4367 172.29C74.6397 171.617 68.9138 170.344 63.4113 168.47C64.0915 172.259 64.4468 176.13 64.4468 179.99L62.4062 179.99C62.4062 175.661 61.9595 171.332 61.0763 167.115L60.7006 165.312L60.6803 165.333Z" fill="#314D71"/>
<path d="M-0.000133455 117.611L-0.000133366 115.564C3.86789 115.564 7.7359 115.91 11.5227 116.593C9.65469 111.082 8.37551 105.368 7.70545 99.5624C5.13693 99.318 2.54809 99.1957 -0.00013265 99.1957L-0.000132561 97.1484C2.89327 97.1484 5.83743 97.3012 8.74098 97.6068L9.56332 97.6883L9.65469 98.5133C10.3349 105.032 11.8171 111.449 14.0405 117.581L14.6699 119.312L12.873 118.935C8.65976 118.049 4.32474 117.601 -0.000133455 117.601L-0.000133455 117.611Z" fill="#314D71"/>
<path d="M-2.37826e-05 136.018L-2.36932e-05 133.97C9.17764 133.97 17.7462 136.669 24.934 141.324C19.6446 134.612 15.3705 127.044 12.3147 118.824C8.27409 118.02 4.13195 117.602 -2.29777e-05 117.602L-2.28882e-05 115.555C4.46698 115.555 8.93399 116.013 13.2893 116.93L13.8477 117.042L14.0406 117.582C22.2335 140.122 39.8578 157.754 62.4061 165.943L62.9441 166.136L63.0558 166.697C63.9695 171.046 64.4365 175.517 64.4365 179.989L62.3959 179.989C62.3959 175.853 61.9898 171.708 61.1776 167.674C52.9644 164.629 45.3908 160.351 38.6802 155.065C43.3299 162.256 46.0304 170.812 46.0304 179.999L43.9898 179.999C43.9898 155.747 24.2639 136.018 0.0101309 136.018L-2.37826e-05 136.018Z" fill="#314D71"/>
<path d="M0.000201285 154.433L0.000201374 152.386C15.2286 152.386 27.6144 164.772 27.6144 179.999L25.5738 179.999C25.5738 165.902 14.1017 154.433 0.000201285 154.433ZM0.000202089 136.028L0.000202179 133.98C25.3809 133.98 46.0205 154.627 46.0205 179.999L43.9799 179.999C43.9799 155.747 24.254 136.018 0.00020209 136.018L0.000202089 136.028Z" fill="#314D71"/>
<path d="M4.2975e-05 172.839L4.30645e-05 170.792C5.07619 170.792 9.20817 174.917 9.20816 180L7.16756 180C7.16756 176.048 3.95944 172.839 0.0101977 172.839L4.2975e-05 172.839ZM4.37795e-05 154.434L4.3869e-05 152.387C15.2285 152.387 27.6143 164.772 27.6143 180L25.5736 180C25.5736 165.903 14.1016 154.434 4.37795e-05 154.434Z" fill="#314D71"/>
<path d="M-0.000113577 172.84L-0.000113487 170.793C5.07603 170.793 9.20801 174.918 9.20801 180.001L7.1674 180.001C7.1674 176.049 3.95928 172.84 0.0100411 172.84L-0.000113577 172.84Z" fill="#314D71"/>
<path d="M7.15775 90L9.19836 90C9.19836 92.8316 9.35065 95.6937 9.64506 98.5253C10.3253 105.044 11.8075 111.461 14.0308 117.593C22.2237 140.134 39.8481 157.765 62.3963 165.954C68.5283 168.185 74.9445 169.662 81.4623 170.344C84.2948 170.639 87.1679 170.792 89.9902 170.792L89.9902 172.84C87.0968 172.84 84.1527 172.687 81.2491 172.381C74.5689 171.678 67.9902 170.161 61.6958 167.879C38.5791 159.476 20.508 141.407 12.1121 118.296C9.8278 112.001 8.31511 105.431 7.6146 98.7392C7.31004 95.8363 7.15775 92.8927 7.15775 90ZM25.5638 90L27.6045 90C27.6044 124.397 55.5943 152.387 89.9902 152.387L89.9902 154.434C54.4572 154.434 25.5537 125.527 25.5537 90L25.5638 90Z" fill="#314D71"/>
<path d="M25.5635 90L27.6041 90C27.6041 124.397 55.5939 152.387 89.9898 152.387L89.9898 154.434C54.467 154.434 25.5533 125.527 25.5533 90L25.5635 90ZM43.9695 90L46.0102 90C46.0203 114.252 65.7462 133.981 90 133.981L90 136.029C64.6193 136.019 43.9797 115.372 43.9797 90L43.9695 90Z" fill="#314D71"/>
<path d="M43.9797 90L46.0203 90C46.0203 114.252 65.7462 133.981 90 133.981L90 136.029C64.6193 136.019 43.9797 115.372 43.9797 90ZM62.3858 90L64.4264 90C64.4365 104.097 75.8985 115.566 90 115.566L90 117.613C74.7716 117.613 62.3858 105.227 62.3858 90Z" fill="#314D71"/>
<path d="M62.3858 90L64.4264 90C64.4365 104.097 75.8985 115.566 90 115.566L90 117.613C74.7716 117.613 62.3858 105.227 62.3858 90ZM80.7919 90L82.8325 90C82.8426 93.952 86.0508 97.1605 90 97.1605L90 99.2078C84.9239 99.2078 80.7919 95.0724 80.7919 90Z" fill="#314D71"/>
<path d="M80.7919 90L82.8325 90C82.8426 93.952 86.0508 97.1605 90 97.1605L90 99.2078C84.9239 99.2078 80.7919 95.0724 80.7919 90Z" fill="#314D71"/>
</g>
<g clip-path="url(#clip10_936_33405)">
<path d="M166.333 299.319L166.964 297.593C169.195 291.461 170.672 285.045 171.354 278.527L171.436 277.704L172.261 277.613C175.164 277.309 178.107 277.156 181 277.156V279.197C178.444 279.197 175.856 279.319 173.29 279.562C172.617 285.359 171.344 291.085 169.47 296.588C173.259 295.908 177.13 295.552 180.99 295.552V297.593C176.661 297.593 172.332 298.039 168.115 298.923L166.312 299.298L166.333 299.319Z" fill="#314D71"/>
<path d="M118.613 359.998H116.566C116.566 356.13 116.912 352.262 117.595 348.475C112.084 350.343 106.37 351.623 100.564 352.293C100.32 354.861 100.198 357.45 100.198 359.998H98.1504C98.1504 357.105 98.3032 354.161 98.6087 351.257L98.6902 350.435L99.5153 350.343C106.034 349.663 112.451 348.181 118.583 345.958L120.314 345.328L119.937 347.125C119.051 351.338 118.603 355.673 118.603 359.998H118.613Z" fill="#314D71"/>
<path d="M137.019 359.999H134.971C134.971 350.821 137.67 342.253 142.325 335.065C135.613 340.354 128.045 344.628 119.825 347.684C119.021 351.725 118.603 355.867 118.603 359.999H116.556C116.556 355.532 117.014 351.065 117.931 346.71L118.043 346.151L118.583 345.958C141.123 337.766 158.755 320.141 166.944 297.593L167.137 297.055L167.698 296.943C172.047 296.03 176.518 295.562 180.99 295.562V297.603C176.854 297.603 172.709 298.009 168.675 298.821C165.63 307.035 161.352 314.608 156.066 321.319C163.257 316.669 171.813 313.969 181 313.969V316.009C156.748 316.009 137.019 335.735 137.019 359.989V359.999Z" fill="#314D71"/>
<path d="M155.434 360.001H153.387C153.387 344.772 165.773 332.387 181 332.387V334.427C166.903 334.427 155.434 345.899 155.434 360.001ZM137.029 360.001H134.981C134.981 334.62 155.628 313.98 181 313.98V316.021C156.748 316.021 137.019 335.747 137.019 360.001H137.029Z" fill="#314D71"/>
<path d="M173.839 360.001H171.792C171.792 354.925 175.917 350.793 181 350.793V352.833C177.048 352.833 173.839 356.042 173.839 359.991V360.001ZM155.434 360.001H153.387C153.387 344.773 165.772 332.387 181 332.387V334.427C166.903 334.427 155.434 345.899 155.434 360.001Z" fill="#314D71"/>
<path d="M173.839 360.001H171.792C171.792 354.925 175.917 350.793 181 350.793V352.834C177.048 352.834 173.839 356.042 173.839 359.991V360.001Z" fill="#314D71"/>
<path d="M91 352.844V350.804C93.8316 350.804 96.6938 350.651 99.5254 350.357C106.044 349.677 112.461 348.194 118.593 345.971C141.134 337.778 158.765 320.154 166.954 297.606C169.185 291.474 170.662 285.057 171.344 278.54C171.639 275.707 171.792 272.834 171.792 270.012H173.84C173.84 272.905 173.687 275.849 173.381 278.753C172.678 285.433 171.161 292.012 168.879 298.306C160.476 321.423 142.407 339.494 119.296 347.89C113.001 350.174 106.431 351.687 99.7392 352.387C96.8364 352.692 93.8927 352.844 91 352.844ZM91 334.438V332.398C125.397 332.398 153.387 304.408 153.387 270.012H155.434C155.434 305.545 126.527 334.448 91 334.448V334.438Z" fill="#314D71"/>
<path d="M91 334.437V332.396C125.397 332.396 153.387 304.406 153.387 270.01H155.434C155.434 305.533 126.527 334.447 91 334.447V334.437ZM91 316.03L91 313.99C115.252 313.98 134.981 294.254 134.981 270H137.029C137.019 295.381 116.372 316.02 91 316.02V316.03Z" fill="#314D71"/>
<path d="M91 316.02L91 313.98C115.252 313.98 134.981 294.254 134.981 270H137.029C137.019 295.381 116.372 316.02 91 316.02ZM91 297.614V295.574C105.097 295.563 116.566 284.102 116.566 270H118.613C118.613 285.228 106.227 297.614 91 297.614Z" fill="#314D71"/>
<path d="M91 297.614V295.574C105.097 295.563 116.566 284.102 116.566 270H118.613C118.613 285.228 106.227 297.614 91 297.614ZM91 279.208V277.168C94.952 277.157 98.1605 273.949 98.1605 270H100.208C100.208 275.076 96.0724 279.208 91 279.208Z" fill="#314D71"/>
<path d="M91 279.208V277.168C94.952 277.157 98.1605 273.949 98.1605 270H100.208C100.208 275.076 96.0724 279.208 91 279.208Z" fill="#314D71"/>
</g>
<g clip-path="url(#clip11_936_33405)">
<path d="M150.68 525.333L152.406 525.964C158.538 528.195 164.954 529.672 171.472 530.354L172.295 530.436L172.386 531.261C172.69 534.164 172.843 537.107 172.843 540L170.802 540C170.802 537.444 170.68 534.856 170.437 532.29C164.64 531.617 158.914 530.344 153.411 528.47C154.092 532.259 154.447 536.13 154.447 539.99L152.406 539.99C152.406 535.661 151.96 531.332 151.076 527.115L150.701 525.312L150.68 525.333Z" fill="#E5DDC9"/>
<path d="M89.9999 477.611L89.9999 475.564C93.8679 475.564 97.7359 475.91 101.523 476.593C99.6547 471.082 98.3755 465.368 97.7055 459.562C95.1369 459.318 92.5481 459.196 89.9999 459.196L89.9999 457.148C92.8933 457.148 95.8374 457.301 98.741 457.607L99.5633 457.688L99.6547 458.513C100.335 465.032 101.817 471.449 104.04 477.581L104.67 479.312L102.873 478.935C98.6598 478.049 94.3247 477.601 89.9999 477.601L89.9999 477.611Z" fill="#E5DDC9"/>
<path d="M90 496.018L90 493.97C99.1776 493.97 107.746 496.669 114.934 501.324C109.645 494.612 105.371 487.044 102.315 478.824C98.2741 478.02 94.132 477.602 90 477.602L90 475.555C94.467 475.555 98.934 476.013 103.289 476.93L103.848 477.042L104.041 477.582C112.233 500.122 129.858 517.754 152.406 525.943L152.944 526.136L153.056 526.697C153.97 531.046 154.437 535.517 154.437 539.989L152.396 539.989C152.396 535.853 151.99 531.708 151.178 527.674C142.964 524.629 135.391 520.351 128.68 515.065C133.33 522.256 136.03 530.812 136.03 539.999L133.99 539.999C133.99 515.747 114.264 496.018 90.0101 496.018L90 496.018Z" fill="#E5DDC9"/>
<path d="M90.0002 514.433L90.0002 512.386C105.229 512.386 117.614 524.772 117.614 539.999L115.574 539.999C115.574 525.902 104.102 514.433 90.0002 514.433ZM90.0002 496.028L90.0002 493.98C115.381 493.98 136.021 514.627 136.021 539.999L133.98 539.999C133.98 515.747 114.254 496.018 90.0002 496.018L90.0002 496.028Z" fill="#E5DDC9"/>
<path d="M90 532.839L90 530.792C95.0762 530.792 99.2082 534.917 99.2082 540L97.1676 540C97.1676 536.048 93.9594 532.839 90.0102 532.839L90 532.839ZM90 514.434L90 512.387C105.228 512.387 117.614 524.772 117.614 540L115.574 540C115.574 525.903 104.102 514.434 90 514.434Z" fill="#E5DDC9"/>
<path d="M89.9999 532.84L89.9999 530.793C95.076 530.793 99.208 534.918 99.208 540.001L97.1674 540.001C97.1674 536.049 93.9593 532.84 90.01 532.84L89.9999 532.84Z" fill="#E5DDC9"/>
<path d="M97.1578 450L99.1984 450C99.1984 452.832 99.3506 455.694 99.6451 458.525C100.325 465.044 101.807 471.461 104.031 477.593C112.224 500.134 129.848 517.765 152.396 525.954C158.528 528.185 164.945 529.662 171.462 530.344C174.295 530.639 177.168 530.792 179.99 530.792L179.99 532.84C177.097 532.84 174.153 532.687 171.249 532.381C164.569 531.678 157.99 530.161 151.696 527.879C128.579 519.476 110.508 501.407 102.112 478.296C99.8278 472.001 98.3151 465.431 97.6146 458.739C97.31 455.836 97.1578 452.893 97.1578 450ZM115.564 450L117.604 450C117.604 484.397 145.594 512.387 179.99 512.387L179.99 514.434C144.457 514.434 115.554 485.527 115.554 450L115.564 450Z" fill="#E5DDC9"/>
<path d="M115.563 450L117.604 450C117.604 484.397 145.594 512.387 179.99 512.387L179.99 514.434C144.467 514.434 115.553 485.527 115.553 450L115.563 450ZM133.97 450L136.01 450C136.02 474.252 155.746 493.981 180 493.981L180 496.029C154.619 496.019 133.98 475.372 133.98 450L133.97 450Z" fill="#E5DDC9"/>
<path d="M133.98 450L136.02 450C136.02 474.252 155.746 493.981 180 493.981L180 496.029C154.619 496.019 133.98 475.372 133.98 450ZM152.386 450L154.426 450C154.437 464.097 165.898 475.566 180 475.566L180 477.613C164.772 477.613 152.386 465.227 152.386 450Z" fill="#E5DDC9"/>
<path d="M152.386 450L154.426 450C154.437 464.097 165.898 475.566 180 475.566L180 477.613C164.772 477.613 152.386 465.227 152.386 450ZM170.792 450L172.832 450C172.843 453.952 176.051 457.16 180 457.16L180 459.208C174.924 459.208 170.792 455.072 170.792 450Z" fill="#E5DDC9"/>
<path d="M170.792 450L172.832 450C172.843 453.952 176.051 457.16 180 457.16L180 459.208C174.924 459.208 170.792 455.072 170.792 450Z" fill="#E5DDC9"/>
</g>
<g clip-path="url(#clip12_936_33405)">
<path d="M255.333 569.319L255.964 567.593C258.195 561.461 259.672 555.045 260.354 548.527L260.436 547.704L261.261 547.613C264.164 547.309 267.107 547.156 270 547.156V549.197C267.444 549.197 264.856 549.319 262.29 549.562C261.617 555.359 260.344 561.085 258.47 566.588C262.259 565.908 266.13 565.552 269.99 565.552V567.593C265.661 567.593 261.332 568.039 257.115 568.923L255.312 569.298L255.333 569.319Z" fill="#E5DDC9"/>
<path d="M207.613 629.998H205.566C205.566 626.13 205.912 622.262 206.595 618.475C201.084 620.343 195.37 621.623 189.564 622.293C189.32 624.861 189.198 627.45 189.198 629.998H187.15C187.15 627.105 187.303 624.161 187.609 621.257L187.69 620.435L188.515 620.343C195.034 619.663 201.451 618.181 207.583 615.958L209.314 615.328L208.937 617.125C208.051 621.338 207.603 625.673 207.603 629.998H207.613Z" fill="#E5DDC9"/>
<path d="M226.019 629.999H223.971C223.971 620.821 226.67 612.253 231.325 605.065C224.613 610.354 217.045 614.628 208.825 617.684C208.021 621.725 207.603 625.867 207.603 629.999H205.556C205.556 625.532 206.014 621.065 206.931 616.71L207.043 616.151L207.583 615.958C230.123 607.766 247.755 590.141 255.944 567.593L256.137 567.055L256.698 566.943C261.047 566.03 265.518 565.562 269.99 565.562V567.603C265.854 567.603 261.709 568.009 257.675 568.821C254.63 577.035 250.352 584.608 245.066 591.319C252.257 586.669 260.813 583.969 270 583.969V586.009C245.748 586.009 226.019 605.735 226.019 629.989V629.999Z" fill="#E5DDC9"/>
<path d="M244.434 630.001H242.387C242.387 614.772 254.773 602.387 270 602.387V604.427C255.903 604.427 244.434 615.899 244.434 630.001ZM226.029 630.001H223.981C223.981 604.62 244.628 583.98 270 583.98V586.021C245.748 586.021 226.019 605.747 226.019 630.001H226.029Z" fill="#E5DDC9"/>
<path d="M262.839 630.001H260.792C260.792 624.925 264.917 620.793 270 620.793V622.833C266.048 622.833 262.839 626.042 262.839 629.991V630.001ZM244.434 630.001H242.387C242.387 614.773 254.772 602.387 270 602.387V604.427C255.903 604.427 244.434 615.899 244.434 630.001Z" fill="#E5DDC9"/>
<path d="M262.839 630.001H260.792C260.792 624.925 264.917 620.793 270 620.793V622.834C266.048 622.834 262.839 626.042 262.839 629.991V630.001Z" fill="#E5DDC9"/>
<path d="M180 622.844V620.804C182.832 620.804 185.694 620.651 188.525 620.357C195.044 619.677 201.461 618.194 207.593 615.971C230.134 607.778 247.765 590.154 255.954 567.606C258.185 561.474 259.662 555.057 260.344 548.54C260.639 545.707 260.792 542.834 260.792 540.012H262.84C262.84 542.905 262.687 545.849 262.381 548.753C261.678 555.433 260.161 562.012 257.879 568.306C249.476 591.423 231.407 609.494 208.296 617.89C202.001 620.174 195.431 621.687 188.739 622.387C185.836 622.692 182.893 622.844 180 622.844ZM180 604.438V602.398C214.397 602.398 242.387 574.408 242.387 540.012H244.434C244.434 575.545 215.527 604.448 180 604.448V604.438Z" fill="#E5DDC9"/>
<path d="M180 604.437V602.396C214.397 602.396 242.387 574.406 242.387 540.01H244.434C244.434 575.533 215.527 604.447 180 604.447V604.437ZM180 586.03V583.99C204.252 583.98 223.981 564.254 223.981 540H226.029C226.019 565.381 205.372 586.02 180 586.02V586.03Z" fill="#E5DDC9"/>
<path d="M180 586.02V583.98C204.252 583.98 223.981 564.254 223.981 540H226.029C226.019 565.381 205.372 586.02 180 586.02ZM180 567.614V565.574C194.097 565.563 205.566 554.102 205.566 540H207.613C207.613 555.228 195.227 567.614 180 567.614Z" fill="#E5DDC9"/>
<path d="M180 567.614V565.574C194.097 565.563 205.566 554.102 205.566 540H207.613C207.613 555.228 195.227 567.614 180 567.614ZM180 549.208V547.168C183.952 547.157 187.16 543.949 187.16 540H189.208C189.208 545.076 185.072 549.208 180 549.208Z" fill="#E5DDC9"/>
<path d="M180 549.208V547.168C183.952 547.157 187.16 543.949 187.16 540H189.208C189.208 545.076 185.072 549.208 180 549.208Z" fill="#E5DDC9"/>
</g>
<g clip-path="url(#clip13_936_33405)">
<path d="M255.333 119.319L255.964 117.593C258.195 111.461 259.672 105.045 260.354 98.5268L260.436 97.7045L261.261 97.6131C264.164 97.3085 267.107 97.1562 270 97.1562V99.1969C267.444 99.1969 264.856 99.3187 262.29 99.5623C261.617 105.359 260.344 111.085 258.47 116.588C262.259 115.908 266.13 115.552 269.99 115.552V117.593C265.661 117.593 261.332 118.039 257.115 118.923L255.312 119.298L255.333 119.319Z" fill="#314D71"/>
<path d="M207.613 179.998H205.566C205.566 176.13 205.912 172.262 206.595 168.475C201.084 170.343 195.37 171.623 189.564 172.293C189.32 174.861 189.198 177.45 189.198 179.998H187.15C187.15 177.105 187.303 174.161 187.609 171.257L187.69 170.435L188.515 170.343C195.034 169.663 201.451 168.181 207.583 165.958L209.314 165.328L208.937 167.125C208.051 171.338 207.603 175.673 207.603 179.998H207.613Z" fill="#314D71"/>
<path d="M226.019 179.999H223.971C223.971 170.821 226.67 162.253 231.325 155.065C224.613 160.354 217.045 164.628 208.825 167.684C208.021 171.725 207.603 175.867 207.603 179.999H205.556C205.556 175.532 206.014 171.065 206.931 166.71L207.043 166.151L207.583 165.958C230.123 157.766 247.755 140.141 255.944 117.593L256.137 117.055L256.698 116.943C261.047 116.03 265.518 115.562 269.99 115.562V117.603C265.854 117.603 261.709 118.009 257.675 118.821C254.63 127.035 250.352 134.608 245.066 141.319C252.257 136.669 260.813 133.969 270 133.969V136.009C245.748 136.009 226.019 155.735 226.019 179.989V179.999Z" fill="#314D71"/>
<path d="M244.434 180.001H242.387C242.387 164.772 254.773 152.387 270 152.387V154.427C255.903 154.427 244.434 165.899 244.434 180.001ZM226.029 180.001H223.981C223.981 154.62 244.628 133.98 270 133.98V136.021C245.748 136.021 226.019 155.747 226.019 180.001H226.029Z" fill="#314D71"/>
<path d="M262.839 180.001H260.792C260.792 174.925 264.917 170.793 270 170.793V172.833C266.048 172.833 262.839 176.042 262.839 179.991V180.001ZM244.434 180.001H242.387C242.387 164.773 254.772 152.387 270 152.387V154.427C255.903 154.427 244.434 165.899 244.434 180.001Z" fill="#314D71"/>
<path d="M262.839 180.001H260.792C260.792 174.925 264.917 170.793 270 170.793V172.834C266.048 172.834 262.839 176.042 262.839 179.991V180.001Z" fill="#314D71"/>
<path d="M180 172.844V170.804C182.832 170.804 185.694 170.651 188.525 170.357C195.044 169.677 201.461 168.194 207.593 165.971C230.134 157.778 247.765 140.154 255.954 117.606C258.185 111.474 259.662 105.057 260.344 98.5396C260.639 95.7071 260.792 92.8341 260.792 90.0117H262.84C262.84 92.9051 262.687 95.8493 262.381 98.7528C261.678 105.433 260.161 112.012 257.879 118.306C249.476 141.423 231.407 159.494 208.296 167.89C202.001 170.174 195.431 171.687 188.739 172.387C185.836 172.692 182.893 172.844 180 172.844ZM180 154.438V152.398C214.397 152.398 242.387 124.408 242.387 90.0117H244.434C244.434 125.545 215.527 154.448 180 154.448V154.438Z" fill="#314D71"/>
<path d="M180 154.437V152.396C214.397 152.396 242.387 124.406 242.387 90.0102H244.434C244.434 125.533 215.527 154.447 180 154.447V154.437ZM180 136.03V133.99C204.252 133.98 223.981 114.254 223.981 90H226.029C226.019 115.381 205.372 136.02 180 136.02V136.03Z" fill="#314D71"/>
<path d="M180 136.02V133.98C204.252 133.98 223.981 114.254 223.981 90H226.029C226.019 115.381 205.372 136.02 180 136.02ZM180 117.614V115.574C194.097 115.563 205.566 104.102 205.566 90H207.613C207.613 105.228 195.227 117.614 180 117.614Z" fill="#314D71"/>
<path d="M180 117.614V115.574C194.097 115.563 205.566 104.102 205.566 90H207.613C207.613 105.228 195.227 117.614 180 117.614ZM180 99.2081V97.1675C183.952 97.1574 187.16 93.9492 187.16 90H189.208C189.208 95.0761 185.072 99.2081 180 99.2081Z" fill="#314D71"/>
<path d="M180 99.2081V97.1675C183.952 97.1574 187.16 93.9492 187.16 90H189.208C189.208 95.0761 185.072 99.2081 180 99.2081Z" fill="#314D71"/>
</g>
<defs>
<clipPath id="clip0_936_33405">
<rect width="90" height="90" fill="white" transform="translate(180)"/>
</clipPath>
<clipPath id="clip1_936_33405">
<rect width="90" height="90" fill="white" transform="translate(90)"/>
</clipPath>
<clipPath id="clip2_936_33405">
<rect width="90" height="90" fill="white" transform="translate(90 90)"/>
</clipPath>
<clipPath id="clip3_936_33405">
<rect width="90" height="90" fill="white" transform="translate(90 180)"/>
</clipPath>
<clipPath id="clip4_936_33405">
<rect width="90" height="90" fill="white" transform="translate(180 180)"/>
</clipPath>
<clipPath id="clip5_936_33405">
<rect width="90" height="90" fill="white" transform="translate(180 450)"/>
</clipPath>
<clipPath id="clip6_936_33405">
<rect width="90" height="90" fill="white" transform="translate(90 180) rotate(90)"/>
</clipPath>
<clipPath id="clip7_936_33405">
<rect width="90" height="90" fill="white" transform="translate(270 270) rotate(90)"/>
</clipPath>
<clipPath id="clip8_936_33405">
<rect width="90" height="90" fill="white" transform="translate(270 360) rotate(90)"/>
</clipPath>
<clipPath id="clip9_936_33405">
<rect width="90" height="90" fill="white" transform="translate(90 90) rotate(90)"/>
</clipPath>
<clipPath id="clip10_936_33405">
<rect width="90" height="90" fill="white" transform="translate(91 270)"/>
</clipPath>
<clipPath id="clip11_936_33405">
<rect width="90" height="90" fill="white" transform="translate(180 450) rotate(90)"/>
</clipPath>
<clipPath id="clip12_936_33405">
<rect width="90" height="90" fill="white" transform="translate(180 540)"/>
</clipPath>
<clipPath id="clip13_936_33405">
<rect width="90" height="90" fill="white" transform="translate(180 90)"/>
</clipPath>
</defs>
</svg>
