<svg width="52" height="52" viewBox="0 0 52 52" fill="none" xmlns="http://www.w3.org/2000/svg">
<path d="M17.8001 32C17.4044 32 17.1377 32.0404 17 32.0807V34.7219C17.1635 34.7623 17.3678 34.7735 17.6496 34.7735C18.6799 34.7735 19.3144 34.2309 19.3144 33.3139C19.3144 32.4933 18.7681 32 17.8001 32ZM25.3005 32.0269C24.8703 32.0269 24.5907 32.0673 24.425 32.1076V37.9595C24.5907 37.9999 24.8574 37.9999 25.0983 37.9999C26.8556 38.0133 27.9999 37.0044 27.9999 34.8699C28.0128 33.0089 26.9696 32.0269 25.3005 32.0269Z" fill="#CC0000"/>
<path d="M30.875 4H13.375C12.2147 4 11.1019 4.45303 10.2814 5.25944C9.46094 6.06585 9 7.15957 9 8.3V42.7C9 43.8404 9.46094 44.9342 10.2814 45.7406C11.1019 46.547 12.2147 47 13.375 47H39.625C40.7853 47 41.8981 46.547 42.7186 45.7406C43.5391 44.9342 44 43.8404 44 42.7V16.9L30.875 4ZM21.0269 34.5085C20.3509 35.132 19.3534 35.4115 18.1919 35.4115C17.9667 35.4139 17.7415 35.401 17.5181 35.3728V38.4387H15.5625V29.9763C16.4451 29.8469 17.3368 29.7879 18.2291 29.8C19.4475 29.8 20.3138 30.0279 20.8978 30.4859C21.4534 30.9202 21.8297 31.6318 21.8297 32.4703C21.8275 33.3131 21.5431 34.0248 21.0269 34.5085ZM29.3547 37.4218C28.4359 38.1721 27.0381 38.529 25.3297 38.529C24.3059 38.529 23.5819 38.4645 23.0897 38.4V29.9785C23.9726 29.8518 24.8641 29.7921 25.7563 29.8C27.4122 29.8 28.4884 30.0924 29.3284 30.7159C30.2362 31.3781 30.805 32.4338 30.805 33.9495C30.805 35.59 30.1947 36.723 29.3547 37.4218ZM37.4375 31.4555H34.0863V33.4142H37.2188V34.9923H34.0863V38.4408H32.1044V29.8645H37.4375V31.4555ZM30.875 19.05H28.6875V8.3L39.625 19.05H30.875Z" fill="#CC0000"/>
</svg>
