<svg width="221" height="40" viewBox="0 0 221 40" fill="none" xmlns="http://www.w3.org/2000/svg">
<path d="M32.5192 40H7.48079C3.35326 40 0 36.641 0 32.5192V7.48079C0 3.35895 3.35895 0 7.48079 0H32.5192C36.6467 0 40 3.35895 40 7.48079V32.5192C40 36.6467 36.641 40 32.5192 40Z" fill="#314D71"/>
<path d="M27.9311 15.2212C28.7571 14.0301 28.4611 12.3949 27.27 11.5689C26.0789 10.7429 24.4437 11.0389 23.6177 12.23C22.7917 13.4211 23.0877 15.0563 24.2788 15.8823C25.4699 16.7083 27.1051 16.4123 27.9311 15.2212Z" fill="white"/>
<path d="M22.7862 8.62856L21.9609 8.64844L21.9808 9.4737L22.8061 9.45382L22.7862 8.62856Z" fill="white"/>
<path d="M21.9757 9.47621L21.1504 9.49609L21.1703 10.3214L21.9955 10.3015L21.9757 9.47621Z" fill="white"/>
<path d="M21.168 10.3433L20.3428 10.3633L20.3628 11.1885L21.1881 11.1685L21.168 10.3433Z" fill="white"/>
<path d="M13.1634 4.65625H13.1577C13.1406 4.70749 13.1292 4.75873 13.1064 4.80427L13.1634 4.65625Z" fill="white"/>
<path d="M10.5098 4.56641L10.5439 4.66888C10.5325 4.63472 10.5268 4.60057 10.5155 4.56641H10.5098Z" fill="white"/>
<path d="M13.704 5.78151C13.7267 5.73596 13.7381 5.68472 13.7552 5.63349C13.795 5.51393 13.8235 5.38299 13.8292 5.25204C13.8577 4.48916 13.2542 3.84584 12.4913 3.81737C11.7284 3.78891 11.0851 4.39238 11.0566 5.15526C11.0566 5.2919 11.0737 5.41715 11.1079 5.54239C11.1193 5.57655 11.125 5.61071 11.1363 5.64487L11.1534 5.7075L12.3034 9.29417L13.6983 5.78151H13.704ZM13.277 5.61071C13.1176 5.92384 12.7874 6.14017 12.4173 6.1231C12.0416 6.11171 11.7284 5.87829 11.5918 5.55378C11.5406 5.43423 11.5121 5.30328 11.5178 5.16665C11.5349 4.65426 11.9675 4.25005 12.4799 4.26713C12.9923 4.28421 13.3965 4.71689 13.3794 5.22927C13.3794 5.36591 13.3396 5.49685 13.277 5.61071Z" fill="white"/>
<path d="M6.93491 9.85314C6.90075 9.84175 6.86659 9.83606 6.83243 9.82468C6.70718 9.79052 6.58194 9.77344 6.4453 9.77344C5.68242 9.8019 5.07895 10.4395 5.10741 11.2081C5.13588 11.971 5.77351 12.5745 6.54208 12.546C6.67872 12.546 6.80397 12.5118 6.92352 12.472C6.97476 12.4549 7.026 12.4435 7.07155 12.4207L10.5842 11.0202L6.99753 9.87022L6.93491 9.85314ZM7.41883 11.1284C7.43021 11.5042 7.21957 11.8344 6.90644 11.9881C6.79258 12.045 6.66164 12.0849 6.525 12.0905C6.01262 12.1076 5.57994 11.7034 5.56286 11.191C5.54578 10.6786 5.95 10.246 6.46238 10.2289C6.59901 10.2289 6.72996 10.2517 6.84951 10.3029C7.17402 10.4395 7.40744 10.7527 7.41883 11.1284Z" fill="white"/>
<path d="M7.70974 25.9181C7.67558 25.9181 7.63573 25.9238 7.59588 25.9295C7.07211 26.0206 6.71913 26.5216 6.81022 27.0453C6.90131 27.5691 7.40231 27.9221 7.92608 27.831C7.96593 27.8253 8.00009 27.8139 8.03425 27.8025L13.642 25.8555L7.70404 25.9124L7.70974 25.9181Z" fill="white"/>
<path d="M9.94114 24.1928C9.94114 24.1928 9.89559 24.1757 9.86713 24.17C9.51415 24.0789 9.15549 24.2839 9.0587 24.6369C8.96761 24.9898 9.17257 25.3485 9.52554 25.4453C9.54831 25.451 9.57678 25.4567 9.59955 25.4624L13.6417 25.8609L9.93545 24.1928H9.94114Z" fill="white"/>
<path d="M5.36347 31.8123C5.31223 31.8521 5.26668 31.892 5.22114 31.9375C4.57212 32.5865 4.57212 33.6341 5.22114 34.2774C5.87016 34.9264 6.91769 34.9264 7.56102 34.2774C7.60656 34.2319 7.64642 34.1806 7.68627 34.1351H7.69196L13.6413 25.8516L5.35208 31.8009H5.35777L5.36347 31.8123Z" fill="white"/>
<path d="M33.8583 28.3618C33.8924 28.3732 33.9266 28.3789 33.9608 28.3903C34.086 28.4244 34.2113 28.4415 34.3479 28.4415C35.1108 28.413 35.7142 27.7754 35.6858 27.0068C35.6573 26.2439 35.0197 25.6405 34.2511 25.6689C34.1145 25.6689 33.9892 25.7031 33.8697 25.7429C33.8184 25.76 33.7672 25.7714 33.7217 25.7942L30.209 27.1947L33.7957 28.3447L33.8583 28.3618ZM33.3744 27.0865C33.363 26.7108 33.5736 26.3806 33.8868 26.2269C34.0006 26.1699 34.1316 26.1301 34.2682 26.1244C34.7806 26.1073 35.2133 26.5115 35.2303 27.0239C35.2474 27.5363 34.8432 27.969 34.3308 27.986C34.1942 27.986 34.0632 27.9633 33.9437 27.912C33.6192 27.7754 33.3858 27.4623 33.3744 27.0865Z" fill="white"/>
<path d="M27.0832 32.4306C27.0605 32.4762 27.0491 32.5274 27.032 32.5787C26.9922 32.6982 26.9637 32.8292 26.958 32.9601C26.9295 33.723 27.533 34.3663 28.2959 34.3948C29.0588 34.4232 29.7021 33.8198 29.7306 33.0569C29.7306 32.9202 29.7135 32.795 29.6793 32.6697C29.6679 32.6356 29.6622 32.6014 29.6509 32.5673L29.6338 32.5046L28.4838 28.918L27.0889 32.4306H27.0832ZM27.5102 32.6014C27.6696 32.2883 27.9998 32.072 28.3699 32.089C28.7456 32.1004 29.0588 32.3339 29.1954 32.6584C29.2466 32.7779 29.2751 32.9089 29.2694 33.0455C29.2523 33.5579 28.8197 33.9621 28.3073 33.945C27.7949 33.9279 27.3907 33.4953 27.4078 32.9829C27.4078 32.8462 27.4476 32.7153 27.5102 32.6014Z" fill="white"/>
<path d="M11.7 31.465C11.6886 31.4992 11.6829 31.539 11.6716 31.5732C11.5805 32.0969 11.9334 32.5979 12.4572 32.689C12.981 32.7801 13.482 32.4271 13.5731 31.9034C13.5788 31.8635 13.5844 31.8294 13.5844 31.7895H13.5901L13.6471 25.8516L11.6943 31.4593H11.7V31.465Z" fill="white"/>
<path d="M14.046 29.8994C14.046 29.8994 14.0517 29.9506 14.0631 29.9734C14.1542 30.3264 14.5185 30.537 14.8715 30.4402C15.2245 30.3491 15.4351 29.9848 15.3383 29.6318C15.3326 29.609 15.3212 29.5806 15.3156 29.5578L13.6475 25.8516L14.0403 29.8937L14.046 29.8994Z" fill="white"/>
<path d="M22.7905 17.8303C23.5818 18.411 24.5497 18.764 25.6029 18.7981C28.3982 18.8949 30.7495 16.6974 30.8463 13.902C30.8577 13.5092 30.8235 13.1221 30.7495 12.752L32.4005 7.10444L26.7529 8.76114C26.491 8.7099 26.2234 8.67005 25.9502 8.66436C23.1548 8.56757 20.8036 10.7651 20.7068 13.5605C20.6669 14.7389 21.037 15.832 21.6803 16.7145L20.0293 17.0219L12.3094 9.30199L8.30712 5.29971C7.83459 4.82718 7.06033 4.82718 6.5878 5.29971C6.11527 5.77224 6.11527 6.54651 6.5878 7.01904L10.5901 11.0213L8.35836 13.253C7.88583 13.7256 7.88583 14.4998 8.35836 14.9724C8.83089 15.4449 9.60516 15.4449 10.0777 14.9724L12.3094 12.7406L13.0894 13.5206L10.8577 15.7523C10.3851 16.2248 10.3851 16.9991 10.8577 17.4716C11.3302 17.9442 12.1044 17.9442 12.577 17.4716L14.8087 15.2399L15.5886 16.0199L13.3569 18.2516C12.8844 18.7241 12.8844 19.4984 13.3569 19.9709C13.8295 20.4435 14.6037 20.4435 15.0763 19.9709L17.308 17.7392L13.6416 25.8519L21.7543 22.1856L19.5226 24.423C19.0501 24.8955 19.0501 25.6698 19.5226 26.1423C19.9951 26.6148 20.7694 26.6148 21.2419 26.1423L23.4736 23.9106L24.2536 24.6905L22.0219 26.9223C21.5494 27.3948 21.5494 28.1691 22.0219 28.6416C22.4944 29.1141 23.2687 29.1141 23.7412 28.6416L25.9729 26.4099L26.7529 27.1898L24.5212 29.4215C24.0487 29.8941 24.0487 30.6683 24.5212 31.1409C24.9937 31.6134 25.768 31.6134 26.2405 31.1409L28.4722 28.9092L32.4745 32.9114C32.947 33.384 33.7213 33.384 34.1938 32.9114C34.6664 32.4389 34.6664 31.6646 34.1938 31.1921L30.1916 27.1898L22.4717 19.4699L22.7791 17.8246L22.7905 17.8303ZM8.1648 6.87671C7.79474 7.24676 7.20266 7.24676 6.8326 6.87671C6.46255 6.50666 6.46255 5.91457 6.8326 5.54452C7.20266 5.17446 7.79474 5.17446 8.1648 5.54452C8.53485 5.91457 8.53485 6.50666 8.1648 6.87671ZM9.93536 14.7276C9.56531 15.0976 8.97322 15.0976 8.60317 14.7276C8.23311 14.3575 8.23311 13.7654 8.60317 13.3954C8.97322 13.0253 9.56531 13.0253 9.93536 13.3954C10.3054 13.7654 10.3054 14.3575 9.93536 14.7276ZM12.4347 17.2268C12.0646 17.5969 11.4725 17.5969 11.1025 17.2268C10.7324 16.8568 10.7324 16.2647 11.1025 15.8946C11.4725 15.5246 12.0646 15.5246 12.4347 15.8946C12.8047 16.2647 12.8047 16.8568 12.4347 17.2268ZM14.9339 19.7261C14.5639 20.0962 13.9718 20.0962 13.6017 19.7261C13.2317 19.3561 13.2317 18.764 13.6017 18.3939C13.9718 18.0239 14.5639 18.0239 14.9339 18.3939C15.304 18.764 15.304 19.3561 14.9339 19.7261ZM21.1053 25.8975C20.7352 26.2675 20.1432 26.2675 19.7731 25.8975C19.4031 25.5274 19.4031 24.9353 19.7731 24.5653C20.1432 24.1952 20.7352 24.1952 21.1053 24.5653C21.4754 24.9353 21.4754 25.5274 21.1053 25.8975ZM23.6046 28.3968C23.2345 28.7668 22.6424 28.7668 22.2724 28.3968C21.9023 28.0267 21.9023 27.4346 22.2724 27.0646C22.6424 26.6945 23.2345 26.6945 23.6046 27.0646C23.9746 27.4346 23.9746 28.0267 23.6046 28.3968ZM26.1039 30.8961C25.7338 31.2661 25.1417 31.2661 24.7717 30.8961C24.4016 30.526 24.4016 29.9339 24.7717 29.5639C25.1417 29.1938 25.7338 29.1938 26.1039 29.5639C26.4739 29.9339 26.4739 30.526 26.1039 30.8961ZM32.6225 31.3344C32.9926 30.9644 33.5847 30.9644 33.9547 31.3344C34.3248 31.7045 34.3248 32.2966 33.9547 32.6666C33.5847 33.0367 32.9926 33.0367 32.6225 32.6666C32.2525 32.2966 32.2525 31.7045 32.6225 31.3344ZM25.8989 9.86561C28.0225 9.93962 29.6962 11.7273 29.6222 13.8508C29.5482 15.9743 27.7606 17.6481 25.637 17.5741C23.5135 17.5001 21.8397 15.7125 21.9137 13.5889C21.9877 11.4654 23.7754 9.7916 25.8989 9.86561Z" fill="white"/>
<path d="M71.8925 10.5742V29.0485H67.2184L57.5344 17.6166V29.0485H52.8262V10.5742H57.5059L67.1957 21.9833V10.5742H71.8925Z" fill="#314D71"/>
<path d="M92.6779 10.5742V14.8782H80.876V17.6736H92.1143V21.9263H80.876V24.7388H92.6779V29.0485H75.8945V10.5742H92.6779Z" fill="#314D71"/>
<path d="M100.74 28.2457C99.1062 27.5682 97.7171 26.4125 96.755 24.9209C95.7928 23.4349 95.3089 21.6928 95.3658 19.9223V19.7287C95.3089 17.9581 95.7928 16.2104 96.755 14.7188C97.7114 13.2271 99.1005 12.0601 100.734 11.3769C102.625 10.5628 104.663 10.1699 106.724 10.2098C108.676 10.1756 110.618 10.5343 112.44 11.2516C113.994 11.8437 115.36 12.8343 116.402 14.1267C117.336 15.3051 117.837 16.7626 117.82 18.2656V18.4876H112.719V18.2656C112.707 17.7361 112.548 17.2237 112.257 16.7854C111.967 16.347 111.557 15.9997 111.079 15.7834C109.73 15.1116 108.232 14.7928 106.724 14.8611C102.534 14.8611 100.438 16.4665 100.438 19.6718V20.0134C100.387 20.6909 100.507 21.3683 100.774 21.9946C101.048 22.6151 101.463 23.1674 101.987 23.5944C103.023 24.38 104.594 24.7785 106.718 24.7785C108.232 24.8525 109.741 24.5394 111.107 23.879C111.58 23.657 111.984 23.3097 112.269 22.8713C112.553 22.433 112.707 21.9206 112.713 21.3968V21.2032H117.814V21.3968C117.825 22.8998 117.324 24.3629 116.396 25.5414C115.354 26.8281 113.988 27.813 112.434 28.3937C110.612 29.1053 108.676 29.4526 106.718 29.4184C104.663 29.464 102.619 29.0655 100.729 28.2513" fill="#314D71"/>
<path d="M125.305 28.2454C123.7 27.5451 122.333 26.3951 121.371 24.9263C120.437 23.429 119.953 21.6869 119.988 19.922V19.7284C119.948 17.9522 120.432 16.2101 121.371 14.7014C122.328 13.2326 123.694 12.0769 125.305 11.3766C129.091 9.82238 133.344 9.82238 137.13 11.3766C138.729 12.0769 140.09 13.2326 141.041 14.7014C141.986 16.2044 142.464 17.9522 142.424 19.7284V19.922C142.487 21.6812 142.009 23.4176 141.064 24.9035C140.119 26.3894 138.747 27.5565 137.13 28.2454C133.338 29.7996 129.091 29.7996 125.305 28.2454ZM137.369 20.0131V19.6715C137.414 18.994 137.295 18.3109 137.022 17.6846C136.748 17.0584 136.333 16.5118 135.809 16.0791C134.767 15.265 133.23 14.8494 131.203 14.8494C129.586 14.7413 127.981 15.1796 126.643 16.0905C126.113 16.5175 125.692 17.0641 125.419 17.6846C125.146 18.3052 125.02 18.9883 125.06 19.6658V20.0074C125.015 20.6792 125.134 21.351 125.408 21.9715C125.675 22.5864 126.091 23.1329 126.614 23.5542C127.651 24.357 129.176 24.7612 131.203 24.7669C135.314 24.7669 137.369 23.1785 137.369 20.0074V20.0131Z" fill="#314D71"/>
<path d="M157.665 10.5742V24.5907H169.632V29.0485H152.684V10.5742H157.665Z" fill="#314D71"/>
<path d="M176.727 10.5742H171.745V29.0428H176.727V10.5742Z" fill="#314D71"/>
<path d="M199.51 10.5742V29.0485H194.836L185.152 17.6166V29.0485H180.443V10.5742H185.123L194.807 21.9776V10.5742H199.51Z" fill="#314D71"/>
<path d="M220.29 10.5742V14.8782H208.494V17.6679H219.727V21.9263H208.494V24.7331H220.29V29.0485H203.513V10.5742H220.29Z" fill="#314D71"/>
</svg>
