<svg width="78" height="98" viewBox="0 0 78 98" fill="none" xmlns="http://www.w3.org/2000/svg">
<path d="M65.9699 63.4591C66.6888 62.7403 66.6888 61.5901 65.9699 60.8712C65.251 60.1523 64.1008 60.1523 63.3819 60.8712C62.6631 61.5901 62.6631 62.7403 63.3819 63.4591C64.1008 64.178 65.251 64.178 65.9699 63.4591Z" fill="#F3EFDE"/>
<path d="M66.5683 50.7549C66.3028 50.7549 66.0485 50.8323 65.8273 50.954C65.219 51.2637 64.7987 51.9051 64.8319 52.624C64.854 53.3539 65.3075 53.9622 65.9379 54.2276C66.1701 54.3272 66.4245 54.3825 66.6899 54.3714C67.6853 54.3382 68.4705 53.4977 68.4374 52.5023C68.4042 51.507 67.5636 50.7217 66.5683 50.7549Z" fill="#F3EFDE"/>
<path d="M49.8138 34.1512C53.939 34.295 57.4117 31.0434 57.5555 26.9182C57.6993 22.793 54.4477 19.3202 50.3225 19.1765C46.1973 19.0327 42.7245 22.2842 42.5808 26.4095C42.437 30.5347 45.6885 34.0074 49.8138 34.1512ZM50.2451 21.5653C53.0542 21.6649 55.2662 24.0206 55.1666 26.8297C55.0671 29.6389 52.7114 31.8508 49.9022 31.7513C47.0931 31.6517 44.8812 29.296 44.9807 26.4869C45.0802 23.6777 47.4359 21.4658 50.2451 21.5653Z" fill="#F3EFDE"/>
<path d="M12.5424 19.8608C11.547 19.8939 10.7618 20.7345 10.795 21.7299C10.8281 22.7252 11.6687 23.5104 12.664 23.4773C12.9295 23.4773 13.1838 23.3998 13.405 23.2782C14.0133 22.9685 14.4336 22.3271 14.4004 21.6082C14.3783 20.8783 13.9248 20.27 13.2944 20.0045C13.0622 19.905 12.8078 19.8497 12.5424 19.8608Z" fill="#F3EFDE"/>
<path d="M26.422 35.7345C25.7031 36.4533 25.7031 37.6036 26.422 38.3224C27.1408 39.0413 28.291 39.0413 29.0099 38.3224C29.7288 37.6036 29.7288 36.4533 29.0099 35.7345C28.291 35.0156 27.1408 35.0156 26.422 35.7345Z" fill="#F3EFDE"/>
<path d="M21.5655 30.879C20.8466 31.5979 20.8466 32.7481 21.5655 33.4669C22.2844 34.1858 23.4346 34.1858 24.1535 33.4669C24.8724 32.7481 24.8724 31.5979 24.1535 30.879C23.4346 30.1601 22.2844 30.1601 21.5655 30.879Z" fill="#F3EFDE"/>
<path d="M48.1329 57.4454C47.414 58.1643 47.414 59.3145 48.1329 60.0334C48.8518 60.7522 50.002 60.7522 50.7209 60.0334C51.4397 59.3145 51.4397 58.1643 50.7209 57.4454C50.002 56.7265 48.8518 56.7265 48.1329 57.4454Z" fill="#F3EFDE"/>
<path d="M38.4103 47.7267C37.6914 48.4455 37.6914 49.5957 38.4103 50.3146C39.1291 51.0335 40.2793 51.0335 40.9982 50.3146C41.7171 49.5957 41.7171 48.4455 40.9982 47.7267C40.2793 47.0078 39.1291 47.0078 38.4103 47.7267Z" fill="#F3EFDE"/>
<path d="M44.5709 55.6927C45.5788 55.6927 46.3958 54.8756 46.3958 53.8678C46.3958 52.86 45.5788 52.043 44.5709 52.043C43.5631 52.043 42.7461 52.86 42.7461 53.8678C42.7461 54.8756 43.5631 55.6927 44.5709 55.6927Z" fill="#F3EFDE"/>
<path d="M13.2706 10.7579C12.5517 11.4768 12.5517 12.627 13.2706 13.3459C13.9895 14.0647 15.1397 14.0647 15.8586 13.3459C16.5774 12.627 16.5774 11.4768 15.8586 10.7579C15.1397 10.039 13.9895 10.039 13.2706 10.7579Z" fill="#F3EFDE"/>
<path d="M24.2431 8.29789C23.2477 8.26471 22.4072 9.04995 22.374 10.0453C22.374 10.3107 22.4183 10.5651 22.5178 10.7974C22.7832 11.4278 23.3915 11.8812 24.1214 11.9033C24.8514 11.9254 25.4928 11.5162 25.7914 10.908C25.902 10.6868 25.9795 10.4324 25.9905 10.167C26.0237 9.1716 25.2385 8.33107 24.2431 8.29789ZM25.5703 9.03888L25.4597 9.32644C25.5039 9.23797 25.526 9.13842 25.5592 9.03888H25.5703Z" fill="#F3EFDE"/>
<path d="M63.1726 0H14.5324C6.52518 0 0 6.52519 0 14.5434V63.1726C0 71.1908 6.52518 77.705 14.5324 77.705H63.1726C71.1908 77.705 77.705 71.1798 77.705 63.1726V14.5434C77.705 6.52519 71.1798 0.0110536 63.1726 0.0110536V0ZM42.6681 16.7996L44.2717 16.7554L44.3159 18.359L42.7123 18.4032L42.7565 20.0069L41.1529 20.0511L41.1086 18.4475L42.7123 18.4032L42.6681 16.7996ZM41.1418 20.0843L41.1861 21.6879L39.5824 21.7322L39.5382 20.1285L41.1418 20.0843ZM20.4271 8.85876C20.4493 8.92512 20.4603 8.99148 20.4824 9.05784L20.4161 8.85876H20.4271ZM66.7338 55.2428C66.4684 55.2428 66.2251 55.2097 65.9818 55.1433C65.9154 55.1212 65.849 55.1101 65.7827 55.088L65.661 55.0548L58.6935 52.8208L66.4684 60.5957C67.3863 61.5137 67.3863 63.0178 66.4684 63.9357C65.5504 64.8537 64.0463 64.8537 63.1284 63.9357L55.3534 56.1608L57.5875 63.1284L57.6207 63.25C57.6428 63.3164 57.6539 63.3827 57.676 63.4491C57.7423 63.6924 57.7755 63.9357 57.7755 64.2012C57.7202 65.6831 56.4815 66.8555 54.9885 66.8002C53.5065 66.7449 52.3342 65.5062 52.3895 64.0131C52.3895 63.7477 52.4558 63.5044 52.5332 63.2722C52.5664 63.1726 52.5885 63.0731 52.6328 62.9846L55.3424 56.1497L51.007 60.4851C50.0891 61.4031 48.585 61.4031 47.667 60.4851C46.7491 59.5672 46.7491 58.0631 47.667 57.1451L52.0024 52.8097L50.4872 51.2946L46.1518 55.6299C45.2339 56.5479 43.7298 56.5479 42.8118 55.6299C41.8939 54.712 41.8939 53.2079 42.8118 52.2899L47.1472 47.9546L45.632 46.4394L41.2967 50.7748C40.3787 51.6927 38.8746 51.6927 37.9566 50.7748C37.0387 49.8568 37.0387 48.3527 37.9566 47.4348L42.292 43.0994L26.5321 50.2107L29.7725 57.4105C29.7725 57.4105 29.8057 57.5101 29.8168 57.5543C29.9937 58.24 29.5956 58.9368 28.9099 59.1248C28.2242 59.3017 27.5274 58.9036 27.3394 58.2179C27.3283 58.1737 27.3173 58.1184 27.3062 58.0741L26.5431 50.2218L26.4325 61.757H26.4215C26.4215 61.8233 26.4104 61.9007 26.3993 61.9671C26.2224 62.9846 25.2491 63.6703 24.2316 63.4933C23.2142 63.3164 22.5285 62.3431 22.7054 61.3256C22.7165 61.2482 22.7386 61.1819 22.7607 61.1155H22.7497L26.5431 50.2107L14.9858 66.3135L14.9637 66.2914C14.8863 66.391 14.8088 66.4794 14.7204 66.5679C13.4596 67.8287 11.4246 67.8287 10.1749 66.5679C8.91406 65.3071 8.91406 63.2721 10.1749 62.0224C10.2633 61.9339 10.3629 61.8565 10.4514 61.7791L10.4292 61.757L26.5321 50.1997L15.6383 53.9931C15.572 53.9931 15.4945 54.0152 15.4282 54.0263C14.4107 54.2033 13.4375 53.5176 13.2605 52.5001C13.0835 51.4826 13.7692 50.5093 14.7867 50.3324C14.8641 50.3213 14.9305 50.3103 15.0079 50.3103L26.5431 50.1886L18.6908 49.4255C18.6908 49.4255 18.5912 49.4034 18.547 49.3923C17.8613 49.2154 17.4521 48.5075 17.6401 47.8218C17.8171 47.1362 18.5249 46.7269 19.2106 46.9149C19.2548 46.926 19.3101 46.9481 19.3544 46.9592L26.5542 50.1886L33.6766 34.4286L29.3412 38.753C28.4233 39.6709 26.9191 39.6709 26.0012 38.753C25.0832 37.835 25.0832 36.3309 26.0012 35.4129L30.3366 31.0776L28.8214 29.5624L24.486 33.8978C23.5681 34.8157 22.064 34.8157 21.146 33.8978C20.2281 32.9798 20.2281 31.4757 21.146 30.5578L25.4814 26.2224L23.9662 24.7072L19.6308 29.0426C18.7129 29.9605 17.2088 29.9605 16.2908 29.0426C15.3729 28.1246 15.3729 26.6205 16.2908 25.7026L20.6262 21.3672L13.8024 24.0768C13.7139 24.1211 13.6144 24.1432 13.5149 24.1764C13.2826 24.2538 13.0282 24.3091 12.7739 24.3201C11.2919 24.3754 10.0421 23.2031 9.98685 21.7211C9.93155 20.2391 11.1039 18.9894 12.5859 18.9341C12.8513 18.9341 13.0946 18.9673 13.3379 19.0336C13.4043 19.0557 13.4706 19.0668 13.537 19.0889L13.6586 19.1221L20.6262 21.3561L12.8513 13.5812C11.9333 12.6633 11.9333 11.1592 12.8513 10.2412C13.7692 9.32326 15.2733 9.32326 16.1913 10.2412L23.9662 18.0161L21.7322 11.0486L21.699 10.9269C21.6769 10.8606 21.6658 10.7942 21.6437 10.7278C21.5773 10.4845 21.5442 10.2412 21.5442 9.97579C21.5995 8.4938 22.8381 7.32147 24.3312 7.37677C25.8132 7.43207 26.9855 8.67075 26.9302 10.1638C26.9302 10.4292 26.8638 10.6725 26.7864 10.9048C26.7532 11.0043 26.7311 11.1039 26.6869 11.1923L23.9773 18.0272L38.9741 33.0241L42.1814 32.4268C40.9317 30.7126 40.2128 28.5781 40.2902 26.2998C40.4782 20.8695 45.0459 16.6005 50.4762 16.7885C51.007 16.8106 51.5268 16.877 52.0356 16.9765L63.0067 13.7582L59.7994 24.7293C59.9432 25.4482 60.0096 26.2003 59.9874 26.9634C59.7994 32.3937 55.2318 36.6627 49.8015 36.4747C47.7555 36.4083 45.8753 35.7115 44.3381 34.5945L43.7408 37.7908L58.7377 52.7876L65.5615 50.078C65.65 50.0338 65.7495 50.0117 65.849 49.9785C66.0813 49.9011 66.3357 49.8457 66.59 49.8347C68.072 49.7794 69.3218 50.9517 69.3771 52.4337C69.4324 53.9157 68.26 55.1654 66.778 55.2207L66.7338 55.2428Z" fill="#F3EFDE"/>
<path d="M54.9984 65.9266C55.9938 65.9598 56.8343 65.1745 56.8675 64.1792C56.8675 63.9137 56.8233 63.6594 56.7237 63.4271C56.4583 62.7967 55.85 62.3433 55.1201 62.3212C54.3902 62.299 53.7487 62.7082 53.4501 63.3165C53.3395 63.5377 53.2621 63.7921 53.251 64.0575C53.2178 65.0529 54.0031 65.8934 54.9984 65.9266Z" fill="#F3EFDE"/>
<path d="M17.9928 29.1301C19.0006 29.1301 19.8176 28.3131 19.8176 27.3053C19.8176 26.2975 19.0006 25.4805 17.9928 25.4805C16.985 25.4805 16.168 26.2975 16.168 27.3053C16.168 28.3131 16.985 29.1301 17.9928 29.1301Z" fill="#F3EFDE"/>
<path d="M6.671 94.5505L2.17257 89.2539H0V97.8305H2.18578V92.5233L6.68157 97.8305H8.85149V89.2539H6.671V94.5505Z" fill="#F3EFDE"/>
<path d="M10.709 97.8305H18.5006V95.8298H13.0216V94.5241H18.239V92.5498H13.0216V91.2547H18.5006V89.2539H10.709V97.8305Z" fill="#F3EFDE"/>
<path d="M27.6727 89.567C26.8295 89.2339 25.9283 89.0674 25.0191 89.0833C24.0649 89.0648 23.1161 89.2498 22.2386 89.6251C21.4801 89.9449 20.8352 90.4841 20.3911 91.1766C19.9471 91.869 19.7224 92.6805 19.7462 93.5024V93.5923C19.7198 94.4143 19.9445 95.223 20.3911 95.9129C20.8378 96.6027 21.4827 97.1419 22.2412 97.4564H22.2386C23.1161 97.8344 24.0623 98.0194 25.0191 97.9982C25.9256 98.0141 26.8269 97.8502 27.6727 97.5225C28.3916 97.2529 29.0285 96.7956 29.5122 96.1983C29.9457 95.6512 30.1783 94.972 30.1703 94.2742V94.1843H27.8022V94.2742C27.8022 94.5174 27.7282 94.7552 27.596 94.9587C27.4639 95.1623 27.2762 95.3261 27.0568 95.4266C26.4225 95.7358 25.7221 95.8785 25.0191 95.8442C24.0332 95.8442 23.3037 95.6591 22.8227 95.2944C22.5769 95.0962 22.384 94.8424 22.2597 94.5517C22.1355 94.2636 22.08 93.9465 22.1038 93.6319V93.4734C22.1038 91.9853 23.0764 91.24 25.0217 91.24C25.7221 91.2083 26.4172 91.3563 27.0436 91.6682C27.2656 91.7686 27.4559 91.9298 27.5907 92.1333C27.7255 92.3369 27.7995 92.5747 27.8048 92.8205V92.9236H30.173V92.8205C30.1783 92.1228 29.9483 91.4462 29.5149 90.8991C29.0312 90.2991 28.3969 89.8392 27.6753 89.5643L27.6727 89.567Z" fill="#F3EFDE"/>
<path d="M39.1386 89.6271C37.3784 88.9056 35.4067 88.9056 33.6491 89.6271C32.9011 89.9522 32.2668 90.4887 31.8227 91.1706C31.3866 91.8684 31.1646 92.6798 31.1805 93.5044V93.5943C31.1646 94.4136 31.3866 95.2224 31.8227 95.9175C32.2668 96.5968 32.9011 97.1333 33.6491 97.4584C35.4067 98.1799 37.381 98.1799 39.1386 97.4584C39.8893 97.1359 40.5262 96.5968 40.965 95.9069C41.4037 95.2171 41.6231 94.411 41.5966 93.5943V93.5044C41.6151 92.6798 41.3931 91.8684 40.9544 91.1706C40.513 90.4887 39.8813 89.9522 39.1386 89.6271ZM39.2496 93.478V93.6366C39.2496 95.1087 38.2955 95.8461 36.3872 95.8461C35.4463 95.8461 34.738 95.6558 34.257 95.2832C34.0138 95.0849 33.8209 94.8339 33.6966 94.5484C33.5698 94.263 33.5169 93.9484 33.5354 93.6366V93.478C33.5169 93.1635 33.5724 92.8463 33.7019 92.5582C33.8288 92.2701 34.0244 92.0138 34.2702 91.8182C34.8913 91.3953 35.6366 91.1918 36.3872 91.242C37.3282 91.242 38.0418 91.4349 38.5255 91.8129C38.7686 92.0138 38.9615 92.2701 39.0884 92.5582C39.2153 92.8489 39.2681 93.1635 39.2496 93.4806V93.478Z" fill="#F3EFDE"/>
<path d="M48.672 89.2539H46.3594V97.8305H54.2277V95.7637H48.672V89.2539Z" fill="#F3EFDE"/>
<path d="M57.5197 89.2539H55.207V97.8279H57.5197V89.2539Z" fill="#F3EFDE"/>
<path d="M65.9144 94.5479L61.4187 89.2539H59.2461V97.8305H61.4319V92.5233L65.9277 97.8305H68.0976V89.2539H65.9144V94.5479Z" fill="#F3EFDE"/>
<path d="M77.7451 91.2547V89.2539H69.9561V97.8305H77.7451V95.8271H72.2687V94.5241H77.4834V92.5471H72.2687V91.2547H77.7451Z" fill="#F3EFDE"/>
</svg>
