<svg width="132" height="82" viewBox="0 0 132 82" fill="none" xmlns="http://www.w3.org/2000/svg">
<g opacity="0.2">
<g clip-path="url(#clip0_1550_76926)">
<path d="M76.7556 -5.74456L76.2925 -4.48592C74.6567 -0.0140106 73.5736 4.6652 73.0731 9.41845L73.0134 10.0182L72.4084 10.0848C70.2796 10.3069 68.1209 10.418 65.9996 10.418L65.9996 8.9298C67.8744 8.9298 69.7716 8.84096 71.6539 8.66326C72.1469 4.43568 73.0806 0.259932 74.455 -3.75294C71.6764 -3.25688 68.838 -2.99775 66.007 -2.99775L66.007 -4.48592C69.1816 -4.48592 72.3561 -4.81168 75.4484 -5.45581L76.7705 -5.72976L76.7556 -5.74456Z" fill="#BFBFBF"/>
<path d="M132 -44.7788L132 -43.2907C129.924 -43.2907 127.825 -43.1796 125.748 -42.9649C120.968 -42.4688 116.262 -41.3879 111.765 -39.7665C95.2354 -33.7916 82.3058 -20.9385 76.3004 -4.49467C74.6646 -0.0227682 73.5815 4.65644 73.081 9.40969C72.8644 11.4754 72.7524 13.5706 72.7524 15.6289L71.251 15.6289C71.251 13.5188 71.3631 11.3717 71.5872 9.25421C72.1025 4.3825 73.2155 -0.41517 74.8886 -5.00554C81.0509 -21.864 94.3017 -35.0428 111.25 -41.1658C115.866 -42.8316 120.684 -43.9348 125.591 -44.4457C127.72 -44.6678 129.879 -44.7788 132 -44.7788ZM132 -31.3557L132 -29.8675C106.776 -29.8676 86.2497 -9.45523 86.2497 15.6289L84.7483 15.6289C84.7483 -10.2845 105.947 -31.3631 132 -31.3631L132 -31.3557Z" fill="#BFBFBF"/>
<path d="M132 -31.3553L132 -29.8671C106.776 -29.8671 86.2497 -9.45482 86.2497 15.6293L84.7483 15.6293C84.7483 -10.2766 105.947 -31.3627 132 -31.3627L132 -31.3553ZM132 -17.9322L132 -16.444C114.215 -16.4366 99.7469 -2.051 99.7469 15.6367L98.2456 15.6367C98.2531 -2.87283 113.394 -17.9248 132 -17.9248L132 -17.9322Z" fill="#BFBFBF"/>
<path d="M132 -17.9248L132 -16.4366C114.215 -16.4366 99.7469 -2.051 99.7469 15.6367L98.2456 15.6367C98.2531 -2.87283 113.394 -17.9248 132 -17.9248ZM132 -4.50167L132 -3.0135C121.662 -3.00609 113.252 5.35281 113.252 15.6367L111.75 15.6367C111.75 4.53099 120.833 -4.50167 132 -4.50167Z" fill="#BFBFBF"/>
<path d="M132 -4.50167L132 -3.0135C121.662 -3.00609 113.252 5.35281 113.252 15.6367L111.75 15.6367C111.75 4.53099 120.833 -4.50167 132 -4.50167ZM132 8.92146L132 10.4096C129.102 10.417 126.749 12.7566 126.749 15.6367L125.248 15.6367C125.248 11.9348 128.28 8.92146 132 8.92146Z" fill="#BFBFBF"/>
<path d="M132 8.92146L132 10.4096C129.102 10.417 126.749 12.7566 126.749 15.6367L125.248 15.6367C125.248 11.9348 128.28 8.92146 132 8.92146Z" fill="#BFBFBF"/>
</g>
<g clip-path="url(#clip1_1550_76926)">
<path d="M44.4995 71.3L45.7652 71.7606C50.2619 73.3873 54.9672 74.4644 59.7469 74.9621L60.3499 75.0215L60.4169 75.6232C60.6403 77.7402 60.752 79.8869 60.752 81.9965L59.2555 81.9965C59.2555 80.132 59.1662 78.2453 58.9875 76.3734C54.7364 75.8832 50.5374 74.9546 46.5022 73.5879C47.001 76.3511 47.2616 79.1738 47.2616 81.9891L45.7652 81.9891C45.7652 78.8321 45.4376 75.6752 44.7899 72.5999L44.5144 71.2852L44.4995 71.3Z" fill="#BFBFBF"/>
<path d="M0.000748933 36.5012L0.000748999 35.0082C2.8373 35.0082 5.67384 35.2607 8.45083 35.7584C7.08095 31.7398 6.14288 27.5726 5.65151 23.3386C3.76793 23.1603 1.86945 23.0712 0.000749523 23.0712L0.000749588 21.5781C2.12258 21.5781 4.28163 21.6895 6.4109 21.9124L7.01395 21.9718L7.08095 22.5735C7.57977 27.3275 8.66674 32.0072 10.2972 36.4789L10.7588 37.7417L9.44102 37.4669C6.35134 36.8206 3.17232 36.4938 0.000748934 36.4938L0.000748933 36.5012Z" fill="#BFBFBF"/>
<path d="M0.000445665 49.9231L0.00044573 48.43C6.73073 48.43 13.0143 50.3985 18.2854 53.7931C14.4065 48.898 11.2722 43.3789 9.03124 37.3844C6.06813 36.7976 3.03056 36.493 0.000446254 36.493L0.00044632 35C3.27625 35 6.55206 35.3343 9.74596 36.0028L10.1554 36.0845L10.2969 36.4782C16.305 52.9166 29.2295 65.7747 45.7649 71.7469L46.1595 71.888L46.2414 72.2966C46.9114 75.4684 47.2539 78.7293 47.2539 81.9903L45.7575 81.9903C45.7575 78.9744 45.4597 75.9512 44.8641 73.0097C38.841 70.7887 33.2871 67.6689 28.3659 63.8137C31.7757 69.0579 33.7561 75.2975 33.7561 81.9977L32.2597 81.9977C32.2597 64.3113 17.794 49.9231 0.00789195 49.9231L0.000445665 49.9231Z" fill="#BFBFBF"/>
<path d="M-0.000172316 63.3492L-0.00017225 61.8562C11.1673 61.8562 20.2502 70.8888 20.2502 81.9938L18.7538 81.9938C18.7538 71.7133 10.3409 63.3492 -0.000172316 63.3492ZM-0.000171727 49.9266L-0.000171661 48.4336C18.6123 48.4336 33.748 63.4904 33.748 81.9938L32.2516 81.9938C32.2516 64.3075 17.7859 49.9192 -0.000171727 49.9192L-0.000171727 49.9266Z" fill="#BFBFBF"/>
<path d="M0.000554384 76.775L0.00055445 75.282C3.72306 75.282 6.75318 78.2904 6.75318 81.997L5.25673 81.997C5.25673 79.1149 2.90411 76.775 0.00800067 76.775L0.000554384 76.775ZM0.000554973 63.3524L0.000555038 61.8594C11.1681 61.8594 20.251 70.892 20.251 81.997L18.7545 81.997C18.7545 71.7165 10.3417 63.3524 0.000554973 63.3524Z" fill="#BFBFBF"/>
<path d="M-0.000668114 76.7743L-0.000668049 75.2812C3.72184 75.2812 6.75195 78.2896 6.75195 81.9963L5.25551 81.9963C5.25551 79.1142 2.90289 76.7743 0.00677865 76.7743L-0.000668114 76.7743Z" fill="#BFBFBF"/>
<path d="M5.24935 16.3633L6.7458 16.3633C6.7458 18.4283 6.85747 20.5156 7.07338 22.5806C7.57219 27.3346 8.65916 32.0143 10.2896 36.486C16.2977 52.9245 29.2223 65.7825 45.7576 71.7548C50.2544 73.3815 54.9597 74.4586 59.7394 74.9563C61.8165 75.1717 63.9234 75.2831 65.9932 75.2831L65.9932 76.7762C63.8713 76.7762 61.7123 76.6647 59.583 76.4419C54.6842 75.9294 49.8598 74.8226 45.2439 73.1587C28.2916 67.0305 15.0395 53.853 8.88251 36.9986C7.20739 32.408 6.09808 27.6169 5.58437 22.7366C5.36102 20.6196 5.24935 18.4729 5.24935 16.3633ZM18.7471 16.3633L20.2436 16.3633C20.2436 41.448 40.7695 61.8605 65.9932 61.8605L65.9932 63.3535C39.9356 63.3535 18.7397 42.2726 18.7397 16.3633L18.7471 16.3633Z" fill="#BFBFBF"/>
<path d="M18.7465 16.3633L20.243 16.3633C20.243 41.448 40.7689 61.8605 65.9926 61.8605L65.9926 63.3535C39.9425 63.3535 18.7391 42.2726 18.7391 16.3633L18.7465 16.3633ZM32.2443 16.3633L33.7408 16.3633C33.7482 34.0496 48.2139 48.4379 66 48.4379L66 49.9309C47.3875 49.9235 32.2518 34.8667 32.2518 16.3633L32.2443 16.3633Z" fill="#BFBFBF"/>
<path d="M32.2518 16.3633L33.7482 16.3633C33.7482 34.0496 48.2139 48.4379 66 48.4379L66 49.9309C47.3875 49.9235 32.2518 34.8667 32.2518 16.3633ZM45.7496 16.3633L47.246 16.3633C47.2535 26.6438 55.6589 35.0079 66 35.0079L66 36.5009C54.8325 36.5009 45.7496 27.4683 45.7496 16.3633Z" fill="#BFBFBF"/>
<path d="M45.7496 16.3633L47.246 16.3633C47.2535 26.6438 55.6589 35.0079 66 35.0079L66 36.5009C54.8325 36.5009 45.7496 27.4683 45.7496 16.3633ZM59.2474 16.3633L60.7438 16.3633C60.7513 19.2454 63.1039 21.5852 66 21.5852L66 23.0783C62.2775 23.0783 59.2474 20.0625 59.2474 16.3633Z" fill="#BFBFBF"/>
<path d="M59.2474 16.3633L60.7438 16.3633C60.7513 19.2454 63.1039 21.5852 66 21.5852L66 23.0783C62.2775 23.0783 59.2474 20.0625 59.2474 16.3633Z" fill="#BFBFBF"/>
</g>
</g>
<defs>
<clipPath id="clip0_1550_76926">
<rect width="66" height="65.6348" fill="white" transform="translate(132 15.6367) rotate(-180)"/>
</clipPath>
<clipPath id="clip1_1550_76926">
<rect width="65.6348" height="66" fill="white" transform="translate(66 16.3633) rotate(90)"/>
</clipPath>
</defs>
</svg>
