<svg width="705" height="244" viewBox="0 0 705 244" fill="none" xmlns="http://www.w3.org/2000/svg">
<g clip-path="url(#clip0_1157_61274)">
<path d="M616.875 203.287L616.875 201.282C620.662 201.282 624.45 201.621 628.158 202.289C626.329 196.894 625.076 191.299 624.42 185.614C621.905 185.374 619.37 185.255 616.875 185.255L616.875 183.25C619.708 183.25 622.591 183.4 625.434 183.699L626.239 183.779L626.329 184.586C626.995 190.969 628.446 197.253 630.623 203.257L631.239 204.952L629.48 204.583C625.354 203.715 621.11 203.277 616.875 203.277L616.875 203.287Z" fill="#E5DDC9"/>
<path d="M616.876 221.31L616.876 219.305C625.862 219.305 634.252 221.948 641.29 226.506C636.111 219.934 631.926 212.523 628.934 204.475C624.977 203.687 620.922 203.278 616.876 203.278L616.876 201.273C621.25 201.273 625.624 201.722 629.888 202.62L630.435 202.73L630.624 203.258C638.646 225.329 655.903 242.593 677.982 250.612L678.508 250.801L678.618 251.35C679.512 255.609 679.97 259.987 679.97 264.365L677.972 264.365C677.972 260.316 677.574 256.257 676.779 252.307C668.737 249.325 661.321 245.136 654.75 239.96C659.303 247.001 661.947 255.379 661.947 264.375L659.949 264.375C659.949 240.628 640.634 221.31 616.886 221.31L616.876 221.31Z" fill="#E5DDC9"/>
<path d="M616.875 239.339L616.875 237.334C631.786 237.334 643.914 249.462 643.914 264.372L641.916 264.372C641.916 250.569 630.683 239.339 616.875 239.339ZM616.875 221.317L616.875 219.312C641.727 219.312 661.937 239.529 661.937 264.372L659.938 264.372C659.938 240.626 640.623 221.307 616.875 221.307L616.875 221.317Z" fill="#E5DDC9"/>
<path d="M616.875 257.363L616.875 255.358C621.846 255.358 625.891 259.397 625.891 264.374L623.893 264.374C623.893 260.504 620.752 257.363 616.885 257.363L616.875 257.363ZM616.875 239.341L616.875 237.336C631.786 237.336 643.914 249.464 643.914 264.374L641.916 264.374C641.916 250.571 630.683 239.341 616.875 239.341Z" fill="#E5DDC9"/>
<path d="M623.883 176.25L625.882 176.25C625.882 179.023 626.031 181.825 626.319 184.598C626.985 190.981 628.436 197.264 630.613 203.268C638.636 225.339 655.893 242.603 677.971 250.622C683.975 252.806 690.258 254.252 696.64 254.92C699.413 255.209 702.227 255.359 704.99 255.359L704.99 257.364C702.157 257.364 699.274 257.214 696.431 256.915C689.89 256.227 683.449 254.741 677.285 252.507C654.65 244.279 636.956 226.586 628.735 203.956C626.498 197.793 625.017 191.36 624.331 184.807C624.033 181.965 623.883 179.082 623.883 176.25ZM641.906 176.25L643.904 176.25C643.904 209.93 671.311 237.337 704.99 237.337L704.99 239.342C670.198 239.342 641.896 211.037 641.896 176.25L641.906 176.25Z" fill="#E5DDC9"/>
<path d="M641.906 176.25L643.904 176.25C643.904 209.93 671.311 237.337 704.99 237.337L704.99 239.342C670.207 239.342 641.896 211.037 641.896 176.25L641.906 176.25ZM659.929 176.25L661.927 176.25C661.937 199.997 681.251 219.315 705 219.315L705 221.32C680.148 221.31 659.938 201.094 659.938 176.25L659.929 176.25Z" fill="#E5DDC9"/>
<path d="M659.938 176.25L661.937 176.25C661.937 199.997 681.251 219.315 705 219.315L705 221.32C680.148 221.31 659.938 201.094 659.938 176.25ZM677.961 176.25L679.959 176.25C679.969 190.053 691.192 201.283 705 201.283L705 203.288C690.089 203.288 677.961 191.16 677.961 176.25Z" fill="#E5DDC9"/>
<path d="M677.961 176.25L679.959 176.25C679.969 190.053 691.192 201.283 705 201.283L705 203.288C690.089 203.288 677.961 191.16 677.961 176.25ZM695.984 176.25L697.982 176.25C697.992 180.12 701.133 183.261 705 183.261L705 185.266C700.03 185.266 695.984 181.217 695.984 176.25Z" fill="#E5DDC9"/>
<path d="M695.984 176.25L697.982 176.25C697.992 180.12 701.133 183.261 705 183.261L705 185.266C700.03 185.266 695.984 181.217 695.984 176.25Z" fill="#E5DDC9"/>
</g>
<g clip-path="url(#clip1_1157_61274)">
<path d="M676.291 161.887L677.981 162.505C683.986 164.69 690.268 166.136 696.65 166.804L697.455 166.884L697.545 167.692C697.843 170.534 697.992 173.416 697.992 176.249L695.994 176.249C695.994 173.746 695.875 171.212 695.636 168.699C689.96 168.041 684.353 166.794 678.966 164.959C679.632 168.669 679.979 172.459 679.979 176.239L677.981 176.239C677.981 172 677.544 167.761 676.679 163.632L676.311 161.867L676.291 161.887Z" fill="#E5DDC9"/>
<path d="M616.875 115.162L616.875 113.157C620.662 113.157 624.45 113.496 628.158 114.164C626.329 108.769 625.076 103.174 624.42 97.4887C621.905 97.2493 619.37 97.1297 616.875 97.1297L616.875 95.125C619.708 95.125 622.591 95.2746 625.434 95.5738L626.239 95.6536L626.329 96.4614C626.995 102.844 628.446 109.128 630.623 115.132L631.239 116.827L629.48 116.458C625.354 115.59 621.11 115.152 616.875 115.152L616.875 115.162Z" fill="#E5DDC9"/>
<path d="M616.876 133.185L616.876 131.18C625.862 131.18 634.252 133.823 641.29 138.381C636.111 131.809 631.926 124.398 628.934 116.35C624.977 115.562 620.922 115.153 616.876 115.153L616.876 113.148C621.25 113.148 625.624 113.597 629.888 114.495L630.435 114.605L630.624 115.133C638.646 137.204 655.903 154.468 677.982 162.487L678.508 162.676L678.618 163.225C679.512 167.484 679.97 171.862 679.97 176.24L677.972 176.24C677.972 172.191 677.574 168.132 676.779 164.182C668.737 161.2 661.321 157.011 654.75 151.835C659.303 158.876 661.947 167.254 661.947 176.25L659.949 176.25C659.949 152.503 640.634 133.185 616.886 133.185L616.876 133.185Z" fill="#E5DDC9"/>
<path d="M616.875 151.214L616.875 149.209C631.786 149.209 643.914 161.337 643.914 176.247L641.916 176.247C641.916 162.444 630.683 151.214 616.875 151.214ZM616.875 133.192L616.875 131.187C641.727 131.187 661.937 151.404 661.937 176.247L659.938 176.247C659.938 152.501 640.623 133.182 616.875 133.182L616.875 133.192Z" fill="#E5DDC9"/>
<path d="M616.875 169.238L616.875 167.233C621.846 167.233 625.891 171.272 625.891 176.249L623.893 176.249C623.893 172.379 620.752 169.238 616.885 169.238L616.875 169.238ZM616.875 151.216L616.875 149.211C631.786 149.211 643.914 161.339 643.914 176.249L641.916 176.249C641.916 162.446 630.683 151.216 616.875 151.216Z" fill="#E5DDC9"/>
<path d="M616.874 169.239L616.874 167.234C621.845 167.234 625.891 171.274 625.891 176.25L623.893 176.25C623.893 172.381 620.751 169.239 616.884 169.239L616.874 169.239Z" fill="#E5DDC9"/>
<path d="M623.883 88.125L625.882 88.125C625.882 90.8976 626.031 93.7001 626.319 96.4727C626.985 102.856 628.436 109.139 630.613 115.143C638.636 137.214 655.893 154.478 677.971 162.497C683.975 164.681 690.258 166.127 696.64 166.795C699.413 167.084 702.227 167.234 704.99 167.234L704.99 169.239C702.157 169.239 699.274 169.089 696.431 168.79C689.89 168.102 683.449 166.616 677.285 164.382C654.65 156.154 636.956 138.461 628.735 115.831C626.498 109.668 625.017 103.235 624.331 96.6822C624.033 93.8398 623.883 90.9574 623.883 88.125ZM641.906 88.125L643.904 88.125C643.904 121.805 671.311 149.212 704.99 149.212L704.99 151.217C670.198 151.217 641.896 122.912 641.896 88.125L641.906 88.125Z" fill="#E5DDC9"/>
<path d="M641.906 88.125L643.904 88.125C643.904 121.805 671.311 149.212 704.99 149.212L704.99 151.217C670.207 151.217 641.896 122.912 641.896 88.125L641.906 88.125ZM659.929 88.125L661.927 88.125C661.937 111.872 681.251 131.19 705 131.19L705 133.195C680.148 133.185 659.938 112.969 659.938 88.125L659.929 88.125Z" fill="#E5DDC9"/>
<path d="M659.938 88.125L661.937 88.125C661.937 111.872 681.251 131.19 705 131.19L705 133.195C680.148 133.185 659.938 112.969 659.938 88.125ZM677.961 88.125L679.959 88.125C679.969 101.928 691.192 113.158 705 113.158L705 115.163C690.089 115.163 677.961 103.035 677.961 88.125Z" fill="#E5DDC9"/>
<path d="M677.961 88.125L679.959 88.125C679.969 101.928 691.192 113.158 705 113.158L705 115.163C690.089 115.163 677.961 103.035 677.961 88.125ZM695.984 88.125L697.982 88.125C697.992 91.9947 701.133 95.1363 705 95.1363L705 97.141C700.03 97.141 695.984 93.0918 695.984 88.125Z" fill="#E5DDC9"/>
<path d="M695.984 88.125L697.982 88.125C697.992 91.9947 701.133 95.1363 705 95.1363L705 97.141C700.03 97.141 695.984 93.0918 695.984 88.125Z" fill="#E5DDC9"/>
</g>
<g clip-path="url(#clip2_1157_61274)">
<path d="M588.166 161.887L589.856 162.505C595.861 164.69 602.143 166.136 608.525 166.804L609.33 166.884L609.42 167.692C609.718 170.534 609.867 173.416 609.867 176.249L607.869 176.249C607.869 173.746 607.75 171.212 607.511 168.699C601.835 168.041 596.228 166.794 590.841 164.959C591.507 168.669 591.854 172.459 591.854 176.239L589.856 176.239C589.856 172 589.419 167.761 588.554 163.632L588.186 161.867L588.166 161.887Z" fill="#2A96C5"/>
<path d="M528.75 115.162L528.75 113.157C532.537 113.157 536.325 113.496 540.033 114.164C538.204 108.769 536.951 103.174 536.295 97.4887C533.78 97.2493 531.245 97.1297 528.75 97.1297L528.75 95.125C531.583 95.125 534.466 95.2746 537.309 95.5738L538.114 95.6536L538.204 96.4614C538.87 102.844 540.321 109.128 542.498 115.132L543.114 116.827L541.355 116.458C537.229 115.59 532.985 115.152 528.75 115.152L528.75 115.162Z" fill="#2A96C5"/>
<path d="M528.751 133.185L528.751 131.18C537.737 131.18 546.127 133.823 553.165 138.381C547.986 131.809 543.801 124.398 540.809 116.35C536.852 115.562 532.797 115.153 528.751 115.153L528.751 113.148C533.125 113.148 537.499 113.597 541.763 114.495L542.31 114.605L542.499 115.133C550.521 137.204 567.778 154.468 589.857 162.487L590.383 162.676L590.493 163.225C591.387 167.484 591.845 171.862 591.845 176.24L589.847 176.24C589.847 172.191 589.449 168.132 588.654 164.182C580.612 161.2 573.196 157.011 566.625 151.835C571.178 158.876 573.822 167.254 573.822 176.25L571.824 176.25C571.824 152.503 552.509 133.185 528.761 133.185L528.751 133.185Z" fill="#2A96C5"/>
<path d="M528.75 151.214L528.75 149.209C543.661 149.209 555.789 161.337 555.789 176.247L553.791 176.247C553.791 162.444 542.558 151.214 528.75 151.214ZM528.75 133.192L528.75 131.187C553.602 131.187 573.812 151.404 573.812 176.247L571.813 176.247C571.813 152.501 552.498 133.182 528.75 133.182L528.75 133.192Z" fill="#2A96C5"/>
<path d="M528.75 169.238L528.75 167.233C533.721 167.233 537.766 171.272 537.766 176.249L535.768 176.249C535.768 172.379 532.627 169.238 528.76 169.238L528.75 169.238ZM528.75 151.216L528.75 149.211C543.661 149.211 555.789 161.339 555.789 176.249L553.791 176.249C553.791 162.446 542.558 151.216 528.75 151.216Z" fill="#2A96C5"/>
<path d="M528.749 169.239L528.749 167.234C533.72 167.234 537.766 171.274 537.766 176.25L535.768 176.25C535.768 172.381 532.626 169.239 528.759 169.239L528.749 169.239Z" fill="#2A96C5"/>
<path d="M535.758 88.125L537.757 88.125C537.757 90.8976 537.906 93.7001 538.194 96.4727C538.86 102.856 540.311 109.139 542.488 115.143C550.511 137.214 567.768 154.478 589.846 162.497C595.85 164.681 602.133 166.127 608.515 166.795C611.288 167.084 614.102 167.234 616.865 167.234L616.865 169.239C614.032 169.239 611.149 169.089 608.306 168.79C601.765 168.102 595.324 166.616 589.16 164.382C566.525 156.154 548.831 138.461 540.61 115.831C538.373 109.668 536.892 103.235 536.206 96.6822C535.908 93.8398 535.758 90.9574 535.758 88.125ZM553.781 88.125L555.779 88.125C555.779 121.805 583.186 149.212 616.865 149.212L616.865 151.217C582.073 151.217 553.771 122.912 553.771 88.125L553.781 88.125Z" fill="#2A96C5"/>
<path d="M553.781 88.125L555.779 88.125C555.779 121.805 583.186 149.212 616.865 149.212L616.865 151.217C582.082 151.217 553.771 122.912 553.771 88.125L553.781 88.125ZM571.804 88.125L573.802 88.125C573.812 111.872 593.126 131.19 616.875 131.19L616.875 133.195C592.023 133.185 571.813 112.969 571.813 88.125L571.804 88.125Z" fill="#2A96C5"/>
<path d="M571.813 88.125L573.812 88.125C573.812 111.872 593.126 131.19 616.875 131.19L616.875 133.195C592.023 133.185 571.813 112.969 571.813 88.125ZM589.836 88.125L591.834 88.125C591.844 101.928 603.067 113.158 616.875 113.158L616.875 115.163C601.964 115.163 589.836 103.035 589.836 88.125Z" fill="#2A96C5"/>
<path d="M589.836 88.125L591.834 88.125C591.844 101.928 603.067 113.158 616.875 113.158L616.875 115.163C601.964 115.163 589.836 103.035 589.836 88.125ZM607.859 88.125L609.857 88.125C609.867 91.9947 613.008 95.1363 616.875 95.1363L616.875 97.141C611.905 97.141 607.859 93.0918 607.859 88.125Z" fill="#2A96C5"/>
<path d="M607.859 88.125L609.857 88.125C609.867 91.9947 613.008 95.1363 616.875 95.1363L616.875 97.141C611.905 97.141 607.859 93.0918 607.859 88.125Z" fill="#2A96C5"/>
</g>
<g clip-path="url(#clip3_1157_61274)">
<rect width="88.125" height="88.125" transform="translate(176.25 176.25) rotate(90)" fill="#E5DDC9"/>
<path d="M88.1248 203.287L88.1248 201.282C91.9123 201.282 95.6997 201.621 99.4076 202.289C97.5785 196.894 96.326 191.299 95.6699 185.614C93.1549 185.374 90.62 185.255 88.1248 185.255L88.1248 183.25C90.9579 183.25 93.8408 183.4 96.6838 183.699L97.489 183.779L97.5785 184.586C98.2445 190.969 99.6959 197.253 101.873 203.257L102.489 204.952L100.73 204.583C96.6043 203.715 92.3596 203.277 88.1248 203.277L88.1248 203.287Z" fill="#314D71"/>
<path d="M88.1256 221.31L88.1256 219.305C97.1121 219.305 105.502 221.948 112.54 226.506C107.361 219.934 103.176 212.523 100.184 204.475C96.2273 203.687 92.1715 203.278 88.1256 203.278L88.1256 201.273C92.4996 201.273 96.8735 201.722 101.138 202.62L101.685 202.73L101.874 203.258C109.896 225.329 127.153 242.593 149.232 250.612L149.758 250.801L149.868 251.35C150.762 255.609 151.22 259.987 151.22 264.365L149.222 264.365C149.222 260.316 148.824 256.257 148.029 252.307C139.987 249.325 132.571 245.136 126 239.96C130.553 247.001 133.197 255.379 133.197 264.375L131.199 264.375C131.199 240.628 111.884 221.31 88.1356 221.31L88.1256 221.31Z" fill="#314D71"/>
<path d="M88.125 239.339L88.125 237.334C103.036 237.334 115.164 249.462 115.164 264.372L113.166 264.372C113.166 250.569 101.933 239.339 88.125 239.339ZM88.125 221.317L88.125 219.312C112.977 219.312 133.187 239.529 133.187 264.372L131.188 264.372C131.188 240.626 111.873 221.307 88.125 221.307L88.125 221.317Z" fill="#314D71"/>
<path d="M88.1251 257.363L88.1251 255.358C93.0955 255.358 97.1414 259.397 97.1414 264.374L95.1433 264.374C95.1433 260.504 92.002 257.363 88.1351 257.363L88.1251 257.363ZM88.1251 239.341L88.1251 237.336C103.036 237.336 115.164 249.464 115.164 264.374L113.166 264.374C113.166 250.571 101.933 239.341 88.1251 239.341Z" fill="#314D71"/>
<path d="M95.1334 176.25L97.1315 176.25C97.1315 179.023 97.2806 181.825 97.5689 184.598C98.2349 190.981 99.6863 197.264 101.863 203.268C109.886 225.339 127.143 242.603 149.221 250.622C155.225 252.806 161.508 254.252 167.89 254.92C170.663 255.209 173.477 255.359 176.24 255.359L176.24 257.364C173.407 257.364 170.524 257.214 167.681 256.915C161.14 256.227 154.699 254.741 148.535 252.507C125.9 244.279 108.206 226.586 99.9845 203.956C97.7478 197.793 96.2667 191.36 95.5808 184.807C95.2825 181.965 95.1334 179.082 95.1334 176.25ZM113.156 176.25L115.154 176.25C115.154 209.93 142.561 237.337 176.24 237.337L176.24 239.342C141.448 239.342 113.146 211.037 113.146 176.25L113.156 176.25Z" fill="#314D71"/>
<path d="M113.156 176.25L115.154 176.25C115.154 209.93 142.561 237.337 176.24 237.337L176.24 239.342C141.457 239.342 113.146 211.037 113.146 176.25L113.156 176.25ZM131.179 176.25L133.177 176.25C133.187 199.997 152.501 219.315 176.25 219.315L176.25 221.32C151.398 221.31 131.188 201.094 131.188 176.25L131.179 176.25Z" fill="#314D71"/>
<path d="M131.188 176.25L133.187 176.25C133.187 199.997 152.501 219.315 176.25 219.315L176.25 221.32C151.398 221.31 131.188 201.094 131.188 176.25ZM149.211 176.25L151.209 176.25C151.219 190.053 162.442 201.283 176.25 201.283L176.25 203.288C161.339 203.288 149.211 191.16 149.211 176.25Z" fill="#314D71"/>
<path d="M149.211 176.25L151.209 176.25C151.219 190.053 162.442 201.283 176.25 201.283L176.25 203.288C161.339 203.288 149.211 191.16 149.211 176.25ZM167.234 176.25L169.232 176.25C169.242 180.12 172.383 183.261 176.25 183.261L176.25 185.266C171.28 185.266 167.234 181.217 167.234 176.25Z" fill="#314D71"/>
<path d="M167.234 176.25L169.232 176.25C169.242 180.12 172.383 183.261 176.25 183.261L176.25 185.266C171.28 185.266 167.234 181.217 167.234 176.25Z" fill="#314D71"/>
</g>
<g clip-path="url(#clip4_1157_61274)">
<rect width="88.125" height="88.125" transform="translate(528.75 176.25) rotate(90)" fill="#2A96C5"/>
<path d="M440.625 203.287L440.625 201.282C444.412 201.282 448.2 201.621 451.908 202.289C450.079 196.894 448.826 191.299 448.17 185.614C445.655 185.374 443.12 185.255 440.625 185.255L440.625 183.25C443.458 183.25 446.341 183.4 449.184 183.699L449.989 183.779L450.079 184.586C450.745 190.969 452.196 197.253 454.373 203.257L454.989 204.952L453.23 204.583C449.104 203.715 444.86 203.277 440.625 203.277L440.625 203.287Z" fill="#314D71"/>
<path d="M440.626 221.31L440.626 219.305C449.612 219.305 458.002 221.948 465.04 226.506C459.861 219.934 455.676 212.523 452.684 204.475C448.727 203.687 444.672 203.278 440.626 203.278L440.626 201.273C445 201.273 449.374 201.722 453.638 202.62L454.185 202.73L454.374 203.258C462.396 225.329 479.653 242.593 501.732 250.612L502.258 250.801L502.368 251.35C503.262 255.609 503.72 259.987 503.72 264.365L501.722 264.365C501.722 260.316 501.324 256.257 500.529 252.307C492.487 249.325 485.071 245.136 478.5 239.96C483.053 247.001 485.697 255.379 485.697 264.375L483.699 264.375C483.699 240.628 464.384 221.31 440.636 221.31L440.626 221.31Z" fill="#314D71"/>
<path d="M440.625 239.339L440.625 237.334C455.536 237.334 467.664 249.462 467.664 264.372L465.666 264.372C465.666 250.569 454.433 239.339 440.625 239.339ZM440.625 221.317L440.625 219.312C465.477 219.312 485.687 239.529 485.687 264.372L483.688 264.372C483.688 240.626 464.373 221.307 440.625 221.307L440.625 221.317Z" fill="#314D71"/>
<path d="M440.625 257.363L440.625 255.358C445.596 255.358 449.641 259.397 449.641 264.374L447.643 264.374C447.643 260.504 444.502 257.363 440.635 257.363L440.625 257.363ZM440.625 239.341L440.625 237.336C455.536 237.336 467.664 249.464 467.664 264.374L465.666 264.374C465.666 250.571 454.433 239.341 440.625 239.341Z" fill="#314D71"/>
<path d="M447.633 176.25L449.632 176.25C449.632 179.023 449.781 181.825 450.069 184.598C450.735 190.981 452.186 197.264 454.363 203.268C462.386 225.339 479.643 242.603 501.721 250.622C507.725 252.806 514.008 254.252 520.39 254.92C523.163 255.209 525.977 255.359 528.74 255.359L528.74 257.364C525.907 257.364 523.024 257.214 520.181 256.915C513.64 256.227 507.199 254.741 501.035 252.507C478.4 244.279 460.706 226.586 452.485 203.956C450.248 197.793 448.767 191.36 448.081 184.807C447.783 181.965 447.633 179.082 447.633 176.25ZM465.656 176.25L467.654 176.25C467.654 209.93 495.061 237.337 528.74 237.337L528.74 239.342C493.948 239.342 465.646 211.037 465.646 176.25L465.656 176.25Z" fill="#314D71"/>
<path d="M465.656 176.25L467.654 176.25C467.654 209.93 495.061 237.337 528.74 237.337L528.74 239.342C493.957 239.342 465.646 211.037 465.646 176.25L465.656 176.25ZM483.679 176.25L485.677 176.25C485.687 199.997 505.001 219.315 528.75 219.315L528.75 221.32C503.898 221.31 483.688 201.094 483.688 176.25L483.679 176.25Z" fill="#314D71"/>
<path d="M483.688 176.25L485.687 176.25C485.687 199.997 505.001 219.315 528.75 219.315L528.75 221.32C503.898 221.31 483.688 201.094 483.688 176.25ZM501.711 176.25L503.709 176.25C503.719 190.053 514.942 201.283 528.75 201.283L528.75 203.288C513.839 203.288 501.711 191.16 501.711 176.25Z" fill="#314D71"/>
<path d="M501.711 176.25L503.709 176.25C503.719 190.053 514.942 201.283 528.75 201.283L528.75 203.288C513.839 203.288 501.711 191.16 501.711 176.25ZM519.734 176.25L521.732 176.25C521.742 180.12 524.883 183.261 528.75 183.261L528.75 185.266C523.78 185.266 519.734 181.217 519.734 176.25Z" fill="#314D71"/>
<path d="M519.734 176.25L521.732 176.25C521.742 180.12 524.883 183.261 528.75 183.261L528.75 185.266C523.78 185.266 519.734 181.217 519.734 176.25Z" fill="#314D71"/>
</g>
<g clip-path="url(#clip5_1157_61274)">
<path d="M454.987 59.4165L454.369 61.1064C452.184 67.1106 450.738 73.3932 450.07 79.7752L449.99 80.5804L449.182 80.6699C446.34 80.9681 443.458 81.1172 440.625 81.1172L440.625 79.1191C443.129 79.1191 445.662 78.9998 448.175 78.7612C448.833 73.085 450.08 67.4784 451.915 62.0905C448.205 62.7566 444.415 63.1045 440.635 63.1045L440.635 61.1064C444.874 61.1064 449.113 60.669 453.242 59.8042L455.007 59.4363L454.987 59.4165Z" fill="#314D71"/>
<path d="M501.711 0.00275627L503.716 0.00275645C503.716 3.79019 503.377 7.57763 502.709 11.2855C508.104 9.45644 513.7 8.2039 519.384 7.54781C519.624 5.0328 519.743 2.49789 519.743 0.00275785L521.748 0.00275803C521.748 2.83588 521.598 5.71871 521.299 8.56177L521.219 9.36697L520.412 9.45644C514.029 10.1225 507.745 11.5738 501.741 13.7509L500.046 14.3672L500.415 12.6077C501.283 8.48224 501.721 4.23753 501.721 0.00275628L501.711 0.00275627Z" fill="#314D71"/>
<path d="M483.69 -0.000367963L485.695 -0.000367787C485.695 8.98609 483.052 17.3761 478.494 24.4142C485.066 19.235 492.477 15.05 500.525 12.0578C501.313 8.10137 501.722 4.04553 501.722 -0.000366386L503.727 -0.000366211C503.727 4.37358 503.278 8.74752 502.38 13.0121L502.27 13.5589L501.742 13.7477C479.671 21.7699 462.407 39.0271 454.388 61.1056L454.199 61.6325L453.65 61.7418C449.391 62.6365 445.013 63.0937 440.635 63.0937L440.635 61.0956C444.684 61.0956 448.743 60.698 452.693 59.9028C455.675 51.8607 459.864 44.4448 465.04 37.874C457.999 42.4269 449.621 45.0711 440.625 45.0711L440.625 43.073C464.372 43.073 483.69 23.7581 483.69 0.00957695L483.69 -0.000367963Z" fill="#314D71"/>
<path d="M465.658 0.000948109L467.663 0.000948284C467.663 14.9121 455.535 27.0399 440.625 27.0399L440.625 25.0418C454.428 25.0418 465.658 13.8087 465.658 0.000948109ZM483.68 0.000949684L485.685 0.00094986C485.685 24.8529 465.468 45.0625 440.625 45.0625L440.625 43.0644C464.371 43.0644 483.69 23.7495 483.69 0.000949685L483.68 0.000949684Z" fill="#314D71"/>
<path d="M447.636 0.000143208L449.641 0.000143383C449.641 4.97053 445.602 9.01643 440.625 9.01643L440.625 7.01834C444.495 7.01834 447.636 3.87705 447.636 0.0100862L447.636 0.000143208ZM465.658 0.000144783L467.663 0.000144958C467.663 14.9113 455.535 27.0391 440.625 27.0391L440.625 25.041C454.428 25.041 465.658 13.8079 465.658 0.000144783Z" fill="#314D71"/>
<path d="M447.636 -0.000660118L449.641 -0.000659943C449.641 4.96973 445.601 9.01562 440.625 9.01562L440.625 7.01753C444.494 7.01753 447.636 3.87625 447.636 0.00928289L447.636 -0.000660118Z" fill="#314D71"/>
<path d="M528.75 7.00648L528.75 9.00458C525.977 9.00458 523.175 9.15368 520.402 9.44196C514.019 10.108 507.736 11.5593 501.732 13.7364C479.661 21.7586 462.397 39.0158 454.378 61.0942C452.194 67.0985 450.748 73.381 450.08 79.763C449.791 82.5365 449.641 85.3497 449.641 88.1133L447.636 88.1133C447.636 85.2802 447.786 82.3973 448.085 79.5543C448.773 73.0132 450.259 66.5716 452.493 60.4083C460.721 37.7732 478.414 20.0786 501.044 11.8576C507.207 9.62089 513.64 8.13972 520.193 7.45381C523.035 7.15559 525.918 7.00648 528.75 7.00648ZM528.75 25.0291L528.75 27.0272C495.07 27.0272 467.663 54.4339 467.663 88.1133L465.658 88.1133C465.658 53.3206 493.963 25.0192 528.75 25.0192L528.75 25.0291Z" fill="#314D71"/>
<path d="M528.75 25.0309L528.75 27.029C495.07 27.029 467.663 54.4357 467.663 88.1151L465.658 88.1151C465.658 53.3323 493.963 25.0209 528.75 25.0209L528.75 25.0309ZM528.75 43.0535L528.75 45.0516C505.003 45.0615 485.685 64.3765 485.685 88.125L483.68 88.125C483.69 63.2731 503.906 43.0634 528.75 43.0634L528.75 43.0535Z" fill="#314D71"/>
<path d="M528.75 43.0634L528.75 45.0615C505.003 45.0615 485.685 64.3765 485.685 88.125L483.68 88.125C483.69 63.2731 503.906 43.0634 528.75 43.0634ZM528.75 61.0861L528.75 63.0842C514.947 63.0941 503.717 74.3173 503.717 88.125L501.712 88.125C501.712 73.2138 513.84 61.0861 528.75 61.0861Z" fill="#314D71"/>
<path d="M528.75 61.0861L528.75 63.0842C514.947 63.0941 503.717 74.3173 503.717 88.125L501.712 88.125C501.712 73.2138 513.84 61.0861 528.75 61.0861ZM528.75 79.1087L528.75 81.1068C524.88 81.1168 521.739 84.258 521.739 88.125L519.734 88.125C519.734 83.1546 523.783 79.1087 528.75 79.1087Z" fill="#314D71"/>
<path d="M528.75 79.1087L528.75 81.1068C524.88 81.1168 521.739 84.258 521.739 88.125L519.734 88.125C519.734 83.1546 523.783 79.1087 528.75 79.1087Z" fill="#314D71"/>
</g>
<g clip-path="url(#clip6_1157_61274)">
<path d="M366.862 235.666L366.244 237.356C364.059 243.361 362.613 249.643 361.945 256.025L361.865 256.83L361.057 256.92C358.215 257.218 355.333 257.367 352.5 257.367L352.5 255.369C355.004 255.369 357.537 255.25 360.05 255.011C360.708 249.335 361.955 243.728 363.79 238.341C360.08 239.007 356.29 239.354 352.51 239.354L352.51 237.356C356.749 237.356 360.988 236.919 365.117 236.054L366.882 235.686L366.862 235.666Z" fill="#E5DDC9"/>
<path d="M413.586 176.253L415.591 176.253C415.591 180.04 415.252 183.828 414.584 187.536C419.979 185.706 425.575 184.454 431.259 183.798C431.499 181.283 431.618 178.748 431.618 176.253L433.623 176.253C433.623 179.086 433.473 181.969 433.174 184.812L433.094 185.617L432.287 185.706C425.904 186.372 419.62 187.824 413.616 190.001L411.921 190.617L412.29 188.858C413.158 184.732 413.596 180.488 413.596 176.253L413.586 176.253Z" fill="#E5DDC9"/>
<path d="M395.565 176.25L397.57 176.25C397.57 185.236 394.927 193.626 390.369 200.664C396.941 195.485 404.352 191.3 412.4 188.308C413.188 184.351 413.597 180.296 413.597 176.25L415.602 176.25C415.602 180.624 415.153 184.998 414.255 189.262L414.145 189.809L413.617 189.998C391.546 198.02 374.282 215.277 366.263 237.356L366.074 237.882L365.525 237.992C361.266 238.886 356.888 239.344 352.51 239.344L352.51 237.346C356.559 237.346 360.618 236.948 364.568 236.153C367.55 228.111 371.739 220.695 376.915 214.124C369.874 218.677 361.496 221.321 352.5 221.321L352.5 219.323C376.247 219.323 395.565 200.008 395.565 176.26L395.565 176.25Z" fill="#E5DDC9"/>
<path d="M377.533 176.251L379.538 176.251C379.538 191.162 367.41 203.29 352.5 203.29L352.5 201.292C366.303 201.292 377.533 190.059 377.533 176.251ZM395.555 176.251L397.56 176.251C397.56 201.103 377.343 221.312 352.5 221.312L352.5 219.314C376.246 219.314 395.565 199.999 395.565 176.251L395.555 176.251Z" fill="#E5DDC9"/>
<path d="M359.511 176.25L361.516 176.25C361.516 181.221 357.477 185.266 352.5 185.266L352.5 183.268C356.37 183.268 359.511 180.127 359.511 176.26L359.511 176.25ZM377.533 176.25L379.538 176.25C379.538 191.161 367.41 203.289 352.5 203.289L352.5 201.291C366.303 201.291 377.533 190.058 377.533 176.25Z" fill="#E5DDC9"/>
<path d="M359.511 176.249L361.516 176.249C361.516 181.22 357.476 185.266 352.5 185.266L352.5 183.268C356.369 183.268 359.511 180.126 359.511 176.259L359.511 176.249Z" fill="#E5DDC9"/>
<path d="M440.625 183.256L440.625 185.255C437.852 185.255 435.05 185.404 432.277 185.692C425.894 186.358 419.611 187.809 413.607 189.986C391.536 198.009 374.272 215.266 366.253 237.344C364.069 243.348 362.623 249.631 361.955 256.013C361.666 258.786 361.516 261.6 361.516 264.363L359.511 264.363C359.511 261.53 359.661 258.647 359.96 255.804C360.648 249.263 362.134 242.822 364.368 236.658C372.596 214.023 390.289 196.329 412.919 188.108C419.082 185.871 425.515 184.39 432.068 183.704C434.91 183.406 437.793 183.256 440.625 183.256ZM440.625 201.279L440.625 203.277C406.945 203.277 379.538 230.684 379.538 264.363L377.533 264.363C377.533 229.571 405.838 201.269 440.625 201.269L440.625 201.279Z" fill="#E5DDC9"/>
<path d="M440.625 201.281L440.625 203.279C406.945 203.279 379.538 230.686 379.538 264.365L377.533 264.365C377.533 229.582 405.838 201.271 440.625 201.271L440.625 201.281ZM440.625 219.304L440.625 221.302C416.878 221.312 397.56 240.626 397.56 264.375L395.555 264.375C395.565 239.523 415.781 219.313 440.625 219.313L440.625 219.304Z" fill="#E5DDC9"/>
<path d="M440.625 219.313L440.625 221.312C416.878 221.312 397.56 240.626 397.56 264.375L395.555 264.375C395.565 239.523 415.781 219.313 440.625 219.313ZM440.625 237.336L440.625 239.334C426.822 239.344 415.592 250.567 415.592 264.375L413.587 264.375C413.587 249.464 425.715 237.336 440.625 237.336Z" fill="#E5DDC9"/>
<path d="M440.625 237.336L440.625 239.334C426.822 239.344 415.592 250.567 415.592 264.375L413.587 264.375C413.587 249.464 425.715 237.336 440.625 237.336ZM440.625 255.359L440.625 257.357C436.755 257.367 433.614 260.508 433.614 264.375L431.609 264.375C431.609 259.405 435.658 255.359 440.625 255.359Z" fill="#E5DDC9"/>
</g>
<g clip-path="url(#clip7_1157_61274)">
<path d="M278.737 235.666L278.119 237.356C275.934 243.361 274.488 249.643 273.82 256.025L273.74 256.83L272.932 256.92C270.09 257.218 267.208 257.367 264.375 257.367L264.375 255.369C266.879 255.369 269.412 255.25 271.925 255.011C272.583 249.335 273.83 243.728 275.665 238.341C271.955 239.007 268.165 239.354 264.385 239.354L264.385 237.356C268.624 237.356 272.863 236.919 276.992 236.054L278.757 235.686L278.737 235.666Z" fill="#E5DDC9"/>
<path d="M325.461 176.253L327.466 176.253C327.466 180.04 327.127 183.828 326.459 187.536C331.854 185.706 337.45 184.454 343.134 183.798C343.374 181.283 343.493 178.748 343.493 176.253L345.498 176.253C345.498 179.086 345.348 181.969 345.049 184.812L344.969 185.617L344.162 185.706C337.779 186.372 331.495 187.824 325.491 190.001L323.796 190.617L324.165 188.858C325.033 184.732 325.471 180.488 325.471 176.253L325.461 176.253Z" fill="#E5DDC9"/>
<path d="M307.44 176.25L309.445 176.25C309.445 185.236 306.802 193.626 302.244 200.664C308.816 195.485 316.227 191.3 324.275 188.308C325.063 184.351 325.472 180.296 325.472 176.25L327.477 176.25C327.477 180.624 327.028 184.998 326.13 189.262L326.02 189.809L325.492 189.998C303.421 198.02 286.157 215.277 278.138 237.356L277.949 237.882L277.4 237.992C273.141 238.886 268.763 239.344 264.385 239.344L264.385 237.346C268.434 237.346 272.493 236.948 276.443 236.153C279.425 228.111 283.614 220.695 288.79 214.124C281.749 218.677 273.371 221.321 264.375 221.321L264.375 219.323C288.122 219.323 307.44 200.008 307.44 176.26L307.44 176.25Z" fill="#E5DDC9"/>
<path d="M289.408 176.251L291.413 176.251C291.413 191.162 279.285 203.29 264.375 203.29L264.375 201.292C278.178 201.292 289.408 190.059 289.408 176.251ZM307.43 176.251L309.435 176.251C309.435 201.103 289.218 221.312 264.375 221.312L264.375 219.314C288.121 219.314 307.44 199.999 307.44 176.251L307.43 176.251Z" fill="#E5DDC9"/>
<path d="M271.386 176.25L273.391 176.25C273.391 181.221 269.352 185.266 264.375 185.266L264.375 183.268C268.245 183.268 271.386 180.127 271.386 176.26L271.386 176.25ZM289.408 176.25L291.413 176.25C291.413 191.161 279.285 203.289 264.375 203.289L264.375 201.291C278.178 201.291 289.408 190.058 289.408 176.25Z" fill="#E5DDC9"/>
<path d="M271.386 176.249L273.391 176.249C273.391 181.22 269.351 185.266 264.375 185.266L264.375 183.268C268.244 183.268 271.386 180.126 271.386 176.259L271.386 176.249Z" fill="#E5DDC9"/>
<path d="M352.5 183.256L352.5 185.255C349.727 185.255 346.925 185.404 344.152 185.692C337.769 186.358 331.486 187.809 325.482 189.986C303.411 198.009 286.147 215.266 278.128 237.344C275.944 243.348 274.498 249.631 273.83 256.013C273.541 258.786 273.391 261.6 273.391 264.363L271.386 264.363C271.386 261.53 271.536 258.647 271.835 255.804C272.523 249.263 274.009 242.822 276.243 236.658C284.471 214.023 302.164 196.329 324.794 188.108C330.957 185.871 337.39 184.39 343.943 183.704C346.785 183.406 349.668 183.256 352.5 183.256ZM352.5 201.279L352.5 203.277C318.82 203.277 291.413 230.684 291.413 264.363L289.408 264.363C289.408 229.571 317.713 201.269 352.5 201.269L352.5 201.279Z" fill="#E5DDC9"/>
<path d="M352.5 201.281L352.5 203.279C318.82 203.279 291.413 230.686 291.413 264.365L289.408 264.365C289.408 229.582 317.713 201.271 352.5 201.271L352.5 201.281ZM352.5 219.304L352.5 221.302C328.753 221.312 309.435 240.626 309.435 264.375L307.43 264.375C307.44 239.523 327.656 219.313 352.5 219.313L352.5 219.304Z" fill="#E5DDC9"/>
<path d="M352.5 219.313L352.5 221.312C328.753 221.312 309.435 240.626 309.435 264.375L307.43 264.375C307.44 239.523 327.656 219.313 352.5 219.313ZM352.5 237.336L352.5 239.334C338.697 239.344 327.467 250.567 327.467 264.375L325.462 264.375C325.462 249.464 337.59 237.336 352.5 237.336Z" fill="#E5DDC9"/>
<path d="M352.5 237.336L352.5 239.334C338.697 239.344 327.467 250.567 327.467 264.375L325.462 264.375C325.462 249.464 337.59 237.336 352.5 237.336ZM352.5 255.359L352.5 257.357C348.63 257.367 345.489 260.508 345.489 264.375L343.484 264.375C343.484 259.405 347.533 255.359 352.5 255.359Z" fill="#E5DDC9"/>
</g>
<g clip-path="url(#clip8_1157_61274)">
<path d="M543.112 59.4165L542.494 61.1064C540.309 67.1106 538.863 73.3932 538.195 79.7752L538.115 80.5804L537.307 80.6699C534.465 80.9681 531.583 81.1172 528.75 81.1172L528.75 79.1191C531.254 79.1191 533.787 78.9998 536.3 78.7612C536.958 73.085 538.205 67.4784 540.04 62.0905C536.33 62.7566 532.54 63.1045 528.76 63.1045L528.76 61.1064C532.999 61.1064 537.238 60.669 541.367 59.8042L543.132 59.4363L543.112 59.4165Z" fill="#182941"/>
<path d="M589.836 0.00275627L591.841 0.00275645C591.841 3.79019 591.502 7.57763 590.834 11.2855C596.229 9.45644 601.825 8.2039 607.509 7.54781C607.749 5.0328 607.868 2.49789 607.868 0.00275785L609.873 0.00275803C609.873 2.83588 609.723 5.71871 609.424 8.56177L609.344 9.36697L608.537 9.45644C602.154 10.1225 595.87 11.5738 589.866 13.7509L588.171 14.3672L588.54 12.6077C589.408 8.48224 589.846 4.23753 589.846 0.00275628L589.836 0.00275627Z" fill="#182941"/>
<path d="M571.815 -0.000367963L573.82 -0.000367787C573.82 8.98609 571.177 17.3761 566.619 24.4142C573.191 19.235 580.602 15.05 588.65 12.0578C589.438 8.10137 589.847 4.04553 589.847 -0.000366386L591.852 -0.000366211C591.852 4.37358 591.403 8.74752 590.505 13.0121L590.395 13.5589L589.867 13.7477C567.796 21.7699 550.532 39.0271 542.513 61.1056L542.324 61.6325L541.775 61.7418C537.516 62.6365 533.138 63.0937 528.76 63.0937L528.76 61.0956C532.809 61.0956 536.868 60.698 540.818 59.9028C543.8 51.8607 547.989 44.4448 553.165 37.874C546.124 42.4269 537.746 45.0711 528.75 45.0711L528.75 43.073C552.497 43.073 571.815 23.7581 571.815 0.00957695L571.815 -0.000367963Z" fill="#182941"/>
<path d="M553.783 0.000948109L555.788 0.000948284C555.788 14.9121 543.66 27.0399 528.75 27.0399L528.75 25.0418C542.553 25.0418 553.783 13.8087 553.783 0.000948109ZM571.805 0.000949684L573.81 0.00094986C573.81 24.8529 553.593 45.0625 528.75 45.0625L528.75 43.0644C552.496 43.0644 571.815 23.7495 571.815 0.000949685L571.805 0.000949684Z" fill="#182941"/>
<path d="M535.761 0.000143208L537.766 0.000143383C537.766 4.97053 533.727 9.01643 528.75 9.01643L528.75 7.01834C532.62 7.01834 535.761 3.87705 535.761 0.0100862L535.761 0.000143208ZM553.783 0.000144783L555.788 0.000144958C555.788 14.9113 543.66 27.0391 528.75 27.0391L528.75 25.041C542.553 25.041 553.783 13.8079 553.783 0.000144783Z" fill="#182941"/>
<path d="M535.761 -0.000660118L537.766 -0.000659943C537.766 4.96973 533.726 9.01562 528.75 9.01562L528.75 7.01753C532.619 7.01753 535.761 3.87625 535.761 0.00928289L535.761 -0.000660118Z" fill="#182941"/>
<path d="M616.875 7.00648L616.875 9.00458C614.102 9.00458 611.3 9.15368 608.527 9.44196C602.144 10.108 595.861 11.5593 589.857 13.7364C567.786 21.7586 550.522 39.0158 542.503 61.0942C540.319 67.0985 538.873 73.381 538.205 79.763C537.916 82.5365 537.766 85.3497 537.766 88.1133L535.761 88.1133C535.761 85.2802 535.911 82.3973 536.21 79.5543C536.898 73.0132 538.384 66.5716 540.618 60.4083C548.846 37.7732 566.539 20.0786 589.169 11.8576C595.332 9.62089 601.765 8.13972 608.318 7.45381C611.16 7.15559 614.043 7.00648 616.875 7.00648ZM616.875 25.0291L616.875 27.0272C583.195 27.0272 555.788 54.4339 555.788 88.1133L553.783 88.1133C553.783 53.3206 582.088 25.0192 616.875 25.0192L616.875 25.0291Z" fill="#182941"/>
<path d="M616.875 25.0309L616.875 27.029C583.195 27.029 555.788 54.4357 555.788 88.1151L553.783 88.1151C553.783 53.3323 582.088 25.0209 616.875 25.0209L616.875 25.0309ZM616.875 43.0535L616.875 45.0516C593.128 45.0615 573.81 64.3765 573.81 88.125L571.805 88.125C571.815 63.2731 592.031 43.0634 616.875 43.0634L616.875 43.0535Z" fill="#182941"/>
<path d="M616.875 43.0634L616.875 45.0615C593.128 45.0615 573.81 64.3765 573.81 88.125L571.805 88.125C571.815 63.2731 592.031 43.0634 616.875 43.0634ZM616.875 61.0861L616.875 63.0842C603.072 63.0941 591.842 74.3173 591.842 88.125L589.837 88.125C589.837 73.2138 601.965 61.0861 616.875 61.0861Z" fill="#182941"/>
<path d="M616.875 61.0861L616.875 63.0842C603.072 63.0941 591.842 74.3173 591.842 88.125L589.837 88.125C589.837 73.2138 601.965 61.0861 616.875 61.0861ZM616.875 79.1087L616.875 81.1068C613.005 81.1168 609.864 84.258 609.864 88.125L607.859 88.125C607.859 83.1546 611.908 79.1087 616.875 79.1087Z" fill="#182941"/>
<path d="M616.875 79.1087L616.875 81.1068C613.005 81.1168 609.864 84.258 609.864 88.125L607.859 88.125C607.859 83.1546 611.908 79.1087 616.875 79.1087Z" fill="#182941"/>
</g>
<g clip-path="url(#clip9_1157_61274)">
<path d="M411.916 162.868L413.606 163.486C419.611 165.67 425.893 167.116 432.275 167.784L433.08 167.864L433.17 168.672C433.468 171.515 433.617 174.397 433.617 177.229L431.619 177.229C431.619 174.726 431.5 172.193 431.261 169.679C425.585 169.021 419.978 167.775 414.591 165.939C415.257 169.65 415.604 173.439 415.604 177.219L413.606 177.219C413.606 172.981 413.169 168.742 412.304 164.613L411.936 162.848L411.916 162.868Z" fill="#314D71"/>
<path d="M352.5 116.142L352.5 114.137C356.287 114.137 360.075 114.476 363.783 115.145C361.954 109.749 360.701 104.154 360.045 98.4692C357.53 98.2298 354.995 98.1101 352.5 98.1101L352.5 96.1055C355.333 96.1055 358.216 96.2551 361.059 96.5543L361.864 96.6341L361.954 97.4419C362.62 103.825 364.071 110.108 366.248 116.112L366.864 117.808L365.105 117.439C360.979 116.571 356.735 116.132 352.5 116.132L352.5 116.142Z" fill="#314D71"/>
<path d="M352.501 134.162L352.501 132.157C361.487 132.157 369.877 134.8 376.915 139.358C371.736 132.785 367.551 125.375 364.559 117.326C360.602 116.539 356.547 116.13 352.501 116.13L352.501 114.125C356.875 114.125 361.249 114.574 365.513 115.471L366.06 115.581L366.249 116.11C374.271 138.181 391.528 155.445 413.607 163.463L414.133 163.653L414.243 164.201C415.137 168.46 415.595 172.838 415.595 177.217L413.597 177.217C413.597 173.168 413.199 169.108 412.404 165.159C404.362 162.177 396.946 157.988 390.375 152.812C394.928 159.853 397.572 168.231 397.572 177.227L395.574 177.227C395.574 153.48 376.259 134.162 352.511 134.162L352.501 134.162Z" fill="#314D71"/>
<path d="M352.5 152.195L352.5 150.19C367.411 150.19 379.539 162.318 379.539 177.228L377.541 177.228C377.541 163.425 366.308 152.195 352.5 152.195ZM352.5 134.173L352.5 132.168C377.352 132.168 397.562 152.384 397.562 177.228L395.563 177.228C395.563 153.481 376.248 134.163 352.5 134.163L352.5 134.173Z" fill="#314D71"/>
<path d="M352.5 170.218L352.5 168.213C357.471 168.213 361.516 172.253 361.516 177.229L359.518 177.229C359.518 173.36 356.377 170.218 352.51 170.218L352.5 170.218ZM352.5 152.196L352.5 150.191C367.411 150.191 379.539 162.319 379.539 177.229L377.541 177.229C377.541 163.426 366.308 152.196 352.5 152.196Z" fill="#314D71"/>
<path d="M352.499 170.219L352.499 168.215C357.47 168.215 361.516 172.254 361.516 177.231L359.518 177.231C359.518 173.361 356.376 170.22 352.509 170.219L352.499 170.219Z" fill="#314D71"/>
<path d="M359.508 89.1055L361.507 89.1055C361.507 91.8781 361.656 94.6806 361.944 97.4532C362.61 103.836 364.061 110.119 366.238 116.123C374.261 138.195 391.518 155.459 413.596 163.477C419.6 165.661 425.883 167.107 432.265 167.776C435.038 168.065 437.852 168.215 440.615 168.215L440.615 170.219C437.782 170.219 434.899 170.07 432.056 169.77C425.515 169.082 419.074 167.596 412.91 165.362C390.275 157.134 372.581 139.441 364.36 116.812C362.123 110.648 360.642 104.215 359.956 97.6626C359.658 94.8202 359.508 91.9379 359.508 89.1055ZM377.531 89.1055L379.529 89.1055C379.529 122.786 406.936 150.193 440.615 150.193L440.615 152.197C405.823 152.197 377.521 123.893 377.521 89.1055L377.531 89.1055Z" fill="#314D71"/>
<path d="M377.531 89.1055L379.529 89.1055C379.529 122.786 406.936 150.193 440.615 150.193L440.615 152.197C405.832 152.197 377.521 123.893 377.521 89.1055L377.531 89.1055ZM395.554 89.1055L397.552 89.1055C397.562 112.852 416.876 132.171 440.625 132.171L440.625 134.175C415.773 134.165 395.563 113.949 395.563 89.1055L395.554 89.1055Z" fill="#314D71"/>
<path d="M395.563 89.1055L397.562 89.1055C397.562 112.852 416.876 132.171 440.625 132.171L440.625 134.175C415.773 134.165 395.563 113.949 395.563 89.1055ZM413.586 89.1055L415.584 89.1055C415.594 102.909 426.817 114.139 440.625 114.139L440.625 116.143C425.714 116.143 413.586 104.016 413.586 89.1055Z" fill="#314D71"/>
<path d="M413.586 89.1055L415.584 89.1055C415.594 102.909 426.817 114.139 440.625 114.139L440.625 116.143C425.714 116.143 413.586 104.016 413.586 89.1055ZM431.609 89.1055L433.607 89.1055C433.617 92.9751 436.758 96.1168 440.625 96.1168L440.625 98.1214C435.655 98.1214 431.609 94.0722 431.609 89.1055Z" fill="#314D71"/>
<path d="M431.609 89.1055L433.607 89.1055C433.617 92.9751 436.758 96.1168 440.625 96.1168L440.625 98.1214C435.655 98.1214 431.609 94.0722 431.609 89.1055Z" fill="#314D71"/>
</g>
<g clip-path="url(#clip10_1157_61274)">
<path d="M14.3619 235.666L13.7435 237.356C11.5594 243.361 10.1132 249.643 9.445 256.025L9.36521 256.83L8.55737 256.92C5.71495 257.218 2.83264 257.367 0.000189781 257.367L0.000189956 255.369C2.50351 255.369 5.03676 255.25 7.55006 255.011C8.2083 249.335 9.45498 243.728 11.2901 238.341C7.57998 239.007 3.79009 239.354 0.0101668 239.354L0.010167 237.356C4.24886 237.356 8.48756 236.919 12.6165 236.054L14.3818 235.686L14.3619 235.666Z" fill="#E5DDC9"/>
<path d="M61.0865 176.253L63.0911 176.253C63.0911 180.04 62.752 183.828 62.0838 187.536C67.4794 185.706 73.0745 184.454 78.7594 183.798C78.9987 181.283 79.1184 178.748 79.1184 176.253L81.123 176.253C81.123 179.086 80.9734 181.969 80.6742 184.812L80.5945 185.617L79.7866 185.706C73.4036 186.372 67.1204 187.824 61.1164 190.001L59.4209 190.617L59.7899 188.858C60.6576 184.732 61.0965 180.488 61.0965 176.253L61.0865 176.253Z" fill="#E5DDC9"/>
<path d="M43.065 176.25L45.0697 176.25C45.0697 185.236 42.4267 193.626 37.8689 200.664C44.4413 195.485 51.8516 191.3 59.9001 188.308C60.688 184.351 61.0969 180.296 61.0969 176.25L63.1016 176.25C63.1016 180.624 62.6528 184.998 61.7552 189.262L61.6455 189.809L61.1169 189.998C39.0457 198.02 21.7818 215.277 13.7631 237.356L13.5736 237.882L13.0251 237.992C8.76646 238.886 4.38814 239.344 0.00981522 239.344L0.00981539 237.346C4.05902 237.346 8.11819 236.948 12.0677 236.153C15.0497 228.111 19.2385 220.695 24.4147 214.124C17.3735 218.677 8.99585 221.321 -0.000158642 221.321L-0.000158467 219.323C23.7465 219.323 43.065 200.008 43.065 176.26L43.065 176.25Z" fill="#E5DDC9"/>
<path d="M25.033 176.251L27.0376 176.251C27.0376 191.162 14.91 203.29 -0.000265453 203.29L-0.000265279 201.292C13.8029 201.292 25.033 190.059 25.033 176.251ZM43.0549 176.251L45.0596 176.251C45.0596 201.103 24.8435 221.312 -0.000267029 221.312L-0.000266854 219.314C23.7464 219.314 43.0649 199.999 43.0649 176.251L43.0549 176.251Z" fill="#E5DDC9"/>
<path d="M7.01149 176.25L9.01615 176.25C9.01615 181.221 4.97692 185.266 0.000188496 185.266L0.00018867 183.268C3.86987 183.268 7.01149 180.127 7.01149 176.26L7.01149 176.25ZM25.0334 176.25L27.0381 176.25C27.0381 191.161 14.9104 203.289 0.00018692 203.289L0.000187095 201.291C13.8034 201.291 25.0334 190.058 25.0334 176.25Z" fill="#E5DDC9"/>
<path d="M7.01097 176.249L9.01563 176.249C9.01563 181.22 4.97639 185.266 -0.000333786 185.266L-0.000333611 183.268C3.86935 183.268 7.01097 180.126 7.01097 176.259L7.01097 176.249Z" fill="#E5DDC9"/>
<path d="M88.125 183.256L88.125 185.255C85.3524 185.255 82.5499 185.404 79.7773 185.692C73.3943 186.358 67.111 187.809 61.1071 189.986C39.0359 198.009 21.7719 215.266 13.7533 237.344C11.5691 243.348 10.123 249.631 9.45479 256.013C9.16556 258.786 9.01595 261.6 9.01595 264.363L7.0113 264.363C7.0113 261.53 7.1609 258.647 7.46011 255.804C8.14827 249.263 9.63431 242.822 11.8683 236.658C20.0964 214.023 37.7892 196.329 60.4189 188.108C66.5825 185.871 73.0153 184.39 79.5678 183.704C82.4102 183.406 85.2926 183.256 88.125 183.256ZM88.125 201.279L88.125 203.277C54.4448 203.277 27.0379 230.684 27.0379 264.363L25.0332 264.363C25.0332 229.571 53.3378 201.269 88.125 201.269L88.125 201.279Z" fill="#E5DDC9"/>
<path d="M88.125 201.281L88.125 203.279C54.4448 203.279 27.0379 230.686 27.0379 264.365L25.0332 264.365C25.0333 229.582 53.3378 201.271 88.125 201.271L88.125 201.281ZM88.125 219.304L88.125 221.302C64.3783 221.312 45.0598 240.626 45.0598 264.375L43.0552 264.375C43.0652 239.523 63.2813 219.313 88.125 219.313L88.125 219.304Z" fill="#E5DDC9"/>
<path d="M88.125 219.313L88.125 221.312C64.3783 221.312 45.0598 240.626 45.0598 264.375L43.0552 264.375C43.0652 239.523 63.2813 219.313 88.125 219.313ZM88.125 237.336L88.125 239.334C74.3218 239.344 63.0918 250.567 63.0918 264.375L61.0871 264.375C61.0871 249.464 73.2148 237.336 88.125 237.336Z" fill="#E5DDC9"/>
<path d="M88.125 237.336L88.125 239.334C74.3218 239.344 63.0918 250.567 63.0918 264.375L61.0871 264.375C61.0871 249.464 73.2148 237.336 88.125 237.336ZM88.125 255.359L88.125 257.357C84.2553 257.367 81.1137 260.508 81.1137 264.375L79.109 264.375C79.109 259.405 83.1582 255.359 88.125 255.359Z" fill="#E5DDC9"/>
</g>
<defs>
<clipPath id="clip0_1157_61274">
<rect width="88.125" height="88.125" fill="white" transform="translate(705 176.25) rotate(90)"/>
</clipPath>
<clipPath id="clip1_1157_61274">
<rect width="88.125" height="88.125" fill="white" transform="translate(705 88.125) rotate(90)"/>
</clipPath>
<clipPath id="clip2_1157_61274">
<rect width="88.125" height="88.125" fill="white" transform="translate(616.875 88.125) rotate(90)"/>
</clipPath>
<clipPath id="clip3_1157_61274">
<rect width="88.125" height="88.125" fill="white" transform="translate(176.25 176.25) rotate(90)"/>
</clipPath>
<clipPath id="clip4_1157_61274">
<rect width="88.125" height="88.125" fill="white" transform="translate(528.75 176.25) rotate(90)"/>
</clipPath>
<clipPath id="clip5_1157_61274">
<rect width="88.125" height="88.125" fill="white" transform="translate(528.75 88.125) rotate(-180)"/>
</clipPath>
<clipPath id="clip6_1157_61274">
<rect width="88.125" height="88.125" fill="white" transform="translate(440.625 264.375) rotate(-180)"/>
</clipPath>
<clipPath id="clip7_1157_61274">
<rect width="88.125" height="88.125" fill="white" transform="translate(352.5 264.375) rotate(-180)"/>
</clipPath>
<clipPath id="clip8_1157_61274">
<rect width="88.125" height="88.125" fill="white" transform="translate(616.875 88.125) rotate(-180)"/>
</clipPath>
<clipPath id="clip9_1157_61274">
<rect width="88.125" height="88.125" fill="white" transform="translate(440.625 89.1055) rotate(90)"/>
</clipPath>
<clipPath id="clip10_1157_61274">
<rect width="88.125" height="88.125" fill="white" transform="translate(88.125 264.375) rotate(-180)"/>
</clipPath>
</defs>
</svg>
