<svg width="274" height="630" viewBox="0 0 274 630" fill="none" xmlns="http://www.w3.org/2000/svg">
<g clip-path="url(#clip0_1053_61292)">
<path d="M-10.6671 29.3187L-10.0356 27.5928C-7.80497 21.4608 -6.32806 15.0446 -5.64563 8.52681L-5.56414 7.70447L-4.73911 7.6131C-1.83621 7.30853 1.10743 7.15625 4.00014 7.15625V9.19686C1.44355 9.19686 -1.14359 9.31869 -3.71036 9.56234C-4.38261 15.3593 -5.65581 21.0852 -7.52996 26.5877C-3.74092 25.9075 0.129607 25.5522 3.98995 25.5522V27.5928C-0.33893 27.5928 -4.66781 28.0395 -8.88465 28.9227L-10.6875 29.2984L-10.6671 29.3187Z" fill="#F3EFDE"/>
<path d="M-39.9805 89.999H-42.0278C-42.0278 80.8214 -39.3286 72.2528 -34.6738 65.065C-41.3861 70.3544 -48.954 74.6285 -57.1738 77.6843C-57.9784 81.7249 -58.3961 85.8671 -58.3961 89.999H-60.4434C-60.4434 85.532 -59.985 81.065 -59.0683 76.7097L-58.9563 76.1513L-58.4164 75.9584C-35.8757 67.7655 -18.2444 50.1412 -10.0552 27.593L-9.86166 27.0549L-9.30145 26.9432C-4.95219 26.0295 -0.480717 25.5625 3.99076 25.5625V27.6031C-0.144592 27.6031 -4.29013 28.0092 -8.32363 28.8214C-11.3691 37.0346 -15.6471 44.6082 -20.9334 51.3188C-13.7424 46.6691 -5.18646 43.9686 4.00095 43.9686V46.0092C-20.251 46.0092 -39.9805 65.7351 -39.9805 89.9889V89.999Z" fill="#F3EFDE"/>
<path d="M-21.5668 90.0008H-23.6141C-23.6141 74.7723 -11.2284 62.3866 3.99903 62.3866V64.4272C-10.0978 64.4272 -21.5668 75.8993 -21.5668 90.0008ZM-39.9722 90.0008H-42.0195C-42.0195 64.6201 -21.3733 43.9805 3.99903 43.9805V46.0211C-20.2529 46.0211 -39.9824 65.747 -39.9824 90.0008H-39.9722Z" fill="#F3EFDE"/>
<path d="M-3.16059 90.0009H-5.2079C-5.2079 84.9248 -1.08272 80.7928 3.99989 80.7928V82.8334C0.0478783 82.8334 -3.16059 86.0415 -3.16059 89.9908V90.0009ZM-21.566 90.0009H-23.6133C-23.6133 74.7725 -11.2276 62.3867 3.99989 62.3867V64.4273C-10.097 64.4273 -21.566 75.8994 -21.566 90.0009Z" fill="#F3EFDE"/>
<path d="M-3.15972 90.0011H-5.20703C-5.20703 84.9249 -1.08186 80.793 4.00076 80.793V82.8336C0.0487418 82.8336 -3.15972 86.0417 -3.15972 89.9909V90.0011Z" fill="#F3EFDE"/>
</g>
<g clip-path="url(#clip1_1053_61292)">
<path d="M79.3329 29.3187L79.9644 27.5928C82.195 21.4608 83.6719 15.0446 84.3544 8.52681L84.4359 7.70447L85.2609 7.6131C88.1638 7.30853 91.1074 7.15625 94.0001 7.15625V9.19686C91.4436 9.19686 88.8564 9.31869 86.2896 9.56234C85.6174 15.3593 84.3442 21.0852 82.47 26.5877C86.2591 25.9075 90.1296 25.5522 93.99 25.5522V27.5928C89.6611 27.5928 85.3322 28.0395 81.1153 28.9227L79.3125 29.2984L79.3329 29.3187Z" fill="#F3EFDE"/>
<path d="M31.6133 89.9982H29.566C29.566 86.1302 29.9123 82.2621 30.5947 78.4753C25.0843 80.3434 19.3702 81.6225 13.5644 82.2926C13.3199 84.8611 13.1977 87.45 13.1977 89.9982H11.1504C11.1504 87.1048 11.3032 84.1606 11.6087 81.2571L11.6902 80.4347L12.5153 80.3434C19.034 79.6632 25.451 78.1809 31.5827 75.9576L33.3143 75.3281L32.9374 77.1251C32.0513 81.3383 31.6031 85.6733 31.6031 89.9982H31.6133Z" fill="#F3EFDE"/>
<path d="M50.0195 89.999H47.9722C47.9722 80.8214 50.6714 72.2528 55.3262 65.065C48.6139 70.3544 41.046 74.6285 32.8262 77.6843C32.0216 81.7249 31.6039 85.8671 31.6039 89.999H29.5566C29.5566 85.532 30.015 81.065 30.9317 76.7097L31.0437 76.1513L31.5836 75.9584C54.1243 67.7655 71.7556 50.1412 79.9448 27.593L80.1383 27.0549L80.6986 26.9432C85.0478 26.0295 89.5193 25.5625 93.9908 25.5625V27.6031C89.8554 27.6031 85.7099 28.0092 81.6764 28.8214C78.6309 37.0346 74.3529 44.6082 69.0666 51.3188C76.2576 46.6691 84.8135 43.9686 94.001 43.9686V46.0092C69.749 46.0092 50.0195 65.7351 50.0195 89.9889V89.999Z" fill="#F3EFDE"/>
<path d="M68.4332 90.0008H66.3859C66.3859 74.7723 78.7716 62.3866 93.999 62.3866V64.4272C79.9022 64.4272 68.4332 75.8993 68.4332 90.0008ZM50.0278 90.0008H47.9805C47.9805 64.6201 68.6267 43.9805 93.999 43.9805V46.0211C69.7471 46.0211 50.0176 65.747 50.0176 90.0008H50.0278Z" fill="#F3EFDE"/>
<path d="M86.8394 90.0009H84.7921C84.7921 84.9248 88.9173 80.7928 93.9999 80.7928V82.8334C90.0479 82.8334 86.8394 86.0415 86.8394 89.9908V90.0009ZM68.434 90.0009H66.3867C66.3867 74.7725 78.7724 62.3867 93.9999 62.3867V64.4273C79.903 64.4273 68.434 75.8994 68.434 90.0009Z" fill="#F3EFDE"/>
<path d="M86.8403 90.0011H84.793C84.793 84.9249 88.9181 80.793 94.0008 80.793V82.8336C90.0487 82.8336 86.8403 86.0417 86.8403 89.9909V90.0011Z" fill="#F3EFDE"/>
<path d="M4 82.8442V80.8036C6.8316 80.8036 9.69375 80.6513 12.5254 80.3569C19.0441 79.6767 25.4611 78.1945 31.5928 75.9711C54.1335 67.7782 71.7648 50.1538 79.954 27.6056C82.1847 21.4736 83.6616 15.0574 84.344 8.53964C84.6394 5.70715 84.7922 2.83405 84.7922 0.0117188H86.8395C86.8395 2.90512 86.6867 5.84928 86.3812 8.75284C85.6784 15.433 84.1607 22.0117 81.8791 28.3061C73.476 51.4229 55.4067 69.4939 32.2956 77.8899C26.0009 80.1741 19.4312 81.6868 12.7392 82.3874C9.83635 82.6919 6.89271 82.8442 4 82.8442ZM4 64.4381V62.3975C38.3968 62.3975 66.3868 34.4077 66.3868 0.0117188H68.4341C68.4341 35.5447 39.5274 64.4483 4 64.4483V64.4381Z" fill="#F3EFDE"/>
<path d="M4 64.4365V62.3959C38.3968 62.3959 66.3868 34.4061 66.3868 0.0101523H68.4341C68.4341 35.533 39.5274 64.4467 4 64.4467V64.4365ZM4 46.0305V43.9898C28.2519 43.9797 47.9814 24.2538 47.9814 0H50.0287C50.0186 25.3807 29.3723 46.0203 4 46.0203V46.0305Z" fill="#F3EFDE"/>
<path d="M4 46.0203V43.9797C28.2519 43.9797 47.9814 24.2538 47.9814 0H50.0287C50.0186 25.3807 29.3723 46.0203 4 46.0203ZM4 27.6142V25.5736C18.0969 25.5635 29.5659 14.1015 29.5659 0H31.6132C31.6132 15.2284 19.2275 27.6142 4 27.6142Z" fill="#F3EFDE"/>
<path d="M4 27.6142V25.5736C18.0969 25.5635 29.5659 14.1015 29.5659 0H31.6132C31.6132 15.2284 19.2275 27.6142 4 27.6142ZM4 9.20812V7.16751C7.95201 7.15736 11.1605 3.94924 11.1605 0H13.2078C13.2078 5.07614 9.07243 9.20812 4 9.20812Z" fill="#F3EFDE"/>
<path d="M4 9.20812V7.16751C7.95201 7.15736 11.1605 3.94924 11.1605 0H13.2078C13.2078 5.07614 9.07243 9.20812 4 9.20812Z" fill="#F3EFDE"/>
</g>
<g clip-path="url(#clip2_1053_61292)">
<path d="M169.333 29.3187L169.964 27.5928C172.195 21.4608 173.672 15.0446 174.354 8.52681L174.436 7.70447L175.261 7.6131C178.164 7.30853 181.107 7.15625 184 7.15625V9.19686C181.444 9.19686 178.856 9.31869 176.29 9.56234C175.617 15.3593 174.344 21.0852 172.47 26.5877C176.259 25.9075 180.13 25.5522 183.99 25.5522V27.5928C179.661 27.5928 175.332 28.0395 171.115 28.9227L169.312 29.2984L169.333 29.3187Z" fill="#F3EFDE"/>
<path d="M121.613 89.9982H119.566C119.566 86.1302 119.912 82.2621 120.595 78.4753C115.084 80.3434 109.37 81.6225 103.564 82.2926C103.32 84.8611 103.198 87.45 103.198 89.9982H101.15C101.15 87.1048 101.303 84.1606 101.609 81.2571L101.69 80.4347L102.515 80.3434C109.034 79.6632 115.451 78.1809 121.583 75.9576L123.314 75.3281L122.937 77.1251C122.051 81.3383 121.603 85.6733 121.603 89.9982H121.613Z" fill="#F3EFDE"/>
<path d="M140.02 89.999H137.972C137.972 80.8214 140.671 72.2528 145.326 65.065C138.614 70.3544 131.046 74.6285 122.826 77.6843C122.022 81.7249 121.604 85.8671 121.604 89.999H119.557C119.557 85.532 120.015 81.065 120.932 76.7097L121.044 76.1513L121.584 75.9584C144.124 67.7655 161.756 50.1412 169.945 27.593L170.138 27.0549L170.699 26.9432C175.048 26.0295 179.519 25.5625 183.991 25.5625V27.6031C179.855 27.6031 175.71 28.0092 171.676 28.8214C168.631 37.0346 164.353 44.6082 159.067 51.3188C166.258 46.6691 174.814 43.9686 184.001 43.9686V46.0092C159.749 46.0092 140.02 65.7351 140.02 89.9889V89.999Z" fill="#F3EFDE"/>
<path d="M158.433 90.0008H156.386C156.386 74.7723 168.772 62.3866 183.999 62.3866V64.4272C169.902 64.4272 158.433 75.8993 158.433 90.0008ZM140.028 90.0008H137.98C137.98 64.6201 158.627 43.9805 183.999 43.9805V46.0211C159.747 46.0211 140.018 65.747 140.018 90.0008H140.028Z" fill="#F3EFDE"/>
<path d="M176.839 90.0009H174.792C174.792 84.9248 178.917 80.7928 184 80.7928V82.8334C180.048 82.8334 176.839 86.0415 176.839 89.9908V90.0009ZM158.434 90.0009H156.387C156.387 74.7725 168.772 62.3867 184 62.3867V64.4273C169.903 64.4273 158.434 75.8994 158.434 90.0009Z" fill="#F3EFDE"/>
<path d="M176.84 90.0011H174.793C174.793 84.9249 178.918 80.793 184.001 80.793V82.8336C180.049 82.8336 176.84 86.0417 176.84 89.9909V90.0011Z" fill="#F3EFDE"/>
<path d="M94 82.8442V80.8036C96.8316 80.8036 99.6938 80.6513 102.525 80.3569C109.044 79.6767 115.461 78.1945 121.593 75.9711C144.134 67.7782 161.765 50.1538 169.954 27.6056C172.185 21.4736 173.662 15.0574 174.344 8.53964C174.639 5.70715 174.792 2.83405 174.792 0.0117188H176.84C176.84 2.90512 176.687 5.84928 176.381 8.75284C175.678 15.433 174.161 22.0117 171.879 28.3061C163.476 51.4229 145.407 69.4939 122.296 77.8899C116.001 80.1741 109.431 81.6868 102.739 82.3874C99.8364 82.6919 96.8927 82.8442 94 82.8442ZM94 64.4381V62.3975C128.397 62.3975 156.387 34.4077 156.387 0.0117188H158.434C158.434 35.5447 129.527 64.4483 94 64.4483V64.4381Z" fill="#F3EFDE"/>
<path d="M94 64.4365V62.3959C128.397 62.3959 156.387 34.4061 156.387 0.0101523H158.434C158.434 35.533 129.527 64.4467 94 64.4467V64.4365ZM94 46.0305V43.9898C118.252 43.9797 137.981 24.2538 137.981 0H140.029C140.019 25.3807 119.372 46.0203 94 46.0203V46.0305Z" fill="#F3EFDE"/>
<path d="M94 46.0203V43.9797C118.252 43.9797 137.981 24.2538 137.981 0H140.029C140.019 25.3807 119.372 46.0203 94 46.0203ZM94 27.6142V25.5736C108.097 25.5635 119.566 14.1015 119.566 0H121.613C121.613 15.2284 109.227 27.6142 94 27.6142Z" fill="#F3EFDE"/>
<path d="M94 27.6142V25.5736C108.097 25.5635 119.566 14.1015 119.566 0H121.613C121.613 15.2284 109.227 27.6142 94 27.6142ZM94 9.20812V7.16751C97.952 7.15736 101.16 3.94924 101.16 0H103.208C103.208 5.07614 99.0724 9.20812 94 9.20812Z" fill="#F3EFDE"/>
<path d="M94 9.20812V7.16751C97.952 7.15736 101.16 3.94924 101.16 0H103.208C103.208 5.07614 99.0724 9.20812 94 9.20812Z" fill="#F3EFDE"/>
</g>
<g clip-path="url(#clip3_1053_61292)">
<path d="M259.333 29.3187L259.964 27.5928C262.195 21.4608 263.672 15.0446 264.354 8.52681L264.436 7.70447L265.261 7.6131C268.164 7.30853 271.107 7.15625 274 7.15625V9.19686C271.444 9.19686 268.856 9.31869 266.29 9.56234C265.617 15.3593 264.344 21.0852 262.47 26.5877C266.259 25.9075 270.13 25.5522 273.99 25.5522V27.5928C269.661 27.5928 265.332 28.0395 261.115 28.9227L259.312 29.2984L259.333 29.3187Z" fill="#F3EFDE"/>
<path d="M211.613 89.9982H209.566C209.566 86.1302 209.912 82.2621 210.595 78.4753C205.084 80.3434 199.37 81.6225 193.564 82.2926C193.32 84.8611 193.198 87.45 193.198 89.9982H191.15C191.15 87.1048 191.303 84.1606 191.609 81.2571L191.69 80.4347L192.515 80.3434C199.034 79.6632 205.451 78.1809 211.583 75.9576L213.314 75.3281L212.937 77.1251C212.051 81.3383 211.603 85.6733 211.603 89.9982H211.613Z" fill="#F3EFDE"/>
<path d="M230.02 89.999H227.972C227.972 80.8214 230.671 72.2528 235.326 65.065C228.614 70.3544 221.046 74.6285 212.826 77.6843C212.022 81.7249 211.604 85.8671 211.604 89.999H209.557C209.557 85.532 210.015 81.065 210.932 76.7097L211.044 76.1513L211.584 75.9584C234.124 67.7655 251.756 50.1412 259.945 27.593L260.138 27.0549L260.699 26.9432C265.048 26.0295 269.519 25.5625 273.991 25.5625V27.6031C269.855 27.6031 265.71 28.0092 261.676 28.8214C258.631 37.0346 254.353 44.6082 249.067 51.3188C256.258 46.6691 264.814 43.9686 274.001 43.9686V46.0092C249.749 46.0092 230.02 65.7351 230.02 89.9889V89.999Z" fill="#F3EFDE"/>
<path d="M248.433 90.0008H246.386C246.386 74.7723 258.772 62.3866 273.999 62.3866V64.4272C259.902 64.4272 248.433 75.8993 248.433 90.0008ZM230.028 90.0008H227.98C227.98 64.6201 248.627 43.9805 273.999 43.9805V46.0211C249.747 46.0211 230.018 65.747 230.018 90.0008H230.028Z" fill="#F3EFDE"/>
<path d="M266.839 90.0009H264.792C264.792 84.9248 268.917 80.7928 274 80.7928V82.8334C270.048 82.8334 266.839 86.0415 266.839 89.9908V90.0009ZM248.434 90.0009H246.387C246.387 74.7725 258.772 62.3867 274 62.3867V64.4273C259.903 64.4273 248.434 75.8994 248.434 90.0009Z" fill="#F3EFDE"/>
<path d="M266.84 90.0011H264.793C264.793 84.9249 268.918 80.793 274.001 80.793V82.8336C270.049 82.8336 266.84 86.0417 266.84 89.9909V90.0011Z" fill="#F3EFDE"/>
<path d="M184 82.8442V80.8036C186.832 80.8036 189.694 80.6513 192.525 80.3569C199.044 79.6767 205.461 78.1945 211.593 75.9711C234.134 67.7782 251.765 50.1538 259.954 27.6056C262.185 21.4736 263.662 15.0574 264.344 8.53964C264.639 5.70715 264.792 2.83405 264.792 0.0117188H266.84C266.84 2.90512 266.687 5.84928 266.381 8.75284C265.678 15.433 264.161 22.0117 261.879 28.3061C253.476 51.4229 235.407 69.4939 212.296 77.8899C206.001 80.1741 199.431 81.6868 192.739 82.3874C189.836 82.6919 186.893 82.8442 184 82.8442ZM184 64.4381V62.3975C218.397 62.3975 246.387 34.4077 246.387 0.0117188H248.434C248.434 35.5447 219.527 64.4483 184 64.4483V64.4381Z" fill="#F3EFDE"/>
<path d="M184 64.4365V62.3959C218.397 62.3959 246.387 34.4061 246.387 0.0101523H248.434C248.434 35.533 219.527 64.4467 184 64.4467V64.4365ZM184 46.0305V43.9898C208.252 43.9797 227.981 24.2538 227.981 0H230.029C230.019 25.3807 209.372 46.0203 184 46.0203V46.0305Z" fill="#F3EFDE"/>
<path d="M184 46.0203V43.9797C208.252 43.9797 227.981 24.2538 227.981 0H230.029C230.019 25.3807 209.372 46.0203 184 46.0203ZM184 27.6142V25.5736C198.097 25.5635 209.566 14.1015 209.566 0H211.613C211.613 15.2284 199.227 27.6142 184 27.6142Z" fill="#F3EFDE"/>
<path d="M184 27.6142V25.5736C198.097 25.5635 209.566 14.1015 209.566 0H211.613C211.613 15.2284 199.227 27.6142 184 27.6142ZM184 9.20812V7.16751C187.952 7.15736 191.16 3.94924 191.16 0H193.208C193.208 5.07614 189.072 9.20812 184 9.20812Z" fill="#F3EFDE"/>
<path d="M184 9.20812V7.16751C187.952 7.15736 191.16 3.94924 191.16 0H193.208C193.208 5.07614 189.072 9.20812 184 9.20812Z" fill="#F3EFDE"/>
</g>
<g clip-path="url(#clip4_1053_61292)">
<path d="M-10.6671 119.319L-10.0356 117.593C-7.80497 111.461 -6.32806 105.045 -5.64563 98.5268L-5.56414 97.7045L-4.73911 97.6131C-1.83621 97.3085 1.10743 97.1562 4.00014 97.1562V99.1969C1.44355 99.1969 -1.14359 99.3187 -3.71036 99.5623C-4.38261 105.359 -5.65581 111.085 -7.52996 116.588C-3.74092 115.908 0.129607 115.552 3.98995 115.552V117.593C-0.33893 117.593 -4.66781 118.039 -8.88465 118.923L-10.6875 119.298L-10.6671 119.319Z" fill="#F3EFDE"/>
<path d="M-39.9805 179.999H-42.0278C-42.0278 170.821 -39.3286 162.253 -34.6738 155.065C-41.3861 160.354 -48.954 164.628 -57.1738 167.684C-57.9784 171.725 -58.3961 175.867 -58.3961 179.999H-60.4434C-60.4434 175.532 -59.985 171.065 -59.0683 166.71L-58.9563 166.151L-58.4164 165.958C-35.8757 157.766 -18.2444 140.141 -10.0552 117.593L-9.86166 117.055L-9.30145 116.943C-4.95219 116.03 -0.480717 115.562 3.99076 115.562V117.603C-0.144592 117.603 -4.29013 118.009 -8.32363 118.821C-11.3691 127.035 -15.6471 134.608 -20.9334 141.319C-13.7424 136.669 -5.18646 133.969 4.00095 133.969V136.009C-20.251 136.009 -39.9805 155.735 -39.9805 179.989V179.999Z" fill="#F3EFDE"/>
<path d="M-21.5668 180.001H-23.6141C-23.6141 164.772 -11.2284 152.387 3.99903 152.387V154.427C-10.0978 154.427 -21.5668 165.899 -21.5668 180.001ZM-39.9722 180.001H-42.0195C-42.0195 154.62 -21.3733 133.98 3.99903 133.98V136.021C-20.2529 136.021 -39.9824 155.747 -39.9824 180.001H-39.9722Z" fill="#F3EFDE"/>
<path d="M-3.16059 180.001H-5.2079C-5.2079 174.925 -1.08272 170.793 3.99989 170.793V172.833C0.0478783 172.833 -3.16059 176.042 -3.16059 179.991V180.001ZM-21.566 180.001H-23.6133C-23.6133 164.773 -11.2276 152.387 3.99989 152.387V154.427C-10.097 154.427 -21.566 165.899 -21.566 180.001Z" fill="#F3EFDE"/>
<path d="M-3.15972 180.001H-5.20703C-5.20703 174.925 -1.08186 170.793 4.00076 170.793V172.834C0.0487418 172.834 -3.15972 176.042 -3.15972 179.991V180.001Z" fill="#F3EFDE"/>
</g>
<g clip-path="url(#clip5_1053_61292)">
<path d="M79.3329 119.319L79.9644 117.593C82.195 111.461 83.6719 105.045 84.3544 98.5268L84.4359 97.7045L85.2609 97.6131C88.1638 97.3085 91.1074 97.1562 94.0001 97.1562V99.1969C91.4436 99.1969 88.8564 99.3187 86.2896 99.5623C85.6174 105.359 84.3442 111.085 82.47 116.588C86.2591 115.908 90.1296 115.552 93.99 115.552V117.593C89.6611 117.593 85.3322 118.039 81.1153 118.923L79.3125 119.298L79.3329 119.319Z" fill="#F3EFDE"/>
<path d="M31.6133 179.998H29.566C29.566 176.13 29.9123 172.262 30.5947 168.475C25.0843 170.343 19.3702 171.623 13.5644 172.293C13.3199 174.861 13.1977 177.45 13.1977 179.998H11.1504C11.1504 177.105 11.3032 174.161 11.6087 171.257L11.6902 170.435L12.5153 170.343C19.034 169.663 25.451 168.181 31.5827 165.958L33.3143 165.328L32.9374 167.125C32.0513 171.338 31.6031 175.673 31.6031 179.998H31.6133Z" fill="#F3EFDE"/>
<path d="M50.0195 179.999H47.9722C47.9722 170.821 50.6714 162.253 55.3262 155.065C48.6139 160.354 41.046 164.628 32.8262 167.684C32.0216 171.725 31.6039 175.867 31.6039 179.999H29.5566C29.5566 175.532 30.015 171.065 30.9317 166.71L31.0437 166.151L31.5836 165.958C54.1243 157.766 71.7556 140.141 79.9448 117.593L80.1383 117.055L80.6986 116.943C85.0478 116.03 89.5193 115.562 93.9908 115.562V117.603C89.8554 117.603 85.7099 118.009 81.6764 118.821C78.6309 127.035 74.3529 134.608 69.0666 141.319C76.2576 136.669 84.8135 133.969 94.001 133.969V136.009C69.749 136.009 50.0195 155.735 50.0195 179.989V179.999Z" fill="#F3EFDE"/>
<path d="M68.4332 180.001H66.3859C66.3859 164.772 78.7716 152.387 93.999 152.387V154.427C79.9022 154.427 68.4332 165.899 68.4332 180.001ZM50.0278 180.001H47.9805C47.9805 154.62 68.6267 133.98 93.999 133.98V136.021C69.7471 136.021 50.0176 155.747 50.0176 180.001H50.0278Z" fill="#F3EFDE"/>
<path d="M86.8394 180.001H84.7921C84.7921 174.925 88.9173 170.793 93.9999 170.793V172.833C90.0479 172.833 86.8394 176.042 86.8394 179.991V180.001ZM68.434 180.001H66.3867C66.3867 164.773 78.7724 152.387 93.9999 152.387V154.427C79.903 154.427 68.434 165.899 68.434 180.001Z" fill="#F3EFDE"/>
<path d="M86.8403 180.001H84.793C84.793 174.925 88.9181 170.793 94.0008 170.793V172.834C90.0487 172.834 86.8403 176.042 86.8403 179.991V180.001Z" fill="#F3EFDE"/>
<path d="M4 172.844V170.804C6.8316 170.804 9.69375 170.651 12.5254 170.357C19.0441 169.677 25.4611 168.194 31.5928 165.971C54.1335 157.778 71.7648 140.154 79.954 117.606C82.1847 111.474 83.6616 105.057 84.344 98.5396C84.6394 95.7071 84.7922 92.8341 84.7922 90.0117H86.8395C86.8395 92.9051 86.6867 95.8493 86.3812 98.7528C85.6784 105.433 84.1607 112.012 81.8791 118.306C73.476 141.423 55.4067 159.494 32.2956 167.89C26.0009 170.174 19.4312 171.687 12.7392 172.387C9.83635 172.692 6.89271 172.844 4 172.844ZM4 154.438V152.398C38.3968 152.398 66.3868 124.408 66.3868 90.0117H68.4341C68.4341 125.545 39.5274 154.448 4 154.448V154.438Z" fill="#F3EFDE"/>
<path d="M4 154.437V152.396C38.3968 152.396 66.3868 124.406 66.3868 90.0102H68.4341C68.4341 125.533 39.5274 154.447 4 154.447V154.437ZM4 136.03V133.99C28.2519 133.98 47.9814 114.254 47.9814 90H50.0287C50.0186 115.381 29.3723 136.02 4 136.02V136.03Z" fill="#F3EFDE"/>
<path d="M4 136.02V133.98C28.2519 133.98 47.9814 114.254 47.9814 90H50.0287C50.0186 115.381 29.3723 136.02 4 136.02ZM4 117.614V115.574C18.0969 115.563 29.5659 104.102 29.5659 90H31.6132C31.6132 105.228 19.2275 117.614 4 117.614Z" fill="#F3EFDE"/>
<path d="M4 117.614V115.574C18.0969 115.563 29.5659 104.102 29.5659 90H31.6132C31.6132 105.228 19.2275 117.614 4 117.614ZM4 99.2081V97.1675C7.95201 97.1574 11.1605 93.9492 11.1605 90H13.2078C13.2078 95.0761 9.07243 99.2081 4 99.2081Z" fill="#F3EFDE"/>
<path d="M4 99.2081V97.1675C7.95201 97.1574 11.1605 93.9492 11.1605 90H13.2078C13.2078 95.0761 9.07243 99.2081 4 99.2081Z" fill="#F3EFDE"/>
</g>
<g clip-path="url(#clip6_1053_61292)">
<path d="M169.333 119.319L169.964 117.593C172.195 111.461 173.672 105.045 174.354 98.5268L174.436 97.7045L175.261 97.6131C178.164 97.3085 181.107 97.1562 184 97.1562V99.1969C181.444 99.1969 178.856 99.3187 176.29 99.5623C175.617 105.359 174.344 111.085 172.47 116.588C176.259 115.908 180.13 115.552 183.99 115.552V117.593C179.661 117.593 175.332 118.039 171.115 118.923L169.312 119.298L169.333 119.319Z" fill="#F3EFDE"/>
<path d="M121.613 179.998H119.566C119.566 176.13 119.912 172.262 120.595 168.475C115.084 170.343 109.37 171.623 103.564 172.293C103.32 174.861 103.198 177.45 103.198 179.998H101.15C101.15 177.105 101.303 174.161 101.609 171.257L101.69 170.435L102.515 170.343C109.034 169.663 115.451 168.181 121.583 165.958L123.314 165.328L122.937 167.125C122.051 171.338 121.603 175.673 121.603 179.998H121.613Z" fill="#F3EFDE"/>
<path d="M140.02 179.999H137.972C137.972 170.821 140.671 162.253 145.326 155.065C138.614 160.354 131.046 164.628 122.826 167.684C122.022 171.725 121.604 175.867 121.604 179.999H119.557C119.557 175.532 120.015 171.065 120.932 166.71L121.044 166.151L121.584 165.958C144.124 157.766 161.756 140.141 169.945 117.593L170.138 117.055L170.699 116.943C175.048 116.03 179.519 115.562 183.991 115.562V117.603C179.855 117.603 175.71 118.009 171.676 118.821C168.631 127.035 164.353 134.608 159.067 141.319C166.258 136.669 174.814 133.969 184.001 133.969V136.009C159.749 136.009 140.02 155.735 140.02 179.989V179.999Z" fill="#F3EFDE"/>
<path d="M158.433 180.001H156.386C156.386 164.772 168.772 152.387 183.999 152.387V154.427C169.902 154.427 158.433 165.899 158.433 180.001ZM140.028 180.001H137.98C137.98 154.62 158.627 133.98 183.999 133.98V136.021C159.747 136.021 140.018 155.747 140.018 180.001H140.028Z" fill="#F3EFDE"/>
<path d="M176.839 180.001H174.792C174.792 174.925 178.917 170.793 184 170.793V172.833C180.048 172.833 176.839 176.042 176.839 179.991V180.001ZM158.434 180.001H156.387C156.387 164.773 168.772 152.387 184 152.387V154.427C169.903 154.427 158.434 165.899 158.434 180.001Z" fill="#F3EFDE"/>
<path d="M176.84 180.001H174.793C174.793 174.925 178.918 170.793 184.001 170.793V172.834C180.049 172.834 176.84 176.042 176.84 179.991V180.001Z" fill="#F3EFDE"/>
<path d="M94 172.844V170.804C96.8316 170.804 99.6938 170.651 102.525 170.357C109.044 169.677 115.461 168.194 121.593 165.971C144.134 157.778 161.765 140.154 169.954 117.606C172.185 111.474 173.662 105.057 174.344 98.5396C174.639 95.7071 174.792 92.8341 174.792 90.0117H176.84C176.84 92.9051 176.687 95.8493 176.381 98.7528C175.678 105.433 174.161 112.012 171.879 118.306C163.476 141.423 145.407 159.494 122.296 167.89C116.001 170.174 109.431 171.687 102.739 172.387C99.8364 172.692 96.8927 172.844 94 172.844ZM94 154.438V152.398C128.397 152.398 156.387 124.408 156.387 90.0117H158.434C158.434 125.545 129.527 154.448 94 154.448V154.438Z" fill="#F3EFDE"/>
<path d="M94 154.437V152.396C128.397 152.396 156.387 124.406 156.387 90.0102H158.434C158.434 125.533 129.527 154.447 94 154.447V154.437ZM94 136.03V133.99C118.252 133.98 137.981 114.254 137.981 90H140.029C140.019 115.381 119.372 136.02 94 136.02V136.03Z" fill="#F3EFDE"/>
<path d="M94 136.02V133.98C118.252 133.98 137.981 114.254 137.981 90H140.029C140.019 115.381 119.372 136.02 94 136.02ZM94 117.614V115.574C108.097 115.563 119.566 104.102 119.566 90H121.613C121.613 105.228 109.227 117.614 94 117.614Z" fill="#F3EFDE"/>
<path d="M94 117.614V115.574C108.097 115.563 119.566 104.102 119.566 90H121.613C121.613 105.228 109.227 117.614 94 117.614ZM94 99.2081V97.1675C97.952 97.1574 101.16 93.9492 101.16 90H103.208C103.208 95.0761 99.0724 99.2081 94 99.2081Z" fill="#F3EFDE"/>
<path d="M94 99.2081V97.1675C97.952 97.1574 101.16 93.9492 101.16 90H103.208C103.208 95.0761 99.0724 99.2081 94 99.2081Z" fill="#F3EFDE"/>
</g>
<g clip-path="url(#clip7_1053_61292)">
<path d="M259.333 119.319L259.964 117.593C262.195 111.461 263.672 105.045 264.354 98.5268L264.436 97.7045L265.261 97.6131C268.164 97.3085 271.107 97.1562 274 97.1562V99.1969C271.444 99.1969 268.856 99.3187 266.29 99.5623C265.617 105.359 264.344 111.085 262.47 116.588C266.259 115.908 270.13 115.552 273.99 115.552V117.593C269.661 117.593 265.332 118.039 261.115 118.923L259.312 119.298L259.333 119.319Z" fill="#F3EFDE"/>
<path d="M211.613 179.998H209.566C209.566 176.13 209.912 172.262 210.595 168.475C205.084 170.343 199.37 171.623 193.564 172.293C193.32 174.861 193.198 177.45 193.198 179.998H191.15C191.15 177.105 191.303 174.161 191.609 171.257L191.69 170.435L192.515 170.343C199.034 169.663 205.451 168.181 211.583 165.958L213.314 165.328L212.937 167.125C212.051 171.338 211.603 175.673 211.603 179.998H211.613Z" fill="#F3EFDE"/>
<path d="M230.02 179.999H227.972C227.972 170.821 230.671 162.253 235.326 155.065C228.614 160.354 221.046 164.628 212.826 167.684C212.022 171.725 211.604 175.867 211.604 179.999H209.557C209.557 175.532 210.015 171.065 210.932 166.71L211.044 166.151L211.584 165.958C234.124 157.766 251.756 140.141 259.945 117.593L260.138 117.055L260.699 116.943C265.048 116.03 269.519 115.562 273.991 115.562V117.603C269.855 117.603 265.71 118.009 261.676 118.821C258.631 127.035 254.353 134.608 249.067 141.319C256.258 136.669 264.814 133.969 274.001 133.969V136.009C249.749 136.009 230.02 155.735 230.02 179.989V179.999Z" fill="#F3EFDE"/>
<path d="M248.433 180.001H246.386C246.386 164.772 258.772 152.387 273.999 152.387V154.427C259.902 154.427 248.433 165.899 248.433 180.001ZM230.028 180.001H227.98C227.98 154.62 248.627 133.98 273.999 133.98V136.021C249.747 136.021 230.018 155.747 230.018 180.001H230.028Z" fill="#F3EFDE"/>
<path d="M266.839 180.001H264.792C264.792 174.925 268.917 170.793 274 170.793V172.833C270.048 172.833 266.839 176.042 266.839 179.991V180.001ZM248.434 180.001H246.387C246.387 164.773 258.772 152.387 274 152.387V154.427C259.903 154.427 248.434 165.899 248.434 180.001Z" fill="#F3EFDE"/>
<path d="M266.84 180.001H264.793C264.793 174.925 268.918 170.793 274.001 170.793V172.834C270.049 172.834 266.84 176.042 266.84 179.991V180.001Z" fill="#F3EFDE"/>
<path d="M184 172.844V170.804C186.832 170.804 189.694 170.651 192.525 170.357C199.044 169.677 205.461 168.194 211.593 165.971C234.134 157.778 251.765 140.154 259.954 117.606C262.185 111.474 263.662 105.057 264.344 98.5396C264.639 95.7071 264.792 92.8341 264.792 90.0117H266.84C266.84 92.9051 266.687 95.8493 266.381 98.7528C265.678 105.433 264.161 112.012 261.879 118.306C253.476 141.423 235.407 159.494 212.296 167.89C206.001 170.174 199.431 171.687 192.739 172.387C189.836 172.692 186.893 172.844 184 172.844ZM184 154.438V152.398C218.397 152.398 246.387 124.408 246.387 90.0117H248.434C248.434 125.545 219.527 154.448 184 154.448V154.438Z" fill="#F3EFDE"/>
<path d="M184 154.437V152.396C218.397 152.396 246.387 124.406 246.387 90.0102H248.434C248.434 125.533 219.527 154.447 184 154.447V154.437ZM184 136.03V133.99C208.252 133.98 227.981 114.254 227.981 90H230.029C230.019 115.381 209.372 136.02 184 136.02V136.03Z" fill="#F3EFDE"/>
<path d="M184 136.02V133.98C208.252 133.98 227.981 114.254 227.981 90H230.029C230.019 115.381 209.372 136.02 184 136.02ZM184 117.614V115.574C198.097 115.563 209.566 104.102 209.566 90H211.613C211.613 105.228 199.227 117.614 184 117.614Z" fill="#F3EFDE"/>
<path d="M184 117.614V115.574C198.097 115.563 209.566 104.102 209.566 90H211.613C211.613 105.228 199.227 117.614 184 117.614ZM184 99.2081V97.1675C187.952 97.1574 191.16 93.9492 191.16 90H193.208C193.208 95.0761 189.072 99.2081 184 99.2081Z" fill="#F3EFDE"/>
<path d="M184 99.2081V97.1675C187.952 97.1574 191.16 93.9492 191.16 90H193.208C193.208 95.0761 189.072 99.2081 184 99.2081Z" fill="#F3EFDE"/>
</g>
<g clip-path="url(#clip8_1053_61292)">
<path d="M-10.6671 209.319L-10.0356 207.593C-7.80497 201.461 -6.32806 195.045 -5.64563 188.527L-5.56414 187.704L-4.73911 187.613C-1.83621 187.309 1.10743 187.156 4.00014 187.156V189.197C1.44355 189.197 -1.14359 189.319 -3.71036 189.562C-4.38261 195.359 -5.65581 201.085 -7.52996 206.588C-3.74092 205.908 0.129607 205.552 3.98995 205.552V207.593C-0.33893 207.593 -4.66781 208.039 -8.88465 208.923L-10.6875 209.298L-10.6671 209.319Z" fill="#F3EFDE"/>
<path d="M-39.9805 269.999H-42.0278C-42.0278 260.821 -39.3286 252.253 -34.6738 245.065C-41.3861 250.354 -48.954 254.628 -57.1738 257.684C-57.9784 261.725 -58.3961 265.867 -58.3961 269.999H-60.4434C-60.4434 265.532 -59.985 261.065 -59.0683 256.71L-58.9563 256.151L-58.4164 255.958C-35.8757 247.766 -18.2444 230.141 -10.0552 207.593L-9.86166 207.055L-9.30145 206.943C-4.95219 206.03 -0.480717 205.562 3.99076 205.562V207.603C-0.144592 207.603 -4.29013 208.009 -8.32363 208.821C-11.3691 217.035 -15.6471 224.608 -20.9334 231.319C-13.7424 226.669 -5.18646 223.969 4.00095 223.969V226.009C-20.251 226.009 -39.9805 245.735 -39.9805 269.989V269.999Z" fill="#F3EFDE"/>
<path d="M-21.5668 270.001H-23.6141C-23.6141 254.772 -11.2284 242.387 3.99903 242.387V244.427C-10.0978 244.427 -21.5668 255.899 -21.5668 270.001ZM-39.9722 270.001H-42.0195C-42.0195 244.62 -21.3733 223.98 3.99903 223.98V226.021C-20.2529 226.021 -39.9824 245.747 -39.9824 270.001H-39.9722Z" fill="#F3EFDE"/>
<path d="M-3.16059 270.001H-5.2079C-5.2079 264.925 -1.08272 260.793 3.99989 260.793V262.833C0.0478783 262.833 -3.16059 266.042 -3.16059 269.991V270.001ZM-21.566 270.001H-23.6133C-23.6133 254.773 -11.2276 242.387 3.99989 242.387V244.427C-10.097 244.427 -21.566 255.899 -21.566 270.001Z" fill="#F3EFDE"/>
<path d="M-3.15972 270.001H-5.20703C-5.20703 264.925 -1.08186 260.793 4.00076 260.793V262.834C0.0487418 262.834 -3.15972 266.042 -3.15972 269.991V270.001Z" fill="#F3EFDE"/>
</g>
<g clip-path="url(#clip9_1053_61292)">
<path d="M79.3329 209.319L79.9644 207.593C82.195 201.461 83.6719 195.045 84.3544 188.527L84.4359 187.704L85.2609 187.613C88.1638 187.309 91.1074 187.156 94.0001 187.156V189.197C91.4436 189.197 88.8564 189.319 86.2896 189.562C85.6174 195.359 84.3442 201.085 82.47 206.588C86.2591 205.908 90.1296 205.552 93.99 205.552V207.593C89.6611 207.593 85.3322 208.039 81.1153 208.923L79.3125 209.298L79.3329 209.319Z" fill="#F3EFDE"/>
<path d="M31.6133 269.998H29.566C29.566 266.13 29.9123 262.262 30.5947 258.475C25.0843 260.343 19.3702 261.623 13.5644 262.293C13.3199 264.861 13.1977 267.45 13.1977 269.998H11.1504C11.1504 267.105 11.3032 264.161 11.6087 261.257L11.6902 260.435L12.5153 260.343C19.034 259.663 25.451 258.181 31.5827 255.958L33.3143 255.328L32.9374 257.125C32.0513 261.338 31.6031 265.673 31.6031 269.998H31.6133Z" fill="#F3EFDE"/>
<path d="M50.0195 269.999H47.9722C47.9722 260.821 50.6714 252.253 55.3262 245.065C48.6139 250.354 41.046 254.628 32.8262 257.684C32.0216 261.725 31.6039 265.867 31.6039 269.999H29.5566C29.5566 265.532 30.015 261.065 30.9317 256.71L31.0437 256.151L31.5836 255.958C54.1243 247.766 71.7556 230.141 79.9448 207.593L80.1383 207.055L80.6986 206.943C85.0478 206.03 89.5193 205.562 93.9908 205.562V207.603C89.8554 207.603 85.7099 208.009 81.6764 208.821C78.6309 217.035 74.3529 224.608 69.0666 231.319C76.2576 226.669 84.8135 223.969 94.001 223.969V226.009C69.749 226.009 50.0195 245.735 50.0195 269.989V269.999Z" fill="#F3EFDE"/>
<path d="M68.4332 270.001H66.3859C66.3859 254.772 78.7716 242.387 93.999 242.387V244.427C79.9022 244.427 68.4332 255.899 68.4332 270.001ZM50.0278 270.001H47.9805C47.9805 244.62 68.6267 223.98 93.999 223.98V226.021C69.7471 226.021 50.0176 245.747 50.0176 270.001H50.0278Z" fill="#F3EFDE"/>
<path d="M86.8394 270.001H84.7921C84.7921 264.925 88.9173 260.793 93.9999 260.793V262.833C90.0479 262.833 86.8394 266.042 86.8394 269.991V270.001ZM68.434 270.001H66.3867C66.3867 254.773 78.7724 242.387 93.9999 242.387V244.427C79.903 244.427 68.434 255.899 68.434 270.001Z" fill="#F3EFDE"/>
<path d="M86.8403 270.001H84.793C84.793 264.925 88.9181 260.793 94.0008 260.793V262.834C90.0487 262.834 86.8403 266.042 86.8403 269.991V270.001Z" fill="#F3EFDE"/>
<path d="M4 262.844V260.804C6.8316 260.804 9.69375 260.651 12.5254 260.357C19.0441 259.677 25.4611 258.194 31.5928 255.971C54.1335 247.778 71.7648 230.154 79.954 207.606C82.1847 201.474 83.6616 195.057 84.344 188.54C84.6394 185.707 84.7922 182.834 84.7922 180.012H86.8395C86.8395 182.905 86.6867 185.849 86.3812 188.753C85.6784 195.433 84.1607 202.012 81.8791 208.306C73.476 231.423 55.4067 249.494 32.2956 257.89C26.0009 260.174 19.4312 261.687 12.7392 262.387C9.83635 262.692 6.89271 262.844 4 262.844ZM4 244.438V242.398C38.3968 242.398 66.3868 214.408 66.3868 180.012H68.4341C68.4341 215.545 39.5274 244.448 4 244.448V244.438Z" fill="#F3EFDE"/>
<path d="M4 244.437V242.396C38.3968 242.396 66.3868 214.406 66.3868 180.01H68.4341C68.4341 215.533 39.5274 244.447 4 244.447V244.437ZM4 226.03V223.99C28.2519 223.98 47.9814 204.254 47.9814 180H50.0287C50.0186 205.381 29.3723 226.02 4 226.02V226.03Z" fill="#F3EFDE"/>
<path d="M4 226.02V223.98C28.2519 223.98 47.9814 204.254 47.9814 180H50.0287C50.0186 205.381 29.3723 226.02 4 226.02ZM4 207.614V205.574C18.0969 205.563 29.5659 194.102 29.5659 180H31.6132C31.6132 195.228 19.2275 207.614 4 207.614Z" fill="#F3EFDE"/>
<path d="M4 207.614V205.574C18.0969 205.563 29.5659 194.102 29.5659 180H31.6132C31.6132 195.228 19.2275 207.614 4 207.614ZM4 189.208V187.168C7.95201 187.157 11.1605 183.949 11.1605 180H13.2078C13.2078 185.076 9.07243 189.208 4 189.208Z" fill="#F3EFDE"/>
<path d="M4 189.208V187.168C7.95201 187.157 11.1605 183.949 11.1605 180H13.2078C13.2078 185.076 9.07243 189.208 4 189.208Z" fill="#F3EFDE"/>
</g>
<g clip-path="url(#clip10_1053_61292)">
<path d="M169.333 209.319L169.964 207.593C172.195 201.461 173.672 195.045 174.354 188.527L174.436 187.704L175.261 187.613C178.164 187.309 181.107 187.156 184 187.156V189.197C181.444 189.197 178.856 189.319 176.29 189.562C175.617 195.359 174.344 201.085 172.47 206.588C176.259 205.908 180.13 205.552 183.99 205.552V207.593C179.661 207.593 175.332 208.039 171.115 208.923L169.312 209.298L169.333 209.319Z" fill="#F3EFDE"/>
<path d="M121.613 269.998H119.566C119.566 266.13 119.912 262.262 120.595 258.475C115.084 260.343 109.37 261.623 103.564 262.293C103.32 264.861 103.198 267.45 103.198 269.998H101.15C101.15 267.105 101.303 264.161 101.609 261.257L101.69 260.435L102.515 260.343C109.034 259.663 115.451 258.181 121.583 255.958L123.314 255.328L122.937 257.125C122.051 261.338 121.603 265.673 121.603 269.998H121.613Z" fill="#F3EFDE"/>
<path d="M140.02 269.999H137.972C137.972 260.821 140.671 252.253 145.326 245.065C138.614 250.354 131.046 254.628 122.826 257.684C122.022 261.725 121.604 265.867 121.604 269.999H119.557C119.557 265.532 120.015 261.065 120.932 256.71L121.044 256.151L121.584 255.958C144.124 247.766 161.756 230.141 169.945 207.593L170.138 207.055L170.699 206.943C175.048 206.03 179.519 205.562 183.991 205.562V207.603C179.855 207.603 175.71 208.009 171.676 208.821C168.631 217.035 164.353 224.608 159.067 231.319C166.258 226.669 174.814 223.969 184.001 223.969V226.009C159.749 226.009 140.02 245.735 140.02 269.989V269.999Z" fill="#F3EFDE"/>
<path d="M158.433 270.001H156.386C156.386 254.772 168.772 242.387 183.999 242.387V244.427C169.902 244.427 158.433 255.899 158.433 270.001ZM140.028 270.001H137.98C137.98 244.62 158.627 223.98 183.999 223.98V226.021C159.747 226.021 140.018 245.747 140.018 270.001H140.028Z" fill="#F3EFDE"/>
<path d="M176.839 270.001H174.792C174.792 264.925 178.917 260.793 184 260.793V262.833C180.048 262.833 176.839 266.042 176.839 269.991V270.001ZM158.434 270.001H156.387C156.387 254.773 168.772 242.387 184 242.387V244.427C169.903 244.427 158.434 255.899 158.434 270.001Z" fill="#F3EFDE"/>
<path d="M176.84 270.001H174.793C174.793 264.925 178.918 260.793 184.001 260.793V262.834C180.049 262.834 176.84 266.042 176.84 269.991V270.001Z" fill="#F3EFDE"/>
<path d="M94 262.844V260.804C96.8316 260.804 99.6938 260.651 102.525 260.357C109.044 259.677 115.461 258.194 121.593 255.971C144.134 247.778 161.765 230.154 169.954 207.606C172.185 201.474 173.662 195.057 174.344 188.54C174.639 185.707 174.792 182.834 174.792 180.012H176.84C176.84 182.905 176.687 185.849 176.381 188.753C175.678 195.433 174.161 202.012 171.879 208.306C163.476 231.423 145.407 249.494 122.296 257.89C116.001 260.174 109.431 261.687 102.739 262.387C99.8364 262.692 96.8927 262.844 94 262.844ZM94 244.438V242.398C128.397 242.398 156.387 214.408 156.387 180.012H158.434C158.434 215.545 129.527 244.448 94 244.448V244.438Z" fill="#F3EFDE"/>
<path d="M94 244.437V242.396C128.397 242.396 156.387 214.406 156.387 180.01H158.434C158.434 215.533 129.527 244.447 94 244.447V244.437ZM94 226.03V223.99C118.252 223.98 137.981 204.254 137.981 180H140.029C140.019 205.381 119.372 226.02 94 226.02V226.03Z" fill="#F3EFDE"/>
<path d="M94 226.02V223.98C118.252 223.98 137.981 204.254 137.981 180H140.029C140.019 205.381 119.372 226.02 94 226.02ZM94 207.614V205.574C108.097 205.563 119.566 194.102 119.566 180H121.613C121.613 195.228 109.227 207.614 94 207.614Z" fill="#F3EFDE"/>
<path d="M94 207.614V205.574C108.097 205.563 119.566 194.102 119.566 180H121.613C121.613 195.228 109.227 207.614 94 207.614ZM94 189.208V187.168C97.952 187.157 101.16 183.949 101.16 180H103.208C103.208 185.076 99.0724 189.208 94 189.208Z" fill="#F3EFDE"/>
<path d="M94 189.208V187.168C97.952 187.157 101.16 183.949 101.16 180H103.208C103.208 185.076 99.0724 189.208 94 189.208Z" fill="#F3EFDE"/>
</g>
<g clip-path="url(#clip11_1053_61292)">
<path d="M259.333 209.319L259.964 207.593C262.195 201.461 263.672 195.045 264.354 188.527L264.436 187.704L265.261 187.613C268.164 187.309 271.107 187.156 274 187.156V189.197C271.444 189.197 268.856 189.319 266.29 189.562C265.617 195.359 264.344 201.085 262.47 206.588C266.259 205.908 270.13 205.552 273.99 205.552V207.593C269.661 207.593 265.332 208.039 261.115 208.923L259.312 209.298L259.333 209.319Z" fill="#F3EFDE"/>
<path d="M211.613 269.998H209.566C209.566 266.13 209.912 262.262 210.595 258.475C205.084 260.343 199.37 261.623 193.564 262.293C193.32 264.861 193.198 267.45 193.198 269.998H191.15C191.15 267.105 191.303 264.161 191.609 261.257L191.69 260.435L192.515 260.343C199.034 259.663 205.451 258.181 211.583 255.958L213.314 255.328L212.937 257.125C212.051 261.338 211.603 265.673 211.603 269.998H211.613Z" fill="#F3EFDE"/>
<path d="M230.02 269.999H227.972C227.972 260.821 230.671 252.253 235.326 245.065C228.614 250.354 221.046 254.628 212.826 257.684C212.022 261.725 211.604 265.867 211.604 269.999H209.557C209.557 265.532 210.015 261.065 210.932 256.71L211.044 256.151L211.584 255.958C234.124 247.766 251.756 230.141 259.945 207.593L260.138 207.055L260.699 206.943C265.048 206.03 269.519 205.562 273.991 205.562V207.603C269.855 207.603 265.71 208.009 261.676 208.821C258.631 217.035 254.353 224.608 249.067 231.319C256.258 226.669 264.814 223.969 274.001 223.969V226.009C249.749 226.009 230.02 245.735 230.02 269.989V269.999Z" fill="#F3EFDE"/>
<path d="M248.433 270.001H246.386C246.386 254.772 258.772 242.387 273.999 242.387V244.427C259.902 244.427 248.433 255.899 248.433 270.001ZM230.028 270.001H227.98C227.98 244.62 248.627 223.98 273.999 223.98V226.021C249.747 226.021 230.018 245.747 230.018 270.001H230.028Z" fill="#F3EFDE"/>
<path d="M266.839 270.001H264.792C264.792 264.925 268.917 260.793 274 260.793V262.833C270.048 262.833 266.839 266.042 266.839 269.991V270.001ZM248.434 270.001H246.387C246.387 254.773 258.772 242.387 274 242.387V244.427C259.903 244.427 248.434 255.899 248.434 270.001Z" fill="#F3EFDE"/>
<path d="M266.84 270.001H264.793C264.793 264.925 268.918 260.793 274.001 260.793V262.834C270.049 262.834 266.84 266.042 266.84 269.991V270.001Z" fill="#F3EFDE"/>
<path d="M184 262.844V260.804C186.832 260.804 189.694 260.651 192.525 260.357C199.044 259.677 205.461 258.194 211.593 255.971C234.134 247.778 251.765 230.154 259.954 207.606C262.185 201.474 263.662 195.057 264.344 188.54C264.639 185.707 264.792 182.834 264.792 180.012H266.84C266.84 182.905 266.687 185.849 266.381 188.753C265.678 195.433 264.161 202.012 261.879 208.306C253.476 231.423 235.407 249.494 212.296 257.89C206.001 260.174 199.431 261.687 192.739 262.387C189.836 262.692 186.893 262.844 184 262.844ZM184 244.438V242.398C218.397 242.398 246.387 214.408 246.387 180.012H248.434C248.434 215.545 219.527 244.448 184 244.448V244.438Z" fill="#F3EFDE"/>
<path d="M184 244.437V242.396C218.397 242.396 246.387 214.406 246.387 180.01H248.434C248.434 215.533 219.527 244.447 184 244.447V244.437ZM184 226.03V223.99C208.252 223.98 227.981 204.254 227.981 180H230.029C230.019 205.381 209.372 226.02 184 226.02V226.03Z" fill="#F3EFDE"/>
<path d="M184 226.02V223.98C208.252 223.98 227.981 204.254 227.981 180H230.029C230.019 205.381 209.372 226.02 184 226.02ZM184 207.614V205.574C198.097 205.563 209.566 194.102 209.566 180H211.613C211.613 195.228 199.227 207.614 184 207.614Z" fill="#F3EFDE"/>
<path d="M184 207.614V205.574C198.097 205.563 209.566 194.102 209.566 180H211.613C211.613 195.228 199.227 207.614 184 207.614ZM184 189.208V187.168C187.952 187.157 191.16 183.949 191.16 180H193.208C193.208 185.076 189.072 189.208 184 189.208Z" fill="#F3EFDE"/>
<path d="M184 189.208V187.168C187.952 187.157 191.16 183.949 191.16 180H193.208C193.208 185.076 189.072 189.208 184 189.208Z" fill="#F3EFDE"/>
</g>
<g clip-path="url(#clip12_1053_61292)">
<path d="M-10.6671 299.319L-10.0356 297.593C-7.80497 291.461 -6.32806 285.045 -5.64563 278.527L-5.56414 277.704L-4.73911 277.613C-1.83621 277.309 1.10743 277.156 4.00014 277.156V279.197C1.44355 279.197 -1.14359 279.319 -3.71036 279.562C-4.38261 285.359 -5.65581 291.085 -7.52996 296.588C-3.74092 295.908 0.129607 295.552 3.98995 295.552V297.593C-0.33893 297.593 -4.66781 298.039 -8.88465 298.923L-10.6875 299.298L-10.6671 299.319Z" fill="#314D71"/>
<path d="M-39.9805 359.999H-42.0278C-42.0278 350.821 -39.3286 342.253 -34.6738 335.065C-41.3861 340.354 -48.954 344.628 -57.1738 347.684C-57.9784 351.725 -58.3961 355.867 -58.3961 359.999H-60.4434C-60.4434 355.532 -59.985 351.065 -59.0683 346.71L-58.9563 346.151L-58.4164 345.958C-35.8757 337.766 -18.2444 320.141 -10.0552 297.593L-9.86166 297.055L-9.30145 296.943C-4.95219 296.03 -0.480717 295.562 3.99076 295.562V297.603C-0.144592 297.603 -4.29013 298.009 -8.32363 298.821C-11.3691 307.035 -15.6471 314.608 -20.9334 321.319C-13.7424 316.669 -5.18646 313.969 4.00095 313.969V316.009C-20.251 316.009 -39.9805 335.735 -39.9805 359.989V359.999Z" fill="#314D71"/>
<path d="M-21.5668 360.001H-23.6141C-23.6141 344.772 -11.2284 332.387 3.99903 332.387V334.427C-10.0978 334.427 -21.5668 345.899 -21.5668 360.001ZM-39.9722 360.001H-42.0195C-42.0195 334.62 -21.3733 313.98 3.99903 313.98V316.021C-20.2529 316.021 -39.9824 335.747 -39.9824 360.001H-39.9722Z" fill="#314D71"/>
<path d="M-3.16059 360.001H-5.2079C-5.2079 354.925 -1.08272 350.793 3.99989 350.793V352.833C0.0478783 352.833 -3.16059 356.042 -3.16059 359.991V360.001ZM-21.566 360.001H-23.6133C-23.6133 344.773 -11.2276 332.387 3.99989 332.387V334.427C-10.097 334.427 -21.566 345.899 -21.566 360.001Z" fill="#314D71"/>
<path d="M-3.15972 360.001H-5.20703C-5.20703 354.925 -1.08186 350.793 4.00076 350.793V352.834C0.0487418 352.834 -3.15972 356.042 -3.15972 359.991V360.001Z" fill="#314D71"/>
</g>
<g clip-path="url(#clip13_1053_61292)">
<path d="M64.6794 345.333L66.4052 345.964C72.5372 348.195 78.9535 349.672 85.4712 350.354L86.2936 350.436L86.3849 351.261C86.6895 354.164 86.8418 357.107 86.8418 360L84.8012 360C84.8012 357.444 84.6794 354.856 84.4357 352.29C78.6388 351.617 72.9129 350.344 67.4103 348.47C68.0905 352.259 68.4459 356.13 68.4459 359.99L66.4052 359.99C66.4052 355.661 65.9585 351.332 65.0753 347.115L64.6997 345.312L64.6794 345.333Z" fill="#F3EFDE"/>
<path d="M3.99987 297.611L3.99987 295.564C7.86789 295.564 11.7359 295.91 15.5227 296.593C13.6547 291.082 12.3755 285.368 11.7055 279.562C9.13693 279.318 6.54809 279.196 3.99987 279.196L3.99987 277.148C6.89327 277.148 9.83743 277.301 12.741 277.607L13.5633 277.688L13.6547 278.513C14.3349 285.032 15.8171 291.449 18.0405 297.581L18.6699 299.312L16.873 298.935C12.6598 298.049 8.32474 297.601 3.99987 297.601L3.99987 297.611Z" fill="#F3EFDE"/>
<path d="M4.00095 316.018L4.00095 313.97C13.1786 313.97 21.7471 316.669 28.935 321.324C23.6456 314.612 19.3715 307.044 16.3157 298.824C12.2751 298.02 8.13293 297.602 4.00095 297.602L4.00095 295.555C8.46796 295.555 12.935 296.013 17.2903 296.93L17.8487 297.042L18.0416 297.582C26.2345 320.122 43.8588 337.754 66.407 345.943L66.9451 346.136L67.0568 346.697C67.9705 351.046 68.4375 355.517 68.4375 359.989L66.3969 359.989C66.3969 355.853 65.9908 351.708 65.1786 347.674C56.9654 344.629 49.3918 340.351 42.6812 335.065C47.3309 342.256 50.0314 350.812 50.0314 359.999L47.9908 359.999C47.9908 335.747 28.2649 316.018 4.01111 316.018L4.00095 316.018Z" fill="#F3EFDE"/>
<path d="M3.99922 334.433L3.99922 332.386C19.2277 332.386 31.6134 344.772 31.6134 359.999L29.5728 359.999C29.5728 345.902 18.1007 334.433 3.99922 334.433ZM3.99923 316.028L3.99923 313.98C29.3799 313.98 50.0195 334.627 50.0195 359.999L47.9789 359.999C47.9789 335.747 28.253 316.018 3.99923 316.018L3.99923 316.028Z" fill="#F3EFDE"/>
<path d="M3.99907 352.839L3.99907 350.792C9.07521 350.792 13.2072 354.917 13.2072 360L11.1666 360C11.1666 356.048 7.95846 352.839 4.00922 352.839L3.99907 352.839ZM3.99907 334.434L3.99907 332.387C19.2275 332.387 31.6133 344.772 31.6133 360L29.5727 360C29.5727 345.903 18.1006 334.434 3.99907 334.434Z" fill="#F3EFDE"/>
<path d="M4.00086 352.84L4.00086 350.793C9.07701 350.793 13.209 354.918 13.209 360.001L11.1684 360.001C11.1684 356.049 7.96026 352.84 4.01102 352.84L4.00086 352.84Z" fill="#F3EFDE"/>
<path d="M11.1578 270L13.1984 270C13.1984 272.832 13.3506 275.694 13.6451 278.525C14.3253 285.044 15.8075 291.461 18.0308 297.593C26.2237 320.134 43.8481 337.765 66.3963 345.954C72.5283 348.185 78.9445 349.662 85.4623 350.344C88.2948 350.639 91.1679 350.792 93.9902 350.792L93.9902 352.84C91.0968 352.84 88.1527 352.687 85.2491 352.381C78.5689 351.678 71.9902 350.161 65.6958 347.879C42.5791 339.476 24.508 321.407 16.1121 298.296C13.8278 292.001 12.3151 285.431 11.6146 278.739C11.31 275.836 11.1578 272.893 11.1578 270ZM29.5638 270L31.6045 270C31.6044 304.397 59.5943 332.387 93.9902 332.387L93.9902 334.434C58.4572 334.434 29.5537 305.527 29.5537 270L29.5638 270Z" fill="#F3EFDE"/>
<path d="M29.5635 270L31.6041 270C31.6041 304.397 59.5939 332.387 93.9898 332.387L93.9898 334.434C58.467 334.434 29.5533 305.527 29.5533 270L29.5635 270ZM47.9695 270L50.0102 270C50.0203 294.252 69.7462 313.981 94 313.981L94 316.029C68.6193 316.019 47.9797 295.372 47.9797 270L47.9695 270Z" fill="#F3EFDE"/>
<path d="M47.9797 270L50.0203 270C50.0203 294.252 69.7462 313.981 94 313.981L94 316.029C68.6193 316.019 47.9797 295.372 47.9797 270ZM66.3858 270L68.4264 270C68.4365 284.097 79.8985 295.566 94 295.566L94 297.613C78.7716 297.613 66.3858 285.227 66.3858 270Z" fill="#F3EFDE"/>
<path d="M66.3858 270L68.4264 270C68.4365 284.097 79.8985 295.566 94 295.566L94 297.613C78.7716 297.613 66.3858 285.227 66.3858 270ZM84.7919 270L86.8325 270C86.8426 273.952 90.0508 277.16 94 277.16L94 279.208C88.9239 279.208 84.7919 275.072 84.7919 270Z" fill="#F3EFDE"/>
<path d="M84.7919 270L86.8325 270C86.8426 273.952 90.0508 277.16 94 277.16L94 279.208C88.9239 279.208 84.7919 275.072 84.7919 270Z" fill="#F3EFDE"/>
</g>
<g clip-path="url(#clip14_1053_61292)">
<path d="M154.679 345.333L156.405 345.964C162.537 348.195 168.953 349.672 175.471 350.354L176.294 350.436L176.385 351.261C176.69 354.164 176.842 357.107 176.842 360L174.801 360C174.801 357.444 174.679 354.856 174.436 352.29C168.639 351.617 162.913 350.344 157.41 348.47C158.091 352.259 158.446 356.13 158.446 359.99L156.405 359.99C156.405 355.661 155.959 351.332 155.075 347.115L154.7 345.312L154.679 345.333Z" fill="#F3EFDE"/>
<path d="M93.9999 297.611L93.9999 295.564C97.8679 295.564 101.736 295.91 105.523 296.593C103.655 291.082 102.376 285.368 101.705 279.562C99.1369 279.318 96.5481 279.196 93.9999 279.196L93.9999 277.148C96.8933 277.148 99.8374 277.301 102.741 277.607L103.563 277.688L103.655 278.513C104.335 285.032 105.817 291.449 108.04 297.581L108.67 299.312L106.873 298.935C102.66 298.049 98.3247 297.601 93.9999 297.601L93.9999 297.611Z" fill="#F3EFDE"/>
<path d="M94.001 316.018L94.001 313.97C103.179 313.97 111.747 316.669 118.935 321.324C113.646 314.612 109.372 307.044 106.316 298.824C102.275 298.02 98.1329 297.602 94.001 297.602L94.001 295.555C98.468 295.555 102.935 296.013 107.29 296.93L107.849 297.042L108.042 297.582C116.234 320.122 133.859 337.754 156.407 345.943L156.945 346.136L157.057 346.697C157.97 351.046 158.437 355.517 158.437 359.989L156.397 359.989C156.397 355.853 155.991 351.708 155.179 347.674C146.965 344.629 139.392 340.351 132.681 335.065C137.331 342.256 140.031 350.812 140.031 359.999L137.991 359.999C137.991 335.747 118.265 316.018 94.0111 316.018L94.001 316.018Z" fill="#F3EFDE"/>
<path d="M93.9992 334.433L93.9992 332.386C109.228 332.386 121.613 344.772 121.613 359.999L119.573 359.999C119.573 345.902 108.101 334.433 93.9992 334.433ZM93.9992 316.028L93.9992 313.98C119.38 313.98 140.02 334.627 140.02 359.999L137.979 359.999C137.979 335.747 118.253 316.018 93.9992 316.018L93.9992 316.028Z" fill="#F3EFDE"/>
<path d="M93.9991 352.839L93.9991 350.792C99.0752 350.792 103.207 354.917 103.207 360L101.167 360C101.167 356.048 97.9585 352.839 94.0092 352.839L93.9991 352.839ZM93.9991 334.434L93.9991 332.387C109.227 332.387 121.613 344.772 121.613 360L119.573 360C119.573 345.903 108.101 334.434 93.9991 334.434Z" fill="#F3EFDE"/>
<path d="M94.0009 352.84L94.0009 350.793C99.077 350.793 103.209 354.918 103.209 360.001L101.168 360.001C101.168 356.049 97.9603 352.84 94.011 352.84L94.0009 352.84Z" fill="#F3EFDE"/>
<path d="M101.158 270L103.198 270C103.198 272.832 103.351 275.694 103.645 278.525C104.325 285.044 105.807 291.461 108.031 297.593C116.224 320.134 133.848 337.765 156.396 345.954C162.528 348.185 168.945 349.662 175.462 350.344C178.295 350.639 181.168 350.792 183.99 350.792L183.99 352.84C181.097 352.84 178.153 352.687 175.249 352.381C168.569 351.678 161.99 350.161 155.696 347.879C132.579 339.476 114.508 321.407 106.112 298.296C103.828 292.001 102.315 285.431 101.615 278.739C101.31 275.836 101.158 272.893 101.158 270ZM119.564 270L121.604 270C121.604 304.397 149.594 332.387 183.99 332.387L183.99 334.434C148.457 334.434 119.554 305.527 119.554 270L119.564 270Z" fill="#F3EFDE"/>
<path d="M119.563 270L121.604 270C121.604 304.397 149.594 332.387 183.99 332.387L183.99 334.434C148.467 334.434 119.553 305.527 119.553 270L119.563 270ZM137.97 270L140.01 270C140.02 294.252 159.746 313.981 184 313.981L184 316.029C158.619 316.019 137.98 295.372 137.98 270L137.97 270Z" fill="#F3EFDE"/>
<path d="M137.98 270L140.02 270C140.02 294.252 159.746 313.981 184 313.981L184 316.029C158.619 316.019 137.98 295.372 137.98 270ZM156.386 270L158.426 270C158.437 284.097 169.898 295.566 184 295.566L184 297.613C168.772 297.613 156.386 285.227 156.386 270Z" fill="#F3EFDE"/>
<path d="M156.386 270L158.426 270C158.437 284.097 169.898 295.566 184 295.566L184 297.613C168.772 297.613 156.386 285.227 156.386 270ZM174.792 270L176.832 270C176.843 273.952 180.051 277.16 184 277.16L184 279.208C178.924 279.208 174.792 275.072 174.792 270Z" fill="#F3EFDE"/>
<path d="M174.792 270L176.832 270C176.843 273.952 180.051 277.16 184 277.16L184 279.208C178.924 279.208 174.792 275.072 174.792 270Z" fill="#F3EFDE"/>
</g>
<g clip-path="url(#clip15_1053_61292)">
<path d="M244.679 345.333L246.405 345.964C252.537 348.195 258.953 349.672 265.471 350.354L266.294 350.436L266.385 351.261C266.69 354.164 266.842 357.107 266.842 360L264.801 360C264.801 357.444 264.679 354.856 264.436 352.29C258.639 351.617 252.913 350.344 247.41 348.47C248.091 352.259 248.446 356.13 248.446 359.99L246.405 359.99C246.405 355.661 245.959 351.332 245.075 347.115L244.7 345.312L244.679 345.333Z" fill="#F3EFDE"/>
<path d="M184 297.611L184 295.564C187.868 295.564 191.736 295.91 195.523 296.593C193.655 291.082 192.376 285.368 191.705 279.562C189.137 279.318 186.548 279.196 184 279.196L184 277.148C186.893 277.148 189.837 277.301 192.741 277.607L193.563 277.688L193.655 278.513C194.335 285.032 195.817 291.449 198.04 297.581L198.67 299.312L196.873 298.935C192.66 298.049 188.325 297.601 184 297.601L184 297.611Z" fill="#F3EFDE"/>
<path d="M184.001 316.018L184.001 313.97C193.179 313.97 201.747 316.669 208.935 321.324C203.646 314.612 199.372 307.044 196.316 298.824C192.275 298.02 188.133 297.602 184.001 297.602L184.001 295.555C188.468 295.555 192.935 296.013 197.29 296.93L197.849 297.042L198.042 297.582C206.234 320.122 223.859 337.754 246.407 345.943L246.945 346.136L247.057 346.697C247.97 351.046 248.437 355.517 248.437 359.989L246.397 359.989C246.397 355.853 245.991 351.708 245.179 347.674C236.965 344.629 229.392 340.351 222.681 335.065C227.331 342.256 230.031 350.812 230.031 359.999L227.991 359.999C227.991 335.747 208.265 316.018 184.011 316.018L184.001 316.018Z" fill="#F3EFDE"/>
<path d="M183.999 334.433L183.999 332.386C199.228 332.386 211.613 344.772 211.613 359.999L209.573 359.999C209.573 345.902 198.101 334.433 183.999 334.433ZM183.999 316.028L183.999 313.98C209.38 313.98 230.02 334.627 230.02 359.999L227.979 359.999C227.979 335.747 208.253 316.018 183.999 316.018L183.999 316.028Z" fill="#F3EFDE"/>
<path d="M183.999 352.839L183.999 350.792C189.075 350.792 193.207 354.917 193.207 360L191.167 360C191.167 356.048 187.958 352.839 184.009 352.839L183.999 352.839ZM183.999 334.434L183.999 332.387C199.227 332.387 211.613 344.772 211.613 360L209.573 360C209.573 345.903 198.101 334.434 183.999 334.434Z" fill="#F3EFDE"/>
<path d="M184.001 352.84L184.001 350.793C189.077 350.793 193.209 354.918 193.209 360.001L191.168 360.001C191.168 356.049 187.96 352.84 184.011 352.84L184.001 352.84Z" fill="#F3EFDE"/>
<path d="M191.158 270L193.198 270C193.198 272.832 193.351 275.694 193.645 278.525C194.325 285.044 195.807 291.461 198.031 297.593C206.224 320.134 223.848 337.765 246.396 345.954C252.528 348.185 258.945 349.662 265.462 350.344C268.295 350.639 271.168 350.792 273.99 350.792L273.99 352.84C271.097 352.84 268.153 352.687 265.249 352.381C258.569 351.678 251.99 350.161 245.696 347.879C222.579 339.476 204.508 321.407 196.112 298.296C193.828 292.001 192.315 285.431 191.615 278.739C191.31 275.836 191.158 272.893 191.158 270ZM209.564 270L211.604 270C211.604 304.397 239.594 332.387 273.99 332.387L273.99 334.434C238.457 334.434 209.554 305.527 209.554 270L209.564 270Z" fill="#F3EFDE"/>
<path d="M209.563 270L211.604 270C211.604 304.397 239.594 332.387 273.99 332.387L273.99 334.434C238.467 334.434 209.553 305.527 209.553 270L209.563 270ZM227.97 270L230.01 270C230.02 294.252 249.746 313.981 274 313.981L274 316.029C248.619 316.019 227.98 295.372 227.98 270L227.97 270Z" fill="#F3EFDE"/>
<path d="M227.98 270L230.02 270C230.02 294.252 249.746 313.981 274 313.981L274 316.029C248.619 316.019 227.98 295.372 227.98 270ZM246.386 270L248.426 270C248.437 284.097 259.898 295.566 274 295.566L274 297.613C258.772 297.613 246.386 285.227 246.386 270Z" fill="#F3EFDE"/>
<path d="M246.386 270L248.426 270C248.437 284.097 259.898 295.566 274 295.566L274 297.613C258.772 297.613 246.386 285.227 246.386 270ZM264.792 270L266.832 270C266.843 273.952 270.051 277.16 274 277.16L274 279.208C268.924 279.208 264.792 275.072 264.792 270Z" fill="#F3EFDE"/>
<path d="M264.792 270L266.832 270C266.843 273.952 270.051 277.16 274 277.16L274 279.208C268.924 279.208 264.792 275.072 264.792 270Z" fill="#F3EFDE"/>
</g>
<g clip-path="url(#clip16_1053_61292)">
<path d="M-78.8422 360L-76.8016 360C-76.8016 362.832 -76.6494 365.694 -76.3549 368.525C-75.6747 375.044 -74.1925 381.461 -71.9692 387.593C-63.7763 410.134 -46.1519 427.765 -23.6037 435.954C-17.4717 438.185 -11.0555 439.662 -4.53769 440.344C-1.7052 440.639 1.1679 440.792 3.99023 440.792L3.99023 442.84C1.09683 442.84 -1.84733 442.687 -4.75089 442.381C-11.4311 441.678 -18.0098 440.161 -24.3042 437.879C-47.4209 429.476 -65.492 411.407 -73.8879 388.296C-76.1722 382.001 -77.6849 375.431 -78.3854 368.739C-78.69 365.836 -78.8422 362.893 -78.8422 360ZM-60.4362 360L-58.3955 360C-58.3956 394.397 -30.4057 422.387 3.99023 422.387L3.99023 424.434C-31.5428 424.434 -60.4463 395.527 -60.4463 360L-60.4362 360Z" fill="#F3EFDE"/>
<path d="M-60.4365 360L-58.3959 360C-58.3959 394.397 -30.4061 422.387 3.98984 422.387L3.98984 424.434C-31.533 424.434 -60.4467 395.527 -60.4467 360L-60.4365 360ZM-42.0305 360L-39.9898 360C-39.9797 384.252 -20.2538 403.981 4 403.981L4 406.029C-21.3807 406.019 -42.0203 385.372 -42.0203 360L-42.0305 360Z" fill="#F3EFDE"/>
<path d="M-42.0203 360L-39.9797 360C-39.9797 384.252 -20.2538 403.981 4 403.981L4 406.029C-21.3807 406.019 -42.0203 385.372 -42.0203 360ZM-23.6142 360L-21.5736 360C-21.5635 374.097 -10.1015 385.566 4 385.566L4 387.613C-11.2284 387.613 -23.6142 375.227 -23.6142 360Z" fill="#F3EFDE"/>
<path d="M-23.6142 360L-21.5736 360C-21.5635 374.097 -10.1015 385.566 4 385.566L4 387.613C-11.2284 387.613 -23.6142 375.227 -23.6142 360ZM-5.20812 360L-3.16751 360C-3.15736 363.952 0.0507611 367.16 4 367.16L4 369.208C-1.07614 369.208 -5.20812 365.072 -5.20812 360Z" fill="#F3EFDE"/>
<path d="M-5.20812 360L-3.16751 360C-3.15736 363.952 0.0507616 367.16 4 367.16L4 369.208C-1.07614 369.208 -5.20812 365.072 -5.20812 360Z" fill="#F3EFDE"/>
</g>
<g clip-path="url(#clip17_1053_61292)">
<path d="M64.6794 435.333L66.4052 435.964C72.5372 438.195 78.9535 439.672 85.4712 440.354L86.2936 440.436L86.3849 441.261C86.6895 444.164 86.8418 447.107 86.8418 450L84.8012 450C84.8012 447.444 84.6794 444.856 84.4357 442.29C78.6388 441.617 72.9129 440.344 67.4103 438.47C68.0905 442.259 68.4459 446.13 68.4459 449.99L66.4052 449.99C66.4052 445.661 65.9585 441.332 65.0753 437.115L64.6997 435.312L64.6794 435.333Z" fill="#F3EFDE"/>
<path d="M3.99987 387.611L3.99987 385.564C7.86789 385.564 11.7359 385.91 15.5227 386.593C13.6547 381.082 12.3755 375.368 11.7055 369.562C9.13693 369.318 6.54809 369.196 3.99987 369.196L3.99987 367.148C6.89327 367.148 9.83743 367.301 12.741 367.607L13.5633 367.688L13.6547 368.513C14.3349 375.032 15.8171 381.449 18.0405 387.581L18.6699 389.312L16.873 388.935C12.6598 388.049 8.32474 387.601 3.99987 387.601L3.99987 387.611Z" fill="#F3EFDE"/>
<path d="M4.00095 406.018L4.00095 403.97C13.1786 403.97 21.7471 406.669 28.935 411.324C23.6456 404.612 19.3715 397.044 16.3157 388.824C12.2751 388.02 8.13293 387.602 4.00095 387.602L4.00095 385.555C8.46796 385.555 12.935 386.013 17.2903 386.93L17.8487 387.042L18.0416 387.582C26.2345 410.122 43.8588 427.754 66.407 435.943L66.9451 436.136L67.0568 436.697C67.9705 441.046 68.4375 445.517 68.4375 449.989L66.3969 449.989C66.3969 445.853 65.9908 441.708 65.1786 437.674C56.9654 434.629 49.3918 430.351 42.6812 425.065C47.3309 432.256 50.0314 440.812 50.0314 449.999L47.9908 449.999C47.9908 425.747 28.2649 406.018 4.01111 406.018L4.00095 406.018Z" fill="#F3EFDE"/>
<path d="M3.99922 424.433L3.99922 422.386C19.2277 422.386 31.6134 434.772 31.6134 449.999L29.5728 449.999C29.5728 435.902 18.1007 424.433 3.99922 424.433ZM3.99923 406.028L3.99923 403.98C29.3799 403.98 50.0195 424.627 50.0195 449.999L47.9789 449.999C47.9789 425.747 28.253 406.018 3.99923 406.018L3.99923 406.028Z" fill="#F3EFDE"/>
<path d="M3.99907 442.839L3.99907 440.792C9.07521 440.792 13.2072 444.917 13.2072 450L11.1666 450C11.1666 446.048 7.95846 442.839 4.00922 442.839L3.99907 442.839ZM3.99907 424.434L3.99907 422.387C19.2275 422.387 31.6133 434.772 31.6133 450L29.5727 450C29.5727 435.903 18.1006 424.434 3.99907 424.434Z" fill="#F3EFDE"/>
<path d="M4.00086 442.84L4.00086 440.793C9.07701 440.793 13.209 444.918 13.209 450.001L11.1684 450.001C11.1684 446.049 7.96026 442.84 4.01102 442.84L4.00086 442.84Z" fill="#F3EFDE"/>
<path d="M11.1578 360L13.1984 360C13.1984 362.832 13.3506 365.694 13.6451 368.525C14.3253 375.044 15.8075 381.461 18.0308 387.593C26.2237 410.134 43.8481 427.765 66.3963 435.954C72.5283 438.185 78.9445 439.662 85.4623 440.344C88.2948 440.639 91.1679 440.792 93.9902 440.792L93.9902 442.84C91.0968 442.84 88.1527 442.687 85.2491 442.381C78.5689 441.678 71.9902 440.161 65.6958 437.879C42.5791 429.476 24.508 411.407 16.1121 388.296C13.8278 382.001 12.3151 375.431 11.6146 368.739C11.31 365.836 11.1578 362.893 11.1578 360ZM29.5638 360L31.6045 360C31.6044 394.397 59.5943 422.387 93.9902 422.387L93.9902 424.434C58.4572 424.434 29.5537 395.527 29.5537 360L29.5638 360Z" fill="#F3EFDE"/>
<path d="M29.5635 360L31.6041 360C31.6041 394.397 59.5939 422.387 93.9898 422.387L93.9898 424.434C58.467 424.434 29.5533 395.527 29.5533 360L29.5635 360ZM47.9695 360L50.0102 360C50.0203 384.252 69.7462 403.981 94 403.981L94 406.029C68.6193 406.019 47.9797 385.372 47.9797 360L47.9695 360Z" fill="#F3EFDE"/>
<path d="M47.9797 360L50.0203 360C50.0203 384.252 69.7462 403.981 94 403.981L94 406.029C68.6193 406.019 47.9797 385.372 47.9797 360ZM66.3858 360L68.4264 360C68.4365 374.097 79.8985 385.566 94 385.566L94 387.613C78.7716 387.613 66.3858 375.227 66.3858 360Z" fill="#F3EFDE"/>
<path d="M66.3858 360L68.4264 360C68.4365 374.097 79.8985 385.566 94 385.566L94 387.613C78.7716 387.613 66.3858 375.227 66.3858 360ZM84.7919 360L86.8325 360C86.8426 363.952 90.0508 367.16 94 367.16L94 369.208C88.9239 369.208 84.7919 365.072 84.7919 360Z" fill="#F3EFDE"/>
<path d="M84.7919 360L86.8325 360C86.8426 363.952 90.0508 367.16 94 367.16L94 369.208C88.9239 369.208 84.7919 365.072 84.7919 360Z" fill="#F3EFDE"/>
</g>
<g clip-path="url(#clip18_1053_61292)">
<path d="M154.679 435.333L156.405 435.964C162.537 438.195 168.953 439.672 175.471 440.354L176.294 440.436L176.385 441.261C176.69 444.164 176.842 447.107 176.842 450L174.801 450C174.801 447.444 174.679 444.856 174.436 442.29C168.639 441.617 162.913 440.344 157.41 438.47C158.091 442.259 158.446 446.13 158.446 449.99L156.405 449.99C156.405 445.661 155.959 441.332 155.075 437.115L154.7 435.312L154.679 435.333Z" fill="#F3EFDE"/>
<path d="M93.9999 387.611L93.9999 385.564C97.8679 385.564 101.736 385.91 105.523 386.593C103.655 381.082 102.376 375.368 101.705 369.562C99.1369 369.318 96.5481 369.196 93.9999 369.196L93.9999 367.148C96.8933 367.148 99.8374 367.301 102.741 367.607L103.563 367.688L103.655 368.513C104.335 375.032 105.817 381.449 108.04 387.581L108.67 389.312L106.873 388.935C102.66 388.049 98.3247 387.601 93.9999 387.601L93.9999 387.611Z" fill="#F3EFDE"/>
<path d="M94.001 406.018L94.001 403.97C103.179 403.97 111.747 406.669 118.935 411.324C113.646 404.612 109.372 397.044 106.316 388.824C102.275 388.02 98.1329 387.602 94.001 387.602L94.001 385.555C98.468 385.555 102.935 386.013 107.29 386.93L107.849 387.042L108.042 387.582C116.234 410.122 133.859 427.754 156.407 435.943L156.945 436.136L157.057 436.697C157.97 441.046 158.437 445.517 158.437 449.989L156.397 449.989C156.397 445.853 155.991 441.708 155.179 437.674C146.965 434.629 139.392 430.351 132.681 425.065C137.331 432.256 140.031 440.812 140.031 449.999L137.991 449.999C137.991 425.747 118.265 406.018 94.0111 406.018L94.001 406.018Z" fill="#F3EFDE"/>
<path d="M93.9992 424.433L93.9992 422.386C109.228 422.386 121.613 434.772 121.613 449.999L119.573 449.999C119.573 435.902 108.101 424.433 93.9992 424.433ZM93.9992 406.028L93.9992 403.98C119.38 403.98 140.02 424.627 140.02 449.999L137.979 449.999C137.979 425.747 118.253 406.018 93.9992 406.018L93.9992 406.028Z" fill="#F3EFDE"/>
<path d="M93.9991 442.839L93.9991 440.792C99.0752 440.792 103.207 444.917 103.207 450L101.167 450C101.167 446.048 97.9585 442.839 94.0092 442.839L93.9991 442.839ZM93.9991 424.434L93.9991 422.387C109.227 422.387 121.613 434.772 121.613 450L119.573 450C119.573 435.903 108.101 424.434 93.9991 424.434Z" fill="#F3EFDE"/>
<path d="M94.0009 442.84L94.0009 440.793C99.077 440.793 103.209 444.918 103.209 450.001L101.168 450.001C101.168 446.049 97.9603 442.84 94.011 442.84L94.0009 442.84Z" fill="#F3EFDE"/>
<path d="M101.158 360L103.198 360C103.198 362.832 103.351 365.694 103.645 368.525C104.325 375.044 105.807 381.461 108.031 387.593C116.224 410.134 133.848 427.765 156.396 435.954C162.528 438.185 168.945 439.662 175.462 440.344C178.295 440.639 181.168 440.792 183.99 440.792L183.99 442.84C181.097 442.84 178.153 442.687 175.249 442.381C168.569 441.678 161.99 440.161 155.696 437.879C132.579 429.476 114.508 411.407 106.112 388.296C103.828 382.001 102.315 375.431 101.615 368.739C101.31 365.836 101.158 362.893 101.158 360ZM119.564 360L121.604 360C121.604 394.397 149.594 422.387 183.99 422.387L183.99 424.434C148.457 424.434 119.554 395.527 119.554 360L119.564 360Z" fill="#F3EFDE"/>
<path d="M119.563 360L121.604 360C121.604 394.397 149.594 422.387 183.99 422.387L183.99 424.434C148.467 424.434 119.553 395.527 119.553 360L119.563 360ZM137.97 360L140.01 360C140.02 384.252 159.746 403.981 184 403.981L184 406.029C158.619 406.019 137.98 385.372 137.98 360L137.97 360Z" fill="#F3EFDE"/>
<path d="M137.98 360L140.02 360C140.02 384.252 159.746 403.981 184 403.981L184 406.029C158.619 406.019 137.98 385.372 137.98 360ZM156.386 360L158.426 360C158.437 374.097 169.898 385.566 184 385.566L184 387.613C168.772 387.613 156.386 375.227 156.386 360Z" fill="#F3EFDE"/>
<path d="M156.386 360L158.426 360C158.437 374.097 169.898 385.566 184 385.566L184 387.613C168.772 387.613 156.386 375.227 156.386 360ZM174.792 360L176.832 360C176.843 363.952 180.051 367.16 184 367.16L184 369.208C178.924 369.208 174.792 365.072 174.792 360Z" fill="#F3EFDE"/>
<path d="M174.792 360L176.832 360C176.843 363.952 180.051 367.16 184 367.16L184 369.208C178.924 369.208 174.792 365.072 174.792 360Z" fill="#F3EFDE"/>
</g>
<g clip-path="url(#clip19_1053_61292)">
<path d="M244.679 435.333L246.405 435.964C252.537 438.195 258.953 439.672 265.471 440.354L266.294 440.436L266.385 441.261C266.69 444.164 266.842 447.107 266.842 450L264.801 450C264.801 447.444 264.679 444.856 264.436 442.29C258.639 441.617 252.913 440.344 247.41 438.47C248.091 442.259 248.446 446.13 248.446 449.99L246.405 449.99C246.405 445.661 245.959 441.332 245.075 437.115L244.7 435.312L244.679 435.333Z" fill="#F3EFDE"/>
<path d="M184 387.611L184 385.564C187.868 385.564 191.736 385.91 195.523 386.593C193.655 381.082 192.376 375.368 191.705 369.562C189.137 369.318 186.548 369.196 184 369.196L184 367.148C186.893 367.148 189.837 367.301 192.741 367.607L193.563 367.688L193.655 368.513C194.335 375.032 195.817 381.449 198.04 387.581L198.67 389.312L196.873 388.935C192.66 388.049 188.325 387.601 184 387.601L184 387.611Z" fill="#F3EFDE"/>
<path d="M184.001 406.018L184.001 403.97C193.179 403.97 201.747 406.669 208.935 411.324C203.646 404.612 199.372 397.044 196.316 388.824C192.275 388.02 188.133 387.602 184.001 387.602L184.001 385.555C188.468 385.555 192.935 386.013 197.29 386.93L197.849 387.042L198.042 387.582C206.234 410.122 223.859 427.754 246.407 435.943L246.945 436.136L247.057 436.697C247.97 441.046 248.437 445.517 248.437 449.989L246.397 449.989C246.397 445.853 245.991 441.708 245.179 437.674C236.965 434.629 229.392 430.351 222.681 425.065C227.331 432.256 230.031 440.812 230.031 449.999L227.991 449.999C227.991 425.747 208.265 406.018 184.011 406.018L184.001 406.018Z" fill="#F3EFDE"/>
<path d="M183.999 424.433L183.999 422.386C199.228 422.386 211.613 434.772 211.613 449.999L209.573 449.999C209.573 435.902 198.101 424.433 183.999 424.433ZM183.999 406.028L183.999 403.98C209.38 403.98 230.02 424.627 230.02 449.999L227.979 449.999C227.979 425.747 208.253 406.018 183.999 406.018L183.999 406.028Z" fill="#F3EFDE"/>
<path d="M183.999 442.839L183.999 440.792C189.075 440.792 193.207 444.917 193.207 450L191.167 450C191.167 446.048 187.958 442.839 184.009 442.839L183.999 442.839ZM183.999 424.434L183.999 422.387C199.227 422.387 211.613 434.772 211.613 450L209.573 450C209.573 435.903 198.101 424.434 183.999 424.434Z" fill="#F3EFDE"/>
<path d="M184.001 442.84L184.001 440.793C189.077 440.793 193.209 444.918 193.209 450.001L191.168 450.001C191.168 446.049 187.96 442.84 184.011 442.84L184.001 442.84Z" fill="#F3EFDE"/>
<path d="M191.158 360L193.198 360C193.198 362.832 193.351 365.694 193.645 368.525C194.325 375.044 195.807 381.461 198.031 387.593C206.224 410.134 223.848 427.765 246.396 435.954C252.528 438.185 258.945 439.662 265.462 440.344C268.295 440.639 271.168 440.792 273.99 440.792L273.99 442.84C271.097 442.84 268.153 442.687 265.249 442.381C258.569 441.678 251.99 440.161 245.696 437.879C222.579 429.476 204.508 411.407 196.112 388.296C193.828 382.001 192.315 375.431 191.615 368.739C191.31 365.836 191.158 362.893 191.158 360ZM209.564 360L211.604 360C211.604 394.397 239.594 422.387 273.99 422.387L273.99 424.434C238.457 424.434 209.554 395.527 209.554 360L209.564 360Z" fill="#F3EFDE"/>
<path d="M209.563 360L211.604 360C211.604 394.397 239.594 422.387 273.99 422.387L273.99 424.434C238.467 424.434 209.553 395.527 209.553 360L209.563 360ZM227.97 360L230.01 360C230.02 384.252 249.746 403.981 274 403.981L274 406.029C248.619 406.019 227.98 385.372 227.98 360L227.97 360Z" fill="#F3EFDE"/>
<path d="M227.98 360L230.02 360C230.02 384.252 249.746 403.981 274 403.981L274 406.029C248.619 406.019 227.98 385.372 227.98 360ZM246.386 360L248.426 360C248.437 374.097 259.898 385.566 274 385.566L274 387.613C258.772 387.613 246.386 375.227 246.386 360Z" fill="#F3EFDE"/>
<path d="M246.386 360L248.426 360C248.437 374.097 259.898 385.566 274 385.566L274 387.613C258.772 387.613 246.386 375.227 246.386 360ZM264.792 360L266.832 360C266.843 363.952 270.051 367.16 274 367.16L274 369.208C268.924 369.208 264.792 365.072 264.792 360Z" fill="#F3EFDE"/>
<path d="M264.792 360L266.832 360C266.843 363.952 270.051 367.16 274 367.16L274 369.208C268.924 369.208 264.792 365.072 264.792 360Z" fill="#F3EFDE"/>
</g>
<g clip-path="url(#clip20_1053_61292)">
<path d="M-78.8422 450L-76.8016 450C-76.8016 452.832 -76.6494 455.694 -76.3549 458.525C-75.6747 465.044 -74.1925 471.461 -71.9692 477.593C-63.7763 500.134 -46.1519 517.765 -23.6037 525.954C-17.4717 528.185 -11.0555 529.662 -4.53769 530.344C-1.7052 530.639 1.1679 530.792 3.99023 530.792L3.99023 532.84C1.09683 532.84 -1.84733 532.687 -4.75089 532.381C-11.4311 531.678 -18.0098 530.161 -24.3042 527.879C-47.4209 519.476 -65.492 501.407 -73.8879 478.296C-76.1722 472.001 -77.6849 465.431 -78.3854 458.739C-78.69 455.836 -78.8422 452.893 -78.8422 450ZM-60.4362 450L-58.3955 450C-58.3956 484.397 -30.4057 512.387 3.99023 512.387L3.99023 514.434C-31.5428 514.434 -60.4463 485.527 -60.4463 450L-60.4362 450Z" fill="#F3EFDE"/>
<path d="M-60.4365 450L-58.3959 450C-58.3959 484.397 -30.4061 512.387 3.98984 512.387L3.98984 514.434C-31.533 514.434 -60.4467 485.527 -60.4467 450L-60.4365 450ZM-42.0305 450L-39.9898 450C-39.9797 474.252 -20.2538 493.981 4 493.981L4 496.029C-21.3807 496.019 -42.0203 475.372 -42.0203 450L-42.0305 450Z" fill="#F3EFDE"/>
<path d="M-42.0203 450L-39.9797 450C-39.9797 474.252 -20.2538 493.981 4 493.981L4 496.029C-21.3807 496.019 -42.0203 475.372 -42.0203 450ZM-23.6142 450L-21.5736 450C-21.5635 464.097 -10.1015 475.566 4 475.566L4 477.613C-11.2284 477.613 -23.6142 465.227 -23.6142 450Z" fill="#F3EFDE"/>
<path d="M-23.6142 450L-21.5736 450C-21.5635 464.097 -10.1015 475.566 4 475.566L4 477.613C-11.2284 477.613 -23.6142 465.227 -23.6142 450ZM-5.20812 450L-3.16751 450C-3.15736 453.952 0.0507611 457.16 4 457.16L4 459.208C-1.07614 459.208 -5.20812 455.072 -5.20812 450Z" fill="#F3EFDE"/>
<path d="M-5.20812 450L-3.16751 450C-3.15736 453.952 0.0507616 457.16 4 457.16L4 459.208C-1.07614 459.208 -5.20812 455.072 -5.20812 450Z" fill="#F3EFDE"/>
</g>
<g clip-path="url(#clip21_1053_61292)">
<path d="M79.3329 479.319L79.9644 477.593C82.195 471.461 83.6719 465.045 84.3544 458.527L84.4359 457.704L85.2609 457.613C88.1638 457.309 91.1074 457.156 94.0001 457.156V459.197C91.4436 459.197 88.8564 459.319 86.2896 459.562C85.6174 465.359 84.3442 471.085 82.47 476.588C86.2591 475.908 90.1296 475.552 93.99 475.552V477.593C89.6611 477.593 85.3322 478.039 81.1153 478.923L79.3125 479.298L79.3329 479.319Z" fill="#F3EFDE"/>
<path d="M31.6133 539.998H29.566C29.566 536.13 29.9123 532.262 30.5947 528.475C25.0843 530.343 19.3702 531.623 13.5644 532.293C13.3199 534.861 13.1977 537.45 13.1977 539.998H11.1504C11.1504 537.105 11.3032 534.161 11.6087 531.257L11.6902 530.435L12.5153 530.343C19.034 529.663 25.451 528.181 31.5827 525.958L33.3143 525.328L32.9374 527.125C32.0513 531.338 31.6031 535.673 31.6031 539.998H31.6133Z" fill="#F3EFDE"/>
<path d="M50.0195 539.999H47.9722C47.9722 530.821 50.6714 522.253 55.3262 515.065C48.6139 520.354 41.046 524.628 32.8262 527.684C32.0216 531.725 31.6039 535.867 31.6039 539.999H29.5566C29.5566 535.532 30.015 531.065 30.9317 526.71L31.0437 526.151L31.5836 525.958C54.1243 517.766 71.7556 500.141 79.9448 477.593L80.1383 477.055L80.6986 476.943C85.0478 476.03 89.5193 475.562 93.9908 475.562V477.603C89.8554 477.603 85.7099 478.009 81.6764 478.821C78.6309 487.035 74.3529 494.608 69.0666 501.319C76.2576 496.669 84.8135 493.969 94.001 493.969V496.009C69.749 496.009 50.0195 515.735 50.0195 539.989V539.999Z" fill="#F3EFDE"/>
<path d="M68.4332 540.001H66.3859C66.3859 524.772 78.7716 512.387 93.999 512.387V514.427C79.9022 514.427 68.4332 525.899 68.4332 540.001ZM50.0278 540.001H47.9805C47.9805 514.62 68.6267 493.98 93.999 493.98V496.021C69.7471 496.021 50.0176 515.747 50.0176 540.001H50.0278Z" fill="#F3EFDE"/>
<path d="M86.8394 540.001H84.7921C84.7921 534.925 88.9173 530.793 93.9999 530.793V532.833C90.0479 532.833 86.8394 536.042 86.8394 539.991V540.001ZM68.434 540.001H66.3867C66.3867 524.773 78.7724 512.387 93.9999 512.387V514.427C79.903 514.427 68.434 525.899 68.434 540.001Z" fill="#F3EFDE"/>
<path d="M86.8403 540.001H84.793C84.793 534.925 88.9181 530.793 94.0008 530.793V532.834C90.0487 532.834 86.8403 536.042 86.8403 539.991V540.001Z" fill="#F3EFDE"/>
<path d="M4 532.844V530.804C6.8316 530.804 9.69375 530.651 12.5254 530.357C19.0441 529.677 25.4611 528.194 31.5928 525.971C54.1335 517.778 71.7648 500.154 79.954 477.606C82.1847 471.474 83.6616 465.057 84.344 458.54C84.6394 455.707 84.7922 452.834 84.7922 450.012H86.8395C86.8395 452.905 86.6867 455.849 86.3812 458.753C85.6784 465.433 84.1607 472.012 81.8791 478.306C73.476 501.423 55.4067 519.494 32.2956 527.89C26.0009 530.174 19.4312 531.687 12.7392 532.387C9.83635 532.692 6.89271 532.844 4 532.844ZM4 514.438V512.398C38.3968 512.398 66.3868 484.408 66.3868 450.012H68.4341C68.4341 485.545 39.5274 514.448 4 514.448V514.438Z" fill="#F3EFDE"/>
<path d="M4 514.437V512.396C38.3968 512.396 66.3868 484.406 66.3868 450.01H68.4341C68.4341 485.533 39.5274 514.447 4 514.447V514.437ZM4 496.03V493.99C28.2519 493.98 47.9814 474.254 47.9814 450H50.0287C50.0186 475.381 29.3723 496.02 4 496.02V496.03Z" fill="#F3EFDE"/>
<path d="M4 496.02V493.98C28.2519 493.98 47.9814 474.254 47.9814 450H50.0287C50.0186 475.381 29.3723 496.02 4 496.02ZM4 477.614V475.574C18.0969 475.563 29.5659 464.102 29.5659 450H31.6132C31.6132 465.228 19.2275 477.614 4 477.614Z" fill="#F3EFDE"/>
<path d="M4 477.614V475.574C18.0969 475.563 29.5659 464.102 29.5659 450H31.6132C31.6132 465.228 19.2275 477.614 4 477.614ZM4 459.208V457.168C7.95201 457.157 11.1605 453.949 11.1605 450H13.2078C13.2078 455.076 9.07243 459.208 4 459.208Z" fill="#F3EFDE"/>
<path d="M4 459.208V457.168C7.95201 457.157 11.1605 453.949 11.1605 450H13.2078C13.2078 455.076 9.07243 459.208 4 459.208Z" fill="#F3EFDE"/>
</g>
<g clip-path="url(#clip22_1053_61292)">
<path d="M169.333 479.319L169.964 477.593C172.195 471.461 173.672 465.045 174.354 458.527L174.436 457.704L175.261 457.613C178.164 457.309 181.107 457.156 184 457.156V459.197C181.444 459.197 178.856 459.319 176.29 459.562C175.617 465.359 174.344 471.085 172.47 476.588C176.259 475.908 180.13 475.552 183.99 475.552V477.593C179.661 477.593 175.332 478.039 171.115 478.923L169.312 479.298L169.333 479.319Z" fill="#F3EFDE"/>
<path d="M121.613 539.998H119.566C119.566 536.13 119.912 532.262 120.595 528.475C115.084 530.343 109.37 531.623 103.564 532.293C103.32 534.861 103.198 537.45 103.198 539.998H101.15C101.15 537.105 101.303 534.161 101.609 531.257L101.69 530.435L102.515 530.343C109.034 529.663 115.451 528.181 121.583 525.958L123.314 525.328L122.937 527.125C122.051 531.338 121.603 535.673 121.603 539.998H121.613Z" fill="#F3EFDE"/>
<path d="M140.02 539.999H137.972C137.972 530.821 140.671 522.253 145.326 515.065C138.614 520.354 131.046 524.628 122.826 527.684C122.022 531.725 121.604 535.867 121.604 539.999H119.557C119.557 535.532 120.015 531.065 120.932 526.71L121.044 526.151L121.584 525.958C144.124 517.766 161.756 500.141 169.945 477.593L170.138 477.055L170.699 476.943C175.048 476.03 179.519 475.562 183.991 475.562V477.603C179.855 477.603 175.71 478.009 171.676 478.821C168.631 487.035 164.353 494.608 159.067 501.319C166.258 496.669 174.814 493.969 184.001 493.969V496.009C159.749 496.009 140.02 515.735 140.02 539.989V539.999Z" fill="#F3EFDE"/>
<path d="M158.433 540.001H156.386C156.386 524.772 168.772 512.387 183.999 512.387V514.427C169.902 514.427 158.433 525.899 158.433 540.001ZM140.028 540.001H137.98C137.98 514.62 158.627 493.98 183.999 493.98V496.021C159.747 496.021 140.018 515.747 140.018 540.001H140.028Z" fill="#F3EFDE"/>
<path d="M176.839 540.001H174.792C174.792 534.925 178.917 530.793 184 530.793V532.833C180.048 532.833 176.839 536.042 176.839 539.991V540.001ZM158.434 540.001H156.387C156.387 524.773 168.772 512.387 184 512.387V514.427C169.903 514.427 158.434 525.899 158.434 540.001Z" fill="#F3EFDE"/>
<path d="M176.84 540.001H174.793C174.793 534.925 178.918 530.793 184.001 530.793V532.834C180.049 532.834 176.84 536.042 176.84 539.991V540.001Z" fill="#F3EFDE"/>
<path d="M94 532.844V530.804C96.8316 530.804 99.6938 530.651 102.525 530.357C109.044 529.677 115.461 528.194 121.593 525.971C144.134 517.778 161.765 500.154 169.954 477.606C172.185 471.474 173.662 465.057 174.344 458.54C174.639 455.707 174.792 452.834 174.792 450.012H176.84C176.84 452.905 176.687 455.849 176.381 458.753C175.678 465.433 174.161 472.012 171.879 478.306C163.476 501.423 145.407 519.494 122.296 527.89C116.001 530.174 109.431 531.687 102.739 532.387C99.8364 532.692 96.8927 532.844 94 532.844ZM94 514.438V512.398C128.397 512.398 156.387 484.408 156.387 450.012H158.434C158.434 485.545 129.527 514.448 94 514.448V514.438Z" fill="#F3EFDE"/>
<path d="M94 514.437V512.396C128.397 512.396 156.387 484.406 156.387 450.01H158.434C158.434 485.533 129.527 514.447 94 514.447V514.437ZM94 496.03V493.99C118.252 493.98 137.981 474.254 137.981 450H140.029C140.019 475.381 119.372 496.02 94 496.02V496.03Z" fill="#F3EFDE"/>
<path d="M94 496.02V493.98C118.252 493.98 137.981 474.254 137.981 450H140.029C140.019 475.381 119.372 496.02 94 496.02ZM94 477.614V475.574C108.097 475.563 119.566 464.102 119.566 450H121.613C121.613 465.228 109.227 477.614 94 477.614Z" fill="#F3EFDE"/>
<path d="M94 477.614V475.574C108.097 475.563 119.566 464.102 119.566 450H121.613C121.613 465.228 109.227 477.614 94 477.614ZM94 459.208V457.168C97.952 457.157 101.16 453.949 101.16 450H103.208C103.208 455.076 99.0724 459.208 94 459.208Z" fill="#F3EFDE"/>
<path d="M94 459.208V457.168C97.952 457.157 101.16 453.949 101.16 450H103.208C103.208 455.076 99.0724 459.208 94 459.208Z" fill="#F3EFDE"/>
</g>
<g clip-path="url(#clip23_1053_61292)">
<path d="M259.333 479.319L259.964 477.593C262.195 471.461 263.672 465.045 264.354 458.527L264.436 457.704L265.261 457.613C268.164 457.309 271.107 457.156 274 457.156V459.197C271.444 459.197 268.856 459.319 266.29 459.562C265.617 465.359 264.344 471.085 262.47 476.588C266.259 475.908 270.13 475.552 273.99 475.552V477.593C269.661 477.593 265.332 478.039 261.115 478.923L259.312 479.298L259.333 479.319Z" fill="#F3EFDE"/>
<path d="M211.613 539.998H209.566C209.566 536.13 209.912 532.262 210.595 528.475C205.084 530.343 199.37 531.623 193.564 532.293C193.32 534.861 193.198 537.45 193.198 539.998H191.15C191.15 537.105 191.303 534.161 191.609 531.257L191.69 530.435L192.515 530.343C199.034 529.663 205.451 528.181 211.583 525.958L213.314 525.328L212.937 527.125C212.051 531.338 211.603 535.673 211.603 539.998H211.613Z" fill="#F3EFDE"/>
<path d="M230.02 539.999H227.972C227.972 530.821 230.671 522.253 235.326 515.065C228.614 520.354 221.046 524.628 212.826 527.684C212.022 531.725 211.604 535.867 211.604 539.999H209.557C209.557 535.532 210.015 531.065 210.932 526.71L211.044 526.151L211.584 525.958C234.124 517.766 251.756 500.141 259.945 477.593L260.138 477.055L260.699 476.943C265.048 476.03 269.519 475.562 273.991 475.562V477.603C269.855 477.603 265.71 478.009 261.676 478.821C258.631 487.035 254.353 494.608 249.067 501.319C256.258 496.669 264.814 493.969 274.001 493.969V496.009C249.749 496.009 230.02 515.735 230.02 539.989V539.999Z" fill="#F3EFDE"/>
<path d="M248.433 540.001H246.386C246.386 524.772 258.772 512.387 273.999 512.387V514.427C259.902 514.427 248.433 525.899 248.433 540.001ZM230.028 540.001H227.98C227.98 514.62 248.627 493.98 273.999 493.98V496.021C249.747 496.021 230.018 515.747 230.018 540.001H230.028Z" fill="#F3EFDE"/>
<path d="M266.839 540.001H264.792C264.792 534.925 268.917 530.793 274 530.793V532.833C270.048 532.833 266.839 536.042 266.839 539.991V540.001ZM248.434 540.001H246.387C246.387 524.773 258.772 512.387 274 512.387V514.427C259.903 514.427 248.434 525.899 248.434 540.001Z" fill="#F3EFDE"/>
<path d="M266.84 540.001H264.793C264.793 534.925 268.918 530.793 274.001 530.793V532.834C270.049 532.834 266.84 536.042 266.84 539.991V540.001Z" fill="#F3EFDE"/>
<path d="M184 532.844V530.804C186.832 530.804 189.694 530.651 192.525 530.357C199.044 529.677 205.461 528.194 211.593 525.971C234.134 517.778 251.765 500.154 259.954 477.606C262.185 471.474 263.662 465.057 264.344 458.54C264.639 455.707 264.792 452.834 264.792 450.012H266.84C266.84 452.905 266.687 455.849 266.381 458.753C265.678 465.433 264.161 472.012 261.879 478.306C253.476 501.423 235.407 519.494 212.296 527.89C206.001 530.174 199.431 531.687 192.739 532.387C189.836 532.692 186.893 532.844 184 532.844ZM184 514.438V512.398C218.397 512.398 246.387 484.408 246.387 450.012H248.434C248.434 485.545 219.527 514.448 184 514.448V514.438Z" fill="#F3EFDE"/>
<path d="M184 514.437V512.396C218.397 512.396 246.387 484.406 246.387 450.01H248.434C248.434 485.533 219.527 514.447 184 514.447V514.437ZM184 496.03V493.99C208.252 493.98 227.981 474.254 227.981 450H230.029C230.019 475.381 209.372 496.02 184 496.02V496.03Z" fill="#F3EFDE"/>
<path d="M184 496.02V493.98C208.252 493.98 227.981 474.254 227.981 450H230.029C230.019 475.381 209.372 496.02 184 496.02ZM184 477.614V475.574C198.097 475.563 209.566 464.102 209.566 450H211.613C211.613 465.228 199.227 477.614 184 477.614Z" fill="#F3EFDE"/>
<path d="M184 477.614V475.574C198.097 475.563 209.566 464.102 209.566 450H211.613C211.613 465.228 199.227 477.614 184 477.614ZM184 459.208V457.168C187.952 457.157 191.16 453.949 191.16 450H193.208C193.208 455.076 189.072 459.208 184 459.208Z" fill="#F3EFDE"/>
<path d="M184 459.208V457.168C187.952 457.157 191.16 453.949 191.16 450H193.208C193.208 455.076 189.072 459.208 184 459.208Z" fill="#F3EFDE"/>
</g>
<g clip-path="url(#clip24_1053_61292)">
<path d="M-78.8422 540L-76.8016 540C-76.8016 542.832 -76.6494 545.694 -76.3549 548.525C-75.6747 555.044 -74.1925 561.461 -71.9692 567.593C-63.7763 590.134 -46.1519 607.765 -23.6037 615.954C-17.4717 618.185 -11.0555 619.662 -4.53769 620.344C-1.7052 620.639 1.1679 620.792 3.99023 620.792L3.99023 622.84C1.09683 622.84 -1.84733 622.687 -4.75089 622.381C-11.4311 621.678 -18.0098 620.161 -24.3042 617.879C-47.4209 609.476 -65.492 591.407 -73.8879 568.296C-76.1722 562.001 -77.6849 555.431 -78.3854 548.739C-78.69 545.836 -78.8422 542.893 -78.8422 540ZM-60.4362 540L-58.3955 540C-58.3956 574.397 -30.4057 602.387 3.99023 602.387L3.99023 604.434C-31.5428 604.434 -60.4463 575.527 -60.4463 540L-60.4362 540Z" fill="#F3EFDE"/>
<path d="M-60.4365 540L-58.3959 540C-58.3959 574.397 -30.4061 602.387 3.98984 602.387L3.98984 604.434C-31.533 604.434 -60.4467 575.527 -60.4467 540L-60.4365 540ZM-42.0305 540L-39.9898 540C-39.9797 564.252 -20.2538 583.981 4 583.981L4 586.029C-21.3807 586.019 -42.0203 565.372 -42.0203 540L-42.0305 540Z" fill="#F3EFDE"/>
<path d="M-42.0203 540L-39.9797 540C-39.9797 564.252 -20.2538 583.981 4 583.981L4 586.029C-21.3807 586.019 -42.0203 565.372 -42.0203 540ZM-23.6142 540L-21.5736 540C-21.5635 554.097 -10.1015 565.566 4 565.566L4 567.613C-11.2284 567.613 -23.6142 555.227 -23.6142 540Z" fill="#F3EFDE"/>
<path d="M-23.6142 540L-21.5736 540C-21.5635 554.097 -10.1015 565.566 4 565.566L4 567.613C-11.2284 567.613 -23.6142 555.227 -23.6142 540ZM-5.20812 540L-3.16751 540C-3.15736 543.952 0.0507611 547.16 4 547.16L4 549.208C-1.07614 549.208 -5.20812 545.072 -5.20812 540Z" fill="#F3EFDE"/>
<path d="M-5.20812 540L-3.16751 540C-3.15736 543.952 0.0507616 547.16 4 547.16L4 549.208C-1.07614 549.208 -5.20812 545.072 -5.20812 540Z" fill="#F3EFDE"/>
</g>
<g clip-path="url(#clip25_1053_61292)">
<path d="M79.3329 569.319L79.9644 567.593C82.195 561.461 83.6719 555.045 84.3544 548.527L84.4359 547.704L85.2609 547.613C88.1638 547.309 91.1074 547.156 94.0001 547.156V549.197C91.4436 549.197 88.8564 549.319 86.2896 549.562C85.6174 555.359 84.3442 561.085 82.47 566.588C86.2591 565.908 90.1296 565.552 93.99 565.552V567.593C89.6611 567.593 85.3322 568.039 81.1153 568.923L79.3125 569.298L79.3329 569.319Z" fill="#F3EFDE"/>
<path d="M31.6133 629.998H29.566C29.566 626.13 29.9123 622.262 30.5947 618.475C25.0843 620.343 19.3702 621.623 13.5644 622.293C13.3199 624.861 13.1977 627.45 13.1977 629.998H11.1504C11.1504 627.105 11.3032 624.161 11.6087 621.257L11.6902 620.435L12.5153 620.343C19.034 619.663 25.451 618.181 31.5827 615.958L33.3143 615.328L32.9374 617.125C32.0513 621.338 31.6031 625.673 31.6031 629.998H31.6133Z" fill="#F3EFDE"/>
<path d="M50.0195 629.999H47.9722C47.9722 620.821 50.6714 612.253 55.3262 605.065C48.6139 610.354 41.046 614.628 32.8262 617.684C32.0216 621.725 31.6039 625.867 31.6039 629.999H29.5566C29.5566 625.532 30.015 621.065 30.9317 616.71L31.0437 616.151L31.5836 615.958C54.1243 607.766 71.7556 590.141 79.9448 567.593L80.1383 567.055L80.6986 566.943C85.0478 566.03 89.5193 565.562 93.9908 565.562V567.603C89.8554 567.603 85.7099 568.009 81.6764 568.821C78.6309 577.035 74.3529 584.608 69.0666 591.319C76.2576 586.669 84.8135 583.969 94.001 583.969V586.009C69.749 586.009 50.0195 605.735 50.0195 629.989V629.999Z" fill="#F3EFDE"/>
<path d="M68.4332 630.001H66.3859C66.3859 614.772 78.7716 602.387 93.999 602.387V604.427C79.9022 604.427 68.4332 615.899 68.4332 630.001ZM50.0278 630.001H47.9805C47.9805 604.62 68.6267 583.98 93.999 583.98V586.021C69.7471 586.021 50.0176 605.747 50.0176 630.001H50.0278Z" fill="#F3EFDE"/>
<path d="M86.8394 630.001H84.7921C84.7921 624.925 88.9173 620.793 93.9999 620.793V622.833C90.0479 622.833 86.8394 626.042 86.8394 629.991V630.001ZM68.434 630.001H66.3867C66.3867 614.773 78.7724 602.387 93.9999 602.387V604.427C79.903 604.427 68.434 615.899 68.434 630.001Z" fill="#F3EFDE"/>
<path d="M86.8403 630.001H84.793C84.793 624.925 88.9181 620.793 94.0008 620.793V622.834C90.0487 622.834 86.8403 626.042 86.8403 629.991V630.001Z" fill="#F3EFDE"/>
<path d="M4 622.844V620.804C6.8316 620.804 9.69375 620.651 12.5254 620.357C19.0441 619.677 25.4611 618.194 31.5928 615.971C54.1335 607.778 71.7648 590.154 79.954 567.606C82.1847 561.474 83.6616 555.057 84.344 548.54C84.6394 545.707 84.7922 542.834 84.7922 540.012H86.8395C86.8395 542.905 86.6867 545.849 86.3812 548.753C85.6784 555.433 84.1607 562.012 81.8791 568.306C73.476 591.423 55.4067 609.494 32.2956 617.89C26.0009 620.174 19.4312 621.687 12.7392 622.387C9.83635 622.692 6.89271 622.844 4 622.844ZM4 604.438L4 602.398C38.3968 602.398 66.3868 574.408 66.3868 540.012H68.4341C68.4341 575.545 39.5274 604.448 4 604.448V604.438Z" fill="#F3EFDE"/>
<path d="M4 604.437L4 602.396C38.3968 602.396 66.3868 574.406 66.3868 540.01H68.4341C68.4341 575.533 39.5274 604.447 4 604.447V604.437ZM4 586.03V583.99C28.2519 583.98 47.9814 564.254 47.9814 540H50.0287C50.0186 565.381 29.3723 586.02 4 586.02V586.03Z" fill="#F3EFDE"/>
<path d="M4 586.02V583.98C28.2519 583.98 47.9814 564.254 47.9814 540H50.0287C50.0186 565.381 29.3723 586.02 4 586.02ZM4 567.614V565.574C18.0969 565.563 29.5659 554.102 29.5659 540H31.6132C31.6132 555.228 19.2275 567.614 4 567.614Z" fill="#F3EFDE"/>
<path d="M4 567.614V565.574C18.0969 565.563 29.5659 554.102 29.5659 540H31.6132C31.6132 555.228 19.2275 567.614 4 567.614ZM4 549.208L4 547.168C7.95201 547.157 11.1605 543.949 11.1605 540H13.2078C13.2078 545.076 9.07243 549.208 4 549.208Z" fill="#F3EFDE"/>
<path d="M4 549.208L4 547.168C7.95201 547.157 11.1605 543.949 11.1605 540H13.2078C13.2078 545.076 9.07243 549.208 4 549.208Z" fill="#F3EFDE"/>
</g>
<g clip-path="url(#clip26_1053_61292)">
<path d="M154.679 615.333L156.405 615.964C162.537 618.195 168.953 619.672 175.471 620.354L176.294 620.436L176.385 621.261C176.69 624.164 176.842 627.107 176.842 630L174.801 630C174.801 627.444 174.679 624.856 174.436 622.29C168.639 621.617 162.913 620.344 157.41 618.47C158.091 622.259 158.446 626.13 158.446 629.99L156.405 629.99C156.405 625.661 155.959 621.332 155.075 617.115L154.7 615.312L154.679 615.333Z" fill="#F3EFDE"/>
<path d="M93.9999 567.611L93.9999 565.564C97.8679 565.564 101.736 565.91 105.523 566.593C103.655 561.082 102.376 555.368 101.705 549.562C99.1369 549.318 96.5481 549.196 93.9999 549.196L93.9999 547.148C96.8933 547.148 99.8374 547.301 102.741 547.607L103.563 547.688L103.655 548.513C104.335 555.032 105.817 561.449 108.04 567.581L108.67 569.312L106.873 568.935C102.66 568.049 98.3247 567.601 93.9999 567.601L93.9999 567.611Z" fill="#F3EFDE"/>
<path d="M94.001 586.018L94.001 583.97C103.179 583.97 111.747 586.669 118.935 591.324C113.646 584.612 109.372 577.044 106.316 568.824C102.275 568.02 98.1329 567.602 94.001 567.602L94.001 565.555C98.468 565.555 102.935 566.013 107.29 566.93L107.849 567.042L108.042 567.582C116.234 590.122 133.859 607.754 156.407 615.943L156.945 616.136L157.057 616.697C157.97 621.046 158.437 625.517 158.437 629.989L156.397 629.989C156.397 625.853 155.991 621.708 155.179 617.674C146.965 614.629 139.392 610.351 132.681 605.065C137.331 612.256 140.031 620.812 140.031 629.999L137.991 629.999C137.991 605.747 118.265 586.018 94.0111 586.018L94.001 586.018Z" fill="#F3EFDE"/>
<path d="M93.9992 604.433L93.9992 602.386C109.228 602.386 121.613 614.772 121.613 629.999L119.573 629.999C119.573 615.902 108.101 604.433 93.9992 604.433ZM93.9992 586.028L93.9992 583.98C119.38 583.98 140.02 604.627 140.02 629.999L137.979 629.999C137.979 605.747 118.253 586.018 93.9992 586.018L93.9992 586.028Z" fill="#F3EFDE"/>
<path d="M93.9991 622.839L93.9991 620.792C99.0752 620.792 103.207 624.917 103.207 630L101.167 630C101.167 626.048 97.9585 622.839 94.0092 622.839L93.9991 622.839ZM93.9991 604.434L93.9991 602.387C109.227 602.387 121.613 614.772 121.613 630L119.573 630C119.573 615.903 108.101 604.434 93.9991 604.434Z" fill="#F3EFDE"/>
<path d="M94.0009 622.84L94.0009 620.793C99.077 620.793 103.209 624.918 103.209 630.001L101.168 630.001C101.168 626.049 97.9603 622.84 94.011 622.84L94.0009 622.84Z" fill="#F3EFDE"/>
<path d="M101.158 540L103.198 540C103.198 542.832 103.351 545.694 103.645 548.525C104.325 555.044 105.807 561.461 108.031 567.593C116.224 590.134 133.848 607.765 156.396 615.954C162.528 618.185 168.945 619.662 175.462 620.344C178.295 620.639 181.168 620.792 183.99 620.792L183.99 622.84C181.097 622.84 178.153 622.687 175.249 622.381C168.569 621.678 161.99 620.161 155.696 617.879C132.579 609.476 114.508 591.407 106.112 568.296C103.828 562.001 102.315 555.431 101.615 548.739C101.31 545.836 101.158 542.893 101.158 540ZM119.564 540L121.604 540C121.604 574.397 149.594 602.387 183.99 602.387L183.99 604.434C148.457 604.434 119.554 575.527 119.554 540L119.564 540Z" fill="#F3EFDE"/>
<path d="M119.563 540L121.604 540C121.604 574.397 149.594 602.387 183.99 602.387L183.99 604.434C148.467 604.434 119.553 575.527 119.553 540L119.563 540ZM137.97 540L140.01 540C140.02 564.252 159.746 583.981 184 583.981L184 586.029C158.619 586.019 137.98 565.372 137.98 540L137.97 540Z" fill="#F3EFDE"/>
<path d="M137.98 540L140.02 540C140.02 564.252 159.746 583.981 184 583.981L184 586.029C158.619 586.019 137.98 565.372 137.98 540ZM156.386 540L158.426 540C158.437 554.097 169.898 565.566 184 565.566L184 567.613C168.772 567.613 156.386 555.227 156.386 540Z" fill="#F3EFDE"/>
<path d="M156.386 540L158.426 540C158.437 554.097 169.898 565.566 184 565.566L184 567.613C168.772 567.613 156.386 555.227 156.386 540ZM174.792 540L176.832 540C176.843 543.952 180.051 547.16 184 547.16L184 549.208C178.924 549.208 174.792 545.072 174.792 540Z" fill="#F3EFDE"/>
<path d="M174.792 540L176.832 540C176.843 543.952 180.051 547.16 184 547.16L184 549.208C178.924 549.208 174.792 545.072 174.792 540Z" fill="#F3EFDE"/>
</g>
<g clip-path="url(#clip27_1053_61292)">
<path d="M244.679 615.333L246.405 615.964C252.537 618.195 258.953 619.672 265.471 620.354L266.294 620.436L266.385 621.261C266.69 624.164 266.842 627.107 266.842 630L264.801 630C264.801 627.444 264.679 624.856 264.436 622.29C258.639 621.617 252.913 620.344 247.41 618.47C248.091 622.259 248.446 626.13 248.446 629.99L246.405 629.99C246.405 625.661 245.959 621.332 245.075 617.115L244.7 615.312L244.679 615.333Z" fill="#F3EFDE"/>
<path d="M184 567.611L184 565.564C187.868 565.564 191.736 565.91 195.523 566.593C193.655 561.082 192.376 555.368 191.705 549.562C189.137 549.318 186.548 549.196 184 549.196L184 547.148C186.893 547.148 189.837 547.301 192.741 547.607L193.563 547.688L193.655 548.513C194.335 555.032 195.817 561.449 198.04 567.581L198.67 569.312L196.873 568.935C192.66 568.049 188.325 567.601 184 567.601L184 567.611Z" fill="#F3EFDE"/>
<path d="M184.001 586.018L184.001 583.97C193.179 583.97 201.747 586.669 208.935 591.324C203.646 584.612 199.372 577.044 196.316 568.824C192.275 568.02 188.133 567.602 184.001 567.602L184.001 565.555C188.468 565.555 192.935 566.013 197.29 566.93L197.849 567.042L198.042 567.582C206.234 590.122 223.859 607.754 246.407 615.943L246.945 616.136L247.057 616.697C247.97 621.046 248.437 625.517 248.437 629.989L246.397 629.989C246.397 625.853 245.991 621.708 245.179 617.674C236.965 614.629 229.392 610.351 222.681 605.065C227.331 612.256 230.031 620.812 230.031 629.999L227.991 629.999C227.991 605.747 208.265 586.018 184.011 586.018L184.001 586.018Z" fill="#F3EFDE"/>
<path d="M183.999 604.433L183.999 602.386C199.228 602.386 211.613 614.772 211.613 629.999L209.573 629.999C209.573 615.902 198.101 604.433 183.999 604.433ZM183.999 586.028L183.999 583.98C209.38 583.98 230.02 604.627 230.02 629.999L227.979 629.999C227.979 605.747 208.253 586.018 183.999 586.018L183.999 586.028Z" fill="#F3EFDE"/>
<path d="M183.999 622.839L183.999 620.792C189.075 620.792 193.207 624.917 193.207 630L191.167 630C191.167 626.048 187.958 622.839 184.009 622.839L183.999 622.839ZM183.999 604.434L183.999 602.387C199.227 602.387 211.613 614.772 211.613 630L209.573 630C209.573 615.903 198.101 604.434 183.999 604.434Z" fill="#F3EFDE"/>
<path d="M184.001 622.84L184.001 620.793C189.077 620.793 193.209 624.918 193.209 630.001L191.168 630.001C191.168 626.049 187.96 622.84 184.011 622.84L184.001 622.84Z" fill="#F3EFDE"/>
<path d="M191.158 540L193.198 540C193.198 542.832 193.351 545.694 193.645 548.525C194.325 555.044 195.807 561.461 198.031 567.593C206.224 590.134 223.848 607.765 246.396 615.954C252.528 618.185 258.945 619.662 265.462 620.344C268.295 620.639 271.168 620.792 273.99 620.792L273.99 622.84C271.097 622.84 268.153 622.687 265.249 622.381C258.569 621.678 251.99 620.161 245.696 617.879C222.579 609.476 204.508 591.407 196.112 568.296C193.828 562.001 192.315 555.431 191.615 548.739C191.31 545.836 191.158 542.893 191.158 540ZM209.564 540L211.604 540C211.604 574.397 239.594 602.387 273.99 602.387L273.99 604.434C238.457 604.434 209.554 575.527 209.554 540L209.564 540Z" fill="#F3EFDE"/>
<path d="M209.563 540L211.604 540C211.604 574.397 239.594 602.387 273.99 602.387L273.99 604.434C238.467 604.434 209.553 575.527 209.553 540L209.563 540ZM227.97 540L230.01 540C230.02 564.252 249.746 583.981 274 583.981L274 586.029C248.619 586.019 227.98 565.372 227.98 540L227.97 540Z" fill="#F3EFDE"/>
<path d="M227.98 540L230.02 540C230.02 564.252 249.746 583.981 274 583.981L274 586.029C248.619 586.019 227.98 565.372 227.98 540ZM246.386 540L248.426 540C248.437 554.097 259.898 565.566 274 565.566L274 567.613C258.772 567.613 246.386 555.227 246.386 540Z" fill="#F3EFDE"/>
<path d="M246.386 540L248.426 540C248.437 554.097 259.898 565.566 274 565.566L274 567.613C258.772 567.613 246.386 555.227 246.386 540ZM264.792 540L266.832 540C266.843 543.952 270.051 547.16 274 547.16L274 549.208C268.924 549.208 264.792 545.072 264.792 540Z" fill="#F3EFDE"/>
<path d="M264.792 540L266.832 540C266.843 543.952 270.051 547.16 274 547.16L274 549.208C268.924 549.208 264.792 545.072 264.792 540Z" fill="#F3EFDE"/>
</g>
<defs>
<clipPath id="clip0_1053_61292">
<rect width="90" height="90" fill="white" transform="translate(-86)"/>
</clipPath>
<clipPath id="clip1_1053_61292">
<rect width="90" height="90" fill="white" transform="translate(4)"/>
</clipPath>
<clipPath id="clip2_1053_61292">
<rect width="90" height="90" fill="white" transform="translate(94)"/>
</clipPath>
<clipPath id="clip3_1053_61292">
<rect width="90" height="90" fill="white" transform="translate(184)"/>
</clipPath>
<clipPath id="clip4_1053_61292">
<rect width="90" height="90" fill="white" transform="translate(-86 90)"/>
</clipPath>
<clipPath id="clip5_1053_61292">
<rect width="90" height="90" fill="white" transform="translate(4 90)"/>
</clipPath>
<clipPath id="clip6_1053_61292">
<rect width="90" height="90" fill="white" transform="translate(94 90)"/>
</clipPath>
<clipPath id="clip7_1053_61292">
<rect width="90" height="90" fill="white" transform="translate(184 90)"/>
</clipPath>
<clipPath id="clip8_1053_61292">
<rect width="90" height="90" fill="white" transform="translate(-86 180)"/>
</clipPath>
<clipPath id="clip9_1053_61292">
<rect width="90" height="90" fill="white" transform="translate(4 180)"/>
</clipPath>
<clipPath id="clip10_1053_61292">
<rect width="90" height="90" fill="white" transform="translate(94 180)"/>
</clipPath>
<clipPath id="clip11_1053_61292">
<rect width="90" height="90" fill="white" transform="translate(184 180)"/>
</clipPath>
<clipPath id="clip12_1053_61292">
<rect width="90" height="90" fill="white" transform="translate(-86 270)"/>
</clipPath>
<clipPath id="clip13_1053_61292">
<rect width="90" height="90" fill="white" transform="translate(94 270) rotate(90)"/>
</clipPath>
<clipPath id="clip14_1053_61292">
<rect width="90" height="90" fill="white" transform="translate(184 270) rotate(90)"/>
</clipPath>
<clipPath id="clip15_1053_61292">
<rect width="90" height="90" fill="white" transform="translate(274 270) rotate(90)"/>
</clipPath>
<clipPath id="clip16_1053_61292">
<rect width="90" height="90" fill="white" transform="translate(4 360) rotate(90)"/>
</clipPath>
<clipPath id="clip17_1053_61292">
<rect width="90" height="90" fill="white" transform="translate(94 360) rotate(90)"/>
</clipPath>
<clipPath id="clip18_1053_61292">
<rect width="90" height="90" fill="white" transform="translate(184 360) rotate(90)"/>
</clipPath>
<clipPath id="clip19_1053_61292">
<rect width="90" height="90" fill="white" transform="translate(274 360) rotate(90)"/>
</clipPath>
<clipPath id="clip20_1053_61292">
<rect width="90" height="90" fill="white" transform="translate(4 450) rotate(90)"/>
</clipPath>
<clipPath id="clip21_1053_61292">
<rect width="90" height="90" fill="white" transform="translate(4 450)"/>
</clipPath>
<clipPath id="clip22_1053_61292">
<rect width="90" height="90" fill="white" transform="translate(94 450)"/>
</clipPath>
<clipPath id="clip23_1053_61292">
<rect width="90" height="90" fill="white" transform="translate(184 450)"/>
</clipPath>
<clipPath id="clip24_1053_61292">
<rect width="90" height="90" fill="white" transform="translate(4 540) rotate(90)"/>
</clipPath>
<clipPath id="clip25_1053_61292">
<rect width="90" height="90" fill="white" transform="translate(4 540)"/>
</clipPath>
<clipPath id="clip26_1053_61292">
<rect width="90" height="90" fill="white" transform="translate(184 540) rotate(90)"/>
</clipPath>
<clipPath id="clip27_1053_61292">
<rect width="90" height="90" fill="white" transform="translate(274 540) rotate(90)"/>
</clipPath>
</defs>
</svg>
