<svg width="140" height="376" viewBox="0 0 140 376" fill="none" xmlns="http://www.w3.org/2000/svg">
<g clip-path="url(#clip0_2001_68582)">
<path d="M117.196 294.59L118.539 295.081C123.308 296.816 128.298 297.965 133.368 298.496L134.007 298.559L134.078 299.201C134.315 301.459 134.434 303.748 134.434 305.998L132.846 305.998C132.846 304.009 132.752 301.997 132.562 300.001C128.053 299.478 123.6 298.488 119.32 297.03C119.849 299.977 120.126 302.988 120.126 305.99L118.539 305.99C118.539 302.623 118.191 299.256 117.504 295.976L117.212 294.574L117.196 294.59Z" fill="#BFBFBF"/>
<path d="M70.0001 257.474L70.0001 255.882C73.0086 255.882 76.017 256.151 78.9623 256.682C77.5094 252.396 76.5145 247.952 75.9933 243.436C73.9956 243.246 71.9821 243.151 70.0001 243.151L70.0001 241.559C72.2505 241.559 74.5404 241.677 76.7988 241.915L77.4384 241.978L77.5094 242.62C78.0385 247.69 79.1913 252.681 80.9206 257.45L81.4102 258.797L80.0125 258.504C76.7356 257.815 73.3639 257.466 70.0001 257.466L70.0001 257.474Z" fill="#BFBFBF"/>
<path d="M70.0008 271.791L70.0009 270.198C77.139 270.198 83.8034 272.298 89.394 275.918C85.28 270.697 81.9557 264.811 79.579 258.418C76.4363 257.792 73.2146 257.467 70.0009 257.467L70.0009 255.875C73.4752 255.875 76.9495 256.231 80.337 256.944L80.7713 257.032L80.9213 257.452C87.2936 274.983 101.001 288.696 118.539 295.066L118.957 295.216L119.044 295.652C119.755 299.035 120.118 302.513 120.118 305.99L118.531 305.99C118.531 302.774 118.215 299.55 117.583 296.413C111.195 294.044 105.305 290.717 100.085 286.605C103.702 292.198 105.802 298.853 105.802 305.998L104.215 305.998C104.215 287.136 88.8728 271.791 70.0087 271.791L70.0008 271.791Z" fill="#BFBFBF"/>
<path d="M70.0004 286.115L70.0004 284.522C81.8447 284.522 91.4781 294.156 91.4781 305.999L89.891 305.999C89.891 295.035 80.9682 286.115 70.0004 286.115ZM70.0004 271.799L70.0004 270.207C89.7409 270.207 105.794 286.265 105.794 305.999L104.207 305.999C104.207 287.137 88.8644 271.791 70.0004 271.791L70.0004 271.799Z" fill="#BFBFBF"/>
<path d="M69.9998 300.431L69.9998 298.839C73.9479 298.839 77.1617 302.047 77.1617 306L75.5746 306C75.5746 302.927 73.0793 300.431 70.0077 300.431L69.9998 300.431ZM69.9998 286.116L69.9998 284.523C81.8441 284.523 91.4775 294.157 91.4775 306L89.8904 306C89.8904 295.036 80.9677 286.116 69.9998 286.116Z" fill="#BFBFBF"/>
<path d="M69.9993 300.432L69.9993 298.84C73.9474 298.84 77.1611 302.048 77.1611 306.001L75.574 306.001C75.574 302.928 73.0788 300.432 70.0072 300.432L69.9993 300.432Z" fill="#BFBFBF"/>
<path d="M75.5669 236L77.1541 236C77.1541 238.202 77.2725 240.428 77.5015 242.631C78.0305 247.701 79.1834 252.692 80.9127 257.461C87.2849 274.993 100.993 288.706 118.53 295.075C123.3 296.81 128.29 297.959 133.359 298.49C135.562 298.72 137.797 298.838 139.992 298.838L139.992 300.431C137.742 300.431 135.452 300.312 133.194 300.074C127.998 299.528 122.881 298.347 117.985 296.573C100.006 290.037 85.9505 275.983 79.4203 258.008C77.6436 253.112 76.4671 248.002 75.9223 242.797C75.6854 240.539 75.5669 238.25 75.5669 236ZM89.8828 236L91.4699 236C91.4699 262.753 113.24 284.523 139.992 284.523L139.992 286.115C112.355 286.115 89.8749 263.632 89.8749 236L89.8828 236Z" fill="#BFBFBF"/>
<path d="M89.8827 236L91.4698 236C91.4698 262.753 113.24 284.523 139.992 284.523L139.992 286.115C112.363 286.115 89.8748 263.632 89.8748 236L89.8827 236ZM104.199 236L105.786 236C105.794 254.863 121.136 270.208 140 270.208L140 271.8C120.259 271.792 104.206 255.734 104.206 236L104.199 236Z" fill="#BFBFBF"/>
<path d="M104.206 236L105.794 236C105.794 254.863 121.136 270.208 140 270.208L140 271.8C120.259 271.792 104.206 255.734 104.206 236ZM118.522 236L120.109 236C120.117 246.964 129.032 255.885 140 255.885L140 257.477C128.156 257.477 118.522 247.844 118.522 236Z" fill="#BFBFBF"/>
<path d="M118.522 236L120.109 236C120.117 246.964 129.032 255.885 140 255.885L140 257.477C128.156 257.477 118.522 247.844 118.522 236ZM132.838 236L134.425 236C134.433 239.074 136.928 241.569 140 241.569L140 243.162C136.052 243.162 132.838 239.945 132.838 236Z" fill="#BFBFBF"/>
<path d="M132.838 236L134.425 236C134.433 239.074 136.928 241.569 140 241.569L140 243.162C136.052 243.162 132.838 239.945 132.838 236Z" fill="#BFBFBF"/>
</g>
<g clip-path="url(#clip1_2001_68582)">
<path d="M47.1961 364.59L48.5385 365.081C53.3078 366.816 58.2982 367.965 63.3676 368.496L64.0072 368.559L64.0783 369.201C64.3152 371.459 64.4336 373.748 64.4336 375.998L62.8465 375.998C62.8465 374.009 62.7517 371.997 62.5622 370.001C58.0534 369.478 53.6 368.488 49.3202 367.03C49.8493 369.977 50.1256 372.988 50.1256 375.99L48.5385 375.99C48.5385 372.623 48.1911 369.256 47.5041 365.976L47.2119 364.574L47.1961 364.59Z" fill="#182941"/>
<path d="M0.000111838 327.474L0.000111907 325.882C3.00857 325.882 6.01703 326.151 8.96232 326.682C7.50942 322.396 6.5145 317.952 5.99335 313.436C3.9956 313.246 1.98206 313.151 0.000112464 313.151L0.000112534 311.559C2.25054 311.559 4.54044 311.677 6.79876 311.915L7.43835 311.978L7.50942 312.62C8.03847 317.69 9.19132 322.681 10.9206 327.45L11.4102 328.797L10.0125 328.504C6.73559 327.815 3.3639 327.466 0.000111838 327.466L0.000111838 327.474Z" fill="#182941"/>
<path d="M0.000849982 341.791L0.000850051 340.198C7.13903 340.198 13.8034 342.298 19.394 345.918C15.28 340.697 11.9557 334.811 9.57897 328.418C6.43628 327.792 3.21461 327.467 0.000850608 327.467L0.000850677 325.875C3.47519 325.875 6.94953 326.231 10.337 326.944L10.7713 327.032L10.9213 327.452C17.2936 344.983 31.0014 358.696 48.5389 365.066L48.9574 365.216L49.0443 365.652C49.7549 369.035 50.1182 372.513 50.1182 375.99L48.531 375.99C48.531 372.774 48.2152 369.55 47.5835 366.413C41.1954 364.044 35.3049 360.717 30.0855 356.605C33.7019 362.198 35.8023 368.853 35.8023 375.998L34.2152 375.998C34.2152 357.136 18.8728 341.791 0.00874641 341.791L0.000849982 341.791Z" fill="#182941"/>
<path d="M0.000373145 356.115L0.000373215 354.522C11.8447 354.522 21.4781 364.156 21.4781 375.999L19.891 375.999C19.891 365.035 10.9682 356.115 0.000373145 356.115ZM0.000373771 341.799L0.00037384 340.207C19.7409 340.207 35.7939 356.265 35.7939 375.999L34.2068 375.999C34.2068 357.137 18.8644 341.791 0.000373771 341.791L0.000373771 341.799Z" fill="#182941"/>
<path d="M-0.000183801 370.431L-0.000183731 368.839C3.94793 368.839 7.16169 372.047 7.16169 376L5.57455 376C5.57455 372.927 3.07934 370.431 0.00771453 370.431L-0.000183801 370.431ZM-0.000183175 356.116L-0.000183105 354.523C11.8441 354.523 21.4775 364.157 21.4775 376L19.8904 376C19.8904 365.036 10.9677 356.116 -0.000183175 356.116Z" fill="#182941"/>
<path d="M-0.000739167 370.432L-0.000739098 368.84C3.94737 368.84 7.16113 372.048 7.16113 376.001L5.574 376.001C5.574 372.928 3.07879 370.432 0.00715869 370.432L-0.000739167 370.432Z" fill="#182941"/>
<path d="M5.56693 306L7.15407 306C7.15407 308.202 7.27251 310.428 7.5015 312.631C8.03054 317.701 9.18339 322.692 10.9127 327.461C17.2849 344.993 30.9928 358.706 48.5303 365.075C53.2996 366.81 58.29 367.959 63.3594 368.49C65.5624 368.72 67.797 368.838 69.9922 368.838L69.9922 370.431C67.7418 370.431 65.4519 370.312 63.1935 370.074C57.9978 369.528 52.8811 368.347 47.9854 366.573C30.0057 360.037 15.9505 345.983 9.42028 328.008C7.64363 323.112 6.46709 318.002 5.92226 312.797C5.68536 310.539 5.56692 308.25 5.56693 306ZM19.8828 306L21.4699 306C21.4699 332.753 43.2398 354.523 69.9922 354.523L69.9922 356.115C42.3554 356.115 19.8749 333.632 19.8749 306L19.8828 306Z" fill="#182941"/>
<path d="M19.8827 306L21.4698 306C21.4698 332.753 43.2397 354.523 69.9921 354.523L69.9921 356.115C42.3632 356.115 19.8748 333.632 19.8748 306L19.8827 306ZM34.1985 306L35.7857 306C35.7936 324.863 51.1359 340.208 70 340.208L70 341.8C50.2594 341.792 34.2064 325.734 34.2064 306L34.1985 306Z" fill="#182941"/>
<path d="M34.2064 306L35.7936 306C35.7936 324.863 51.1359 340.208 70 340.208L70 341.8C50.2594 341.792 34.2064 325.734 34.2064 306ZM48.5223 306L50.1094 306C50.1173 316.964 59.0321 325.885 70 325.885L70 327.477C58.1557 327.477 48.5223 317.844 48.5223 306Z" fill="#182941"/>
<path d="M48.5223 306L50.1094 306C50.1173 316.964 59.0321 325.885 70 325.885L70 327.477C58.1557 327.477 48.5223 317.844 48.5223 306ZM62.8381 306L64.4253 306C64.4332 309.074 66.9284 311.569 70 311.569L70 313.162C66.0519 313.162 62.8381 309.945 62.8381 306Z" fill="#182941"/>
<path d="M62.8381 306L64.4253 306C64.4332 309.074 66.9284 311.569 70 311.569L70 313.162C66.0519 313.162 62.8381 309.945 62.8381 306Z" fill="#182941"/>
</g>
<g clip-path="url(#clip2_2001_68582)">
<path d="M117.196 58.5901L118.539 59.0812C123.308 60.8162 128.298 61.9649 133.368 62.4957L134.007 62.5591L134.078 63.2007C134.315 65.4586 134.434 67.7481 134.434 69.9979L132.846 69.9979C132.846 68.0095 132.752 65.9973 132.562 64.0009C128.053 63.478 123.6 62.4878 119.32 61.0301C119.849 63.9771 120.126 66.9875 120.126 69.99L118.539 69.99C118.539 66.6231 118.191 63.2562 117.504 59.9764L117.212 58.5742L117.196 58.5901Z" fill="#2A96C5"/>
<path d="M70.0001 21.4742L70.0001 19.8818C73.0086 19.8818 76.017 20.1512 78.9623 20.682C77.5094 16.3961 76.5145 11.9518 75.9933 7.43614C73.9956 7.24601 71.9821 7.15094 70.0001 7.15094L70.0001 5.55859C72.2505 5.55859 74.5404 5.67743 76.7988 5.91509L77.4384 5.97847L77.5094 6.62016C78.0385 11.6903 79.1913 16.6813 80.9206 21.4504L81.4102 22.7972L80.0125 22.504C76.7356 21.8148 73.3639 21.4662 70.0001 21.4662L70.0001 21.4742Z" fill="#2A96C5"/>
<path d="M70.0008 35.7906L70.0009 34.1982C77.139 34.1982 83.8034 36.2976 89.394 39.918C85.28 34.6973 81.9557 28.8112 79.579 22.418C76.4363 21.7922 73.2146 21.4673 70.0009 21.4673L70.0009 19.875C73.4752 19.875 76.9495 20.2315 80.337 20.9445L80.7713 21.0316L80.9213 21.4515C87.2936 38.9832 101.001 52.6964 118.539 59.0658L118.957 59.2163L119.044 59.652C119.755 63.0348 120.118 66.5126 120.118 69.9904L118.531 69.9904C118.531 66.774 118.215 63.5497 117.583 60.4126C111.195 58.0439 105.305 54.7166 100.085 50.605C103.702 56.198 105.802 62.8526 105.802 69.9984L104.215 69.9984C104.215 51.1357 88.8728 35.7906 70.0087 35.7906L70.0008 35.7906Z" fill="#2A96C5"/>
<path d="M70.0004 50.1147L70.0004 48.5223C81.8447 48.5223 91.4781 58.1556 91.4781 69.9992L89.891 69.9992C89.891 59.035 80.9682 50.1147 70.0004 50.1147ZM70.0004 35.7994L70.0004 34.207C89.7409 34.207 105.794 50.2652 105.794 69.9992L104.207 69.9992C104.207 51.1366 88.8644 35.7915 70.0004 35.7915L70.0004 35.7994Z" fill="#2A96C5"/>
<path d="M69.9998 64.4311L69.9998 62.8387C73.9479 62.8387 77.1617 66.0472 77.1617 70.0004L75.5746 70.0004C75.5746 66.9266 73.0793 64.4311 70.0077 64.4311L69.9998 64.4311ZM69.9998 50.1158L69.9998 48.5234C81.8441 48.5234 91.4775 58.1568 91.4775 70.0004L89.8904 70.0004C89.8904 59.0361 80.9677 50.1158 69.9998 50.1158Z" fill="#2A96C5"/>
<path d="M69.9993 64.4322L69.9993 62.8398C73.9474 62.8398 77.1611 66.0483 77.1611 70.0015L75.574 70.0015C75.574 66.9277 73.0788 64.4322 70.0072 64.4322L69.9993 64.4322Z" fill="#2A96C5"/>
<path d="M75.5669 -2.81612e-06L77.1541 -2.74674e-06C77.1541 2.20235 77.2725 4.42847 77.5015 6.63083C78.0305 11.701 79.1834 16.6919 80.9127 21.4611C87.2849 38.9928 100.993 52.706 118.53 59.0754C123.3 60.8103 128.29 61.959 133.359 62.4898C135.562 62.7196 137.797 62.8384 139.992 62.8384L139.992 64.4307C137.742 64.4307 135.452 64.3119 133.194 64.0742C127.998 63.5276 122.881 62.3472 117.985 60.5727C100.006 54.0369 85.9505 39.983 79.4203 22.0077C77.6436 17.1118 76.4671 12.002 75.9223 6.79719C75.6854 4.53938 75.5669 2.24988 75.5669 -2.81612e-06ZM89.8828 -2.19035e-06L91.4699 -2.12098e-06C91.4699 26.7531 113.24 48.5231 139.992 48.5231L139.992 50.1154C112.355 50.1154 89.8749 27.6324 89.8749 -2.1907e-06L89.8828 -2.19035e-06Z" fill="#2A96C5"/>
<path d="M89.8827 -2.1907e-06L91.4698 -2.12132e-06C91.4698 26.7531 113.24 48.5231 139.992 48.5231L139.992 50.1154C112.363 50.1154 89.8748 27.6324 89.8748 -2.19104e-06L89.8827 -2.1907e-06ZM104.199 -1.56493e-06L105.786 -1.49556e-06C105.794 18.8626 121.136 34.2078 140 34.2078L140 35.8001C120.259 35.7922 104.206 19.734 104.206 -1.56459e-06L104.199 -1.56493e-06Z" fill="#2A96C5"/>
<path d="M104.206 -1.56459e-06L105.794 -1.49521e-06C105.794 18.8626 121.136 34.2078 140 34.2078L140 35.8001C120.259 35.7922 104.206 19.734 104.206 -1.56459e-06ZM118.522 -9.38821e-07L120.109 -8.69445e-07C120.117 10.9642 129.032 19.8846 140 19.8846L140 21.4769C128.156 21.4769 118.522 11.8436 118.522 -9.38821e-07Z" fill="#2A96C5"/>
<path d="M118.522 -9.38821e-07L120.109 -8.69445e-07C120.117 10.9642 129.032 19.8846 140 19.8846L140 21.4769C128.156 21.4769 118.522 11.8436 118.522 -9.38821e-07ZM132.838 -3.13055e-07L134.425 -2.43679e-07C134.433 3.07379 136.928 5.56926 140 5.56926L140 7.16161C136.052 7.16161 132.838 3.94522 132.838 -3.13055e-07Z" fill="#2A96C5"/>
<path d="M132.838 -3.13055e-07L134.425 -2.43679e-07C134.433 3.07379 136.928 5.56926 140 5.56926L140 7.16161C136.052 7.16161 132.838 3.94522 132.838 -3.13055e-07Z" fill="#2A96C5"/>
</g>
<defs>
<clipPath id="clip0_2001_68582">
<rect width="70" height="70" fill="white" transform="translate(140 236) rotate(90)"/>
</clipPath>
<clipPath id="clip1_2001_68582">
<rect width="70" height="70" fill="white" transform="translate(70 306) rotate(90)"/>
</clipPath>
<clipPath id="clip2_2001_68582">
<rect width="70" height="70" fill="white" transform="translate(140) rotate(90)"/>
</clipPath>
</defs>
</svg>
