<?xml version="1.0" encoding="UTF-8"?> <svg xmlns="http://www.w3.org/2000/svg" width="44" height="35" viewBox="0 0 44 35" fill="none"><g clip-path="url(#clip0_2078_68886)"><path d="M0 0.5H44V34.5H0V0.5Z" fill="#CC0000"></path><path d="M5.28076 13.0784L8.25072 3.89844L11.2207 13.0784L3.30078 7.46844H13.2007L5.28076 13.0784Z" fill="#FFDE00"></path><path d="M18.1615 4.07436L15.1051 4.77222L17.1438 2.32445L16.9439 5.61882L15.2477 2.70231L18.1615 4.07436Z" fill="#FFDE00"></path><path d="M21.2456 8.10214L18.1657 7.52403L20.9663 6.08255L19.5419 9.03915L19.0763 5.67316L21.2456 8.10214Z" fill="#FFDE00"></path><path d="M20.7967 13.754L18.2135 11.9319L21.3411 11.7926L18.8702 13.8936L19.7776 10.6247L20.7967 13.754Z" fill="#FFDE00"></path><path d="M16.9107 17.448L15.2109 14.7393L18.1481 15.8555L15.0813 16.8101L17.1437 14.1559L16.9107 17.448Z" fill="#FFDE00"></path></g><defs><clipPath id="clip0_2078_68886"><rect width="44" height="34" fill="white" transform="translate(0 0.5)"></rect></clipPath></defs></svg> 